<svg width="48" height="48" viewBox="0 0 48 48" fill="none" xmlns="http://www.w3.org/2000/svg">
<path d="M24 11.25C26.6914 11.25 28.875 13.4336 28.875 16.125V24.25C28.875 26.9414 26.6914 29.125 24 29.125C21.3086 29.125 19.125 26.9414 19.125 24.25V16.125C19.125 13.4336 21.3086 11.25 24 11.25ZM17.5 22.2188V24.25C17.5 27.8555 20.3945 30.75 24 30.75C27.5547 30.75 30.5 27.8555 30.5 24.25V22.2188C30.5 21.5586 31.0078 21 31.7188 21C32.3789 21 32.9375 21.5586 32.9375 22.2188V24.25C32.9375 28.8203 29.5352 32.5273 25.2188 33.1367V34.8125H27.6562C28.3164 34.8125 28.875 35.3711 28.875 36.0312C28.875 36.7422 28.3164 37.25 27.6562 37.25H24H20.3438C19.6328 37.25 19.125 36.7422 19.125 36.0312C19.125 35.3711 19.6328 34.8125 20.3438 34.8125H22.7812V33.1367C18.4141 32.5273 15.0625 28.8203 15.0625 24.25V22.2188C15.0625 21.5586 15.5703 21 16.2812 21C16.9414 21 17.5 21.5586 17.5 22.2188Z" fill="white"/>
</svg>
