<?xml version="1.0" encoding="UTF-8"?>
<!-- Generated by Pixelmator Pro 3.6.17 -->
<svg width="34" height="32" viewBox="0 0 34 32" xmlns="http://www.w3.org/2000/svg">
    <path id="Path" fill="#1474c4" stroke="none" d="M 27.221802 28.444401 L 6.7773 28.444401 C 4.572 28.444401 2.77734 26.649799 2.77734 24.444401 L 2.77734 7.5555 C 2.77734 5.350201 4.572 3.5555 6.7773 3.5555 L 12.7089 3.5555 C 13.526699 3.5555 14.3276 3.8871 14.9062 4.465801 L 17.5516 7.111099 L 27.221802 7.111099 C 29.427101 7.111099 31.221802 8.9058 31.221802 11.111099 L 31.221802 24.444401 C 31.221802 26.649799 29.427101 28.444401 27.221802 28.444401 Z"/>
    <path id="path1" fill="#ffffff" stroke="none" d="M 14.777599 12.111099 C 14.777599 13.092899 13.9816 13.888901 12.9998 13.888901 C 12.018 13.888901 11.222 13.092899 11.222 12.111099 C 11.222 11.129299 12.018 10.3333 12.9998 10.3333 C 13.9816 10.3333 14.777599 11.129299 14.777599 12.111099 Z M 14.9776 17.5818 C 14.312201 17.0107 13.8887 16.1658 13.8887 15.2222 C 13.8887 14.999599 13.913099 14.7827 13.958 14.573299 C 13.8633 14.5653 13.77 14.555599 13.666401 14.555599 L 12.333099 14.555599 C 9.8887 14.555599 9.8936 16.880501 9.889099 18.1049 C 9.889099 18.1071 9.8887 18.109301 9.8887 18.111099 L 9.8887 18.3333 C 9.8887 18.578699 10.087799 18.7778 10.333099 18.7778 L 13.0993 18.7778 C 13.520201 18.2302 14.118401 17.789301 14.9776 17.5818 Z M 20.9998 10.3333 C 20.018 10.3333 19.222 11.129299 19.222 12.111099 C 19.222 13.092899 20.018 13.888901 20.9998 13.888901 C 21.9816 13.888901 22.777599 13.092899 22.777599 12.111099 C 22.777599 11.129299 21.9816 10.3333 20.9998 10.3333 Z M 21.666401 14.555599 L 20.333099 14.555599 C 20.229601 14.555599 20.1367 14.5653 20.042 14.573299 C 20.086399 14.7827 20.1113 14.999599 20.1113 15.2222 C 20.1113 16.1658 19.687799 17.0107 19.0224 17.581301 C 19.8829 17.7889 20.4816 18.229799 20.902901 18.7778 L 23.666401 18.7778 C 23.9118 18.7778 24.110901 18.578699 24.110901 18.3333 L 24.110901 18.111099 C 24.110901 16.884001 24.110901 14.555599 21.666401 14.555599 Z M 17.8571 18.3333 L 16.1429 18.3333 C 13.0002 18.3333 13.006001 21.2698 13.0007 22.8165 C 13.0007 22.819099 12.9998 22.822201 12.9998 22.824499 L 12.9998 23.105301 C 12.9998 23.4156 13.2558 23.6667 13.571301 23.6667 L 20.428699 23.6667 C 20.7442 23.6667 21.0002 23.4151 21.0002 23.105301 L 21.0002 22.824499 C 21.0002 21.2742 20.9998 18.3333 17.8571 18.3333 Z M 16.9998 13 C 15.772699 13 14.777599 13.9951 14.777599 15.2222 C 14.777599 16.449301 15.772699 17.4445 16.9998 17.4445 C 18.2269 17.4445 19.222 16.449301 19.222 15.2222 C 19.222 13.9951 18.2269 13 16.9998 13 Z"/>
    <path id="path2" fill="#ffffff" stroke="#1474c4" stroke-width="0.8" d="M 22.975599 20.1849 L 22.9755 20.1849 L 22.193001 20.9676 C 22.173201 20.774 22.089199 20.5858 21.9408 20.437401 C 21.7691 20.265699 21.5769 20.126801 21.372 20.0207 C 21.5341 19.9874 21.6887 19.907801 21.8146 19.782 L 22.1936 19.402901 C 22.4091 19.1875 22.760401 19.187599 22.9755 19.402901 L 22.9757 19.403099 C 23.0807 19.5079 23.1376 19.645201 23.1376 19.7938 C 23.1376 19.9424 23.0807 20.0798 22.975599 20.1849 Z M 20.575001 18.5425 C 20.234501 18.883499 20.2328 19.434999 20.570999 19.7777 C 19.8971 19.701799 19.195999 19.9217 18.680099 20.437401 L 18.680099 20.4375 L 17.164301 21.9534 C 17.164301 21.953501 17.164301 21.953501 17.1642 21.953501 C 16.729 22.388599 16.488701 22.9692 16.488701 23.584 C 16.488701 24.198898 16.729 24.779499 17.1642 25.2145 C 17.614201 25.664398 18.205 25.888901 18.7945 25.888901 C 19.3839 25.888901 19.9753 25.664501 20.4251 25.214401 L 20.804001 24.835499 C 21.145 24.494499 21.146099 23.942801 20.808201 23.6001 C 20.8948 23.6099 20.981701 23.614799 21.0686 23.614799 C 21.658199 23.614799 22.249201 23.389999 22.698999 22.9405 L 22.6991 22.940399 L 24.214899 21.4244 C 24.214899 21.4244 24.214899 21.424299 24.215 21.424299 C 24.6502 20.9893 24.890499 20.408899 24.890499 19.7938 C 24.890499 19.1786 24.6502 18.5982 24.214899 18.1632 C 23.315599 17.264099 21.853399 17.264099 20.954201 18.1633 L 20.575199 18.542299 L 20.575001 18.5425 Z M 19.5646 23.5959 L 19.185699 23.9748 C 18.9699 24.190498 18.618601 24.190102 18.403799 23.9751 L 18.4034 23.974701 C 18.298599 23.870001 18.2416 23.732401 18.2416 23.584 C 18.2416 23.435699 18.298599 23.298 18.403601 23.1929 L 18.4037 23.1929 L 19.186199 22.4102 C 19.205999 22.6038 19.290001 22.792101 19.4384 22.940399 C 19.6101 23.112101 19.802401 23.250999 20.007401 23.357201 C 19.8452 23.3904 19.690599 23.4699 19.5646 23.5959 Z M 20.4356 21.529499 C 20.533199 21.552 20.6257 21.601 20.7013 21.676701 L 20.701401 21.6768 C 20.773899 21.7493 20.855801 21.8064 20.943199 21.848101 C 20.8458 21.825701 20.753401 21.7766 20.677799 21.701 C 20.6052 21.6285 20.5231 21.571301 20.4356 21.529499 Z"/>
</svg>
