<?xml version="1.0" encoding="utf-8"?>
<svg version="1.1" width="24" height="24" viewBox="0 0 24 24" xmlns="http://www.w3.org/2000/svg">
  <path d="M 13.5 3 C 8.529 3 4.5 7.029 4.5 12 L 1.5 12 L 5.5 16 L 9.5 12 L 6.5 12 C 6.5 8.134 9.634 5 13.5 5 C 17.366 5 20.5 8.134 20.5 12 C 20.5 15.866 17.366 19 13.5 19 C 12 19 10.59 18.5 9.44 17.7 L 8 19.14 C 9.54 20.3 11.44 21 13.5 21 C 18.471 21 22.5 16.971 22.5 12 C 22.5 7.029 18.471 3 13.5 3 M 15.5 12 C 15.5 10.895 14.605 10 13.5 10 C 12.395 10 11.5 10.895 11.5 12 C 11.5 13.105 12.395 14 13.5 14 C 14.605 14 15.5 13.105 15.5 12 Z"/>
</svg>