<svg width="96" height="96" viewBox="0 0 96 96" fill="none" xmlns="http://www.w3.org/2000/svg">
<g clip-path="url(#clip0_1_3)">
<path fill-rule="evenodd" clip-rule="evenodd" d="M16 16H40L48 24H80C84.4 24 88 27.6 88 32V72C88 76.4 84.4 80 80 80H16C11.6 80 8 76.4 8 72L8.04 24C8.04 19.6 11.6 16 16 16ZM38.9583 46.4042C35.8946 46.4042 33.4042 48.8946 33.4042 51.9583C33.4042 55.0221 35.8946 57.5125 38.9583 57.5125H46.125V60.9167H38.9583C34.0133 60.9167 30 56.9033 30 51.9583C30 47.0133 34.0133 43 38.9583 43H46.125V46.4042H38.9583ZM55.0833 53.75H40.75V50.1667H55.0833V53.75ZM49.7083 43H56.875C61.82 43 65.8333 47.0133 65.8333 51.9583C65.8333 56.9033 61.82 60.9167 56.875 60.9167H49.7083V57.5125H56.875C59.9388 57.5125 62.4292 55.0221 62.4292 51.9583C62.4292 48.8946 59.9388 46.4042 56.875 46.4042H49.7083V43Z" fill="#00679E"/>
</g>
<defs>
<clipPath id="clip0_1_3">
<rect width="96" height="96" fill="white"/>
</clipPath>
</defs>
</svg>
