<?xml version="1.0" encoding="UTF-8"?>
<svg xmlns="http://www.w3.org/2000/svg" xmlns:xlink="http://www.w3.org/1999/xlink" width="100px" height="px" viewBox="0 0 100 100" version="1.1">
<g id="surface1">
<path style=" stroke:none;fill-rule:nonzero;fill:rgb(85.882354%,88.627452%,90.980393%);fill-opacity:1;" d="M 100 50 C 100 22.386719 77.613281 0 50 0 C 22.386719 0 0 22.386719 0 50 C 0 77.613281 22.386719 100 50 100 C 77.613281 100 100 77.613281 100 50 Z M 100 50 "/>
<path style=" stroke:none;fill-rule:nonzero;fill:rgb(0%,10.588235%,25.490198%);fill-opacity:1;" d="M 58.332031 36.875 C 58.332031 33.957031 56.667969 31.25 54.167969 29.6875 C 51.5625 28.230469 48.332031 28.230469 45.832031 29.6875 C 43.230469 31.25 41.667969 33.957031 41.667969 36.875 C 41.667969 39.894531 43.230469 42.605469 45.832031 44.167969 C 48.332031 45.625 51.5625 45.625 54.167969 44.167969 C 56.667969 42.605469 58.332031 39.894531 58.332031 36.875 Z M 36.667969 36.875 C 36.667969 32.1875 39.167969 27.8125 43.332031 25.417969 C 47.394531 23.019531 52.5 23.019531 56.667969 25.417969 C 60.730469 27.8125 63.332031 32.1875 63.332031 36.875 C 63.332031 41.667969 60.730469 46.042969 56.667969 48.4375 C 52.5 50.832031 47.394531 50.832031 43.332031 48.4375 C 39.167969 46.042969 36.667969 41.667969 36.667969 36.875 Z M 31.769531 71.875 L 68.125 71.875 C 67.1875 65.3125 61.5625 60.207031 54.6875 60.207031 L 45.207031 60.207031 C 38.332031 60.207031 32.707031 65.3125 31.769531 71.875 Z M 26.667969 73.855469 C 26.667969 63.542969 34.894531 55.207031 45.207031 55.207031 L 54.6875 55.207031 C 65 55.207031 73.332031 63.542969 73.332031 73.855469 C 73.332031 75.519531 71.875 76.875 70.207031 76.875 L 29.6875 76.875 C 28.019531 76.875 26.667969 75.519531 26.667969 73.855469 Z M 26.667969 73.855469 "/>
</g>
</svg>
