<svg width="16" height="16" viewBox="0 0 16 16" fill="none" xmlns="http://www.w3.org/2000/svg">
<g clip-path="url(#clip0_7057_2634)">
<path d="M3.88614 15.3484C3.70037 15.3484 3.51548 15.2907 3.3577 15.176C3.06125 14.9604 2.9257 14.5911 3.01325 14.2351L4.02837 10.0773L0.762588 7.30977C0.483033 7.07244 0.375477 6.69422 0.48881 6.34577C0.602144 5.99733 0.911477 5.75422 1.27637 5.72711L5.54481 5.40755L7.16792 1.44666C7.30659 1.10755 7.63325 0.888885 7.99992 0.888885C8.36659 0.888885 8.69325 1.108 8.83192 1.44666L10.4546 5.40755L14.723 5.72711C15.0888 5.75466 15.3981 5.99733 15.511 6.34577C15.6239 6.69422 15.5168 7.07244 15.2373 7.30933L11.9715 10.0769L12.9866 14.2351C13.0737 14.5907 12.9386 14.96 12.6421 15.1756C12.3457 15.3911 11.9528 15.4062 11.6408 15.2129L7.99992 12.9622L4.35903 15.2129C4.21325 15.3031 4.04925 15.3484 3.88614 15.3484ZM4.23281 10.2502C4.23281 10.2502 4.23325 10.2502 4.2337 10.2507L4.23281 10.2502ZM11.7679 10.2498L11.767 10.2507C11.767 10.2507 11.7675 10.2507 11.7679 10.2498ZM4.09192 9.816C4.09192 9.816 4.09192 9.81689 4.09192 9.81777V9.816ZM11.9079 9.81511V9.81644C11.9079 9.81644 11.9079 9.81555 11.9079 9.81511Z" fill="#001B41"/>
</g>
<defs>
<clipPath id="clip0_7057_2634">
<rect width="16" height="16" fill="white"/>
</clipPath>
</defs>
</svg>
