<svg width="24" height="21" viewBox="0 0 24 21" fill="none" xmlns="http://www.w3.org/2000/svg">
<path d="M23.9937 10.4795C23.9937 11.2178 23.3687 11.7961 22.6603 11.7961H21.3268L21.356 18.3668C21.356 18.4775 21.3477 18.5883 21.3351 18.699V19.3594C21.3351 20.2658 20.5893 21 19.6683 21H19.0016C18.9558 21 18.9099 21 18.8641 20.9959C18.8058 21 18.7474 21 18.6891 21H17.3348H16.3347C15.4138 21 14.6679 20.2658 14.6679 19.3594V18.375V15.75C14.6679 15.024 14.072 14.4375 13.3345 14.4375H10.6676C9.93001 14.4375 9.33413 15.024 9.33413 15.75V18.375V19.3594C9.33413 20.2658 8.58823 21 7.66732 21H6.66723H5.33795C5.27545 21 5.21294 20.9959 5.15044 20.9918C5.10043 20.9959 5.05043 21 5.00043 21H4.3337C3.41279 21 2.66689 20.2658 2.66689 19.3594V14.7656C2.66689 14.7287 2.66689 14.6877 2.67106 14.6508V11.7961H1.33345C0.583383 11.7961 0 11.2219 0 10.4795C0 10.1104 0.125011 9.78223 0.416702 9.49512L11.1009 0.328125C11.3926 0.0410156 11.726 0 12.0177 0C12.3094 0 12.6427 0.0820312 12.8928 0.287109L23.5353 9.49512C23.8687 9.78223 24.0354 10.1104 23.9937 10.4795Z" fill="#465A75"/>
</svg>
