<svg width="32" height="32" viewBox="0 0 80 71" fill="none" xmlns="http://www.w3.org/2000/svg"><path d="M79.979 35.1037C79.979 37.5768 77.8955 39.514 75.5342 39.514H71.0894L71.1866 61.5242C71.1866 61.8952 71.1588 62.2662 71.1172 62.6371V64.8491C71.1172 67.8855 68.6308 70.3448 65.5611 70.3448H63.3387C63.1859 70.3448 63.0331 70.3448 62.8804 70.3311C62.6859 70.3448 62.4914 70.3448 62.297 70.3448H57.7827H54.4491C51.3794 70.3448 48.8931 67.8855 48.8931 64.8491V61.5517V52.7586C48.8931 50.3268 46.9068 48.3621 44.4482 48.3621H35.5586C33.1 48.3621 31.1138 50.3268 31.1138 52.7586V61.5517V64.8491C31.1138 67.8855 28.6274 70.3448 25.5577 70.3448H22.2241H17.7932C17.5848 70.3448 17.3765 70.3311 17.1681 70.3173C17.0014 70.3311 16.8348 70.3448 16.6681 70.3448H14.4457C11.376 70.3448 8.88965 67.8855 8.88965 64.8491V49.4612C8.88965 49.3376 8.88965 49.2002 8.90354 49.0765V39.514H4.44482C1.94461 39.514 0 37.5905 0 35.1037C0 33.8672 0.416702 32.768 1.38901 31.8063L37.0031 1.09914C37.9755 0.137392 39.0867 0 40.059 0C41.0313 0 42.1425 0.274784 42.9759 0.961746L78.4511 31.8063C79.5623 32.768 80.1179 33.8672 79.979 35.1037Z" fill="#919195" /></svg>