<?xml version="1.0" encoding="UTF-8"?>
<svg xmlns="http://www.w3.org/2000/svg" xmlns:xlink="http://www.w3.org/1999/xlink" width="30px" height="30px" viewBox="0 0 30 30" version="1.1">
<g id="surface1">
<path style=" stroke:none;fill-rule:nonzero;fill:rgb(43.921569%,43.921569%,43.921569%);fill-opacity:1;" d="M 27.851562 14.855469 C 27.851562 15.648438 27.179688 16.273438 26.421875 16.273438 L 24.992188 16.273438 L 25.023438 23.347656 C 25.023438 23.464844 25.015625 23.585938 25 23.703125 L 25 24.414062 C 25 25.390625 24.203125 26.183594 23.214844 26.183594 L 22.5 26.183594 C 22.453125 26.183594 22.402344 26.183594 22.355469 26.179688 C 22.292969 26.183594 22.230469 26.183594 22.167969 26.183594 L 19.644531 26.183594 C 18.65625 26.183594 17.859375 25.390625 17.859375 24.414062 L 17.859375 20.53125 C 17.859375 19.746094 17.21875 19.117188 16.429688 19.117188 L 13.574219 19.117188 C 12.78125 19.117188 12.144531 19.746094 12.144531 20.53125 L 12.144531 24.414062 C 12.144531 25.390625 11.34375 26.183594 10.359375 26.183594 L 7.863281 26.183594 C 7.796875 26.183594 7.726562 26.179688 7.660156 26.171875 C 7.609375 26.179688 7.554688 26.183594 7.5 26.183594 L 6.785156 26.183594 C 5.800781 26.183594 5 25.390625 5 24.414062 L 5 19.46875 C 5 19.429688 5 19.386719 5.003906 19.347656 L 5.003906 16.273438 L 3.570312 16.273438 C 2.769531 16.273438 2.144531 15.652344 2.144531 14.855469 C 2.144531 14.457031 2.277344 14.105469 2.589844 13.792969 L 14.035156 3.925781 C 14.347656 3.617188 14.707031 3.570312 15.019531 3.570312 C 15.332031 3.570312 15.6875 3.660156 15.957031 3.878906 L 27.359375 13.792969 C 27.714844 14.105469 27.894531 14.457031 27.851562 14.855469 Z M 27.851562 14.855469 "/>
</g>
</svg>
