<svg width="96" height="96" viewBox="0 0 96 96" fill="none" xmlns="http://www.w3.org/2000/svg">
<path d="M71.125 76V39H54.9375C51.0352 39 48 35.9648 48 32.0625V15.875H29.5C26.8984 15.875 24.875 18.043 24.875 20.5V76C24.875 78.6016 26.8984 80.625 29.5 80.625H66.5C68.957 80.625 71.125 78.6016 71.125 76ZM70.9805 34.375C70.8359 34.0859 70.6914 33.6523 70.4023 33.3633L53.6367 16.5977C53.3477 16.3086 52.9141 16.1641 52.625 16.0195V32.0625C52.625 33.3633 53.6367 34.375 54.9375 34.375H70.9805ZM20.25 20.5C20.25 15.4414 24.2969 11.25 29.5 11.25H52.0469C53.7812 11.25 55.6602 12.1172 56.9609 13.418L73.582 30.0391C74.8828 31.3398 75.75 33.2188 75.75 34.9531V76C75.75 81.2031 71.5586 85.25 66.5 85.25H29.5C24.2969 85.25 20.25 81.2031 20.25 76V20.5Z" fill="#001B41"/>
<g clip-path="url(#clip0_3422_11405)">
<path d="M33.75 44.875V71.125C33.75 72.2188 32.8906 73 31.875 73C30.7812 73 30 72.2188 30 71.125V44.875C30 43.8594 30.7812 43 31.875 43C32.8906 43 33.75 43.8594 33.75 44.875ZM64.375 59.4062L53.75 69.4062C52.9688 70.1094 51.7969 70.0312 51.0938 69.3281C50.3906 68.5469 50.3906 67.375 51.1719 66.6719L58.3594 59.875H51.875H41.875C40.7812 59.875 40 59.0938 40 58C40 56.9844 40.7812 56.125 41.875 56.125H51.875H58.3594L51.1719 49.4062C50.3906 48.7031 50.3906 47.5312 51.0938 46.75C51.7969 45.9688 52.9688 45.9688 53.75 46.6719L64.375 56.6719C64.7656 57.0625 65 57.5312 65 58C65 58.5469 64.7656 59.0156 64.375 59.4062Z" fill="#001B41"/>
</g>
<defs>
<clipPath id="clip0_3422_11405">
<rect width="38" height="38" fill="white" transform="translate(29 38)"/>
</clipPath>
</defs>
</svg>
