<svg width="84" height="84" viewBox="0 0 84 84" fill="none" xmlns="http://www.w3.org/2000/svg">
<path d="M60 12.75H19.5C18.2344 12.75 17.25 13.875 17.25 15V69C17.25 70.2656 18.2344 71.25 19.5 71.25H60C61.125 71.25 62.25 70.2656 62.25 69V15C62.25 13.875 61.125 12.75 60 12.75ZM19.5 6H60C64.9219 6 69 10.0781 69 15V69C69 74.0625 64.9219 78 60 78H19.5C14.4375 78 10.5 74.0625 10.5 69V15C10.5 10.0781 14.4375 6 19.5 6ZM39.75 42C36.5156 42 33.5625 40.3125 31.875 37.5C30.3281 34.8281 30.3281 31.3125 31.875 28.5C33.5625 25.8281 36.5156 24 39.75 24C42.8438 24 45.7969 25.8281 47.4844 28.5C49.0312 31.3125 49.0312 34.8281 47.4844 37.5C45.7969 40.3125 42.8438 42 39.75 42ZM35.25 46.5H44.25C50.4375 46.5 55.5 51.5625 55.5 57.75C55.5 59.0156 54.375 60 53.25 60H26.25C24.9844 60 24 59.0156 24 57.75C24 51.5625 28.9219 46.5 35.25 46.5ZM78 17.25V26.25C78 27.5156 76.875 28.5 75.75 28.5C74.4844 28.5 73.5 27.5156 73.5 26.25V17.25C73.5 16.125 74.4844 15 75.75 15C76.875 15 78 16.125 78 17.25ZM75.75 33C76.875 33 78 34.125 78 35.25V44.25C78 45.5156 76.875 46.5 75.75 46.5C74.4844 46.5 73.5 45.5156 73.5 44.25V35.25C73.5 34.125 74.4844 33 75.75 33ZM78 53.25V62.25C78 63.5156 76.875 64.5 75.75 64.5C74.4844 64.5 73.5 63.5156 73.5 62.25V53.25C73.5 52.125 74.4844 51 75.75 51C76.875 51 78 52.125 78 53.25Z" fill="#888888"/>
</svg>
