<svg width="24" height="24" viewBox="0 0 24 24" fill="none" xmlns="http://www.w3.org/2000/svg">
<path d="M4.5 6H1.5C0.675 6 0 5.325 0 4.5V1.5C0 0.675 0.675 0 1.5 0H4.5C5.325 0 6 0.675 6 1.5V4.5C6 5.325 5.325 6 4.5 6ZM13.5 6H10.5C9.675 6 9 5.325 9 4.5V1.5C9 0.675 9.675 0 10.5 0H13.5C14.325 0 15 0.675 15 1.5V4.5C15 5.325 14.325 6 13.5 6ZM22.5 6H19.5C18.675 6 18 5.325 18 4.5V1.5C18 0.675 18.675 0 19.5 0H22.5C23.325 0 24 0.675 24 1.5V4.5C24 5.325 23.325 6 22.5 6ZM4.5 15H1.5C0.675 15 0 14.325 0 13.5V10.5C0 9.675 0.675 9 1.5 9H4.5C5.325 9 6 9.675 6 10.5V13.5C6 14.325 5.325 15 4.5 15ZM13.5 15H10.5C9.675 15 9 14.325 9 13.5V10.5C9 9.675 9.675 9 10.5 9H13.5C14.325 9 15 9.675 15 10.5V13.5C15 14.325 14.325 15 13.5 15ZM22.5 15H19.5C18.675 15 18 14.325 18 13.5V10.5C18 9.675 18.675 9 19.5 9H22.5C23.325 9 24 9.675 24 10.5V13.5C24 14.325 23.325 15 22.5 15ZM4.5 24H1.5C0.675 24 0 23.325 0 22.5V19.5C0 18.675 0.675 18 1.5 18H4.5C5.325 18 6 18.675 6 19.5V22.5C6 23.325 5.325 24 4.5 24ZM13.5 24H10.5C9.675 24 9 23.325 9 22.5V19.5C9 18.675 9.675 18 10.5 18H13.5C14.325 18 15 18.675 15 19.5V22.5C15 23.325 14.325 24 13.5 24ZM22.5 24H19.5C18.675 24 18 23.325 18 22.5V19.5C18 18.675 18.675 18 19.5 18H22.5C23.325 18 24 18.675 24 19.5V22.5C24 23.325 23.325 24 22.5 24Z" fill="#001B41"/>
</svg>
