<svg width="96" height="96" viewBox="0 0 96 96" fill="none" xmlns="http://www.w3.org/2000/svg">
<path d="M13 23V73C13 75.8125 15.1875 78 18 78H78C80.6562 78 83 75.8125 83 73V33C83 30.3438 80.6562 28 78 28H53.4688C50.8125 28 48.3125 27.0625 46.4375 25.1875L40.8125 19.5625C39.875 18.625 38.625 18 37.375 18H18C15.1875 18 13 20.3438 13 23ZM18 13H37.375C40.0312 13 42.5312 14.0938 44.4062 15.9688L50.0312 21.5938C50.9688 22.5312 52.2188 23 53.4688 23H78C83.4688 23 88 27.5312 88 33V73C88 78.625 83.4688 83 78 83H18C12.375 83 8 78.625 8 73V23C8 17.5312 12.375 13 18 13ZM45.5 40.5C41.9062 40.5 38.625 42.5312 36.75 45.5C35.0312 48.625 35.0312 52.5312 36.75 55.5C38.625 58.625 41.9062 60.5 45.5 60.5C48.9375 60.5 52.2188 58.625 54.0938 55.5C55.8125 52.5312 55.8125 48.625 54.0938 45.5C52.2188 42.5312 48.9375 40.5 45.5 40.5ZM45.5 65.5C37.2188 65.5 30.5 58.7812 30.5 50.5C30.5 42.2188 37.2188 35.5 45.5 35.5C53.7812 35.5 60.5 42.2188 60.5 50.5C60.5 53.7812 59.4062 56.75 57.6875 59.25L64.7188 66.2812C65.6562 67.2188 65.6562 68.9375 64.7188 69.875C63.7812 70.8125 62.0625 70.8125 61.125 69.875L54.0938 62.8438C51.5938 64.5625 48.625 65.5 45.5 65.5Z" fill="#001B41"/>
</svg>
