<svg width="16" height="16" viewBox="0 0 16 16" fill="none" xmlns="http://www.w3.org/2000/svg">
<path d="M13.3331 14.2223H2.66645C1.68601 14.2223 0.888672 13.4249 0.888672 12.4445V3.55561C0.888672 2.57517 1.68601 1.77783 2.66645 1.77783H6.07667C6.42734 1.77783 6.77045 1.92005 7.01801 2.16761L8.406 3.55561H13.3331C14.3136 3.55561 15.1109 4.35294 15.1109 5.33339V12.4445C15.1109 13.4249 14.3136 14.2223 13.3331 14.2223ZM2.66645 2.66672C2.17623 2.66672 1.77756 3.06539 1.77756 3.55561V12.4445C1.77756 12.9347 2.17623 13.3334 2.66645 13.3334H13.3331C13.8233 13.3334 14.222 12.9347 14.222 12.4445V5.33339C14.222 4.84317 13.8233 4.4445 13.3331 4.4445H8.406C8.17223 4.4445 7.94334 4.34983 7.778 4.1845L6.39 2.7965C6.30734 2.71428 6.19356 2.66672 6.07712 2.66672H2.66645Z" fill="#001B41"/>
<g clip-path="url(#clip0_7603_2784)">
<path d="M11.4252 11.7968L9.47345 9.845C9.80322 9.38811 9.99989 8.82878 9.99989 8.22234C9.99989 6.68789 8.75634 5.44434 7.22211 5.44434C5.68789 5.44434 4.44434 6.68789 4.44434 8.22211C4.44434 9.75634 5.68789 10.9999 7.22211 10.9999C7.82856 10.9999 8.38811 10.8032 8.84478 10.4734L10.7968 12.4254C10.8837 12.5121 10.9972 12.5557 11.111 12.5557C11.2248 12.5557 11.3383 12.5123 11.4252 12.4254C11.5988 12.2519 11.5988 11.9706 11.4252 11.7968ZM5.33322 8.22211C5.33322 7.18056 6.18056 6.33322 7.22211 6.33322C8.26367 6.33322 9.111 7.18056 9.111 8.22211C9.111 9.26367 8.26367 10.111 7.22211 10.111C6.18056 10.111 5.33322 9.26367 5.33322 8.22211Z" fill="#001B41"/>
</g>
<defs>
<clipPath id="clip0_7603_2784">
<rect width="8" height="8" fill="white" transform="translate(4 5)"/>
</clipPath>
</defs>
</svg>
