<svg width="48" height="48" viewBox="0 0 48 48" fill="none" xmlns="http://www.w3.org/2000/svg">
<path d="M13.125 16.125C13.125 15.2617 13.8359 14.5 14.75 14.5H34.25C35.1133 14.5 35.875 15.2617 35.875 16.125C35.875 17.0391 35.1133 17.75 34.25 17.75H14.75C13.8359 17.75 13.125 17.0391 13.125 16.125ZM13.125 24.25C13.125 23.3867 13.8359 22.625 14.75 22.625H27.75C28.6133 22.625 29.375 23.3867 29.375 24.25C29.375 25.1641 28.6133 25.875 27.75 25.875H14.75C13.8359 25.875 13.125 25.1641 13.125 24.25ZM22.875 32.375C22.875 33.2891 22.1133 34 21.25 34H14.75C13.8359 34 13.125 33.2891 13.125 32.375C13.125 31.5117 13.8359 30.75 14.75 30.75H21.25C22.1133 30.75 22.875 31.5117 22.875 32.375Z" fill="white"/>
</svg>
