<svg width="48" height="48" viewBox="0 0 48 48" fill="none" xmlns="http://www.w3.org/2000/svg">
<path d="M15.6562 1.6875C16.125 0.65625 17.1562 0 18.2812 0H29.625C30.75 0 31.7812 0.65625 32.25 1.6875L33 3H42C43.5938 3 45 4.40625 45 6C45 7.6875 43.5938 9 42 9H6C4.3125 9 3 7.6875 3 6C3 4.40625 4.3125 3 6 3H15L15.6562 1.6875ZM6 12H42V42C42 45.375 39.2812 48 36 48H12C8.625 48 6 45.375 6 42V12ZM15 18C14.1562 18 13.5 18.75 13.5 19.5V40.5C13.5 41.3438 14.1562 42 15 42C15.75 42 16.5 41.3438 16.5 40.5V19.5C16.5 18.75 15.75 18 15 18ZM24 18C23.1562 18 22.5 18.75 22.5 19.5V40.5C22.5 41.3438 23.1562 42 24 42C24.75 42 25.5 41.3438 25.5 40.5V19.5C25.5 18.75 24.75 18 24 18ZM33 18C32.1562 18 31.5 18.75 31.5 19.5V40.5C31.5 41.3438 32.1562 42 33 42C33.75 42 34.5 41.3438 34.5 40.5V19.5C34.5 18.75 33.75 18 33 18Z" fill="#001B41"/>
</svg>
