<svg width="48" height="48" viewBox="0 0 48 48" fill="none" xmlns="http://www.w3.org/2000/svg">
<circle cx="24" cy="24" r="16" fill="#1474C4"/>
<path d="M21.2224 17.8889C21.2224 19.1161 20.2274 20.1111 19.0002 20.1111C17.773 20.1111 16.778 19.1161 16.778 17.8889C16.778 16.6617 17.773 15.6667 19.0002 15.6667C20.2274 15.6667 21.2224 16.6617 21.2224 17.8889ZM21.4724 24.7272C20.6408 24.0134 20.1113 22.9572 20.1113 21.7778C20.1113 21.4995 20.1419 21.2284 20.198 20.9667C20.0797 20.9567 19.963 20.9445 19.8336 20.9445H18.1669C15.1113 20.9445 15.1174 23.8506 15.1119 25.3811C15.1119 25.3839 15.1113 25.3867 15.1113 25.3889V25.6667C15.1113 25.9734 15.3602 26.2222 15.6669 26.2222H19.1247C19.6508 25.5378 20.3986 24.9867 21.4724 24.7272ZM29.0002 15.6667C27.773 15.6667 26.778 16.6617 26.778 17.8889C26.778 19.1161 27.773 20.1111 29.0002 20.1111C30.2274 20.1111 31.2224 19.1161 31.2224 17.8889C31.2224 16.6617 30.2274 15.6667 29.0002 15.6667ZM29.8336 20.9445H28.1669C28.0374 20.9445 27.9213 20.9567 27.803 20.9667C27.8586 21.2284 27.8897 21.4995 27.8897 21.7778C27.8897 22.9572 27.3602 24.0134 26.5286 24.7267C27.6041 24.9861 28.3524 25.5372 28.8791 26.2222H32.3336C32.6402 26.2222 32.8891 25.9734 32.8891 25.6667V25.3889C32.8891 23.855 32.8891 20.9445 29.8336 20.9445ZM25.0719 25.6667H22.9291C19.0008 25.6667 19.008 29.3372 19.0013 31.2706C19.0013 31.2739 19.0002 31.2778 19.0002 31.2806V31.6317C19.0002 32.0195 19.3202 32.3334 19.7147 32.3334H28.2863C28.6808 32.3334 29.0008 32.0189 29.0008 31.6317V31.2806C29.0008 29.3428 29.0002 25.6667 25.0719 25.6667ZM24.0002 19C22.4663 19 21.2224 20.2439 21.2224 21.7778C21.2224 23.3117 22.4663 24.5556 24.0002 24.5556C25.5341 24.5556 26.778 23.3117 26.778 21.7778C26.778 20.2439 25.5341 19 24.0002 19Z" fill="white"/>
</svg>
