<svg width="96" height="96" viewBox="0 0 96 96" fill="none" xmlns="http://www.w3.org/2000/svg">
<path d="M13 23V73C13 75.8125 15.1875 78 18 78H78C80.6562 78 83 75.8125 83 73V33C83 30.3438 80.6562 28 78 28H53.4688C50.8125 28 48.3125 27.0625 46.4375 25.1875L40.8125 19.5625C39.875 18.625 38.625 18 37.375 18H18C15.1875 18 13 20.3438 13 23ZM18 13H37.375C40.0312 13 42.5312 14.0938 44.4062 15.9688L50.0312 21.5938C50.9688 22.5312 52.2188 23 53.4688 23H78C83.4688 23 88 27.5312 88 33V73C88 78.625 83.4688 83 78 83H18C12.375 83 8 78.625 8 73V23C8 17.5312 12.375 13 18 13ZM45.5 68V55.5H33C31.5938 55.5 30.5 54.4062 30.5 53C30.5 51.75 31.5938 50.5 33 50.5H45.5V38C45.5 36.75 46.5938 35.5 48 35.5C49.25 35.5 50.5 36.75 50.5 38V50.5H63C64.25 50.5 65.5 51.75 65.5 53C65.5 54.4062 64.25 55.5 63 55.5H50.5V68C50.5 69.4062 49.25 70.5 48 70.5C46.5938 70.5 45.5 69.4062 45.5 68Z" fill="#001B41"/>
</svg>
