<?xml version="1.0" encoding="UTF-8"?>
<!-- Generated by Pixelmator Pro 3.6.17 -->
<svg width="34" height="32" viewBox="0 0 34 32" xmlns="http://www.w3.org/2000/svg">
    <path id="Path" fill="#1474c4" stroke="none" d="M 27.221802 28.444401 L 6.7773 28.444401 C 4.572 28.444401 2.77734 26.649799 2.77734 24.444401 L 2.77734 7.5555 C 2.77734 5.350201 4.572 3.5555 6.7773 3.5555 L 12.7089 3.5555 C 13.526699 3.5555 14.3276 3.8871 14.9062 4.465801 L 17.5516 7.111099 L 27.221802 7.111099 C 29.427101 7.111099 31.221802 8.9058 31.221802 11.111099 L 31.221802 24.444401 C 31.221802 26.649799 29.427101 28.444401 27.221802 28.444401 Z"/>
    <path id="path1" fill="#ffffff" stroke="none" d="M 23.2222 23.7778 L 23.2222 24.222198 C 23.2222 24.713299 22.824499 25.111099 22.3333 25.111099 L 11.666201 25.111099 C 11.1751 25.111099 10.7773 24.713299 10.7773 24.222198 L 10.7773 23.7778 C 10.7773 23.7738 10.7787 23.7689 10.7787 23.7649 C 10.7871 21.316 13.216499 19.3333 15.6667 19.3333 L 18.3333 19.3333 C 20.788 19.3333 23.2222 21.323099 23.2222 23.7778 Z M 17 18 C 18.9636 18 20.555599 16.408001 20.555599 14.444401 C 20.555599 12.4809 18.9636 10.888901 17 10.888901 C 15.036501 10.888901 13.4445 12.4809 13.4445 14.444401 C 13.4445 16.408001 15.036501 18 17 18 Z"/>
</svg>
