<svg width="54" height="48" viewBox="0 0 54 48" fill="none" xmlns="http://www.w3.org/2000/svg">
<path d="M33 12V18H34.5C38.625 18 42 21.375 42 25.5V40.5C42 44.7187 38.625 48 34.5 48H7.5C3.28125 48 0 44.7187 0 40.5V25.5C0 21.375 3.28125 18 7.5 18H30V12C30 5.4375 35.3438 0 42 0C48.5625 0 54 5.4375 54 12V19.5C54 20.3437 53.25 21 52.5 21C51.6562 21 51 20.3437 51 19.5V12C51 7.03125 46.9688 3 42 3C37.0312 3 33 7.03125 33 12ZM31.5 21H7.5C4.96875 21 3 23.0625 3 25.5V40.5C3 43.0312 4.96875 45 7.5 45H34.5C36.9375 45 39 43.0312 39 40.5V25.5C39 23.0625 36.9375 21 34.5 21H31.5Z" fill="#1474C4"/>
</svg>
