<svg fill="#000000" xmlns="http://www.w3.org/2000/svg"  viewBox="0 0 50 50" width="50px" height="50px"><path d="M 19.875 4.40625 C 15.203125 4.492188 12.21875 6.378906 10.9375 9.3125 C 9.714844 12.105469 9.988281 15.632813 10.875 19.28125 C 10.398438 19.839844 10.019531 20.589844 10.15625 21.71875 C 10.304688 22.949219 10.644531 23.824219 11.125 24.4375 C 11.390625 24.773438 11.738281 24.804688 12.0625 24.96875 C 12.238281 26.015625 12.53125 27.0625 12.96875 27.9375 C 13.21875 28.441406 13.503906 28.90625 13.78125 29.28125 C 13.90625 29.449219 14.085938 29.546875 14.21875 29.6875 C 14.226563 30.921875 14.230469 31.949219 14.125 33.25 C 13.800781 34.035156 13.042969 34.667969 11.8125 35.28125 C 10.542969 35.914063 8.890625 36.5 7.21875 37.21875 C 5.546875 37.9375 3.828125 38.8125 2.46875 40.1875 C 1.109375 41.5625 0.148438 43.449219 0 45.9375 L -0.0625 47 L 40.0625 47 L 40 45.9375 C 39.894531 44.207031 39.40625 42.773438 38.65625 41.59375 L 50.0625 41.59375 L 50 40.53125 C 49.871094 38.402344 49.039063 36.746094 47.875 35.5625 C 46.710938 34.378906 45.253906 33.640625 43.84375 33.03125 C 42.433594 32.421875 41.050781 31.964844 40 31.4375 C 38.984375 30.929688 38.410156 30.417969 38.15625 29.8125 C 38.074219 28.761719 38.054688 27.90625 38.0625 26.90625 C 38.160156 26.796875 38.316406 26.71875 38.40625 26.59375 C 38.644531 26.265625 38.882813 25.867188 39.09375 25.4375 C 39.449219 24.707031 39.691406 23.84375 39.84375 22.96875 C 40.105469 22.824219 40.382813 22.800781 40.59375 22.53125 C 41.023438 21.984375 41.308594 21.242188 41.4375 20.1875 L 41.4375 20.15625 C 41.546875 19.242188 41.25 18.628906 40.875 18.125 C 41.289063 16.769531 41.796875 14.632813 41.625 12.40625 C 41.527344 11.179688 41.21875 9.941406 40.46875 8.90625 C 39.757813 7.921875 38.59375 7.199219 37.125 6.9375 C 36.171875 5.878906 34.667969 5.40625 32.90625 5.40625 C 30.480469 5.449219 28.597656 6.050781 27.21875 7.125 C 26.589844 6.734375 25.855469 6.449219 25.03125 6.28125 C 23.980469 4.917969 22.089844 4.40625 19.90625 4.40625 Z M 19.90625 6.40625 C 19.917969 6.40625 19.925781 6.40625 19.9375 6.40625 C 21.949219 6.414063 23.253906 7.003906 23.625 7.65625 L 23.875 8.0625 L 24.34375 8.125 C 25.734375 8.316406 26.53125 8.878906 27.09375 9.65625 C 27.65625 10.433594 27.96875 11.519531 28.0625 12.71875 C 28.25 15.117188 27.558594 17.910156 27.125 19.21875 L 26.875 20 L 27.5625 20.40625 C 27.519531 20.378906 27.945313 20.667969 27.84375 21.5 C 27.726563 22.480469 27.492188 22.988281 27.3125 23.21875 C 27.132813 23.449219 27.039063 23.4375 27.03125 23.4375 L 26.1875 23.5 L 26.09375 24.3125 C 26 25.179688 25.652344 26.234375 25.25 27.0625 C 25.046875 27.476563 24.839844 27.839844 24.65625 28.09375 C 24.472656 28.347656 24.277344 28.488281 24.375 28.4375 L 23.84375 28.71875 L 23.84375 29.3125 C 23.84375 30.761719 23.785156 31.949219 23.9375 33.625 L 23.9375 33.75 L 24 33.875 C 24.570313 35.410156 25.890625 36.367188 27.34375 37.09375 C 28.796875 37.820313 30.464844 38.355469 32.03125 39.03125 C 33.371094 39.609375 34.597656 40.296875 35.59375 41.15625 C 35.597656 41.160156 35.589844 41.183594 35.59375 41.1875 C 35.640625 41.234375 35.695313 41.277344 35.75 41.3125 C 35.8125 41.386719 35.886719 41.449219 35.96875 41.5 C 35.972656 41.503906 35.996094 41.496094 36 41.5 C 36.03125 41.53125 36.0625 41.5625 36.09375 41.59375 C 36.9375 42.449219 37.46875 43.582031 37.75 45 L 2.25 45 C 2.53125 43.585938 3.058594 42.449219 3.90625 41.59375 C 4.972656 40.515625 6.425781 39.707031 8 39.03125 C 9.574219 38.355469 11.230469 37.820313 12.6875 37.09375 C 14.144531 36.367188 15.492188 35.410156 16.0625 33.875 L 16.125 33.625 C 16.277344 31.949219 16.21875 30.761719 16.21875 29.3125 L 16.21875 28.71875 L 15.6875 28.4375 C 15.777344 28.484375 15.5625 28.347656 15.375 28.09375 C 15.1875 27.839844 14.957031 27.476563 14.75 27.0625 C 14.335938 26.234375 13.996094 25.167969 13.90625 24.3125 L 13.8125 23.5 L 12.96875 23.4375 C 12.960938 23.4375 12.867188 23.449219 12.6875 23.21875 C 12.507813 22.988281 12.273438 22.480469 12.15625 21.5 C 12.058594 20.667969 12.480469 20.378906 12.4375 20.40625 L 13.09375 20 L 12.90625 19.28125 C 11.964844 15.65625 11.800781 12.363281 12.78125 10.125 C 13.757813 7.894531 15.75 6.492188 19.90625 6.40625 Z M 32.90625 7.40625 C 32.917969 7.40625 32.925781 7.40625 32.9375 7.40625 C 34.601563 7.414063 35.640625 7.90625 35.90625 8.375 L 36.15625 8.78125 L 36.625 8.875 C 37.761719 9.03125 38.394531 9.441406 38.84375 10.0625 C 39.292969 10.683594 39.546875 11.570313 39.625 12.5625 C 39.78125 14.546875 39.203125 16.910156 38.84375 18 L 38.59375 18.75 L 39.28125 19.15625 C 39.191406 19.101563 39.546875 19.292969 39.46875 19.9375 C 39.371094 20.746094 39.160156 21.148438 39.03125 21.3125 C 38.902344 21.476563 38.871094 21.441406 38.90625 21.4375 L 38.0625 21.5 L 38 22.3125 C 37.925781 23.015625 37.613281 23.878906 37.28125 24.5625 C 37.113281 24.902344 36.960938 25.203125 36.8125 25.40625 C 36.722656 25.527344 36.660156 25.617188 36.625 25.65625 L 36.59375 25.65625 C 36.589844 25.660156 36.59375 25.6875 36.59375 25.6875 L 36.0625 25.9375 L 36.0625 26.53125 C 36.0625 27.746094 36.027344 28.765625 36.15625 30.1875 L 36.15625 30.3125 L 36.21875 30.4375 C 36.722656 31.785156 37.886719 32.597656 39.125 33.21875 C 40.363281 33.839844 41.75 34.308594 43.0625 34.875 C 44.375 35.441406 45.566406 36.085938 46.4375 36.96875 C 47.09375 37.636719 47.503906 38.523438 47.75 39.59375 L 36.875 39.59375 C 35.644531 38.550781 34.222656 37.828125 32.8125 37.21875 C 31.148438 36.5 29.515625 35.914063 28.25 35.28125 C 27.035156 34.671875 26.269531 34.054688 25.9375 33.28125 C 25.828125 31.964844 25.835938 30.933594 25.84375 29.6875 C 25.972656 29.546875 26.160156 29.449219 26.28125 29.28125 C 26.554688 28.902344 26.816406 28.441406 27.0625 27.9375 C 27.488281 27.0625 27.796875 26.011719 27.96875 24.96875 C 28.28125 24.804688 28.617188 24.765625 28.875 24.4375 C 29.355469 23.824219 29.695313 22.949219 29.84375 21.71875 C 29.976563 20.625 29.609375 19.902344 29.15625 19.34375 C 29.644531 17.757813 30.269531 15.195313 30.0625 12.5625 C 29.949219 11.125 29.582031 9.691406 28.71875 8.5 C 28.714844 8.492188 28.722656 8.476563 28.71875 8.46875 C 29.660156 7.84375 31 7.445313 32.90625 7.40625 Z"/></svg>