<?xml version="1.0" encoding="UTF-8" standalone="no"?>
<svg
   width="32"
   height="32"
   viewBox="0 0 32 32"
   fill="none"
   version="1.1"
   id="svg2"
   sodipodi:docname="Folder_user_plus_icon.svg"
   inkscape:version="1.3.2 (091e20e, 2023-11-25)"
   xmlns:inkscape="http://www.inkscape.org/namespaces/inkscape"
   xmlns:sodipodi="http://sodipodi.sourceforge.net/DTD/sodipodi-0.dtd"
   xmlns="http://www.w3.org/2000/svg"
   xmlns:svg="http://www.w3.org/2000/svg">
  <defs
     id="defs2" />
  <sodipodi:namedview
     id="namedview2"
     pagecolor="#ffffff"
     bordercolor="#000000"
     borderopacity="0.25"
     inkscape:showpageshadow="2"
     inkscape:pageopacity="0.0"
     inkscape:pagecheckerboard="0"
     inkscape:deskcolor="#d1d1d1"
     inkscape:zoom="7.375"
     inkscape:cx="15.932203"
     inkscape:cy="16"
     inkscape:window-width="1312"
     inkscape:window-height="1051"
     inkscape:window-x="50"
     inkscape:window-y="38"
     inkscape:window-maximized="0"
     inkscape:current-layer="svg2" />
  <path
     id="path1"
     d="M 7 5.5 C 5.3125017 5.5 4 6.8593816 4 8.5 L 4 23.5 C 4 25.187498 5.3125017 26.5 7 26.5 L 25 26.5 C 26.640598 26.5 28 25.187498 28 23.5 L 28 11.5 C 28 9.8593816 26.640598 8.5 25 8.5 L 17.5 8.5 C 16.984401 8.5 16.56255 8.3124996 16.28125 7.9375 L 15.390625 6.71875 C 14.828126 5.9687507 13.937499 5.5 13 5.5 L 7 5.5 z M 14.117188 12.263672 C 14.549325 12.263672 14.9844 12.376913 15.375 12.601562 C 16.136699 13.050762 16.625 13.871101 16.625 14.75 C 16.625 15.648399 16.136699 16.468769 15.375 16.917969 C 14.593801 17.367168 13.636699 17.367168 12.875 16.917969 C 12.093801 16.468769 11.625 15.648399 11.625 14.75 C 11.625 13.871101 12.093801 13.050762 12.875 12.601562 C 13.25585 12.376913 13.68505 12.263672 14.117188 12.263672 z M 20.0625 14.4375 C 20.3164 14.4375 20.53125 14.65235 20.53125 14.90625 L 20.53125 16.15625 L 21.78125 16.15625 C 22.03525 16.15625 22.25 16.3711 22.25 16.625 C 22.25 16.8984 22.03525 17.09375 21.78125 17.09375 L 20.53125 17.09375 L 20.53125 18.34375 C 20.53125 18.61715 20.3164 18.8125 20.0625 18.8125 C 19.7891 18.8125 19.59375 18.61715 19.59375 18.34375 L 19.59375 17.09375 L 18.34375 17.09375 C 18.07025 17.09375 17.875 16.8984 17.875 16.625 C 17.875 16.3711 18.07025 16.15625 18.34375 16.15625 L 19.59375 16.15625 L 19.59375 14.90625 C 19.59375 14.65235 19.7891 14.4375 20.0625 14.4375 z M 13.226562 18.1875 L 15.003906 18.1875 C 16.937504 18.1875 18.5 19.749996 18.5 21.683594 C 18.5 21.996093 18.226562 22.25 17.914062 22.25 L 10.316406 22.25 C 10.003907 22.25 9.75 21.996093 9.75 21.683594 C 9.75 19.749996 11.292964 18.1875 13.226562 18.1875 z "
     style="fill:#1474c4;fill-opacity:1" />
</svg>
