<svg width="96" height="96" viewBox="0 0 96 96" fill="none" xmlns="http://www.w3.org/2000/svg">
<g clip-path="url(#clip0_1_66)">
<path fill-rule="evenodd" clip-rule="evenodd" d="M16 16H40L48 24H80C84.4 24 88 27.6 88 32V72C88 76.4 84.4 80 80 80H16C11.6 80 8 76.4 8 72L8.04 24C8.04 19.6 11.6 16 16 16ZM60.25 45.1667C60.25 49.1263 57.0429 52.3333 53.0833 52.3333C49.1238 52.3333 45.9167 49.1263 45.9167 45.1667C45.9167 41.2071 49.1238 38 53.0833 38C57.0429 38 60.25 41.2071 60.25 45.1667ZM36.9583 43.375V48.75H42.3333V52.3333H36.9583V57.7083H33.375V52.3333H28V48.75H33.375V43.375H36.9583ZM38.75 63.0833C38.75 58.3175 48.2996 55.9167 53.0833 55.9167C57.8671 55.9167 67.4167 58.3175 67.4167 63.0833V66.6667H38.75V63.0833Z" fill="#00679E"/>
</g>
<defs>
<clipPath id="clip0_1_66">
<rect width="96" height="96" fill="white"/>
</clipPath>
</defs>
</svg>
