<?xml version="1.0" encoding="UTF-8" standalone="no"?>
<svg
   width="32"
   height="28"
   viewBox="0 0 32 28"
   fill="none"
   version="1.1"
   id="svg2"
   sodipodi:docname="folder_shared_icon_light_mode.svg"
   inkscape:version="1.3.2 (091e20e, 2023-11-25)"
   xmlns:inkscape="http://www.inkscape.org/namespaces/inkscape"
   xmlns:sodipodi="http://sodipodi.sourceforge.net/DTD/sodipodi-0.dtd"
   xmlns="http://www.w3.org/2000/svg"
   xmlns:svg="http://www.w3.org/2000/svg">
  <defs
     id="defs2" />
  <sodipodi:namedview
     id="namedview2"
     pagecolor="#ffffff"
     bordercolor="#000000"
     borderopacity="0.25"
     inkscape:showpageshadow="2"
     inkscape:pageopacity="0.0"
     inkscape:pagecheckerboard="0"
     inkscape:deskcolor="#d1d1d1"
     inkscape:zoom="4.9166667"
     inkscape:cx="23.898305"
     inkscape:cy="24"
     inkscape:window-width="1680"
     inkscape:window-height="1051"
     inkscape:window-x="106"
     inkscape:window-y="1118"
     inkscape:window-maximized="1"
     inkscape:current-layer="svg2" />
  <path
     d="M 4,28 C 1.75,28 0,26.25 0,24 V 4 C 0,1.8125 1.75,0 4,0 h 8 c 1.25,0 2.4375,0.625 3.1875,1.625 L 16.375,3.25 C 16.75,3.75 17.3125,4 18,4 h 10 c 2.1875,0 4,1.8125 4,4 v 16 c 0,2.25 -1.8125,4 -4,4 z"
     fill="#1474c4"
     id="path1" />
  <path
     d="m 11.1875,8.75 c 0.7656,0 1.4766,0.4375 1.8867,1.0938 0.3828,0.6835 0.3828,1.5312 0,2.1874 -0.4101,0.6836 -1.1211,1.0938 -1.8867,1.0938 -0.793,0 -1.5039,-0.4102 -1.9141,-1.0938 -0.3828,-0.6562 -0.3828,-1.5039 0,-2.1874 C 9.6836,9.1875 10.3945,8.75 11.1875,8.75 Z m 10.0625,0 c 0.7656,0 1.4766,0.4375 1.8867,1.0938 0.3828,0.6835 0.3828,1.5312 0,2.1874 -0.4101,0.6836 -1.1211,1.0938 -1.8867,1.0938 -0.793,0 -1.5039,-0.4102 -1.9141,-1.0938 -0.3828,-0.6562 -0.3828,-1.5039 0,-2.1874 C 19.7461,9.1875 20.457,8.75 21.25,8.75 Z m -14,8.1758 C 7.25,15.3125 8.5352,14 10.1484,14 h 1.1758 c 0.4375,0 0.8477,0.1094 1.2305,0.2734 C 12.5,14.4648 12.5,14.6836 12.5,14.875 c 0,1.0664 0.4375,1.9961 1.1758,2.625 0,0 0,0 -0.0274,0 H 7.8242 C 7.4961,17.5 7.25,17.2539 7.25,16.9258 Z M 18.3242,17.5 h -0.0273 c 0.7383,-0.6289 1.1758,-1.5586 1.1758,-2.625 0,-0.1914 0,-0.4102 -0.0274,-0.6016 C 19.8008,14.1094 20.2109,14 20.6484,14 h 1.1758 c 1.6133,0 2.9258,1.3125 2.9258,2.9258 0,0.3281 -0.2734,0.5742 -0.6016,0.5742 z M 13.375,14.875 c 0,-0.9297 0.4922,-1.7773 1.3125,-2.2695 0.793,-0.4649 1.8047,-0.4649 2.625,0 0.793,0.4922 1.3125,1.3398 1.3125,2.2695 0,0.957 -0.5195,1.8047 -1.3125,2.2969 -0.8203,0.4648 -1.832,0.4648 -2.625,0 C 13.8672,16.6797 13.375,15.832 13.375,14.875 Z m -2.625,7.1641 c 0,-2.0235 1.6133,-3.6641 3.6367,-3.6641 h 3.1992 c 2.0235,0 3.6641,1.6406 3.6641,3.6641 0,0.3828 -0.3281,0.7109 -0.7383,0.7109 h -9.0508 c -0.3828,0 -0.7109,-0.3008 -0.7109,-0.7109 z"
     fill="#f4f7fa"
     id="path2" />
</svg>
