<svg width="96" height="96" viewBox="0 0 96 96" fill="none" xmlns="http://www.w3.org/2000/svg">
<g clip-path="url(#clip0_1_39)">
<path fill-rule="evenodd" clip-rule="evenodd" d="M16 16H40L48 24H80C84.4 24 88 27.6 88 32V72C88 76.4 84.4 80 80 80H16C11.6 80 8 76.4 8 72L8.04 24C8.04 19.6 11.6 16 16 16ZM55.0967 54.7062C53.0004 53.7925 50.4204 53.0938 47.5 53.0938C44.5796 53.0938 41.9996 53.7925 39.9033 54.7242C37.9683 55.5662 36.75 57.5012 36.75 59.6154V62.5H58.25V59.5975C58.25 57.5012 57.0317 55.5662 55.0967 54.7062ZM36.75 49.9583C36.75 51.9292 35.1375 53.5417 33.1667 53.5417C31.1958 53.5417 29.5833 51.9292 29.5833 49.9583C29.5833 47.9875 31.1958 46.375 33.1667 46.375C35.1375 46.375 36.75 47.9875 36.75 49.9583ZM33.1667 55.3333C33.8654 55.3333 34.5283 55.405 35.1912 55.5125C34.4746 56.7308 34.0625 58.1283 34.0625 59.6154V62.5H26V59.6871C26 58.2358 26.86 56.9458 28.1858 56.3725C29.7087 55.7096 31.3929 55.3333 33.1667 55.3333ZM65.4167 49.9583C65.4167 51.9292 63.8042 53.5417 61.8333 53.5417C59.8625 53.5417 58.25 51.9292 58.25 49.9583C58.25 47.9875 59.8625 46.375 61.8333 46.375C63.8042 46.375 65.4167 47.9875 65.4167 49.9583ZM66.8142 56.3725C68.14 56.9458 69 58.2358 69 59.6871V62.5H60.9375V59.6154C60.9375 58.1283 60.5254 56.7308 59.8088 55.5125C60.4717 55.405 61.1346 55.3333 61.8333 55.3333C63.6071 55.3333 65.2913 55.7096 66.8142 56.3725ZM52.875 46.375C52.875 43.4008 50.4742 41 47.5 41C44.5258 41 42.125 43.4008 42.125 46.375C42.125 49.3492 44.5258 51.75 47.5 51.75C50.4742 51.75 52.875 49.3492 52.875 46.375Z" fill="#00679E"/>
</g>
<defs>
<clipPath id="clip0_1_39">
<rect width="96" height="96" fill="white"/>
</clipPath>
</defs>
</svg>
