<?xml version="1.0" encoding="UTF-8" standalone="no"?>
<svg
   width="32"
   height="32"
   viewBox="0 0 32 32"
   fill="none"
   version="1.1"
   id="svg2"
   sodipodi:docname="Folder_users_icon.svg"
   inkscape:version="1.3.2 (091e20e, 2023-11-25)"
   xmlns:inkscape="http://www.inkscape.org/namespaces/inkscape"
   xmlns:sodipodi="http://sodipodi.sourceforge.net/DTD/sodipodi-0.dtd"
   xmlns="http://www.w3.org/2000/svg"
   xmlns:svg="http://www.w3.org/2000/svg">
  <defs
     id="defs2" />
  <sodipodi:namedview
     id="namedview2"
     pagecolor="#ffffff"
     bordercolor="#000000"
     borderopacity="0.25"
     inkscape:showpageshadow="2"
     inkscape:pageopacity="0.0"
     inkscape:pagecheckerboard="0"
     inkscape:deskcolor="#d1d1d1"
     inkscape:zoom="7.375"
     inkscape:cx="15.932203"
     inkscape:cy="15.932203"
     inkscape:window-width="1312"
     inkscape:window-height="884"
     inkscape:window-x="50"
     inkscape:window-y="38"
     inkscape:window-maximized="0"
     inkscape:current-layer="svg2" />
  <path
     id="path1"
     d="M 7 5.5 C 5.3125017 5.5 4 6.8593816 4 8.5 L 4 23.5 C 4 25.187498 5.3125017 26.5 7 26.5 L 25 26.5 C 26.640598 26.5 28 25.187498 28 23.5 L 28 11.5 C 28 9.8593816 26.640598 8.5 25 8.5 L 17.5 8.5 C 16.984401 8.5 16.56255 8.3124996 16.28125 7.9375 L 15.390625 6.71875 C 14.828126 5.9687507 13.937499 5.5 13 5.5 L 7 5.5 z M 12.5625 12.25 C 13.109399 12.25 13.617157 12.56255 13.910156 13.03125 C 14.183556 13.51955 14.183556 14.12495 13.910156 14.59375 C 13.617157 15.08195 13.109399 15.375 12.5625 15.375 C 11.996101 15.375 11.488312 15.08195 11.195312 14.59375 C 10.921913 14.12495 10.921913 13.51955 11.195312 13.03125 C 11.488312 12.56255 11.996101 12.25 12.5625 12.25 z M 19.75 12.25 C 20.296899 12.25 20.804657 12.56255 21.097656 13.03125 C 21.371056 13.51955 21.371056 14.12495 21.097656 14.59375 C 20.804657 15.08195 20.296899 15.375 19.75 15.375 C 19.183601 15.375 18.675812 15.08195 18.382812 14.59375 C 18.109413 14.12495 18.109413 13.51955 18.382812 13.03125 C 18.675812 12.56255 19.183601 12.25 19.75 12.25 z M 15.992188 14.755859 C 16.3169 14.755859 16.64455 14.837906 16.9375 15.003906 C 17.503899 15.355506 17.875 15.960901 17.875 16.625 C 17.875 17.308599 17.503899 17.914125 16.9375 18.265625 C 16.351601 18.597725 15.628899 18.597725 15.0625 18.265625 C 14.476601 17.914125 14.125 17.308599 14.125 16.625 C 14.125 15.960901 14.476601 15.355506 15.0625 15.003906 C 15.3457 14.837906 15.667475 14.755859 15.992188 14.755859 z M 11.820312 16 L 12.660156 16 C 12.972656 16 13.265563 16.078113 13.539062 16.195312 C 13.499963 16.332012 13.5 16.4883 13.5 16.625 C 13.5 17.386699 13.812544 18.0508 14.339844 18.5 L 14.320312 18.5 L 10.160156 18.5 C 9.9257365 18.5 9.75 18.324244 9.75 18.089844 C 9.75 16.937545 10.668014 16 11.820312 16 z M 19.320312 16 L 20.160156 16 C 21.312455 16 22.25 16.937545 22.25 18.089844 C 22.25 18.324244 22.054712 18.5 21.820312 18.5 L 17.660156 18.5 L 17.640625 18.5 C 18.168024 18.0508 18.480469 17.386699 18.480469 16.625 C 18.480469 16.4883 18.480537 16.332012 18.460938 16.195312 C 18.714837 16.078113 19.007813 16 19.320312 16 z M 14.847656 19.125 L 17.132812 19.125 C 18.578111 19.125 19.75 20.296889 19.75 21.742188 C 19.75 22.015587 19.515556 22.25 19.222656 22.25 L 12.757812 22.25 C 12.484413 22.25 12.25 22.035187 12.25 21.742188 C 12.25 20.296889 13.402258 19.125 14.847656 19.125 z "
     style="fill:#1474c4;fill-opacity:1" />
</svg>
