<svg width="84" height="84" viewBox="0 0 84 84" fill="none" xmlns="http://www.w3.org/2000/svg">
<path d="M30.75 24V33H53.25V24C53.25 17.8125 48.1875 12.75 42 12.75C35.6719 12.75 30.75 17.8125 30.75 24ZM24 33V24C24 14.1562 32.0156 6 42 6C51.8438 6 60 14.1562 60 24V33H64.5C69.4219 33 73.5 37.0781 73.5 42V69C73.5 74.0625 69.4219 78 64.5 78H19.5C14.4375 78 10.5 74.0625 10.5 69V42C10.5 37.0781 14.4375 33 19.5 33H24ZM17.25 42V69C17.25 70.2656 18.2344 71.25 19.5 71.25H64.5C65.625 71.25 66.75 70.2656 66.75 69V42C66.75 40.875 65.625 39.75 64.5 39.75H19.5C18.2344 39.75 17.25 40.875 17.25 42Z" fill="#1474C4"/>
</svg>
