<svg width="20" height="20" viewBox="0 0 20 20" fill="none" xmlns="http://www.w3.org/2000/svg">
<path d="M17.225 4.99995H14.9172C14.69 4.99995 14.4889 4.86383 14.4044 4.65272L13.8505 3.26828C13.5961 2.63272 12.99 2.22217 12.3055 2.22217H7.69497C7.01053 2.22217 6.40442 2.63272 6.15053 3.26772L5.59608 4.65272C5.51164 4.86383 5.31053 4.99995 5.08331 4.99995H2.77497C1.85775 4.99995 1.11108 5.74661 1.11108 6.66383V16.1138C1.11108 17.0311 1.85775 17.7777 2.77497 17.7777H17.225C18.1422 17.7777 18.8889 17.0311 18.8889 16.1138V6.66383C18.8889 5.74661 18.1422 4.99995 17.225 4.99995ZM17.7778 16.1138C17.7778 16.4188 17.53 16.6666 17.225 16.6666H2.77497C2.46997 16.6666 2.2222 16.4188 2.2222 16.1138V6.66383C2.2222 6.35883 2.46997 6.11106 2.77497 6.11106H5.08275C5.7672 6.11106 6.37331 5.7005 6.6272 5.0655L7.18164 3.6805C7.26608 3.46939 7.4672 3.33328 7.69442 3.33328H12.305C12.5322 3.33328 12.7333 3.46939 12.8183 3.6805L13.3722 5.06495C13.6261 5.7005 14.2322 6.1105 14.9166 6.1105H17.2244C17.5294 6.1105 17.7772 6.35828 17.7772 6.66328V16.1133L17.7778 16.1138ZM9.99997 7.22217C7.85553 7.22217 6.11108 8.96661 6.11108 11.1111C6.11108 13.2555 7.85553 14.9999 9.99997 14.9999C12.1444 14.9999 13.8889 13.2555 13.8889 11.1111C13.8889 8.96661 12.1444 7.22217 9.99997 7.22217ZM9.99997 13.8888C8.46831 13.8888 7.2222 12.6427 7.2222 11.1111C7.2222 9.57939 8.46831 8.33328 9.99997 8.33328C11.5316 8.33328 12.7778 9.57939 12.7778 11.1111C12.7778 12.6427 11.5316 13.8888 9.99997 13.8888Z" fill="#001B41"/>
</svg>
