<svg width="21" height="24" viewBox="0 0 21 24" fill="none" xmlns="http://www.w3.org/2000/svg">
<path d="M6.75 6V9H18C19.6406 9 21 10.3594 21 12V21C21 22.6875 19.6406 24 18 24H3C1.3125 24 0 22.6875 0 21V12C0 10.3594 1.3125 9 3 9H4.5V6C4.5 2.71875 7.17188 0 10.5 0C13.1719 0 15.4219 1.78125 16.1719 4.17188C16.3594 4.78125 16.0312 5.39062 15.4688 5.57812C14.8594 5.76562 14.25 5.4375 14.0625 4.875C13.5469 3.375 12.1406 2.25 10.5 2.25C8.39062 2.25 6.75 3.9375 6.75 6ZM2.25 12V21C2.25 21.4219 2.57812 21.75 3 21.75H18C18.375 21.75 18.75 21.4219 18.75 21V12C18.75 11.625 18.375 11.25 18 11.25H3C2.57812 11.25 2.25 11.625 2.25 12Z" fill="#465A75"/>
</svg>
