<svg width="121" height="161" viewBox="0 0 121 161" fill="none" xmlns="http://www.w3.org/2000/svg">
<path d="M60.5 0C73.4193 0 84.763 8.49023 88.8594 20.125H100.833C111.862 20.125 121 29.2441 121 40.25V140.875C121 152.195 111.862 161 100.833 161H20.1667C8.82292 161 0 152.195 0 140.875V40.25C0 29.2441 8.82292 20.125 20.1667 20.125H31.8255C35.9219 8.49023 47.2656 0 60.5 0ZM60.5 20.125C54.8281 20.125 50.4167 24.8418 50.4167 30.1875C50.4167 35.8477 54.8281 40.25 60.5 40.25C65.8568 40.25 70.5833 35.8477 70.5833 30.1875C70.5833 24.8418 65.8568 20.125 60.5 20.125ZM35.2917 60.375C32.4557 60.375 30.25 62.8906 30.25 65.4062C30.25 68.2363 32.4557 70.4375 35.2917 70.4375H85.7083C88.2292 70.4375 90.75 68.2363 90.75 65.4062C90.75 62.8906 88.2292 60.375 85.7083 60.375H35.2917Z" fill="#1474C4"/>
</svg>
