<svg width="16" height="16" viewBox="0 0 16 16" fill="none" xmlns="http://www.w3.org/2000/svg">
<path d="M12.9421 3.86978L9.46384 0.390667C9.21184 0.138667 8.87628 0 8.51984 0H4.88873C3.66339 0 2.6665 0.996889 2.6665 2.22222V13.7778C2.6665 15.0031 3.66339 16 4.88873 16H11.1109C12.3363 16 13.3332 15.0031 13.3332 13.7778V4.81333C13.3332 4.45644 13.1945 4.12133 12.9421 3.86978ZM12.2598 4.44444H9.33317C9.08784 4.44444 8.88873 4.24489 8.88873 4V1.07289L12.2598 4.44444ZM12.4443 13.7778C12.4443 14.5129 11.8461 15.1111 11.1109 15.1111H4.88873C4.15361 15.1111 3.55539 14.5129 3.55539 13.7778V2.22222C3.55539 1.48711 4.15361 0.888889 4.88873 0.888889H7.99984V4C7.99984 4.73511 8.59806 5.33333 9.33317 5.33333H12.4443V13.7778Z" fill="#001B41"/>
<path d="M11.4252 9.72277L9.16589 7.46366C8.99234 7.29011 8.711 7.29011 8.53745 7.46366C8.36389 7.63722 8.36389 7.91877 8.53745 8.09233L10.0381 9.59277H4.88878C4.64345 9.59277 4.44434 9.79188 4.44434 10.0372C4.44434 10.2826 4.64345 10.4817 4.88878 10.4817H10.0381L8.53745 11.9821C8.36389 12.1557 8.36389 12.437 8.53745 12.6108C8.62434 12.6974 8.73789 12.741 8.85167 12.741C8.96545 12.741 9.079 12.6977 9.16589 12.6108L11.4252 10.3514C11.5086 10.2681 11.5554 10.155 11.5554 10.0372C11.5554 9.91944 11.5086 9.80633 11.4252 9.723V9.72277Z" fill="#001B41"/>
</svg>
