<svg width="16" height="16" viewBox="0 0 16 16" fill="none" xmlns="http://www.w3.org/2000/svg">
<path d="M9.25697 8.00004L13.5174 3.73959C13.8645 3.39248 13.8645 2.82981 13.5174 2.48226C13.1703 2.13515 12.6076 2.13515 12.2605 2.48226L8.00008 6.74315L3.73963 2.4827C3.39252 2.13559 2.82986 2.13559 2.48275 2.4827C2.13563 2.82981 2.13563 3.39248 2.48275 3.73959L6.74319 8.00004L2.48275 12.2605C2.13563 12.6076 2.13563 13.1703 2.48275 13.5178C2.65652 13.6911 2.88363 13.7783 3.11119 13.7783C3.33875 13.7783 3.56586 13.6916 3.73963 13.5178L8.00008 9.25692L12.2605 13.5174C12.4343 13.6907 12.6614 13.7778 12.889 13.7778C13.1165 13.7778 13.3436 13.6911 13.5174 13.5174C13.8645 13.1703 13.8645 12.6076 13.5174 12.26L9.25697 8.00004Z" fill="#F4F7FA"/>
</svg>
