<svg width="84" height="84" viewBox="0 0 84 84" fill="none" xmlns="http://www.w3.org/2000/svg">
<path d="M29.4808 8.48906L28.4433 10.5H14.6108C12.0605 10.5 10 12.5109 10 15C10 17.4891 12.0605 19.5 14.6108 19.5H69.9409C72.4913 19.5 74.5517 17.4891 74.5517 15C74.5517 12.5109 72.4913 10.5 69.9409 10.5H56.1084L55.0709 8.48906C54.2929 6.95625 52.6935 6 50.95 6H33.6017C31.8583 6 30.2589 6.95625 29.4808 8.48906ZM69.9409 24H14.6108L17.6655 71.6719C17.8961 75.2297 20.9219 78 24.5674 78H59.9844C63.6298 78 66.6557 75.2297 66.8862 71.6719L69.9409 24Z" fill="#001B41"/>
</svg>
