<?xml version="1.0" encoding="UTF-8"?>
<!-- Generated by Pixelmator Pro 3.6.8 -->
<svg width="24" height="24" viewBox="0 0 24 24" xmlns="http://www.w3.org/2000/svg">
    <path id="Path" fill="#f4f7fa" stroke="none" d="M 13.024061 2.4375 C 13.5 2.653847 13.846154 3.173077 13.846154 3.692308 L 13.846154 20.307692 C 13.846154 20.870214 13.5 21.346153 13.024061 21.605724 C 12.50483 21.822092 11.942307 21.7356 11.509661 21.346153 L 5.668265 16.153847 L 2.769231 16.153847 C 1.211538 16.153847 -0 14.942307 -0 13.384615 L -0 10.615385 C -0 9.100965 1.211538 7.846153 2.769231 7.846153 L 5.668265 7.846153 L 11.509661 2.697115 C 11.942307 2.307692 12.50483 2.221153 13.024061 2.4375 Z M 20.46637 5.552881 C 22.326923 7.110573 23.538462 9.403846 23.538462 12 C 23.538462 14.639446 22.326923 16.932739 20.46637 18.447138 C 19.990339 18.836493 19.341324 18.75 18.995169 18.317352 C 18.605724 17.884615 18.692308 17.2356 19.125046 16.846153 C 20.552862 15.721108 21.461538 13.990339 21.461538 12 C 21.461538 10.05288 20.552862 8.322111 19.125046 7.197119 C 18.692308 6.807692 18.649015 6.158657 18.995169 5.725958 C 19.341324 5.293274 19.990339 5.206726 20.46637 5.552881 Z M 17.826923 8.798077 C 18.778893 9.576923 19.384615 10.701923 19.384615 12 C 19.384615 13.341323 18.778893 14.466369 17.826923 15.24517 C 17.394276 15.591323 16.745169 15.548122 16.355816 15.072092 C 16.009661 14.639446 16.096153 13.990339 16.528801 13.644185 C 17.004831 13.25483 17.307692 12.649015 17.307692 12 C 17.307692 11.350985 17.004831 10.788462 16.528801 10.399035 C 16.096153 10.05288 16.009661 9.403846 16.355816 8.927889 C 16.745169 8.495188 17.394276 8.451923 17.826923 8.798077 Z"/>
</svg>
