<svg width="16" height="16" viewBox="0 0 16 16" fill="none" xmlns="http://www.w3.org/2000/svg">
<path d="M13.3331 3.55512H8.406L7.01801 2.16712C6.77001 1.91912 6.42689 1.77734 6.07667 1.77734H2.66645C1.68601 1.77734 0.888672 2.57468 0.888672 3.55512V12.444C0.888672 13.4245 1.68601 14.2218 2.66645 14.2218H13.3331C14.3136 14.2218 15.1109 13.4245 15.1109 12.444V5.3329C15.1109 4.35245 14.3136 3.55512 13.3331 3.55512ZM14.222 12.444C14.222 12.9342 13.8233 13.3329 13.3331 13.3329H2.66645C2.17623 13.3329 1.77756 12.9342 1.77756 12.444V3.55512C1.77756 3.0649 2.17623 2.66623 2.66645 2.66623H6.07667C6.19312 2.66623 6.30734 2.71334 6.38956 2.79601L7.77756 4.18401C7.94289 4.34934 8.17178 4.44401 8.40556 4.44401H13.3327C13.8229 4.44401 14.2216 4.84268 14.2216 5.3329L14.222 12.444ZM10.6664 8.88845C10.6664 9.13379 10.4673 9.3329 10.222 9.3329H8.44423V11.1107C8.44423 11.356 8.24512 11.5551 7.99978 11.5551C7.75445 11.5551 7.55534 11.356 7.55534 11.1107V9.3329H5.77756C5.53223 9.3329 5.33312 9.13379 5.33312 8.88845C5.33312 8.64312 5.53223 8.44401 5.77756 8.44401H7.55534V6.66623C7.55534 6.4209 7.75445 6.22179 7.99978 6.22179C8.24512 6.22179 8.44423 6.4209 8.44423 6.66623V8.44401H10.222C10.4673 8.44401 10.6664 8.64312 10.6664 8.88845Z" fill="#001B41"/>
</svg>
