<svg width="24" height="24" viewBox="0 0 24 24" fill="none" xmlns="http://www.w3.org/2000/svg">
<path d="M17.3333 10.0002V6.66683C17.3333 3.8255 14.8413 1.3335 12 1.3335C9.15867 1.3335 6.66667 3.8255 6.66667 6.66683V10.0002C5.196 10.0002 4 11.1962 4 12.6668V20.0002C4 21.4708 5.196 22.6668 6.66667 22.6668H17.3333C18.804 22.6668 20 21.4708 20 20.0002V12.6668C20 11.1962 18.804 10.0002 17.3333 10.0002ZM8.66667 6.66683C8.66667 4.92216 10.2553 3.3335 12 3.3335C13.7447 3.3335 15.3333 4.92216 15.3333 6.66683V10.0002H8.66667V6.66683ZM18 20.0002C18 20.3682 17.7013 20.6668 17.3333 20.6668H6.66667C6.29867 20.6668 6 20.3682 6 20.0002V12.6668C6 12.2988 6.29867 12.0002 6.66667 12.0002H17.3333C17.7013 12.0002 18 12.2988 18 12.6668V20.0002ZM13.3333 16.3335C13.3333 17.0702 12.7367 17.6668 12 17.6668C11.2633 17.6668 10.6667 17.0702 10.6667 16.3335C10.6667 15.5968 11.2633 15.0002 12 15.0002C12.7367 15.0002 13.3333 15.5968 13.3333 16.3335Z" fill="black"/>
</svg>
