<svg width="20" height="19" viewBox="0 0 20 19" fill="none" xmlns="http://www.w3.org/2000/svg">
<path d="M2.5 0.75H7.65625C8.39844 0.75 9.10156 1.0625 9.64844 1.60938L11.2891 3.25H17.5C18.8672 3.25 20 4.38281 20 5.75V15.75C20 17.1562 18.8672 18.25 17.5 18.25H2.5C1.09375 18.25 0 17.1562 0 15.75V3.25C0 1.88281 1.09375 0.75 2.5 0.75ZM1.875 3.25V15.75C1.875 16.1016 2.14844 16.375 2.5 16.375H17.5C17.8125 16.375 18.125 16.1016 18.125 15.75V5.75C18.125 5.4375 17.8125 5.125 17.5 5.125H11.1719C10.7812 5.125 10.3516 4.96875 10.0781 4.69531L8.32031 2.89844C8.125 2.74219 7.89062 2.625 7.65625 2.625H2.5C2.14844 2.625 1.875 2.9375 1.875 3.25ZM13.7891 9.85156H13.75C13.4375 10.0469 13.2812 10.3984 13.2812 10.7891C13.2812 11.1406 13.4375 11.4922 13.75 11.6875H13.7891C14.0234 11.8438 14.1406 12.1172 14.0625 12.3906C13.9844 12.5859 13.9062 12.7422 13.8281 12.8984L13.75 13.0156C13.6328 13.1719 13.5547 13.3281 13.4375 13.4844C13.2422 13.6797 12.9297 13.7188 12.6953 13.6016L12.6562 13.5625C12.3438 13.3672 11.9531 13.4453 11.6406 13.6016C11.3281 13.7969 11.0938 14.1094 11.0938 14.4609V14.5391C11.0938 14.8125 10.8984 15.0469 10.5859 15.0859C10.3906 15.125 10.1953 15.125 10 15.125C9.76562 15.125 9.57031 15.125 9.375 15.0859C9.10156 15.0469 8.90625 14.8125 8.90625 14.5391V14.4609C8.90625 14.1094 8.67188 13.7969 8.35938 13.6016C8.04688 13.4453 7.65625 13.3672 7.34375 13.5625L7.26562 13.6016C7.03125 13.7188 6.71875 13.6797 6.5625 13.4844C6.44531 13.3281 6.32812 13.1719 6.25 13.0156L6.17188 12.8984C6.05469 12.7422 5.97656 12.5469 5.9375 12.3906C5.82031 12.1172 5.9375 11.8438 6.17188 11.6875H6.25C6.5625 11.4922 6.71875 11.1406 6.71875 10.75C6.71875 10.3984 6.5625 10.0469 6.25 9.85156H6.17188C5.9375 9.69531 5.82031 9.42188 5.9375 9.14844C5.97656 8.95312 6.05469 8.79688 6.17188 8.64062L6.25 8.52344C6.32812 8.36719 6.44531 8.21094 6.5625 8.05469C6.71875 7.85938 7.03125 7.82031 7.26562 7.9375L7.34375 7.97656C7.65625 8.17188 8.04688 8.09375 8.35938 7.9375C8.67188 7.74219 8.90625 7.42969 8.90625 7.07812V7C8.90625 6.72656 9.10156 6.49219 9.375 6.45312C9.57031 6.41406 9.76562 6.41406 10 6.41406C10.1953 6.41406 10.3906 6.41406 10.5859 6.45312C10.8984 6.49219 11.0938 6.72656 11.0938 7V7.07812C11.0938 7.42969 11.3281 7.74219 11.6406 7.9375C11.9531 8.09375 12.3438 8.17188 12.6562 7.97656L12.6953 7.9375C12.9297 7.82031 13.2422 7.85938 13.4375 8.05469C13.5547 8.21094 13.6328 8.36719 13.75 8.52344L13.8281 8.64062C13.9062 8.79688 13.9844 8.95312 14.0625 9.14844C14.1406 9.38281 14.0234 9.69531 13.7891 9.85156ZM8.63281 10.75C8.63281 11.5312 9.21875 12.1172 10 12.1172C10.7422 12.1172 11.3672 11.5312 11.3672 10.75C11.3672 10.0078 10.7422 9.38281 10 9.38281C9.21875 9.38281 8.63281 10.0078 8.63281 10.75Z" fill="#001B41"/>
</svg>
