<svg width="32" height="32" viewBox="0 0 32 32" fill="none" xmlns="http://www.w3.org/2000/svg">
<path d="M16.0312 32C10.2812 32 5.03125 29 2.15625 24C-0.71875 19.0625 -0.71875 13 2.15625 8C5.03125 3.0625 10.2812 0 16.0312 0C21.7188 0 26.9688 3.0625 29.8438 8C32.7188 13 32.7188 19.0625 29.8438 24C26.9688 29 21.7188 32 16.0312 32ZM23.0938 13.0625H23.0312C23.6562 12.5 23.6562 11.5625 23.0312 10.9375C22.4688 10.375 21.5312 10.375 20.9688 10.9375L14.0312 17.9375L11.0938 15C10.4688 14.375 9.53125 14.375 8.96875 15C8.34375 15.5625 8.34375 16.5 8.96875 17.0625L12.9688 21.0625C13.5312 21.6875 14.4688 21.6875 15.0938 21.0625L23.0938 13.0625Z" fill="#0FA954"/>
</svg>
