<svg width="48" height="48" viewBox="0 0 48 48" fill="none" xmlns="http://www.w3.org/2000/svg">
<circle cx="24" cy="24" r="16" fill="#1474C4"/>
<path d="M21.5 18.5C21.5 19.6045 20.6045 20.5 19.5 20.5C18.3955 20.5 17.5 19.6045 17.5 18.5C17.5 17.3955 18.3955 16.5 19.5 16.5C20.6045 16.5 21.5 17.3955 21.5 18.5ZM21.725 24.6545C20.9765 24.012 20.5 23.0615 20.5 22C20.5 21.7495 20.5275 21.5055 20.578 21.27C20.4715 21.261 20.3665 21.25 20.25 21.25H18.75C16 21.25 16.0055 23.8655 16.0005 25.243C16.0005 25.2455 16 25.248 16 25.25V25.5C16 25.776 16.224 26 16.5 26H19.612C20.0855 25.384 20.7585 24.888 21.725 24.6545ZM28.5 16.5C27.3955 16.5 26.5 17.3955 26.5 18.5C26.5 19.6045 27.3955 20.5 28.5 20.5C29.6045 20.5 30.5 19.6045 30.5 18.5C30.5 17.3955 29.6045 16.5 28.5 16.5ZM29.25 21.25H27.75C27.6335 21.25 27.529 21.261 27.4225 21.27C27.4725 21.5055 27.5005 21.7495 27.5005 22C27.5005 23.0615 27.024 24.012 26.2755 24.654C27.2435 24.8875 27.917 25.3835 28.391 26H31.5C31.776 26 32 25.776 32 25.5V25.25C32 23.8695 32 21.25 29.25 21.25ZM24.9645 25.5H23.036C19.5005 25.5 19.507 28.8035 19.501 30.5435C19.501 30.5465 19.5 30.55 19.5 30.5525V30.8685C19.5 31.2175 19.788 31.5 20.143 31.5H27.8575C28.2125 31.5 28.5005 31.217 28.5005 30.8685V30.5525C28.5005 28.8085 28.5 25.5 24.9645 25.5ZM24 19.5C22.6195 19.5 21.5 20.6195 21.5 22C21.5 23.3805 22.6195 24.5 24 24.5C25.3805 24.5 26.5 23.3805 26.5 22C26.5 20.6195 25.3805 19.5 24 19.5Z" fill="white"/>
<path d="M29.3437 27.217C29.2962 27.1845 29.251 27.1471 29.2088 27.105C28.8419 26.7381 28.8422 26.1437 29.2086 25.7768L29.2088 25.7766L29.6377 25.3478C30.6347 24.3508 32.2559 24.3507 33.253 25.3477L29.3437 27.217ZM29.3437 27.217C28.5424 27.0677 27.6831 27.3025 27.0644 27.9211L27.0643 27.9211L25.3491 29.6366C25.3491 29.6366 25.3491 29.6367 25.349 29.6367C24.8664 30.1191 24.6 30.7627 24.6 31.4445C24.6 32.1264 24.8664 32.77 25.3491 33.2524C25.8479 33.7512 26.5029 34 27.1566 34C27.8102 34 28.4657 33.7512 28.9644 33.2523C28.9644 33.2523 28.9645 33.2523 28.9645 33.2522L29.3933 32.8234C29.7601 32.4566 29.7599 31.8622 29.3935 31.4953L29.3931 31.4949C29.3509 31.4528 29.3057 31.4155 29.2582 31.383C29.414 31.4121 29.572 31.4267 29.7299 31.4267C30.3837 31.4267 31.0389 31.1775 31.5377 30.6791L31.5378 30.6789L33.253 28.9635C33.7357 28.4811 34.0021 27.8377 34.0021 27.1556C34.0021 26.4735 33.7357 25.8301 33.2531 25.3478L29.3437 27.217ZM31.925 27.6354L31.925 27.6354L30.9545 28.606C30.96 28.3588 30.8684 28.1098 30.6797 27.9211C30.4432 27.6846 30.1716 27.5043 29.8816 27.38C30.119 27.3778 30.3557 27.2861 30.5368 27.105L30.9657 26.6761C31.2301 26.4117 31.6609 26.4118 31.9249 26.676L31.9252 26.6763C32.0538 26.8047 32.1238 26.9735 32.1238 27.1556C32.1238 27.3376 32.0538 27.5065 31.925 27.6354ZM27.9224 30.679C28.1589 30.9155 28.4307 31.0959 28.721 31.2202C28.4835 31.2222 28.2466 31.3138 28.0653 31.4951L27.6365 31.9239C27.6364 31.9239 27.6364 31.924 27.6364 31.924C27.3716 32.1885 26.9408 32.1881 26.6773 31.9242L26.6769 31.9238C26.5483 31.7954 26.4783 31.6264 26.4783 31.4445C26.4783 31.2627 26.5483 31.0935 26.6771 30.9647L26.6771 30.9647L27.6476 29.9941C27.6421 30.2413 27.7337 30.4903 27.9224 30.679ZM29.2504 29.3509C29.0896 29.1901 28.885 29.0998 28.675 29.08C28.9069 29.0101 29.1692 29.0666 29.3516 29.2491L29.3517 29.2491C29.5124 29.4099 29.717 29.5002 29.9269 29.52C29.6951 29.5898 29.4329 29.5334 29.2504 29.3509Z" fill="white" stroke="#1474C4" stroke-width="0.8"/>
</svg>
