<?xml version="1.0" encoding="utf-8"?>
<svg viewBox="0,0,256,256" width="50px" height="50px" fill-rule="nonzero" xmlns="http://www.w3.org/2000/svg">
  <g fill="#000000" fill-rule="nonzero" stroke="none" stroke-width="1" stroke-linecap="butt" stroke-linejoin="miter" stroke-miterlimit="10" stroke-dasharray="" stroke-dashoffset="0" font-family="none" font-weight="none" font-size="none" text-anchor="none" style="mix-blend-mode: normal" transform="matrix(1, 0, 0, 1, 16.912527, 1.101919)">
    <g transform="translate(239.02716,16.80287) rotate(90) scale(5.12,5.12)">
      <path d="M24.15625,3c-0.30469,0 -0.60547,0.0625 -0.90625,0.15625c-0.60547,0.19141 -1.18359,0.55078 -1.6875,1.0625l-11.75,11.75h-6.8125c-1.66797,0 -3.03125,1.36328 -3.03125,3.03125v12c0,1.66797 1.36328,3.03125 3.03125,3.03125h6.8125l11.71875,11.65625c1.11719,1.12109 2.55078,1.61328 3.71875,1.0625c1.17578,-0.55469 1.75,-1.89062 1.75,-3.4375v-37c0,-1.5 -0.76562,-2.74609 -1.9375,-3.15625c-0.29297,-0.10156 -0.60156,-0.15625 -0.90625,-0.15625zM24.1875,5c0.10156,0 0.17969,0.00781 0.25,0.03125c0.28516,0.09766 0.5625,0.35156 0.5625,1.28125v37c0,1.06641 -0.35156,1.54297 -0.59375,1.65625c-0.24219,0.11328 -0.73047,0.125 -1.5,-0.65625l-12.59375,-12.59375c-0.01953,-0.01172 -0.04297,-0.02344 -0.0625,-0.03125c0.07422,0.06641 -0.25,-0.56641 -0.25,-0.9375v-11.5c0,-0.37109 0.33594,-1.01172 0.25,-0.9375c0.02344,-0.01953 0.04297,-0.03906 0.0625,-0.0625l12.65625,-12.625c0.46875,-0.47266 0.91016,-0.62109 1.21875,-0.625zM3,18.03125h5.1875c-0.12891,0.38281 -0.1875,0.80078 -0.1875,1.21875v11.5c0,0.41797 0.0625,0.83203 0.1875,1.21875h-5.1875c-0.53906,0 -0.96875,-0.42969 -0.96875,-0.96875v-12c0,-0.53906 0.42969,-0.96875 0.96875,-0.96875zM31.90625,18.96875c-0.04297,0.00781 -0.08594,0.01953 -0.125,0.03125c-0.375,0.06641 -0.67578,0.33984 -0.78125,0.70313c-0.10547,0.36719 0.00391,0.75781 0.28125,1.01563l4.28125,4.28125l-4.28125,4.28125c-0.39844,0.39844 -0.39844,1.03906 0,1.4375c0.39844,0.39844 1.03906,0.39844 1.4375,0l4.28125,-4.28125l4.28125,4.28125c0.39844,0.39844 1.03906,0.39844 1.4375,0c0.39844,-0.39844 0.39844,-1.03906 0,-1.4375l-4.28125,-4.28125l4.28125,-4.28125c0.32422,-0.30078 0.41016,-0.77734 0.21484,-1.17187c-0.19141,-0.39844 -0.625,-0.61719 -1.05859,-0.54687c-0.22266,0.02344 -0.43359,0.125 -0.59375,0.28125l-4.28125,4.28125l-4.28125,-4.28125c-0.20703,-0.22266 -0.50781,-0.33594 -0.8125,-0.3125z"/>
    </g>
  </g>
</svg>