<svg width="16" height="16" viewBox="0 0 16 16" fill="none" xmlns="http://www.w3.org/2000/svg">
<g clip-path="url(#clip0_7092_35121)">
<path d="M10.8274 10.1991C11.0012 10.3729 11.0012 10.6538 10.8274 10.8276C10.7408 10.9142 10.627 10.9578 10.5132 10.9578C10.3994 10.9578 10.2857 10.9142 10.199 10.8276L7.68567 8.31424C7.60211 8.23068 7.55545 8.11779 7.55545 8.00001V4.44446C7.55545 4.19912 7.75456 4.00001 7.99989 4.00001C8.24522 4.00001 8.44434 4.19912 8.44434 4.44446V7.81601L10.8274 10.1991ZM15.5554 8.00001C15.5554 12.1662 12.1661 15.5556 7.99989 15.5556C3.83367 15.5556 0.444336 12.1662 0.444336 8.00001C0.444336 3.83379 3.83367 0.444458 7.99989 0.444458C12.1661 0.444458 15.5554 3.83379 15.5554 8.00001ZM14.6666 8.00001C14.6666 4.32401 11.6759 1.33335 7.99989 1.33335C4.32389 1.33335 1.33322 4.32401 1.33322 8.00001C1.33322 11.676 4.32389 14.6667 7.99989 14.6667C11.6759 14.6667 14.6666 11.676 14.6666 8.00001Z" fill="#001B41"/>
</g>
<defs>
<clipPath id="clip0_7092_35121">
<rect width="16" height="16" fill="white"/>
</clipPath>
</defs>
</svg>
