<svg xmlns="http://www.w3.org/2000/svg" width="24" height="24" viewBox="0 0 24 15.06"><path d="M12.004 15.06q1.774 0 3.351-.426 1.576-.425 2.911-1.124 1.334-.698 2.393-1.541 1.058-.843 1.804-1.69.747-.848 1.142-1.572Q24 7.982 24 7.535q0-.448-.395-1.173-.395-.724-1.142-1.572-.746-.847-1.804-1.69-1.059-.843-2.398-1.541Q16.922.861 15.346.435 13.769.009 12.004.009q-1.747 0-3.315.426-1.567.426-2.906 1.124-1.34.698-2.406 1.541-1.067.843-1.823 1.69Q.799 5.638.4 6.362 0 7.087 0 7.535q0 .447.4 1.172.399.724 1.154 1.572.756.847 1.818 1.69 1.063.843 2.402 1.541 1.339.699 2.907 1.124 1.567.426 3.323.426Zm0-1.387q-1.449 0-2.783-.36-1.335-.36-2.503-.953-1.168-.593-2.116-1.295-.949-.703-1.638-1.392-.69-.689-1.058-1.26-.369-.571-.369-.878 0-.264.369-.808.368-.545 1.058-1.243.689-.698 1.638-1.409.948-.712 2.116-1.322 1.168-.61 2.503-.984 1.334-.373 2.783-.373 1.441 0 2.771.373 1.33.374 2.498.984 1.168.61 2.121 1.322.953.711 1.638 1.409.685.698 1.058 1.243.373.544.373.808 0 .307-.373.878t-1.058 1.26q-.685.689-1.638 1.392-.953.702-2.121 1.295-1.168.593-2.498.953-1.33.36-2.771.36Zm0-1.221q1.019 0 1.915-.386.895-.387 1.572-1.067.676-.681 1.058-1.572t.382-1.892q0-1.028-.382-1.924-.382-.895-1.058-1.567-.677-.672-1.572-1.049-.896-.378-1.915-.378-1.036 0-1.932.378-.895.377-1.571 1.049-.677.672-1.059 1.567-.382.896-.382 1.924.009 1.001.391 1.892t1.058 1.572q.676.68 1.568 1.067.891.386 1.927.386Zm0-3.284q-.685 0-1.168-.483-.483-.483-.483-1.15 0-.677.483-1.155.483-.479 1.168-.479.677 0 1.16.479.483.478.483 1.155 0 .667-.483 1.15-.483.483-1.16.483Z"/></svg>