<?xml version="1.0" encoding="UTF-8" standalone="no"?>
<svg
   width="32"
   height="32"
   viewBox="0 0 32 32"
   fill="none"
   version="1.1"
   id="svg2"
   sodipodi:docname="Folder_linked_ icon.svg"
   inkscape:version="1.3.2 (091e20e, 2023-11-25)"
   xmlns:inkscape="http://www.inkscape.org/namespaces/inkscape"
   xmlns:sodipodi="http://sodipodi.sourceforge.net/DTD/sodipodi-0.dtd"
   xmlns="http://www.w3.org/2000/svg"
   xmlns:svg="http://www.w3.org/2000/svg">
  <defs
     id="defs2" />
  <sodipodi:namedview
     id="namedview2"
     pagecolor="#ffffff"
     bordercolor="#000000"
     borderopacity="0.25"
     inkscape:showpageshadow="2"
     inkscape:pageopacity="0.0"
     inkscape:pagecheckerboard="0"
     inkscape:deskcolor="#d1d1d1"
     inkscape:zoom="7.375"
     inkscape:cx="15.932203"
     inkscape:cy="15.932203"
     inkscape:window-width="1312"
     inkscape:window-height="936"
     inkscape:window-x="50"
     inkscape:window-y="38"
     inkscape:window-maximized="0"
     inkscape:current-layer="svg2" />
  <path
     id="path1"
     d="M 7 5.5 C 5.3125017 5.5 4 6.8593816 4 8.5 L 4 23.5 C 4 25.187498 5.3125017 26.5 7 26.5 L 25 26.5 C 26.640598 26.5 28 25.187498 28 23.5 L 28 11.5 C 28 9.8593816 26.640598 8.5 25 8.5 L 17.5 8.5 C 16.984401 8.5 16.56255 8.3124996 16.28125 7.9375 L 15.390625 6.71875 C 14.828126 5.9687507 13.937499 5.5 13 5.5 L 7 5.5 z M 13.5 14.125 L 14.75 14.125 C 15.082 14.125 15.375 14.418 15.375 14.75 C 15.375 15.1016 15.082 15.375 14.75 15.375 L 13.5 15.375 C 12.464801 15.375 11.625 16.214801 11.625 17.25 C 11.625 18.285199 12.464801 19.125 13.5 19.125 L 14.75 19.125 C 15.082 19.125 15.375 19.418 15.375 19.75 C 15.375 20.1016 15.082 20.375 14.75 20.375 L 13.5 20.375 C 11.761702 20.375 10.375 18.988298 10.375 17.25 C 10.375 15.531202 11.761702 14.125 13.5 14.125 z M 17.25 14.125 L 18.5 14.125 C 20.218798 14.125 21.625 15.531202 21.625 17.25 C 21.625 18.988298 20.218798 20.375 18.5 20.375 L 17.25 20.375 C 16.8984 20.375 16.625 20.1016 16.625 19.75 C 16.625 19.418 16.8984 19.125 17.25 19.125 L 18.5 19.125 C 19.535199 19.125 20.375 18.285199 20.375 17.25 C 20.375 16.214801 19.535199 15.375 18.5 15.375 L 17.25 15.375 C 16.8984 15.375 16.625 15.1016 16.625 14.75 C 16.625 14.418 16.8984 14.125 17.25 14.125 z M 14.125 16.625 L 17.875 16.625 C 18.207 16.625 18.5 16.918 18.5 17.25 C 18.5 17.6016 18.207 17.875 17.875 17.875 L 14.125 17.875 C 13.7734 17.875 13.5 17.6016 13.5 17.25 C 13.5 16.918 13.7734 16.625 14.125 16.625 z "
     style="fill:#1474c4;fill-opacity:1" />
</svg>
