<svg width="84" height="84" viewBox="0 0 84 84" fill="none" xmlns="http://www.w3.org/2000/svg">
<path fill-rule="evenodd" clip-rule="evenodd" d="M18.9 71.8001C8.46563 71.8001 0 63.3344 0 52.9C0 44.6575 5.27625 37.6488 12.6263 35.0631C12.6131 34.7088 12.6 34.3544 12.6 34C12.6 22.3975 21.9975 13 33.6 13C41.3831 13 48.1688 17.2263 51.8044 23.5263C53.7994 22.1875 56.2144 21.4 58.8 21.4C65.7563 21.4 71.4 27.0438 71.4 34C71.4 35.6013 71.0981 37.1238 70.56 38.5413C78.225 40.09 84 46.8757 84 55C84 64.2794 76.4794 71.8001 67.2 71.8001H18.9ZM57.564 39.5713C58.4839 38.6484 58.4839 37.1496 57.564 36.2267H57.5714C56.6515 35.3038 55.1576 35.3038 54.2378 36.2267L37.0619 53.4517L29.3055 45.6772C28.3857 44.7543 26.8918 44.7543 25.9719 45.6772C25.052 46.6001 25.052 48.0989 25.9719 49.0218L35.3914 58.4723C36.3113 59.3952 37.8052 59.3952 38.725 58.4723L57.564 39.5713Z" fill="#0FA954"/>
</svg>
