<svg width="18" height="18" viewBox="0 0 18 18" fill="none" xmlns="http://www.w3.org/2000/svg">
<rect width="18" height="18" rx="2" fill="#1474C4"/>
<path d="M13.1948 5.11042C13.154 5.06579 13.1045 5.03014 13.0492 5.00574C12.9939 4.98135 12.9342 4.96875 12.8738 4.96875C12.8133 4.96875 12.7536 4.98135 12.6983 5.00574C12.6431 5.03014 12.5935 5.06579 12.5528 5.11042L7.60576 10.4574L5.38776 8.05542C5.34687 8.01074 5.29712 7.97505 5.24168 7.95064C5.18625 7.92623 5.12634 7.91362 5.06576 7.91362C5.00519 7.91362 4.94528 7.92623 4.88984 7.95064C4.83441 7.97505 4.78466 8.01074 4.74376 8.05542L4.10176 8.74142C3.92376 8.93142 3.92376 9.23842 4.10176 9.42842L7.28476 12.8584C7.32553 12.9031 7.37518 12.9389 7.43054 12.9633C7.48589 12.9878 7.54575 13.0004 7.60626 13.0004C7.66678 13.0004 7.72663 12.9878 7.78199 12.9633C7.83735 12.9389 7.887 12.9031 7.92776 12.8584L13.8378 6.48242C13.9236 6.38903 13.9713 6.26679 13.9713 6.13992C13.9713 6.01305 13.9236 5.89081 13.8378 5.79742L13.1948 5.11042Z" fill="white"/>
</svg>
