<svg width="27" height="21" viewBox="0 0 27 21" fill="none" xmlns="http://www.w3.org/2000/svg">
<path d="M10.5 1.95353C10.1309 1.95353 9.84375 2.27912 9.84375 2.60471V11.7212C9.84375 12.0875 10.0898 12.3724 10.459 12.3724L13.2891 8.5467C13.4941 8.3025 13.7812 8.13971 14.1094 8.13971C14.3965 8.13971 14.6836 8.3025 14.8887 8.5467L15.5859 9.48276L17.8828 5.98269C18.0469 5.6978 18.375 5.535 18.7031 5.535C19.0312 5.535 19.3184 5.6978 19.5234 5.98269L23.707 12.3724C24.0352 12.3317 24.2812 12.0468 24.2812 11.7212V2.60471C24.2812 2.27912 23.9531 1.95353 23.625 1.95353H10.5ZM7.875 2.60471C7.875 1.18026 9.02344 0 10.5 0H23.625C25.0605 0 26.25 1.18026 26.25 2.60471V11.7212C26.25 13.1863 25.0605 14.3259 23.625 14.3259H10.5C9.02344 14.3259 7.875 13.1863 7.875 11.7212V2.60471ZM6.5625 5.20941V18.8841H14.4375V15.6282H16.4062V18.8841H18.375C18.7031 18.8841 19.0312 18.5992 19.0312 18.233V15.6282H21V18.233C21 19.6981 19.8105 20.8377 18.375 20.8377H2.625C1.14844 20.8377 0 19.6981 0 18.233V7.81412C0 6.38967 1.14844 5.20941 2.625 5.20941H6.5625ZM4.59375 7.16294H2.625C2.25586 7.16294 1.96875 7.48853 1.96875 7.81412V9.76765H4.59375V7.16294ZM4.59375 18.8841V16.2794H1.96875V18.233C1.96875 18.5992 2.25586 18.8841 2.625 18.8841H4.59375ZM1.96875 14.3259H4.59375V11.7212H1.96875V14.3259ZM12.4687 3.25588C13.166 3.25588 13.7812 3.86636 13.7812 4.55824C13.7812 5.29081 13.166 5.86059 12.4687 5.86059C11.7305 5.86059 11.1562 5.29081 11.1562 4.55824C11.1562 3.86636 11.7305 3.25588 12.4687 3.25588Z" fill="#465A75"/>
</svg>
