<svg width="23" height="21" viewBox="0 0 23 21" fill="none" xmlns="http://www.w3.org/2000/svg">
<path d="M5 0.5C5.50781 0.5 5.9375 0.929688 5.9375 1.4375V3H11.5625V1.4375C11.5625 0.929688 11.9531 0.5 12.5 0.5C13.0078 0.5 13.4375 0.929688 13.4375 1.4375V3H15C16.3672 3 17.5 4.13281 17.5 5.5V6.125V8H16.875H15.625H13.75H1.875V18C1.875 18.3516 2.14844 18.625 2.5 18.625H11.0938C11.5625 19.3672 12.1875 20.0312 12.8906 20.5H2.5C1.09375 20.5 0 19.4062 0 18V8V6.125V5.5C0 4.13281 1.09375 3 2.5 3H4.0625V1.4375C4.0625 0.929688 4.45312 0.5 5 0.5ZM11.25 14.875C11.25 12.8828 12.3047 11.0469 14.0625 10.0312C15.7812 9.01562 17.9297 9.01562 19.6875 10.0312C21.4062 11.0469 22.5 12.8828 22.5 14.875C22.5 16.9062 21.4062 18.7422 19.6875 19.7578C17.9297 20.7734 15.7812 20.7734 14.0625 19.7578C12.3047 18.7422 11.25 16.9062 11.25 14.875ZM19.8828 18.0391C19.6484 17.2969 18.9453 16.75 18.125 16.75H15.5859C14.7656 16.75 14.0625 17.2969 13.8281 18.0391C14.6094 18.8203 15.6641 19.25 16.875 19.25C18.0469 19.25 19.1016 18.8203 19.8828 18.0391ZM18.75 13.625C18.75 12.9609 18.3594 12.375 17.8125 12.0234C17.2266 11.6719 16.4844 11.6719 15.9375 12.0234C15.3516 12.375 15 12.9609 15 13.625C15 14.3281 15.3516 14.9141 15.9375 15.2656C16.4844 15.6172 17.2266 15.6172 17.8125 15.2656C18.3594 14.9141 18.75 14.3281 18.75 13.625Z" fill="#001B41"/>
</svg>
