<svg width="20" height="20" viewBox="0 0 20 20" fill="none" xmlns="http://www.w3.org/2000/svg">
<path d="M5.15053 10.1033C4.94053 9.87997 4.95108 9.52831 5.17442 9.31775C5.3972 9.10775 5.74886 9.11775 5.95997 9.34108L9.44386 13.0433V1.66664C9.44386 1.35997 9.69219 1.11108 9.99942 1.11108C10.3066 1.11108 10.555 1.35997 10.555 1.66664V13.0433L14.0389 9.34108C14.2505 9.11775 14.6011 9.1072 14.8244 9.31775C15.0478 9.52831 15.0583 9.87942 14.8483 10.1033L10.4039 14.8255C10.2989 14.9372 10.1522 15 9.99886 15C9.84553 15 9.69942 14.9366 9.59386 14.8255L5.14942 10.1033H5.15053ZM18.3333 12.7778C18.0261 12.7778 17.7778 13.0266 17.7778 13.3333V16.1111C17.7778 17.03 17.03 17.7778 16.1111 17.7778H3.88886C2.96997 17.7778 2.2222 17.03 2.2222 16.1111V13.3333C2.2222 13.0266 1.97386 12.7778 1.66664 12.7778C1.35942 12.7778 1.11108 13.0266 1.11108 13.3333V16.1111C1.11108 17.6428 2.3572 18.8889 3.88886 18.8889H16.1111C17.6428 18.8889 18.8889 17.6428 18.8889 16.1111V13.3333C18.8889 13.0266 18.6405 12.7778 18.3333 12.7778Z" fill="#001B41"/>
</svg>
