<?xml version="1.0" encoding="UTF-8"?>
<!--Generator: Apple Native CoreSVG 326-->
<!DOCTYPE svg
PUBLIC "-//W3C//DTD SVG 1.1//EN"
       "http://www.w3.org/Graphics/SVG/1.1/DTD/svg11.dtd">
<svg version="1.1" xmlns="http://www.w3.org/2000/svg" xmlns:xlink="http://www.w3.org/1999/xlink" viewBox="0 0 24.0651 19.9316">
 <g>
  <rect height="19.9316" opacity="0" width="24.0651" x="0" y="0"/>
  <path d="M11.8568 19.9219C17.3548 19.9219 21.8177 15.459 21.8177 9.96094C21.8177 4.46289 17.3548 0 11.8568 0C6.35874 0 1.89585 4.46289 1.89585 9.96094L3.55601 9.96094C3.55601 5.37109 7.26694 1.66016 11.8568 1.66016C16.4466 1.66016 20.1576 5.37109 20.1576 9.96094C20.1576 14.5508 16.4466 18.2617 11.8568 18.2617C9.08335 18.2617 6.61265 16.8945 5.13804 14.8242C4.8353 14.4238 4.37632 14.2969 3.96616 14.541C3.57554 14.7852 3.45835 15.332 3.79038 15.7617C5.59702 18.291 8.55601 19.9219 11.8568 19.9219ZM0.694677 8.07617C-0.00844799 8.07617-0.184229 8.55469 0.19663 9.10156L2.38413 12.207C2.7064 12.6562 3.17515 12.6465 3.48765 12.207L5.66538 9.0918C6.04624 8.55469 5.86069 8.07617 5.1771 8.07617Z" fill="white" fill-opacity="0.85"/>
 </g>
</svg>
