<?xml version="1.0" encoding="UTF-8"?>
<!-- Generated by Pixelmator Pro 3.6.17 -->
<svg width="34" height="32" viewBox="0 0 34 32" xmlns="http://www.w3.org/2000/svg">
    <path id="Path" fill="#3196d6" stroke="none" d="M 27.221802 28.444401 L 6.7773 28.444401 C 4.572 28.444401 2.77734 26.649799 2.77734 24.444401 L 2.77734 7.5555 C 2.77734 5.350201 4.572 3.5555 6.7773 3.5555 L 12.7089 3.5555 C 13.526699 3.5555 14.3276 3.8871 14.9062 4.465801 L 17.5516 7.111099 L 27.221802 7.111099 C 29.427101 7.111099 31.221802 8.9058 31.221802 11.111099 L 31.221802 24.444401 C 31.221802 26.649799 29.427101 28.444401 27.221802 28.444401 Z"/>
    <path id="path1" fill="#ffffff" stroke="none" d="M 14.777599 13.111099 C 14.777599 14.092899 13.9816 14.888901 12.9998 14.888901 C 12.018 14.888901 11.222 14.092899 11.222 13.111099 C 11.222 12.129299 12.018 11.3333 12.9998 11.3333 C 13.9816 11.3333 14.777599 12.129299 14.777599 13.111099 Z M 14.9776 18.5818 C 14.312201 18.010599 13.8887 17.1658 13.8887 16.2222 C 13.8887 15.9995 13.913099 15.7826 13.958 15.573299 C 13.8633 15.5653 13.77 15.5555 13.666401 15.5555 L 12.333099 15.5555 C 9.8887 15.5555 9.8936 17.8804 9.889099 19.1049 C 9.889099 19.1071 9.8887 19.109301 9.8887 19.111099 L 9.8887 19.3333 C 9.8887 19.5786 10.087799 19.7778 10.333099 19.7778 L 13.0993 19.7778 C 13.520201 19.2302 14.118401 18.789301 14.9776 18.5818 Z M 20.9998 11.3333 C 20.018 11.3333 19.222 12.129299 19.222 13.111099 C 19.222 14.092899 20.018 14.888901 20.9998 14.888901 C 21.9816 14.888901 22.777599 14.092899 22.777599 13.111099 C 22.777599 12.129299 21.9816 11.3333 20.9998 11.3333 Z M 21.666401 15.5555 L 20.333099 15.5555 C 20.229601 15.5555 20.1367 15.5653 20.042 15.573299 C 20.086399 15.7826 20.1113 15.9995 20.1113 16.2222 C 20.1113 17.1658 19.687799 18.010599 19.0224 18.581301 C 19.8829 18.7889 20.4816 19.229799 20.902901 19.7778 L 23.666401 19.7778 C 23.9118 19.7778 24.110901 19.5786 24.110901 19.3333 L 24.110901 19.111099 C 24.110901 17.884001 24.110901 15.5555 21.666401 15.5555 Z M 17.8571 19.3333 L 16.1429 19.3333 C 13.0002 19.3333 13.006001 22.2698 13.0007 23.816401 C 13.0007 23.819099 12.9998 23.822201 12.9998 23.8244 L 12.9998 24.105301 C 12.9998 24.415501 13.2558 24.666599 13.571301 24.666599 L 20.428699 24.666599 C 20.7442 24.666599 21.0002 24.4151 21.0002 24.105301 L 21.0002 23.8244 C 21.0002 22.2742 20.9998 19.3333 17.8571 19.3333 Z M 16.9998 14 C 15.772699 14 14.777599 14.9951 14.777599 16.2222 C 14.777599 17.449301 15.772699 18.444401 16.9998 18.444401 C 18.2269 18.444401 19.222 17.449301 19.222 16.2222 C 19.222 14.9951 18.2269 14 16.9998 14 Z"/>
</svg>
