<svg width="16" height="16" viewBox="0 0 16 16" fill="none" xmlns="http://www.w3.org/2000/svg">
<path d="M12.9421 3.86978L9.46384 0.390667C9.21184 0.138667 8.87628 0 8.51984 0H4.88873C3.66339 0 2.6665 0.996889 2.6665 2.22222V13.7778C2.6665 15.0031 3.66339 16 4.88873 16H11.1109C12.3363 16 13.3332 15.0031 13.3332 13.7778V4.81333C13.3332 4.45644 13.1945 4.12133 12.9421 3.86978ZM12.2598 4.44444H9.33317C9.08784 4.44444 8.88873 4.24489 8.88873 4V1.07289L12.2598 4.44444ZM12.4443 13.7778C12.4443 14.5129 11.8461 15.1111 11.1109 15.1111H4.88873C4.15361 15.1111 3.55539 14.5129 3.55539 13.7778V2.22222C3.55539 1.48711 4.15361 0.888889 4.88873 0.888889H7.99984V4C7.99984 4.73511 8.59806 5.33333 9.33317 5.33333H12.4443V13.7778Z" fill="#001B41"/>
<path d="M10.6108 8.83361L8.35144 6.5745C8.17789 6.40095 7.89655 6.40095 7.723 6.5745L5.46366 8.83361C5.29011 9.00717 5.29011 9.2885 5.46366 9.46228C5.63722 9.63584 5.91855 9.63584 6.09211 9.46228L7.59277 7.96161V13.1109C7.59277 13.3563 7.79188 13.5554 8.03722 13.5554C8.28255 13.5554 8.48166 13.3563 8.48166 13.1109V7.96161L9.98233 9.46228C10.0692 9.54895 10.1828 9.5925 10.2966 9.5925C10.4103 9.5925 10.5239 9.54917 10.6108 9.46228C10.7843 9.28872 10.7843 9.00717 10.6108 8.83361Z" fill="#001B41"/>
</svg>
