<svg width="21" height="21" viewBox="0 0 21 21" fill="none" xmlns="http://www.w3.org/2000/svg">
<path d="M20.1278 9.55916L11.0861 1.3925C10.7531 1.0915 10.2467 1.0915 9.91305 1.3925L0.87197 9.55916C0.603636 9.80183 0.512053 10.1851 0.641553 10.5228C0.771053 10.8606 1.09597 11.0834 1.45822 11.0834H2.91655V19.5417C2.91655 20.0253 3.30797 20.4167 3.79155 20.4167H7.29155C7.77514 20.4167 8.16655 20.0253 8.16655 19.5417V13.4167H12.8332V19.5417C12.8332 20.0253 13.2246 20.4167 13.7082 20.4167H17.2082C17.6918 20.4167 18.0832 20.0253 18.0832 19.5417V11.0834H19.5416C19.9038 11.0834 20.2281 10.8606 20.3582 10.5228C20.4883 10.1851 20.3967 9.80183 20.1278 9.55916Z" fill="black"/>
</svg>
