<svg width="24" height="24" viewBox="0 0 24 24" fill="none" xmlns="http://www.w3.org/2000/svg">
<path d="M21.3333 5.99992H2.66659C1.93059 5.99992 1.33325 5.40259 1.33325 4.66659C1.33325 3.93059 1.93059 3.33325 2.66659 3.33325H21.3333C22.0693 3.33325 22.6666 3.93059 22.6666 4.66659C22.6666 5.40259 22.0693 5.99992 21.3333 5.99992ZM22.6666 11.9999C22.6666 11.2639 22.0693 10.6666 21.3333 10.6666H2.66659C1.93059 10.6666 1.33325 11.2639 1.33325 11.9999C1.33325 12.7359 1.93059 13.3333 2.66659 13.3333H21.3333C22.0693 13.3333 22.6666 12.7359 22.6666 11.9999ZM22.6666 19.3333C22.6666 18.5973 22.0693 17.9999 21.3333 17.9999H2.66659C1.93059 17.9999 1.33325 18.5973 1.33325 19.3333C1.33325 20.0693 1.93059 20.6666 2.66659 20.6666H21.3333C22.0693 20.6666 22.6666 20.0693 22.6666 19.3333Z" fill="#465A75"/>
</svg>
