<?xml version="1.0" encoding="UTF-8"?>
<svg xmlns="http://www.w3.org/2000/svg" xmlns:xlink="http://www.w3.org/1999/xlink" width="1449px" height="200px" viewBox="0 0 1449 200" version="1.1">
<defs>
<clipPath id="clip1">
  <path d="M 510 2.082031 L 594.089844 2.082031 L 594.089844 168.488281 L 510 168.488281 Z M 510 2.082031 "/>
</clipPath>
<clipPath id="clip2">
  <path d="M 380 2.082031 L 466.578125 2.082031 L 466.578125 168.488281 L 380 168.488281 Z M 380 2.082031 "/>
</clipPath>
<clipPath id="clip3">
  <path d="M 230 2.082031 L 327 2.082031 L 327 168.488281 L 230 168.488281 Z M 230 2.082031 "/>
</clipPath>
<clipPath id="clip4">
  <path d="M 90 2.082031 L 176.777344 2.082031 L 176.777344 168.488281 L 90 168.488281 Z M 90 2.082031 "/>
</clipPath>
<clipPath id="clip5">
  <path d="M 7.617188 2.082031 L 36 2.082031 L 36 168.488281 L 7.617188 168.488281 Z M 7.617188 2.082031 "/>
</clipPath>
</defs>
<g id="surface1">
<g clip-path="url(#clip1)" clip-rule="nonzero">
<path style=" stroke:none;fill-rule:nonzero;fill:rgb(100%,100%,100%);fill-opacity:1;" d="M 549.804688 168.46875 C 546.90625 168.476562 544.019531 168.183594 541.179688 167.617188 C 535.066406 166.382812 529.28125 163.925781 524.210938 160.394531 C 519.136719 156.863281 514.882812 152.332031 511.710938 147.101562 L 511.554688 146.808594 C 509.980469 143.910156 509.59375 140.535156 510.488281 137.375 C 511.371094 134.214844 513.457031 131.511719 516.332031 129.789062 C 518.3125 128.625 520.585938 128.011719 522.90625 128.011719 C 525.207031 128.023438 527.480469 128.625 529.460938 129.753906 C 531.453125 130.886719 533.109375 132.519531 534.226562 134.476562 L 534.667969 135.203125 L 536.050781 137.011719 L 537.894531 138.835938 C 540.296875 140.863281 543.207031 142.234375 546.316406 142.808594 C 548.84375 143.285156 551.433594 143.242188 553.9375 142.6875 C 556.4375 142.132812 558.804688 141.066406 560.855469 139.570312 C 562.980469 138.101562 564.746094 136.1875 566.015625 133.980469 C 567.292969 131.757812 568.042969 129.292969 568.210938 126.753906 C 568.425781 124.253906 568.085938 121.726562 567.214844 119.363281 C 566.34375 116.996094 564.960938 114.832031 563.164062 113.019531 C 563.164062 113.019531 520.621094 70.367188 519.691406 69.179688 L 517.597656 66.15625 C 512.617188 58.59375 510.363281 49.636719 511.203125 40.691406 C 511.65625 34.5 513.546875 28.488281 516.714844 23.097656 L 518.5625 19.949219 C 521.921875 15.285156 526.316406 11.402344 531.421875 8.59375 L 533.515625 7.132812 C 543.328125 1.890625 554.875 0.589844 565.652344 3.53125 C 576.441406 6.464844 585.609375 13.40625 591.203125 22.847656 C 592.0625 24.273438 592.640625 25.859375 592.867188 27.503906 C 593.09375 29.144531 592.980469 30.808594 592.539062 32.417969 C 592.097656 34.046875 591.316406 35.5625 590.265625 36.898438 C 589.199219 38.234375 587.886719 39.34375 586.382812 40.183594 C 584.457031 41.292969 582.261719 41.871094 580.03125 41.859375 C 577.730469 41.859375 575.480469 41.257812 573.507812 40.125 C 571.527344 38.996094 569.898438 37.375 568.765625 35.417969 C 567.554688 33.402344 565.914062 31.667969 563.945312 30.308594 C 561.984375 28.960938 559.753906 28.035156 557.402344 27.582031 C 555 27.128906 552.53125 27.164062 550.144531 27.695312 C 547.765625 28.214844 545.515625 29.210938 543.554688 30.617188 C 541.664062 32.054688 540.113281 33.855469 538.992188 35.925781 C 537.882812 37.988281 537.226562 40.25 537.09375 42.582031 C 536.886719 44.917969 537.207031 47.269531 537.996094 49.480469 C 538.789062 51.6875 540.058594 53.714844 541.710938 55.421875 L 581.695312 95.539062 C 587.726562 101.617188 591.78125 109.308594 593.355469 117.617188 C 594.925781 125.941406 593.941406 134.523438 590.535156 142.300781 C 587.128906 150.078125 581.445312 156.703125 574.1875 161.355469 C 566.933594 166.011719 558.429688 168.488281 549.738281 168.46875 Z M 549.804688 168.46875 "/>
</g>
<g clip-path="url(#clip2)" clip-rule="nonzero">
<path style=" stroke:none;fill-rule:nonzero;fill:rgb(100%,100%,100%);fill-opacity:1;" d="M 423.324219 168.445312 C 411.921875 168.433594 401 164.015625 392.9375 156.183594 C 384.878906 148.347656 380.351562 137.714844 380.339844 126.617188 L 380.339844 43.910156 C 380.339844 38.417969 381.449219 32.972656 383.613281 27.898438 C 385.773438 22.824219 388.933594 18.21875 392.929688 14.335938 C 396.914062 10.449219 401.65625 7.371094 406.875 5.265625 C 412.082031 3.171875 417.675781 2.082031 423.324219 2.082031 C 428.972656 2.082031 434.554688 3.171875 439.773438 5.265625 C 444.988281 7.371094 449.722656 10.449219 453.71875 14.335938 C 457.703125 18.21875 460.871094 22.824219 463.035156 27.898438 C 465.195312 32.972656 466.304688 38.417969 466.304688 43.910156 L 466.304688 126.617188 C 466.296875 137.714844 461.753906 148.347656 453.707031 156.183594 C 445.648438 164.015625 434.722656 168.433594 423.324219 168.445312 Z M 423.324219 27.34375 C 418.804688 27.34375 414.480469 29.085938 411.289062 32.199219 C 408.097656 35.304688 406.296875 39.515625 406.296875 43.910156 L 406.296875 126.617188 C 406.261719 128.804688 406.695312 130.96875 407.542969 132.992188 C 408.390625 135.007812 409.636719 136.855469 411.222656 138.394531 C 412.804688 139.933594 414.695312 141.15625 416.78125 141.984375 C 418.851562 142.800781 421.082031 143.21875 423.324219 143.195312 C 427.839844 143.183594 432.164062 141.441406 435.355469 138.328125 C 438.550781 135.222656 440.335938 131.011719 440.347656 126.617188 L 440.347656 43.910156 C 440.292969 39.527344 438.480469 35.347656 435.300781 32.257812 C 432.117188 29.167969 427.816406 27.398438 423.324219 27.34375 Z M 423.324219 27.34375 "/>
</g>
<g clip-path="url(#clip3)" clip-rule="nonzero">
<path style=" stroke:none;fill-rule:nonzero;fill:rgb(100%,100%,100%);fill-opacity:1;" d="M 256.371094 87.410156 L 256.371094 155.945312 C 256.371094 159.285156 255 162.5 252.566406 164.867188 C 250.132812 167.234375 246.839844 168.558594 243.398438 168.558594 C 239.957031 168.558594 236.664062 167.234375 234.230469 164.867188 C 231.792969 162.5 230.4375 159.285156 230.4375 155.945312 L 230.4375 35.019531 Z M 326.386719 135.585938 L 326.386719 14.695312 C 326.25 11.445312 324.824219 8.367188 322.402344 6.113281 C 319.980469 3.859375 316.765625 2.59375 313.414062 2.59375 C 310.0625 2.59375 306.835938 3.859375 304.425781 6.113281 C 302.003906 8.367188 300.578125 11.445312 300.441406 14.695312 L 300.441406 83.164062 Z M 255.148438 9.25 L 255.148438 9 C 253.972656 6.964844 252.273438 5.277344 250.210938 4.085938 C 248.140625 2.910156 245.796875 2.277344 243.398438 2.265625 C 242.527344 2.265625 241.644531 2.355469 240.792969 2.535156 C 237.875 3.089844 235.246094 4.621094 233.378906 6.863281 C 231.511719 9.113281 230.503906 11.921875 230.550781 14.808594 L 230.550781 17.707031 L 301.753906 161.527344 C 302.863281 163.574219 304.527344 165.296875 306.554688 166.507812 C 308.582031 167.730469 310.902344 168.398438 313.289062 168.445312 C 314.285156 168.445312 315.292969 168.332031 316.265625 168.082031 C 319.132812 167.503906 321.699219 165.976562 323.546875 163.769531 C 325.390625 161.550781 326.398438 158.785156 326.386719 155.945312 L 326.386719 153.089844 C 326.386719 153.089844 257.0625 13.089844 255.148438 9.25 Z M 255.148438 9.25 "/>
</g>
<g clip-path="url(#clip4)" clip-rule="nonzero">
<path style=" stroke:none;fill-rule:nonzero;fill:rgb(100%,100%,100%);fill-opacity:1;" d="M 133.136719 168.445312 C 121.738281 168.433594 110.804688 164.027344 102.742188 156.195312 C 94.683594 148.347656 90.15625 137.714844 90.15625 126.617188 L 90.15625 43.910156 C 90.15625 32.8125 94.683594 22.179688 102.742188 14.335938 C 110.804688 6.488281 121.738281 2.082031 133.136719 2.082031 C 144.539062 2.082031 155.472656 6.488281 163.535156 14.335938 C 171.59375 22.179688 176.121094 32.8125 176.121094 43.910156 L 176.121094 126.617188 C 176.109375 137.714844 171.582031 148.347656 163.523438 156.195312 C 155.460938 164.027344 144.539062 168.433594 133.136719 168.445312 Z M 133.136719 27.34375 C 130.898438 27.332031 128.679688 27.761719 126.617188 28.589844 C 124.546875 29.425781 122.667969 30.648438 121.09375 32.191406 C 119.507812 33.730469 118.253906 35.550781 117.402344 37.566406 C 116.542969 39.570312 116.101562 41.734375 116.113281 43.910156 L 116.113281 126.617188 C 116.113281 131.023438 117.902344 135.234375 121.09375 138.335938 C 124.285156 141.441406 128.621094 143.195312 133.136719 143.195312 C 137.65625 143.195312 141.980469 141.441406 145.171875 138.335938 C 148.363281 135.234375 150.164062 131.023438 150.164062 126.617188 L 150.164062 43.910156 C 150.105469 39.527344 148.285156 35.347656 145.113281 32.257812 C 141.933594 29.167969 137.632812 27.398438 133.136719 27.34375 Z M 133.136719 27.34375 "/>
</g>
<g clip-path="url(#clip5)" clip-rule="nonzero">
<path style=" stroke:none;fill-rule:nonzero;fill:rgb(100%,100%,100%);fill-opacity:1;" d="M 21.710938 168.375 C 19.84375 168.386719 18 168.035156 16.277344 167.335938 C 14.546875 166.644531 12.984375 165.613281 11.671875 164.324219 C 10.359375 163.03125 9.328125 161.503906 8.625 159.816406 C 7.933594 158.128906 7.585938 156.316406 7.617188 154.507812 L 7.617188 15.625 C 7.6875 12.011719 9.214844 8.570312 11.875 6.058594 C 14.523438 3.53125 18.101562 2.128906 21.8125 2.152344 C 24.914062 2.105469 27.949219 3.078125 30.417969 4.925781 C 32.886719 6.757812 34.652344 9.351562 35.421875 12.273438 C 35.523438 12.589844 35.589844 12.917969 35.648438 13.246094 L 35.648438 13.847656 C 35.785156 14.59375 35.851562 15.34375 35.839844 16.089844 C 35.839844 16.089844 35.839844 153.023438 35.839844 154.597656 C 35.851562 156.410156 35.488281 158.199219 34.789062 159.875 C 34.085938 161.550781 33.042969 163.066406 31.730469 164.34375 C 30.417969 165.636719 28.855469 166.644531 27.136719 167.335938 C 25.425781 168.023438 23.582031 168.386719 21.710938 168.375 Z M 21.710938 168.375 "/>
</g>
<path style=" stroke:none;fill-rule:nonzero;fill:rgb(100%,100%,100%);fill-opacity:1;" d="M 687.777344 167.289062 L 687.777344 73.855469 L 750.0625 73.855469 L 750.0625 88.40625 L 703.613281 88.40625 L 703.613281 111.765625 L 732.085938 111.765625 L 732.085938 126.3125 L 703.613281 126.3125 L 703.613281 152.605469 L 752.9375 152.605469 L 752.9375 167.289062 Z M 687.777344 167.289062 "/>
<path style=" stroke:none;fill-rule:nonzero;fill:rgb(100%,100%,100%);fill-opacity:1;" d="M 791.121094 168.886719 C 783.445312 168.886719 777.410156 166.859375 773.019531 162.816406 C 768.625 158.761719 766.429688 153.273438 766.429688 146.332031 C 766.429688 141.792969 767.550781 137.851562 769.792969 134.523438 C 772.035156 131.136719 775.191406 128.53125 779.257812 126.710938 C 783.332031 124.839844 788.085938 123.902344 793.53125 123.902344 C 796.722656 123.902344 799.769531 124.21875 802.65625 124.839844 C 805.574219 125.417969 808.179688 126.3125 810.464844 127.511719 L 810.464844 123.109375 C 810.464844 118.75 809.324219 115.523438 807.035156 113.429688 C 804.75 111.289062 801.296875 110.222656 796.679688 110.222656 C 793.292969 110.222656 789.796875 110.824219 786.183594 112.023438 C 782.574219 113.226562 779.03125 114.96875 775.554688 117.234375 L 770.957031 105.289062 C 774.796875 102.796875 779.121094 100.882812 783.921875 99.546875 C 788.71875 98.164062 793.554688 97.476562 798.398438 97.476562 C 807.410156 97.476562 814.15625 99.613281 818.628906 103.882812 C 823.15625 108.105469 825.421875 114.46875 825.421875 122.972656 L 825.421875 167.289062 L 810.464844 167.289062 L 810.464844 161.550781 C 808 163.902344 805.101562 165.726562 801.761719 167.019531 C 798.421875 168.261719 794.878906 168.886719 791.121094 168.886719 Z M 794.277344 156.136719 C 797.253906 156.136719 800.132812 155.515625 802.925781 154.269531 C 805.757812 153.023438 808.269531 151.246094 810.464844 148.9375 L 810.464844 139.664062 C 808.417969 138.542969 806.085938 137.703125 803.46875 137.125 C 800.914062 136.503906 798.398438 136.1875 795.929688 136.1875 C 791.359375 136.1875 787.769531 137.105469 785.152344 138.925781 C 782.550781 140.703125 781.25 143.171875 781.25 146.332031 C 781.25 149.355469 782.390625 151.753906 784.679688 153.542969 C 786.964844 155.277344 790.167969 156.136719 794.277344 156.136719 Z M 794.277344 156.136719 "/>
<path style=" stroke:none;fill-rule:nonzero;fill:rgb(100%,100%,100%);fill-opacity:1;" d="M 867.667969 168.886719 C 862.402344 168.886719 857.355469 167.800781 852.5 165.613281 C 847.652344 163.394531 843.769531 160.4375 840.839844 156.75 L 851.128906 148.199219 C 853.550781 150.644531 856.28125 152.582031 859.289062 154.007812 C 862.3125 155.433594 865.269531 156.136719 868.144531 156.136719 C 871.800781 156.136719 874.640625 155.515625 876.644531 154.269531 C 878.660156 152.976562 879.667969 151.175781 879.667969 148.867188 C 879.667969 147.441406 879.214844 146.148438 878.296875 144.996094 C 877.378906 143.796875 875.785156 142.617188 873.496094 141.460938 C 871.210938 140.308594 868.054688 138.996094 864.023438 137.523438 C 856.167969 134.714844 850.585938 131.691406 847.292969 128.441406 C 843.996094 125.148438 842.355469 121.039062 842.355469 116.101562 C 842.355469 110.542969 844.640625 106.046875 849.214844 102.617188 C 853.789062 99.195312 859.734375 97.476562 867.046875 97.476562 C 872.027344 97.476562 876.621094 98.414062 880.832031 100.28125 C 885.089844 102.105469 888.746094 104.753906 891.8125 108.21875 L 881.59375 116.429688 C 877.425781 112.296875 872.492188 110.222656 866.773438 110.222656 C 863.707031 110.222656 861.261719 110.800781 859.425781 111.957031 C 857.605469 113.078125 856.6875 114.5625 856.6875 116.429688 C 856.6875 118.296875 857.738281 119.972656 859.84375 121.433594 C 861.996094 122.859375 865.925781 124.523438 871.640625 126.4375 C 876.859375 128.136719 881.105469 130.027344 884.398438 132.121094 C 887.738281 134.207031 890.160156 136.605469 891.679688 139.324219 C 893.230469 142.039062 894.011719 145.175781 894.011719 148.730469 C 894.011719 155.003906 891.65625 159.941406 886.933594 163.554688 C 882.269531 167.109375 875.851562 168.886719 867.667969 168.886719 Z M 867.667969 168.886719 "/>
<path style=" stroke:none;fill-rule:nonzero;fill:rgb(100%,100%,100%);fill-opacity:1;" d="M 917.792969 193.183594 L 928.425781 165.953125 L 902.285156 99.082031 L 918 99.082031 L 933.980469 141.125 C 934.433594 142.199219 934.84375 143.261719 935.214844 144.328125 C 935.578125 145.390625 935.894531 146.511719 936.179688 147.667969 C 936.539062 146.511719 936.902344 145.390625 937.265625 144.328125 C 937.640625 143.261719 938 142.199219 938.363281 141.125 L 954.484375 99.082031 L 970.332031 99.082031 L 933.5625 193.183594 Z M 917.792969 193.183594 "/>
<path style=" stroke:none;fill-rule:nonzero;fill:rgb(100%,100%,100%);fill-opacity:1;" d="M 1004.859375 168.886719 C 999.59375 168.886719 994.546875 167.800781 989.699219 165.613281 C 984.84375 163.394531 980.960938 160.4375 978.042969 156.75 L 988.320312 148.199219 C 990.753906 150.644531 993.46875 152.582031 996.492188 154.007812 C 999.503906 155.433594 1002.457031 156.136719 1005.34375 156.136719 C 1009.003906 156.136719 1011.832031 155.515625 1013.847656 154.269531 C 1015.851562 152.976562 1016.859375 151.175781 1016.859375 148.867188 C 1016.859375 147.441406 1016.40625 146.148438 1015.488281 144.996094 C 1014.570312 143.796875 1012.976562 142.617188 1010.6875 141.460938 C 1008.402344 140.308594 1005.253906 138.996094 1001.226562 137.523438 C 993.359375 134.714844 987.777344 131.691406 984.480469 128.441406 C 981.1875 125.148438 979.546875 121.039062 979.546875 116.101562 C 979.546875 110.542969 981.832031 106.046875 986.40625 102.617188 C 990.980469 99.195312 996.933594 97.476562 1004.246094 97.476562 C 1009.226562 97.476562 1013.824219 98.414062 1018.035156 100.28125 C 1022.28125 102.105469 1025.9375 104.753906 1029.003906 108.21875 L 1018.78125 116.429688 C 1014.617188 112.296875 1009.679688 110.222656 1003.964844 110.222656 C 1000.90625 110.222656 998.453125 110.800781 996.628906 111.957031 C 994.796875 113.078125 993.878906 114.5625 993.878906 116.429688 C 993.878906 118.296875 994.929688 119.972656 997.035156 121.433594 C 999.1875 122.859375 1003.117188 124.523438 1008.84375 126.4375 C 1014.050781 128.136719 1018.308594 130.027344 1021.601562 132.121094 C 1024.941406 134.207031 1027.363281 136.605469 1028.871094 139.324219 C 1030.421875 142.039062 1031.203125 145.175781 1031.203125 148.730469 C 1031.203125 155.003906 1028.847656 159.941406 1024.136719 163.554688 C 1019.460938 167.109375 1013.054688 168.886719 1004.859375 168.886719 Z M 1004.859375 168.886719 "/>
<path style=" stroke:none;fill-rule:nonzero;fill:rgb(100%,100%,100%);fill-opacity:1;" d="M 1067.503906 168.886719 C 1062.207031 168.886719 1058.210938 167.425781 1055.507812 164.480469 C 1052.8125 161.550781 1051.464844 157.257812 1051.464844 151.609375 L 1051.464844 112.226562 L 1040.835938 112.226562 L 1040.835938 99.082031 L 1051.464844 99.082031 L 1051.464844 78.058594 L 1066.828125 70.914062 L 1066.828125 99.082031 L 1083.160156 99.082031 L 1083.160156 112.226562 L 1066.828125 112.226562 L 1066.828125 148.335938 C 1066.828125 150.78125 1067.3125 152.605469 1068.273438 153.804688 C 1069.269531 154.960938 1070.8125 155.535156 1072.871094 155.535156 C 1076.210938 155.535156 1079.832031 154.472656 1083.773438 152.34375 L 1082.0625 165.816406 C 1079.914062 166.847656 1077.636719 167.59375 1075.261719 168.09375 C 1072.882812 168.625 1070.300781 168.886719 1067.503906 168.886719 Z M 1067.503906 168.886719 "/>
<path style=" stroke:none;fill-rule:nonzero;fill:rgb(100%,100%,100%);fill-opacity:1;" d="M 1127.457031 168.886719 C 1117.65625 168.886719 1109.957031 165.703125 1104.332031 159.339844 C 1098.703125 152.976562 1095.898438 144.28125 1095.898438 133.253906 C 1095.898438 125.90625 1097.175781 119.566406 1099.734375 114.230469 C 1102.304688 108.886719 1105.9375 104.777344 1110.648438 101.878906 C 1115.402344 98.945312 1121.003906 97.476562 1127.457031 97.476562 C 1133.945312 97.476562 1139.546875 98.925781 1144.257812 101.8125 C 1148.964844 104.710938 1152.601562 108.820312 1155.171875 114.164062 C 1157.726562 119.496094 1159.007812 125.835938 1159.007812 133.1875 C 1159.007812 140.523438 1157.726562 146.863281 1155.171875 152.207031 C 1152.601562 157.539062 1148.964844 161.664062 1144.257812 164.550781 C 1139.546875 167.449219 1133.945312 168.886719 1127.457031 168.886719 Z M 1127.457031 154.675781 C 1132.53125 154.675781 1136.480469 152.785156 1139.320312 149.003906 C 1142.152344 145.222656 1143.578125 139.945312 1143.578125 133.1875 C 1143.578125 126.382812 1142.128906 121.082031 1139.253906 117.300781 C 1136.414062 113.519531 1132.484375 111.628906 1127.457031 111.628906 C 1122.421875 111.628906 1118.46875 113.542969 1115.582031 117.367188 C 1112.753906 121.148438 1111.335938 126.4375 1111.335938 133.253906 C 1111.335938 139.96875 1112.753906 145.222656 1115.582031 149.003906 C 1118.46875 152.785156 1122.421875 154.675781 1127.457031 154.675781 Z M 1127.457031 154.675781 "/>
<path style=" stroke:none;fill-rule:nonzero;fill:rgb(100%,100%,100%);fill-opacity:1;" d="M 1175.964844 167.289062 L 1175.964844 99.082031 L 1191.339844 99.082031 L 1191.339844 106.953125 C 1192.707031 104.019531 1194.769531 101.710938 1197.507812 100.011719 C 1200.304688 98.324219 1203.359375 97.476562 1206.699219 97.476562 C 1211.410156 97.476562 1215.394531 98.96875 1218.644531 101.949219 L 1216.515625 115.761719 C 1214.769531 114.425781 1213.039062 113.472656 1211.296875 112.894531 C 1209.5625 112.320312 1207.640625 112.023438 1205.546875 112.023438 C 1202.613281 112.023438 1200.101562 112.738281 1197.984375 114.164062 C 1195.878906 115.589844 1194.238281 117.605469 1193.046875 120.234375 C 1191.90625 122.859375 1191.339844 125.972656 1191.339844 129.585938 L 1191.339844 167.289062 Z M 1175.964844 167.289062 "/>
<path style=" stroke:none;fill-rule:nonzero;fill:rgb(100%,100%,100%);fill-opacity:1;" d="M 1250.542969 168.886719 C 1242.867188 168.886719 1236.824219 166.859375 1232.429688 162.816406 C 1228.039062 158.761719 1225.84375 153.273438 1225.84375 146.332031 C 1225.84375 141.792969 1226.976562 137.851562 1229.214844 134.523438 C 1231.457031 131.136719 1234.605469 128.53125 1238.679688 126.710938 C 1242.742188 124.839844 1247.5 123.902344 1252.945312 123.902344 C 1256.148438 123.902344 1259.179688 124.21875 1262.066406 124.839844 C 1264.988281 125.417969 1267.601562 126.3125 1269.890625 127.511719 L 1269.890625 123.109375 C 1269.890625 118.75 1268.746094 115.523438 1266.460938 113.429688 C 1264.171875 111.289062 1260.71875 110.222656 1256.101562 110.222656 C 1252.71875 110.222656 1249.21875 110.824219 1245.609375 112.023438 C 1241.996094 113.226562 1238.453125 114.96875 1234.976562 117.234375 L 1230.371094 105.289062 C 1234.21875 102.796875 1238.542969 100.882812 1243.34375 99.546875 C 1248.144531 98.164062 1252.964844 97.476562 1257.8125 97.476562 C 1266.820312 97.476562 1273.570312 99.613281 1278.050781 103.882812 C 1282.582031 108.105469 1284.84375 114.46875 1284.84375 122.972656 L 1284.84375 167.289062 L 1269.890625 167.289062 L 1269.890625 161.550781 C 1267.421875 163.902344 1264.511719 165.726562 1261.183594 167.019531 C 1257.84375 168.261719 1254.289062 168.886719 1250.542969 168.886719 Z M 1253.703125 156.136719 C 1256.667969 156.136719 1259.554688 155.515625 1262.339844 154.269531 C 1265.167969 153.023438 1267.695312 151.246094 1269.890625 148.9375 L 1269.890625 139.664062 C 1267.828125 138.542969 1265.496094 137.703125 1262.894531 137.125 C 1260.324219 136.503906 1257.8125 136.1875 1255.34375 136.1875 C 1250.769531 136.1875 1247.179688 137.105469 1244.578125 138.925781 C 1241.960938 140.703125 1240.671875 143.171875 1240.671875 146.332031 C 1240.671875 149.355469 1241.816406 151.753906 1244.101562 153.542969 C 1246.390625 155.277344 1249.582031 156.136719 1253.703125 156.136719 Z M 1253.703125 156.136719 "/>
<path style=" stroke:none;fill-rule:nonzero;fill:rgb(100%,100%,100%);fill-opacity:1;" d="M 1329.730469 195.71875 L 1321.5 183.367188 C 1328.042969 182.972656 1333.183594 182.210938 1336.941406 181.101562 C 1340.734375 179.992188 1343.402344 178.429688 1344.953125 176.425781 C 1346.5625 174.46875 1347.367188 171.910156 1347.367188 168.75 L 1347.367188 162.351562 C 1343.621094 166.710938 1338.265625 168.886719 1331.300781 168.886719 C 1325.3125 168.886719 1320.152344 167.449219 1315.804688 164.550781 C 1311.46875 161.617188 1308.097656 157.472656 1305.71875 152.140625 C 1303.386719 146.796875 1302.222656 140.457031 1302.222656 133.117188 C 1302.222656 125.90625 1303.433594 119.632812 1305.855469 114.300781 C 1308.277344 108.957031 1311.695312 104.824219 1316.078125 101.878906 C 1320.46875 98.945312 1325.632812 97.476562 1331.585938 97.476562 C 1334.835938 97.476562 1337.8125 98.007812 1340.507812 99.082031 C 1343.246094 100.101562 1345.53125 101.574219 1347.367188 103.488281 L 1347.367188 99.082031 L 1362.796875 99.082031 L 1362.796875 162.613281 C 1362.796875 168.21875 1362.171875 173.03125 1360.9375 177.027344 C 1359.75 181.082031 1357.828125 184.398438 1355.175781 186.980469 C 1352.574219 189.605469 1349.167969 191.597656 1344.953125 192.980469 C 1340.753906 194.363281 1335.671875 195.277344 1329.730469 195.71875 Z M 1333.984375 154.675781 C 1336.589844 154.675781 1339.089844 154.03125 1341.46875 152.738281 C 1343.84375 151.402344 1345.804688 149.625 1347.367188 147.394531 L 1347.367188 118.703125 C 1345.996094 116.609375 1344.070312 114.921875 1341.605469 113.632812 C 1339.136719 112.296875 1336.667969 111.628906 1334.1875 111.628906 C 1328.835938 111.628906 1324.75 113.472656 1321.917969 117.164062 C 1319.078125 120.8125 1317.660156 126.132812 1317.660156 133.117188 C 1317.660156 137.613281 1318.316406 141.460938 1319.644531 144.667969 C 1320.980469 147.871094 1322.847656 150.339844 1325.269531 152.070312 C 1327.691406 153.804688 1330.601562 154.675781 1333.984375 154.675781 Z M 1333.984375 154.675781 "/>
<path style=" stroke:none;fill-rule:nonzero;fill:rgb(100%,100%,100%);fill-opacity:1;" d="M 1411.699219 168.886719 C 1405.066406 168.886719 1399.359375 167.402344 1394.5625 164.414062 C 1389.75 161.4375 1386.070312 157.28125 1383.511719 151.9375 C 1380.953125 146.558594 1379.675781 140.285156 1379.675781 133.117188 C 1379.675781 125.691406 1381 119.328125 1383.648438 114.027344 C 1386.296875 108.695312 1390.019531 104.597656 1394.832031 101.753906 C 1399.632812 98.902344 1405.257812 97.476562 1411.699219 97.476562 C 1417.234375 97.476562 1422.261719 98.628906 1426.800781 100.949219 C 1431.363281 103.261719 1434.996094 106.828125 1437.703125 111.628906 C 1440.398438 116.382812 1441.742188 122.464844 1441.742188 129.847656 C 1441.742188 131 1441.730469 132.382812 1441.6875 133.988281 C 1441.640625 135.542969 1441.496094 137.125 1441.269531 138.722656 L 1394.96875 138.722656 C 1395.238281 142.199219 1396.078125 145.222656 1397.503906 147.804688 C 1398.964844 150.386719 1400.910156 152.398438 1403.332031 153.871094 C 1405.757812 155.300781 1408.621094 156.011719 1411.914062 156.011719 C 1415.105469 156.011719 1417.949219 155.503906 1420.417969 154.472656 C 1422.882812 153.40625 1425.238281 151.710938 1427.480469 149.398438 L 1436.402344 158.546875 C 1433.515625 161.617188 1429.992188 164.109375 1425.839844 166.019531 C 1421.71875 167.933594 1416.996094 168.886719 1411.699219 168.886719 Z M 1395.023438 126.640625 L 1426.664062 126.640625 C 1426.519531 123.390625 1425.839844 120.550781 1424.605469 118.105469 C 1423.40625 115.660156 1421.71875 113.769531 1419.523438 112.433594 C 1417.324219 111.050781 1414.652344 110.359375 1411.496094 110.359375 C 1407.105469 110.359375 1403.34375 111.695312 1400.242188 114.367188 C 1397.175781 117.027344 1395.445312 121.128906 1395.023438 126.640625 Z M 1395.023438 126.640625 "/>
</g>
</svg>
