<?xml version="1.0" encoding="UTF-8"?>
<svg xmlns="http://www.w3.org/2000/svg" xmlns:xlink="http://www.w3.org/1999/xlink" width="500px" height="69px" viewBox="0 0 498 69" version="1.1">
<defs>
<clipPath id="clip1">
  <path d="M 174 0.71875 L 204 0.71875 L 204 58.128906 L 174 58.128906 Z M 174 0.71875 "/>
</clipPath>
<clipPath id="clip2">
  <path d="M 130 0.71875 L 160 0.71875 L 160 58.128906 L 130 58.128906 Z M 130 0.71875 "/>
</clipPath>
<clipPath id="clip3">
  <path d="M 78 0.71875 L 112 0.71875 L 112 58.128906 L 78 58.128906 Z M 78 0.71875 "/>
</clipPath>
<clipPath id="clip4">
  <path d="M 30 0.71875 L 60 0.71875 L 60 58.128906 L 30 58.128906 Z M 30 0.71875 "/>
</clipPath>
<clipPath id="clip5">
  <path d="M 1.628906 0.71875 L 12 0.71875 L 12 58.128906 L 1.628906 58.128906 Z M 1.628906 0.71875 "/>
</clipPath>
</defs>
<g id="surface1">
<g clip-path="url(#clip1)" clip-rule="nonzero">
<path style=" stroke:none;fill-rule:nonzero;fill:rgb(100%,100%,100%);fill-opacity:1;" d="M 188.71875 58.121094 C 187.71875 58.125 186.722656 58.023438 185.742188 57.828125 C 183.632812 57.402344 181.636719 56.554688 179.886719 55.335938 C 178.136719 54.117188 176.667969 52.554688 175.574219 50.75 L 175.519531 50.648438 C 174.976562 49.648438 174.84375 48.484375 175.152344 47.394531 C 175.457031 46.304688 176.175781 45.371094 177.167969 44.777344 C 177.851562 44.375 178.636719 44.164062 179.4375 44.164062 C 180.230469 44.167969 181.015625 44.375 181.699219 44.765625 C 182.386719 45.15625 182.957031 45.71875 183.34375 46.394531 L 183.496094 46.644531 L 183.972656 47.269531 L 184.609375 47.898438 C 185.4375 48.597656 186.441406 49.070312 187.515625 49.269531 C 188.386719 49.433594 189.28125 49.417969 190.144531 49.226562 C 191.007812 49.035156 191.824219 48.667969 192.53125 48.152344 C 193.265625 47.644531 193.875 46.984375 194.3125 46.222656 C 194.753906 45.457031 195.011719 44.605469 195.070312 43.730469 C 195.144531 42.867188 195.027344 41.996094 194.726562 41.179688 C 194.425781 40.363281 193.949219 39.617188 193.328125 38.992188 C 193.328125 38.992188 178.648438 24.277344 178.328125 23.867188 L 177.605469 22.824219 C 175.886719 20.214844 175.109375 17.125 175.398438 14.039062 C 175.554688 11.902344 176.207031 9.828125 177.300781 7.96875 L 177.9375 6.882812 C 179.097656 5.273438 180.613281 3.933594 182.375 2.964844 L 183.097656 2.460938 C 186.484375 0.652344 190.46875 0.203125 194.1875 1.21875 C 197.910156 2.230469 201.074219 4.625 203.003906 7.882812 C 203.300781 8.375 203.5 8.921875 203.578125 9.488281 C 203.65625 10.054688 203.617188 10.628906 203.464844 11.183594 C 203.3125 11.746094 203.042969 12.269531 202.679688 12.730469 C 202.3125 13.191406 201.859375 13.574219 201.339844 13.863281 C 200.675781 14.246094 199.917969 14.445312 199.148438 14.441406 C 198.355469 14.441406 197.578125 14.234375 196.898438 13.84375 C 196.214844 13.453125 195.652344 12.894531 195.261719 12.21875 C 194.84375 11.523438 194.277344 10.925781 193.597656 10.457031 C 192.921875 9.992188 192.152344 9.671875 191.339844 9.515625 C 190.511719 9.359375 189.660156 9.371094 188.835938 9.554688 C 188.015625 9.734375 187.238281 10.078125 186.5625 10.5625 C 185.910156 11.058594 185.375 11.679688 184.988281 12.394531 C 184.605469 13.105469 184.378906 13.886719 184.332031 14.691406 C 184.261719 15.496094 184.371094 16.308594 184.644531 17.070312 C 184.917969 17.832031 185.355469 18.53125 185.925781 19.121094 L 199.722656 32.960938 C 201.804688 35.058594 203.203125 37.710938 203.746094 40.578125 C 204.289062 43.449219 203.949219 46.410156 202.773438 49.09375 C 201.597656 51.777344 199.636719 54.0625 197.132812 55.667969 C 194.628906 57.273438 191.695312 58.128906 188.695312 58.121094 Z M 188.71875 58.121094 "/>
</g>
<g clip-path="url(#clip2)" clip-rule="nonzero">
<path style=" stroke:none;fill-rule:nonzero;fill:rgb(100%,100%,100%);fill-opacity:1;" d="M 145.074219 58.113281 C 141.140625 58.109375 137.371094 56.585938 134.589844 53.882812 C 131.808594 51.179688 130.246094 47.511719 130.242188 43.683594 L 130.242188 15.148438 C 130.242188 13.253906 130.625 11.375 131.371094 9.625 C 132.117188 7.875 133.207031 6.285156 134.585938 4.945312 C 135.960938 3.605469 137.597656 2.542969 139.398438 1.816406 C 141.195312 1.09375 143.125 0.71875 145.074219 0.71875 C 147.023438 0.71875 148.949219 1.09375 150.75 1.816406 C 152.550781 2.542969 154.183594 3.605469 155.5625 4.945312 C 156.9375 6.285156 158.03125 7.875 158.777344 9.625 C 159.523438 11.375 159.90625 13.253906 159.90625 15.148438 L 159.90625 43.683594 C 159.902344 47.511719 158.335938 51.179688 155.558594 53.882812 C 152.777344 56.585938 149.007812 58.109375 145.074219 58.113281 Z M 145.074219 9.433594 C 143.515625 9.433594 142.023438 10.035156 140.921875 11.109375 C 139.820312 12.179688 139.199219 13.632812 139.199219 15.148438 L 139.199219 43.683594 C 139.1875 44.4375 139.335938 45.183594 139.628906 45.882812 C 139.921875 46.578125 140.351562 47.214844 140.898438 47.746094 C 141.445312 48.277344 142.097656 48.699219 142.816406 48.984375 C 143.53125 49.265625 144.300781 49.410156 145.074219 49.402344 C 146.632812 49.398438 148.125 48.796875 149.226562 47.722656 C 150.328125 46.652344 150.945312 45.199219 150.949219 43.683594 L 150.949219 15.148438 C 150.929688 13.636719 150.304688 12.195312 149.207031 11.128906 C 148.109375 10.0625 146.625 9.453125 145.074219 9.433594 Z M 145.074219 9.433594 "/>
</g>
<g clip-path="url(#clip3)" clip-rule="nonzero">
<path style=" stroke:none;fill-rule:nonzero;fill:rgb(100%,100%,100%);fill-opacity:1;" d="M 87.464844 30.15625 L 87.464844 53.800781 C 87.464844 54.953125 86.992188 56.0625 86.152344 56.878906 C 85.3125 57.695312 84.175781 58.152344 82.988281 58.152344 C 81.800781 58.152344 80.664062 57.695312 79.824219 56.878906 C 78.984375 56.0625 78.515625 54.953125 78.515625 53.800781 L 78.515625 12.082031 Z M 111.625 46.777344 L 111.625 5.070312 C 111.578125 3.949219 111.085938 2.886719 110.25 2.109375 C 109.414062 1.332031 108.304688 0.894531 107.148438 0.894531 C 105.992188 0.894531 104.878906 1.332031 104.046875 2.109375 C 103.210938 2.886719 102.71875 3.949219 102.671875 5.070312 L 102.671875 28.691406 Z M 87.042969 3.191406 L 87.042969 3.105469 C 86.636719 2.402344 86.050781 1.820312 85.339844 1.410156 C 84.625 1.003906 83.816406 0.785156 82.988281 0.78125 C 82.6875 0.78125 82.382812 0.8125 82.089844 0.875 C 81.082031 1.066406 80.175781 1.59375 79.53125 2.367188 C 78.886719 3.144531 78.539062 4.113281 78.554688 5.109375 L 78.554688 6.109375 L 103.125 55.726562 C 103.507812 56.433594 104.082031 57.027344 104.78125 57.445312 C 105.480469 57.867188 106.28125 58.097656 107.105469 58.113281 C 107.449219 58.113281 107.796875 58.074219 108.132812 57.988281 C 109.121094 57.789062 110.007812 57.261719 110.644531 56.5 C 111.28125 55.734375 111.628906 54.78125 111.625 53.800781 L 111.625 52.816406 C 111.625 52.816406 87.703125 4.515625 87.042969 3.191406 Z M 87.042969 3.191406 "/>
</g>
<g clip-path="url(#clip4)" clip-rule="nonzero">
<path style=" stroke:none;fill-rule:nonzero;fill:rgb(100%,100%,100%);fill-opacity:1;" d="M 44.941406 58.113281 C 41.007812 58.109375 37.234375 56.589844 34.453125 53.886719 C 31.671875 51.179688 30.109375 47.511719 30.109375 43.683594 L 30.109375 15.148438 C 30.109375 11.320312 31.671875 7.652344 34.453125 4.945312 C 37.234375 2.238281 41.007812 0.71875 44.941406 0.71875 C 48.875 0.71875 52.648438 2.238281 55.429688 4.945312 C 58.210938 7.652344 59.773438 11.320312 59.773438 15.148438 L 59.773438 43.683594 C 59.769531 47.511719 58.207031 51.179688 55.425781 53.886719 C 52.644531 56.589844 48.875 58.109375 44.941406 58.113281 Z M 44.941406 9.433594 C 44.167969 9.429688 43.402344 9.578125 42.691406 9.863281 C 41.976562 10.152344 41.328125 10.574219 40.785156 11.105469 C 40.238281 11.636719 39.804688 12.265625 39.511719 12.960938 C 39.214844 13.652344 39.0625 14.398438 39.066406 15.148438 L 39.066406 43.683594 C 39.066406 45.203125 39.683594 46.65625 40.785156 47.726562 C 41.886719 48.796875 43.382812 49.402344 44.941406 49.402344 C 46.5 49.402344 47.992188 48.796875 49.09375 47.726562 C 50.195312 46.65625 50.816406 45.203125 50.816406 43.683594 L 50.816406 15.148438 C 50.796875 13.636719 50.167969 12.195312 49.074219 11.128906 C 47.976562 10.0625 46.492188 9.453125 44.941406 9.433594 Z M 44.941406 9.433594 "/>
</g>
<g clip-path="url(#clip5)" clip-rule="nonzero">
<path style=" stroke:none;fill-rule:nonzero;fill:rgb(100%,100%,100%);fill-opacity:1;" d="M 6.492188 58.089844 C 5.847656 58.09375 5.210938 57.972656 4.617188 57.730469 C 4.019531 57.492188 3.480469 57.136719 3.027344 56.691406 C 2.574219 56.246094 2.21875 55.71875 1.976562 55.136719 C 1.738281 54.554688 1.617188 53.929688 1.628906 53.304688 L 1.628906 5.390625 C 1.652344 4.144531 2.179688 2.957031 3.097656 2.089844 C 4.011719 1.21875 5.246094 0.734375 6.527344 0.742188 C 7.597656 0.726562 8.644531 1.0625 9.496094 1.699219 C 10.347656 2.332031 10.957031 3.226562 11.222656 4.234375 C 11.257812 4.34375 11.28125 4.457031 11.300781 4.570312 L 11.300781 4.777344 C 11.347656 5.035156 11.371094 5.292969 11.367188 5.550781 C 11.367188 5.550781 11.367188 52.792969 11.367188 53.335938 C 11.371094 53.960938 11.246094 54.578125 11.003906 55.15625 C 10.761719 55.734375 10.402344 56.257812 9.949219 56.699219 C 9.496094 57.144531 8.957031 57.492188 8.363281 57.730469 C 7.773438 57.96875 7.136719 58.09375 6.492188 58.089844 Z M 6.492188 58.089844 "/>
</g>
<path style=" stroke:none;fill-rule:nonzero;fill:rgb(100%,100%,100%);fill-opacity:1;" d="M 236.328125 57.714844 L 236.328125 25.480469 L 257.820312 25.480469 L 257.820312 30.5 L 241.792969 30.5 L 241.792969 38.558594 L 251.617188 38.558594 L 251.617188 43.578125 L 241.792969 43.578125 L 241.792969 52.648438 L 258.8125 52.648438 L 258.8125 57.714844 Z M 236.328125 57.714844 "/>
<path style=" stroke:none;fill-rule:nonzero;fill:rgb(100%,100%,100%);fill-opacity:1;" d="M 271.988281 58.265625 C 269.339844 58.265625 267.257812 57.566406 265.742188 56.171875 C 264.226562 54.773438 263.46875 52.878906 263.46875 50.484375 C 263.46875 48.917969 263.855469 47.558594 264.628906 46.410156 C 265.402344 45.242188 266.492188 44.34375 267.894531 43.714844 C 269.300781 43.070312 270.941406 42.746094 272.820312 42.746094 C 273.921875 42.746094 274.972656 42.855469 275.96875 43.070312 C 276.976562 43.269531 277.875 43.578125 278.664062 43.992188 L 278.664062 42.472656 C 278.664062 40.96875 278.269531 39.855469 277.480469 39.132812 C 276.691406 38.394531 275.5 38.027344 273.90625 38.027344 C 272.738281 38.027344 271.53125 38.234375 270.285156 38.648438 C 269.039062 39.0625 267.816406 39.664062 266.617188 40.445312 L 265.03125 36.324219 C 266.355469 35.464844 267.847656 34.804688 269.503906 34.34375 C 271.160156 33.867188 272.828125 33.628906 274.5 33.628906 C 277.609375 33.628906 279.9375 34.367188 281.480469 35.839844 C 283.042969 37.296875 283.824219 39.492188 283.824219 42.425781 L 283.824219 57.714844 L 278.664062 57.714844 L 278.664062 55.734375 C 277.8125 56.546875 276.8125 57.175781 275.660156 57.621094 C 274.507812 58.050781 273.285156 58.265625 271.988281 58.265625 Z M 273.078125 53.867188 C 274.105469 53.867188 275.097656 53.652344 276.0625 53.222656 C 277.039062 52.792969 277.90625 52.179688 278.664062 51.382812 L 278.664062 48.183594 C 277.957031 47.796875 277.152344 47.507812 276.25 47.308594 C 275.367188 47.09375 274.5 46.984375 273.648438 46.984375 C 272.070312 46.984375 270.832031 47.300781 269.929688 47.929688 C 269.03125 48.542969 268.582031 49.394531 268.582031 50.484375 C 268.582031 51.527344 268.976562 52.355469 269.765625 52.972656 C 270.554688 53.570312 271.660156 53.867188 273.078125 53.867188 Z M 273.078125 53.867188 "/>
<path style=" stroke:none;fill-rule:nonzero;fill:rgb(100%,100%,100%);fill-opacity:1;" d="M 298.402344 58.265625 C 296.585938 58.265625 294.84375 57.890625 293.167969 57.136719 C 291.496094 56.371094 290.15625 55.351562 289.144531 54.078125 L 292.695312 51.128906 C 293.53125 51.972656 294.472656 52.640625 295.511719 53.132812 C 296.554688 53.625 297.574219 53.867188 298.566406 53.867188 C 299.828125 53.867188 300.808594 53.652344 301.5 53.222656 C 302.195312 52.777344 302.542969 52.15625 302.542969 51.359375 C 302.542969 50.867188 302.386719 50.421875 302.070312 50.023438 C 301.753906 49.609375 301.203125 49.203125 300.414062 48.804688 C 299.625 48.40625 298.535156 47.953125 297.144531 47.445312 C 294.433594 46.476562 292.507812 45.433594 291.371094 44.3125 C 290.234375 43.175781 289.667969 41.757812 289.667969 40.054688 C 289.667969 38.136719 290.457031 36.585938 292.035156 35.402344 C 293.613281 34.222656 295.664062 33.628906 298.1875 33.628906 C 299.90625 33.628906 301.492188 33.953125 302.945312 34.597656 C 304.414062 35.226562 305.675781 36.140625 306.734375 37.335938 L 303.207031 40.167969 C 301.769531 38.742188 300.066406 38.027344 298.09375 38.027344 C 297.035156 38.027344 296.191406 38.226562 295.558594 38.625 C 294.929688 39.011719 294.613281 39.523438 294.613281 40.167969 C 294.613281 40.8125 294.976562 41.390625 295.703125 41.894531 C 296.445312 42.386719 297.800781 42.960938 299.773438 43.621094 C 301.574219 44.207031 303.039062 44.859375 304.175781 45.582031 C 305.328125 46.300781 306.164062 47.128906 306.6875 48.066406 C 307.222656 49.003906 307.492188 50.085938 307.492188 51.3125 C 307.492188 53.476562 306.679688 55.179688 305.050781 56.425781 C 303.441406 57.652344 301.226562 58.265625 298.402344 58.265625 Z M 298.402344 58.265625 "/>
<path style=" stroke:none;fill-rule:nonzero;fill:rgb(100%,100%,100%);fill-opacity:1;" d="M 315.699219 66.648438 L 319.367188 57.253906 L 310.347656 34.183594 L 315.769531 34.183594 L 321.285156 48.6875 C 321.441406 49.058594 321.582031 49.425781 321.710938 49.792969 C 321.835938 50.160156 321.945312 50.546875 322.042969 50.945312 C 322.167969 50.546875 322.292969 50.160156 322.417969 49.792969 C 322.546875 49.425781 322.671875 49.058594 322.796875 48.6875 L 328.359375 34.183594 L 333.828125 34.183594 L 321.140625 66.648438 Z M 315.699219 66.648438 "/>
<path style=" stroke:none;fill-rule:nonzero;fill:rgb(100%,100%,100%);fill-opacity:1;" d="M 345.742188 58.265625 C 343.925781 58.265625 342.183594 57.890625 340.511719 57.136719 C 338.835938 56.371094 337.496094 55.351562 336.488281 54.078125 L 340.035156 51.128906 C 340.875 51.972656 341.8125 52.640625 342.855469 53.132812 C 343.894531 53.625 344.914062 53.867188 345.910156 53.867188 C 347.171875 53.867188 348.148438 53.652344 348.84375 53.222656 C 349.535156 52.777344 349.882812 52.15625 349.882812 51.359375 C 349.882812 50.867188 349.726562 50.421875 349.410156 50.023438 C 349.09375 49.609375 348.542969 49.203125 347.753906 48.804688 C 346.964844 48.40625 345.878906 47.953125 344.488281 47.445312 C 341.773438 46.476562 339.847656 45.433594 338.710938 44.3125 C 337.574219 43.175781 337.007812 41.757812 337.007812 40.054688 C 337.007812 38.136719 337.796875 36.585938 339.375 35.402344 C 340.953125 34.222656 343.007812 33.628906 345.53125 33.628906 C 347.25 33.628906 348.835938 33.953125 350.289062 34.597656 C 351.753906 35.226562 353.015625 36.140625 354.074219 37.335938 L 350.546875 40.167969 C 349.109375 38.742188 347.40625 38.027344 345.433594 38.027344 C 344.378906 38.027344 343.53125 38.226562 342.902344 38.625 C 342.269531 39.011719 341.953125 39.523438 341.953125 40.167969 C 341.953125 40.8125 342.316406 41.390625 343.042969 41.894531 C 343.785156 42.386719 345.140625 42.960938 347.117188 43.621094 C 348.914062 44.207031 350.382812 44.859375 351.519531 45.582031 C 352.671875 46.300781 353.507812 47.128906 354.027344 48.066406 C 354.5625 49.003906 354.832031 50.085938 354.832031 51.3125 C 354.832031 53.476562 354.019531 55.179688 352.394531 56.425781 C 350.78125 57.652344 348.570312 58.265625 345.742188 58.265625 Z M 345.742188 58.265625 "/>
<path style=" stroke:none;fill-rule:nonzero;fill:rgb(100%,100%,100%);fill-opacity:1;" d="M 367.359375 58.265625 C 365.53125 58.265625 364.152344 57.761719 363.21875 56.746094 C 362.289062 55.734375 361.824219 54.253906 361.824219 52.304688 L 361.824219 38.71875 L 358.15625 38.71875 L 358.15625 34.183594 L 361.824219 34.183594 L 361.824219 26.929688 L 367.125 24.464844 L 367.125 34.183594 L 372.761719 34.183594 L 372.761719 38.71875 L 367.125 38.71875 L 367.125 51.175781 C 367.125 52.019531 367.292969 52.648438 367.625 53.0625 C 367.96875 53.460938 368.5 53.660156 369.210938 53.660156 C 370.363281 53.660156 371.613281 53.292969 372.972656 52.558594 L 372.382812 57.207031 C 371.640625 57.5625 370.855469 57.820312 370.035156 57.992188 C 369.214844 58.175781 368.324219 58.265625 367.359375 58.265625 Z M 367.359375 58.265625 "/>
<path style=" stroke:none;fill-rule:nonzero;fill:rgb(100%,100%,100%);fill-opacity:1;" d="M 388.046875 58.265625 C 384.664062 58.265625 382.007812 57.167969 380.066406 54.972656 C 378.125 52.777344 377.15625 49.777344 377.15625 45.972656 C 377.15625 43.4375 377.597656 41.25 378.480469 39.410156 C 379.367188 37.566406 380.621094 36.148438 382.246094 35.148438 C 383.886719 34.136719 385.820312 33.628906 388.046875 33.628906 C 390.285156 33.628906 392.21875 34.128906 393.84375 35.125 C 395.46875 36.125 396.722656 37.542969 397.609375 39.386719 C 398.492188 41.226562 398.933594 43.414062 398.933594 45.949219 C 398.933594 48.480469 398.492188 50.667969 397.609375 52.511719 C 396.722656 54.351562 395.46875 55.773438 393.84375 56.769531 C 392.21875 57.769531 390.285156 58.265625 388.046875 58.265625 Z M 388.046875 53.363281 C 389.796875 53.363281 391.160156 52.710938 392.140625 51.40625 C 393.117188 50.101562 393.609375 48.28125 393.609375 45.949219 C 393.609375 43.601562 393.109375 41.773438 392.117188 40.46875 C 391.136719 39.164062 389.78125 38.511719 388.046875 38.511719 C 386.308594 38.511719 384.945312 39.171875 383.949219 40.492188 C 382.972656 41.796875 382.484375 43.621094 382.484375 45.972656 C 382.484375 48.289062 382.972656 50.101562 383.949219 51.40625 C 384.945312 52.710938 386.308594 53.363281 388.046875 53.363281 Z M 388.046875 53.363281 "/>
<path style=" stroke:none;fill-rule:nonzero;fill:rgb(100%,100%,100%);fill-opacity:1;" d="M 404.785156 57.714844 L 404.785156 34.183594 L 410.089844 34.183594 L 410.089844 36.898438 C 410.5625 35.886719 411.273438 35.089844 412.21875 34.503906 C 413.183594 33.921875 414.238281 33.628906 415.390625 33.628906 C 417.015625 33.628906 418.390625 34.144531 419.511719 35.171875 L 418.777344 39.9375 C 418.175781 39.476562 417.578125 39.148438 416.976562 38.949219 C 416.378906 38.75 415.714844 38.648438 414.992188 38.648438 C 413.980469 38.648438 413.113281 38.894531 412.382812 39.386719 C 411.65625 39.878906 411.089844 40.574219 410.679688 41.480469 C 410.285156 42.386719 410.089844 43.460938 410.089844 44.707031 L 410.089844 57.714844 Z M 404.785156 57.714844 "/>
<path style=" stroke:none;fill-rule:nonzero;fill:rgb(100%,100%,100%);fill-opacity:1;" d="M 430.519531 58.265625 C 427.871094 58.265625 425.785156 57.566406 424.269531 56.171875 C 422.753906 54.773438 421.996094 52.878906 421.996094 50.484375 C 421.996094 48.917969 422.386719 47.558594 423.160156 46.410156 C 423.933594 45.242188 425.019531 44.34375 426.425781 43.714844 C 427.828125 43.070312 429.46875 42.746094 431.347656 42.746094 C 432.453125 42.746094 433.5 42.855469 434.496094 43.070312 C 435.503906 43.269531 436.40625 43.578125 437.195312 43.992188 L 437.195312 42.472656 C 437.195312 40.96875 436.800781 39.855469 436.011719 39.132812 C 435.222656 38.394531 434.03125 38.027344 432.4375 38.027344 C 431.269531 38.027344 430.0625 38.234375 428.816406 38.648438 C 427.570312 39.0625 426.347656 39.664062 425.148438 40.445312 L 423.558594 36.324219 C 424.886719 35.464844 426.378906 34.804688 428.035156 34.34375 C 429.691406 33.867188 431.355469 33.628906 433.027344 33.628906 C 436.136719 33.628906 438.464844 34.367188 440.011719 35.839844 C 441.574219 37.296875 442.355469 39.492188 442.355469 42.425781 L 442.355469 57.714844 L 437.195312 57.714844 L 437.195312 55.734375 C 436.34375 56.546875 435.339844 57.175781 434.191406 57.621094 C 433.039062 58.050781 431.8125 58.265625 430.519531 58.265625 Z M 431.609375 53.867188 C 432.632812 53.867188 433.628906 53.652344 434.589844 53.222656 C 435.566406 52.792969 436.4375 52.179688 437.195312 51.382812 L 437.195312 48.183594 C 436.484375 47.796875 435.679688 47.507812 434.78125 47.308594 C 433.894531 47.09375 433.027344 46.984375 432.175781 46.984375 C 430.597656 46.984375 429.359375 47.300781 428.460938 47.929688 C 427.558594 48.542969 427.113281 49.394531 427.113281 50.484375 C 427.113281 51.527344 427.507812 52.355469 428.296875 52.972656 C 429.085938 53.570312 430.1875 53.867188 431.609375 53.867188 Z M 431.609375 53.867188 "/>
<path style=" stroke:none;fill-rule:nonzero;fill:rgb(100%,100%,100%);fill-opacity:1;" d="M 457.84375 67.523438 L 455.003906 63.261719 C 457.261719 63.125 459.035156 62.863281 460.332031 62.480469 C 461.640625 62.097656 462.5625 61.558594 463.097656 60.867188 C 463.652344 60.191406 463.929688 59.308594 463.929688 58.21875 L 463.929688 56.011719 C 462.636719 57.515625 460.789062 58.265625 458.386719 58.265625 C 456.320312 58.265625 454.539062 57.769531 453.039062 56.769531 C 451.542969 55.757812 450.378906 54.328125 449.558594 52.488281 C 448.753906 50.644531 448.351562 48.457031 448.351562 45.925781 C 448.351562 43.4375 448.769531 41.273438 449.605469 39.433594 C 450.441406 37.589844 451.621094 36.164062 453.132812 35.148438 C 454.648438 34.136719 456.429688 33.628906 458.484375 33.628906 C 459.605469 33.628906 460.632812 33.8125 461.5625 34.183594 C 462.507812 34.535156 463.296875 35.042969 463.929688 35.703125 L 463.929688 34.183594 L 469.253906 34.183594 L 469.253906 56.101562 C 469.253906 58.035156 469.039062 59.695312 468.613281 61.074219 C 468.203125 62.472656 467.539062 63.617188 466.625 64.507812 C 465.726562 65.414062 464.550781 66.101562 463.097656 66.578125 C 461.648438 67.054688 459.894531 67.371094 457.84375 67.523438 Z M 459.3125 53.363281 C 460.210938 53.363281 461.074219 53.140625 461.894531 52.695312 C 462.714844 52.234375 463.390625 51.621094 463.929688 50.851562 L 463.929688 40.953125 C 463.457031 40.230469 462.792969 39.648438 461.941406 39.203125 C 461.089844 38.742188 460.238281 38.511719 459.382812 38.511719 C 457.535156 38.511719 456.125 39.148438 455.148438 40.421875 C 454.167969 41.679688 453.679688 43.515625 453.679688 45.925781 C 453.679688 47.476562 453.90625 48.804688 454.363281 49.910156 C 454.824219 51.015625 455.46875 51.867188 456.304688 52.464844 C 457.140625 53.0625 458.144531 53.363281 459.3125 53.363281 Z M 459.3125 53.363281 "/>
<path style=" stroke:none;fill-rule:nonzero;fill:rgb(100%,100%,100%);fill-opacity:1;" d="M 486.128906 58.265625 C 483.839844 58.265625 481.871094 57.753906 480.214844 56.722656 C 478.554688 55.695312 477.285156 54.261719 476.402344 52.417969 C 475.519531 50.5625 475.078125 48.398438 475.078125 45.925781 C 475.078125 43.363281 475.535156 41.167969 476.449219 39.339844 C 477.363281 37.5 478.648438 36.085938 480.308594 35.105469 C 481.964844 34.121094 483.90625 33.628906 486.128906 33.628906 C 488.039062 33.628906 489.773438 34.027344 491.339844 34.828125 C 492.914062 35.625 494.167969 36.855469 495.101562 38.511719 C 496.03125 40.152344 496.496094 42.25 496.496094 44.796875 C 496.496094 45.195312 496.492188 45.671875 496.476562 46.226562 C 496.460938 46.761719 496.410156 47.308594 496.332031 47.859375 L 480.355469 47.859375 C 480.449219 49.058594 480.738281 50.101562 481.230469 50.992188 C 481.734375 51.882812 482.40625 52.578125 483.242188 53.085938 C 484.078125 53.578125 485.066406 53.824219 486.203125 53.824219 C 487.304688 53.824219 488.285156 53.648438 489.136719 53.292969 C 489.988281 52.925781 490.800781 52.339844 491.574219 51.542969 L 494.652344 54.699219 C 493.65625 55.757812 492.441406 56.617188 491.007812 57.277344 C 489.585938 57.9375 487.957031 58.265625 486.128906 58.265625 Z M 480.375 43.691406 L 491.292969 43.691406 C 491.242188 42.570312 491.007812 41.589844 490.582031 40.746094 C 490.167969 39.902344 489.585938 39.25 488.828125 38.789062 C 488.070312 38.3125 487.148438 38.074219 486.058594 38.074219 C 484.542969 38.074219 483.246094 38.535156 482.175781 39.457031 C 481.117188 40.375 480.519531 41.789062 480.375 43.691406 Z M 480.375 43.691406 "/>
</g>
</svg>
