<svg width="159" height="22" viewBox="0 0 159 22" fill="none" xmlns="http://www.w3.org/2000/svg">
<g clip-path="url(#clip0_1986_1780)">
<path d="M60.2537 18.5313C59.9343 18.5321 59.6157 18.5007 59.303 18.4374C58.6297 18.3023 57.993 18.0316 57.4339 17.6429C56.8749 17.2542 56.4058 16.7561 56.0569 16.1806L56.0391 16.1485C55.866 15.8299 55.824 15.4593 55.9218 15.1117C56.0195 14.7642 56.2495 14.4657 56.5653 14.2768C56.784 14.149 57.0345 14.0816 57.2898 14.0817C57.544 14.0821 57.7936 14.1482 58.0129 14.2731C58.2323 14.3981 58.4134 14.5775 58.5379 14.7929L58.5862 14.8719L58.7387 15.0719L58.942 15.2719C59.2065 15.4941 59.5265 15.6449 59.8698 15.709C60.1475 15.7611 60.4334 15.7565 60.7092 15.6952C60.9849 15.634 61.2445 15.5176 61.4713 15.3534C61.7056 15.1915 61.8999 14.981 62.0401 14.7371C62.1804 14.4933 62.263 14.2222 62.2821 13.9435C62.3057 13.6676 62.2682 13.39 62.1721 13.1294C62.0761 12.8687 61.9238 12.6311 61.7255 12.4323C61.7255 12.4323 57.0381 7.7408 56.9364 7.60993L56.7051 7.27659C56.1567 6.44512 55.909 5.45992 56.001 4.47649C56.0512 3.79506 56.2588 3.13337 56.6085 2.54063L56.8119 2.19494C57.1818 1.68095 57.6656 1.25401 58.2277 0.945512L58.4591 0.785013C59.5404 0.207636 60.8117 0.0652466 61.9999 0.388429C63.1881 0.711612 64.1985 1.47459 64.8139 2.51346C64.9098 2.67025 64.9723 2.84416 64.9976 3.02486C65.0229 3.20557 65.0106 3.38937 64.9614 3.56535C64.9126 3.74451 64.8274 3.91239 64.7108 4.05911C64.5943 4.20583 64.4487 4.32843 64.2827 4.4197C64.0711 4.54159 63.8296 4.60558 63.5836 4.60489C63.3307 4.60422 63.0826 4.53824 62.8646 4.41371C62.6466 4.28918 62.4667 4.11058 62.3432 3.89623C62.209 3.67455 62.028 3.48309 61.8119 3.33452C61.5959 3.18596 61.3498 3.08368 61.09 3.03447C60.8258 2.9845 60.5539 2.98833 60.2914 3.04571C60.0289 3.10309 59.7814 3.21277 59.5648 3.36781C59.3566 3.5254 59.1855 3.72431 59.0627 3.95126C58.94 4.17822 58.8685 4.42799 58.8531 4.68391C58.831 4.9408 58.8649 5.19932 58.9525 5.44266C59.0401 5.68599 59.1794 5.9087 59.3614 6.0963L63.7666 10.5088C64.4311 11.1785 64.8778 12.0234 65.0512 12.9381C65.2245 13.8528 65.1167 14.7969 64.7412 15.6525C64.3657 16.5081 63.7392 17.2374 62.9398 17.7493C62.1404 18.2613 61.2035 18.5332 60.246 18.5313H60.2537Z" fill="white"/>
<path d="M46.3187 18.5289C45.0631 18.5276 43.8594 18.0425 42.9715 17.1801C42.0837 16.3177 41.5844 15.1483 41.583 13.9287V4.82964C41.583 4.22554 41.7055 3.62736 41.9435 3.06924C42.1815 2.51113 42.5303 2.00401 42.9701 1.57685C43.4098 1.14968 43.9319 0.810837 44.5064 0.579658C45.081 0.348479 45.6968 0.229492 46.3187 0.229492C46.9406 0.229492 47.5564 0.348479 48.1309 0.579658C48.7055 0.810837 49.2275 1.14968 49.6673 1.57685C50.107 2.00401 50.4559 2.51113 50.6938 3.06924C50.9318 3.62736 51.0543 4.22554 51.0543 4.82964V13.9287C51.053 15.1483 50.5536 16.3177 49.6658 17.1801C48.778 18.0425 47.5742 18.5276 46.3187 18.5289ZM46.3187 3.00736C45.8213 3.00802 45.3446 3.20022 44.9929 3.54182C44.6412 3.88342 44.4434 4.34655 44.4427 4.82964V13.9287C44.44 14.1688 44.4866 14.4069 44.58 14.6292C44.6733 14.8515 44.8113 15.0534 44.9861 15.2232C45.1608 15.3929 45.3687 15.527 45.5976 15.6177C45.8264 15.7083 46.0716 15.7536 46.3187 15.751C46.816 15.7503 47.2928 15.5581 47.6444 15.2165C47.9961 14.8749 48.194 14.4118 48.1946 13.9287V4.82964C48.188 4.34833 47.9883 3.88853 47.6379 3.54817C47.2875 3.2078 46.8142 3.01375 46.3187 3.00736Z" fill="white"/>
<path d="M27.925 9.6149V17.1534C27.925 17.5215 27.7745 17.8744 27.5066 18.1347C27.2387 18.3949 26.8753 18.5411 26.4964 18.5411C26.1176 18.5411 25.7542 18.3949 25.4863 18.1347C25.2184 17.8744 25.0679 17.5215 25.0679 17.1534V3.85175L27.925 9.6149ZM35.6398 14.9138V1.61711C35.6243 1.25887 35.4669 0.920325 35.2004 0.672188C34.934 0.42405 34.5791 0.285513 34.21 0.285513C33.8409 0.285513 33.486 0.42405 33.2196 0.672188C32.9532 0.920325 32.7957 1.25887 32.7802 1.61711V9.14822L35.6398 14.9138ZM27.7903 1.01709V0.989925C27.6615 0.766192 27.4739 0.579709 27.2465 0.449553C27.0192 0.319397 26.7603 0.250241 26.4964 0.24916C26.3999 0.248714 26.3035 0.258651 26.2092 0.27879C25.8879 0.339576 25.5988 0.508166 25.3924 0.755071C25.1861 1.00198 25.0757 1.31148 25.0806 1.62945V1.94798L32.925 17.7683C33.048 17.9934 33.2307 18.1826 33.4541 18.3163C33.6776 18.45 33.9337 18.5234 34.196 18.5288C34.3066 18.529 34.4168 18.5158 34.5239 18.4893C34.8397 18.4251 35.123 18.2573 35.3263 18.014C35.5295 17.7707 35.6403 17.4668 35.6398 17.1534V16.8398C35.6398 16.8398 28.0013 1.43932 27.7903 1.01709Z" fill="white"/>
<path d="M14.3484 18.5289C13.0927 18.5282 11.8885 18.0433 11.0006 17.1808C10.1126 16.3182 9.61347 15.1485 9.61279 13.9287V4.82964C9.61279 3.60961 10.1117 2.43954 10.9998 1.57685C11.8879 0.71415 13.0925 0.229492 14.3484 0.229492C15.6044 0.229492 16.809 0.71415 17.6971 1.57685C18.5852 2.43954 19.0841 3.60961 19.0841 4.82964V13.9287C19.0834 15.1485 18.5843 16.3182 17.6963 17.1808C16.8084 18.0433 15.6042 18.5282 14.3484 18.5289ZM14.3484 3.00736C14.102 3.00704 13.8579 3.05395 13.6302 3.14541C13.4024 3.23688 13.1955 3.37109 13.0212 3.54037C12.8469 3.70965 12.7088 3.91067 12.6146 4.1319C12.5204 4.35314 12.4722 4.59025 12.4725 4.82964V13.9287C12.4725 14.412 12.6701 14.8755 13.0219 15.2173C13.3738 15.559 13.8509 15.751 14.3484 15.751C14.846 15.751 15.3231 15.559 15.675 15.2173C16.0268 14.8755 16.2244 14.412 16.2244 13.9287V4.82964C16.2178 4.34833 16.0181 3.88853 15.6677 3.54817C15.3173 3.2078 14.8439 3.01375 14.3484 3.00736Z" fill="white"/>
<path d="M2.07336 18.5214C1.8676 18.5224 1.66371 18.4835 1.47364 18.407C1.28357 18.3304 1.11114 18.2178 0.966481 18.0756C0.821819 17.9335 0.70783 17.7648 0.6312 17.5793C0.55457 17.3938 0.516842 17.1953 0.520229 16.9954V1.71838C0.527581 1.32126 0.695849 0.94298 0.988521 0.665617C1.28119 0.388254 1.67465 0.234189 2.08353 0.236853C2.42592 0.231986 2.76003 0.339185 3.03208 0.54119C3.30413 0.743195 3.49828 1.02825 3.58328 1.35047C3.59376 1.38538 3.60225 1.42083 3.6087 1.45665V1.52332C3.62325 1.60484 3.63006 1.6875 3.62904 1.77024C3.62904 1.77024 3.62904 16.8325 3.62904 17.0053C3.63038 17.2044 3.5911 17.4017 3.51346 17.5859C3.43582 17.7701 3.32136 17.9375 3.1767 18.0785C3.03204 18.2195 2.86005 18.3312 2.67067 18.4072C2.48129 18.4833 2.27827 18.5221 2.07336 18.5214Z" fill="white"/>
</g>
<path d="M75.4536 18.4016V8.1238H82.3159V9.7242H77.1994V12.2937H80.3358V13.8941H77.1994V16.7865H82.6333V18.4016H75.4536Z" fill="white"/>
<path d="M86.8402 18.5778C85.9938 18.5778 85.3287 18.3551 84.845 17.9098C84.3614 17.4644 84.1195 16.8599 84.1195 16.0965C84.1195 15.5972 84.243 15.1641 84.4898 14.797C84.7367 14.4251 85.0844 14.1388 85.5328 13.9381C85.9812 13.7326 86.5052 13.6298 87.1048 13.6298C87.4574 13.6298 87.7925 13.664 88.1099 13.7326C88.4324 13.7962 88.7196 13.8941 88.9715 14.0262V13.5417C88.9715 13.062 88.8455 12.7072 88.5936 12.4772C88.3417 12.2423 87.9613 12.1248 87.4524 12.1248C87.0796 12.1248 86.6941 12.1909 86.2961 12.323C85.8981 12.4552 85.5076 12.646 85.1247 12.8956L84.6183 11.5816C85.0415 11.3075 85.5177 11.097 86.0467 10.9502C86.5757 10.7985 87.1073 10.7226 87.6413 10.7226C88.6339 10.7226 89.3771 10.9575 89.8708 11.4274C90.3696 11.8923 90.619 12.5922 90.619 13.527V18.4016H88.9715V17.7703C88.6994 18.0297 88.3795 18.2303 88.0117 18.3723C87.6439 18.5093 87.2534 18.5778 86.8402 18.5778ZM87.1879 17.1756C87.5154 17.1756 87.8328 17.1071 88.1401 16.9701C88.4525 16.833 88.7296 16.6373 88.9715 16.3828V15.3623C88.7447 15.24 88.4878 15.147 88.2006 15.0834C87.9185 15.0148 87.6413 14.9806 87.3693 14.9806C86.8654 14.9806 86.4699 15.0809 86.1827 15.2816C85.8955 15.4773 85.752 15.749 85.752 16.0965C85.752 16.4293 85.8779 16.6935 86.1298 16.8893C86.3818 17.0802 86.7344 17.1756 87.1879 17.1756Z" fill="white"/>
<path d="M95.2726 18.5778C94.6932 18.5778 94.1364 18.4579 93.6024 18.2181C93.0683 17.9734 92.64 17.6479 92.3176 17.2417L93.4512 16.302C93.7182 16.5712 94.018 16.7841 94.3506 16.9407C94.6831 17.0973 95.0081 17.1756 95.3255 17.1756C95.7285 17.1756 96.0409 17.1071 96.2626 16.9701C96.4843 16.8281 96.5951 16.6299 96.5951 16.3754C96.5951 16.2188 96.5448 16.0769 96.444 15.9496C96.3432 15.8175 96.1669 15.6878 95.915 15.5605C95.663 15.4333 95.3154 15.2889 94.872 15.1274C94.0054 14.8191 93.3907 14.4863 93.028 14.129C92.6652 13.7668 92.4838 13.3141 92.4838 12.7708C92.4838 12.1591 92.7358 11.6648 93.2396 11.2879C93.7434 10.911 94.3984 10.7226 95.2046 10.7226C95.7537 10.7226 96.2601 10.8254 96.7236 11.031C97.1922 11.2316 97.5953 11.5228 97.9328 11.9046L96.8068 12.8075C96.3483 12.3524 95.8041 12.1248 95.1743 12.1248C94.8368 12.1248 94.5672 12.1884 94.3657 12.3157C94.1641 12.438 94.0634 12.602 94.0634 12.8075C94.0634 13.0131 94.1793 13.1966 94.411 13.3581C94.6478 13.5148 95.0811 13.6983 95.7109 13.9087C96.2853 14.0947 96.7539 14.3027 97.1166 14.5328C97.4844 14.7628 97.7515 15.0271 97.9177 15.3256C98.089 15.6242 98.1747 15.9692 98.1747 16.3607C98.1747 17.0508 97.9152 17.5941 97.3962 17.9905C96.8823 18.382 96.1744 18.5778 95.2726 18.5778Z" fill="white"/>
<path d="M100.795 21.25L101.967 18.2548L99.0871 10.8988H100.818L102.579 15.5238C102.629 15.6413 102.674 15.7588 102.715 15.8762C102.755 15.9937 102.79 16.116 102.821 16.2433C102.861 16.116 102.901 15.9937 102.941 15.8762C102.982 15.7588 103.022 15.6413 103.062 15.5238L104.838 10.8988H106.584L102.533 21.25H100.795Z" fill="white"/>
<path d="M110.388 18.5778C109.808 18.5778 109.252 18.4579 108.717 18.2181C108.183 17.9734 107.755 17.6479 107.433 17.2417L108.566 16.302C108.833 16.5712 109.133 16.7841 109.466 16.9407C109.798 17.0973 110.123 17.1756 110.441 17.1756C110.844 17.1756 111.156 17.1071 111.378 16.9701C111.599 16.8281 111.71 16.6299 111.71 16.3754C111.71 16.2188 111.66 16.0769 111.559 15.9496C111.458 15.8175 111.282 15.6878 111.03 15.5605C110.778 15.4333 110.431 15.2889 109.987 15.1274C109.121 14.8191 108.506 14.4863 108.143 14.129C107.78 13.7668 107.599 13.3141 107.599 12.7708C107.599 12.1591 107.851 11.6648 108.355 11.2879C108.859 10.911 109.514 10.7226 110.32 10.7226C110.869 10.7226 111.375 10.8254 111.839 11.031C112.307 11.2316 112.71 11.5228 113.048 11.9046L111.922 12.8075C111.463 12.3524 110.919 12.1248 110.289 12.1248C109.952 12.1248 109.682 12.1884 109.481 12.3157C109.279 12.438 109.178 12.602 109.178 12.8075C109.178 13.0131 109.294 13.1966 109.526 13.3581C109.763 13.5148 110.196 13.6983 110.826 13.9087C111.4 14.0947 111.869 14.3027 112.232 14.5328C112.6 14.7628 112.867 15.0271 113.033 15.3256C113.204 15.6242 113.29 15.9692 113.29 16.3607C113.29 17.0508 113.03 17.5941 112.511 17.9905C111.997 18.382 111.29 18.5778 110.388 18.5778Z" fill="white"/>
<path d="M117.29 18.5778C116.706 18.5778 116.265 18.4163 115.968 18.0933C115.671 17.7703 115.522 17.298 115.522 16.6764V12.345H114.351V10.8988H115.522V8.5863L117.215 7.80078V10.8988H119.014V12.345H117.215V16.3167C117.215 16.5859 117.268 16.7865 117.374 16.9187C117.484 17.0459 117.653 17.1095 117.88 17.1095C118.248 17.1095 118.648 16.9921 119.082 16.7572L118.893 18.2401C118.656 18.3527 118.406 18.4359 118.144 18.4897C117.882 18.5484 117.598 18.5778 117.29 18.5778Z" fill="white"/>
<path d="M123.894 18.5778C122.815 18.5778 121.966 18.2279 121.347 17.528C120.727 16.8281 120.417 15.8713 120.417 14.6576C120.417 13.85 120.558 13.1526 120.84 12.5653C121.123 11.978 121.523 11.5253 122.042 11.2071C122.566 10.8841 123.183 10.7226 123.894 10.7226C124.609 10.7226 125.226 10.8817 125.745 11.1998C126.264 11.5179 126.665 11.9706 126.947 12.5579C127.229 13.1452 127.37 13.8427 127.37 14.6502C127.37 15.4578 127.229 16.1552 126.947 16.7425C126.665 17.3298 126.264 17.7825 125.745 18.1006C125.226 18.4187 124.609 18.5778 123.894 18.5778ZM123.894 17.0141C124.453 17.0141 124.889 16.8061 125.201 16.3901C125.513 15.9741 125.67 15.3941 125.67 14.6502C125.67 13.9014 125.511 13.319 125.194 12.903C124.881 12.487 124.448 12.279 123.894 12.279C123.339 12.279 122.904 12.4894 122.586 12.9103C122.274 13.3263 122.118 13.9087 122.118 14.6576C122.118 15.3966 122.274 15.9741 122.586 16.3901C122.904 16.8061 123.339 17.0141 123.894 17.0141Z" fill="white"/>
<path d="M129.239 18.4016V10.8988H130.932V11.7651C131.083 11.4421 131.31 11.1876 131.612 11.0016C131.92 10.8156 132.257 10.7226 132.625 10.7226C133.144 10.7226 133.582 10.8866 133.94 11.2145L133.706 12.7341C133.514 12.5873 133.323 12.4821 133.131 12.4185C132.94 12.3548 132.728 12.323 132.497 12.323C132.174 12.323 131.897 12.4013 131.665 12.5579C131.433 12.7146 131.252 12.9372 131.121 13.226C130.995 13.5148 130.932 13.8574 130.932 14.2538V18.4016H129.239Z" fill="white"/>
<path d="M137.455 18.5778C136.609 18.5778 135.944 18.3551 135.46 17.9098C134.976 17.4644 134.734 16.8599 134.734 16.0965C134.734 15.5972 134.858 15.1641 135.105 14.797C135.352 14.4251 135.699 14.1388 136.148 13.9381C136.596 13.7326 137.12 13.6298 137.72 13.6298C138.072 13.6298 138.407 13.664 138.725 13.7326C139.047 13.7962 139.334 13.8941 139.586 14.0262V13.5417C139.586 13.062 139.46 12.7072 139.209 12.4772C138.957 12.2423 138.576 12.1248 138.067 12.1248C137.694 12.1248 137.309 12.1909 136.911 12.323C136.513 12.4552 136.123 12.646 135.74 12.8956L135.233 11.5816C135.656 11.3075 136.133 11.097 136.662 10.9502C137.191 10.7985 137.722 10.7226 138.256 10.7226C139.249 10.7226 139.992 10.9575 140.486 11.4274C140.985 11.8923 141.234 12.5922 141.234 13.527V18.4016H139.586V17.7703C139.314 18.0297 138.994 18.2303 138.627 18.3723C138.259 18.5093 137.868 18.5778 137.455 18.5778ZM137.803 17.1756C138.13 17.1756 138.448 17.1071 138.755 16.9701C139.067 16.833 139.345 16.6373 139.586 16.3828V15.3623C139.36 15.24 139.103 15.147 138.816 15.0834C138.533 15.0148 138.256 14.9806 137.984 14.9806C137.48 14.9806 137.085 15.0809 136.798 15.2816C136.51 15.4773 136.367 15.749 136.367 16.0965C136.367 16.4293 136.493 16.6935 136.745 16.8893C136.997 17.0802 137.349 17.1756 137.803 17.1756Z" fill="white"/>
<path d="M146.179 21.529L145.272 20.1709C145.993 20.1268 146.56 20.0436 146.973 19.9213C147.391 19.7989 147.686 19.6276 147.857 19.4074C148.034 19.192 148.122 18.9106 148.122 18.5631V17.8584C147.709 18.338 147.119 18.5778 146.353 18.5778C145.693 18.5778 145.124 18.4187 144.645 18.1006C144.167 17.7776 143.796 17.3224 143.534 16.7351C143.277 16.1478 143.149 15.4504 143.149 14.6429C143.149 13.85 143.282 13.1599 143.549 12.5726C143.816 11.9853 144.192 11.5302 144.675 11.2071C145.159 10.8841 145.728 10.7226 146.383 10.7226C146.741 10.7226 147.069 10.7813 147.366 10.8988C147.668 11.0114 147.92 11.1729 148.122 11.3833V10.8988H149.822V17.8877C149.822 18.5044 149.754 19.033 149.618 19.4734C149.487 19.9188 149.275 20.2834 148.983 20.5673C148.696 20.8561 148.321 21.0763 147.857 21.228C147.394 21.3797 146.834 21.4801 146.179 21.529ZM146.648 17.0141C146.935 17.0141 147.21 16.9431 147.472 16.8012C147.734 16.6544 147.95 16.4586 148.122 16.2139V13.0572C147.971 12.8271 147.759 12.6411 147.487 12.4992C147.215 12.3524 146.943 12.279 146.671 12.279C146.081 12.279 145.63 12.4821 145.318 12.8883C145.005 13.2896 144.849 13.8745 144.849 14.6429C144.849 15.1372 144.922 15.5605 145.068 15.9129C145.215 16.2653 145.421 16.5369 145.688 16.7278C145.955 16.9187 146.275 17.0141 146.648 17.0141Z" fill="white"/>
<path d="M155.21 18.5778C154.479 18.5778 153.85 18.4139 153.321 18.0859C152.792 17.758 152.386 17.3004 152.104 16.7131C151.822 16.1209 151.681 15.4308 151.681 14.6429C151.681 13.8255 151.827 13.1257 152.119 12.5433C152.411 11.956 152.822 11.5057 153.351 11.1925C153.88 10.8792 154.5 10.7226 155.21 10.7226C155.82 10.7226 156.374 10.8499 156.873 11.1044C157.376 11.3589 157.777 11.7504 158.074 12.279C158.372 12.8027 158.52 13.4707 158.52 14.2831C158.52 14.4104 158.518 14.5621 158.513 14.7383C158.508 14.9096 158.492 15.0834 158.467 15.2595H153.366C153.396 15.6413 153.489 15.9741 153.646 16.258C153.807 16.5418 154.021 16.7645 154.288 16.926C154.555 17.0826 154.87 17.1609 155.233 17.1609C155.585 17.1609 155.898 17.1047 156.17 16.9921C156.442 16.8746 156.701 16.6886 156.948 16.4341L157.931 17.4399C157.613 17.7776 157.225 18.0517 156.767 18.2621C156.313 18.4726 155.794 18.5778 155.21 18.5778ZM153.373 13.9308H156.858C156.842 13.5735 156.767 13.2603 156.631 12.9911C156.5 12.7219 156.313 12.5139 156.072 12.3671C155.83 12.2153 155.535 12.1395 155.187 12.1395C154.704 12.1395 154.29 12.2863 153.948 12.58C153.61 12.8736 153.419 13.3239 153.373 13.9308Z" fill="white"/>
<defs>
<clipPath id="clip0_1986_1780">
<rect width="64.6291" height="18.3043" fill="white" transform="translate(0.520508 0.229492)"/>
</clipPath>
</defs>
</svg>
