<svg width="204" height="25" viewBox="0 0 204 25" fill="none" xmlns="http://www.w3.org/2000/svg">
<g clip-path="url(#clip0_5346_61477)">
<path d="M76.0793 23.9969C75.6725 23.998 75.2667 23.9568 74.8685 23.8739C74.011 23.6967 73.2 23.3418 72.488 22.8321C71.7759 22.3225 71.1785 21.6693 70.7341 20.9148L70.7115 20.8727C70.491 20.455 70.4375 19.969 70.562 19.5133C70.6864 19.0577 70.9794 18.6663 71.3816 18.4186C71.6602 18.251 71.9792 18.1626 72.3043 18.1629C72.6282 18.1634 72.9461 18.25 73.2254 18.4138C73.5048 18.5777 73.7355 18.8129 73.894 19.0953L73.9555 19.1989L74.1498 19.4611L74.4088 19.7234C74.7456 20.0147 75.1531 20.2124 75.5905 20.2964C75.9442 20.3648 76.3083 20.3587 76.6595 20.2784C77.0107 20.1982 77.3413 20.0455 77.6301 19.8302C77.9285 19.6179 78.176 19.3419 78.3546 19.0222C78.5333 18.7024 78.6386 18.347 78.6629 17.9816C78.6929 17.6198 78.6451 17.2559 78.5228 16.9141C78.4005 16.5724 78.2065 16.2608 77.9539 16.0002C77.9539 16.0002 71.9838 9.84883 71.8543 9.67724L71.5597 9.24017C70.8612 8.14997 70.5457 6.85822 70.6629 5.56878C70.7268 4.6753 70.9913 3.80772 71.4367 3.03053L71.6957 2.57728C72.1669 1.90335 72.7831 1.34357 73.499 0.939074L73.7936 0.728633C75.1709 -0.0284042 76.7901 -0.215101 78.3034 0.208646C79.8168 0.632392 81.1037 1.63278 81.8875 2.99492C82.0097 3.20049 82.0892 3.42852 82.1215 3.66545C82.1537 3.90238 82.138 4.14338 82.0753 4.37412C82.0131 4.60903 81.9047 4.82914 81.7562 5.02152C81.6078 5.21389 81.4223 5.37464 81.2109 5.49431C80.9414 5.65413 80.6338 5.73803 80.3205 5.73713C79.9984 5.73625 79.6824 5.64973 79.4048 5.48646C79.1271 5.32318 78.8979 5.08901 78.7406 4.80795C78.5698 4.5173 78.3391 4.26626 78.064 4.07146C77.7888 3.87667 77.4754 3.74257 77.1445 3.67805C76.8081 3.61253 76.4617 3.61755 76.1274 3.69278C75.793 3.76801 75.4779 3.91182 75.202 4.11512C74.9368 4.32174 74.7188 4.58255 74.5625 4.88012C74.4062 5.17769 74.3151 5.50518 74.2954 5.84073C74.2674 6.17756 74.3106 6.51653 74.4221 6.83558C74.5337 7.15464 74.7111 7.44664 74.943 7.69261L80.5536 13.4781C81.3999 14.3562 81.9689 15.464 82.1897 16.6634C82.4104 17.8627 82.2731 19.1006 81.7949 20.2224C81.3166 21.3442 80.5187 22.3004 79.5005 22.9716C78.4824 23.6429 77.2891 23.9995 76.0696 23.9969H76.0793Z" fill="white"/>
<path d="M58.3311 23.9935C56.732 23.9918 55.1988 23.3558 54.0681 22.225C52.9373 21.0943 52.3013 19.5611 52.2996 17.962V6.03157C52.2996 5.23949 52.4556 4.45517 52.7587 3.72339C53.0618 2.9916 53.5061 2.32669 54.0662 1.76661C54.6262 1.20652 55.2912 0.76224 56.0229 0.459126C56.7547 0.156011 57.5391 0 58.3311 0C59.1232 0 59.9075 0.156011 60.6393 0.459126C61.3711 0.76224 62.036 1.20652 62.5961 1.76661C63.1562 2.32669 63.6005 2.9916 63.9036 3.72339C64.2067 4.45517 64.3627 5.23949 64.3627 6.03157V17.962C64.361 19.5611 63.725 21.0943 62.5942 22.225C61.4634 23.3558 59.9303 23.9918 58.3311 23.9935ZM58.3311 3.64225C57.6977 3.64311 57.0905 3.89511 56.6426 4.34301C56.1947 4.79091 55.9427 5.39814 55.9418 6.03157V17.962C55.9383 18.2767 55.9978 18.5889 56.1166 18.8804C56.2355 19.1719 56.4113 19.4366 56.6339 19.6592C56.8565 19.8818 57.1212 20.0576 57.4127 20.1765C57.7041 20.2953 58.0164 20.3547 58.3311 20.3513C58.9646 20.3504 59.5718 20.0984 60.0197 19.6505C60.4676 19.2026 60.7196 18.5954 60.7204 17.962V6.03157C60.7121 5.40049 60.4576 4.79761 60.0114 4.35133C59.5651 3.90505 58.9622 3.65063 58.3311 3.64225Z" fill="white"/>
<path d="M34.9042 12.3064V22.1907C34.9042 22.6733 34.7125 23.1361 34.3712 23.4773C34.03 23.8185 33.5672 24.0102 33.0846 24.0102C32.6021 24.0102 32.1393 23.8185 31.7981 23.4773C31.4568 23.1361 31.2651 22.6733 31.2651 22.1907V4.74998L34.9042 12.3064ZM44.7301 19.2542V1.81999C44.7103 1.35028 44.5098 0.906396 44.1704 0.581046C43.8311 0.255697 43.3791 0.0740504 42.909 0.0740504C42.4389 0.0740504 41.9869 0.255697 41.6476 0.581046C41.3082 0.906396 41.1077 1.35028 41.0879 1.81999V11.6945L44.7301 19.2542ZM34.7326 1.03327V0.997653C34.5685 0.704302 34.3295 0.459791 34.04 0.289135C33.7504 0.118479 33.4207 0.0278035 33.0846 0.026386C32.9616 0.0258014 32.8389 0.0388309 32.7188 0.0652367C32.3095 0.144937 31.9413 0.365986 31.6785 0.68972C31.4158 1.01345 31.2752 1.41927 31.2813 1.83618V2.25382L41.2724 22.9968C41.4291 23.2921 41.6617 23.5401 41.9463 23.7154C42.2309 23.8907 42.557 23.9869 42.8912 23.994C43.032 23.9944 43.1724 23.9769 43.3088 23.9422C43.711 23.8581 44.0719 23.638 44.3307 23.319C44.5896 23 44.7306 22.6015 44.7301 22.1907V21.7795C44.7301 21.7795 35.0013 1.58689 34.7326 1.03327Z" fill="white"/>
<path d="M17.6124 23.9935C16.013 23.9927 14.4793 23.3569 13.3484 22.226C12.2174 21.095 11.5817 19.5614 11.5808 17.962V6.03157C11.5808 4.4319 12.2163 2.89774 13.3474 1.76661C14.4786 0.635467 16.0127 0 17.6124 0C19.212 0 20.7462 0.635467 21.8773 1.76661C23.0085 2.89774 23.6439 4.4319 23.6439 6.03157V17.962C23.6431 19.5614 23.0073 21.095 21.8764 22.226C20.7454 23.3569 19.2118 23.9927 17.6124 23.9935ZM17.6124 3.64225C17.2985 3.64182 16.9876 3.70333 16.6975 3.82326C16.4074 3.94318 16.1439 4.11916 15.9219 4.34111C15.7 4.56307 15.524 4.82663 15.4041 5.11671C15.2841 5.40679 15.2226 5.71768 15.2231 6.03157V17.962C15.2231 18.5956 15.4748 19.2034 15.9229 19.6515C16.371 20.0995 16.9787 20.3513 17.6124 20.3513C18.2461 20.3513 18.8538 20.0995 19.3019 19.6515C19.75 19.2034 20.0017 18.5956 20.0017 17.962V6.03157C19.9933 5.40049 19.7389 4.79761 19.2926 4.35133C18.8463 3.90505 18.2435 3.65063 17.6124 3.64225Z" fill="white"/>
<path d="M1.97817 23.9841C1.71611 23.9854 1.45642 23.9344 1.21433 23.834C0.972249 23.7337 0.752641 23.586 0.568392 23.3996C0.384142 23.2132 0.23896 22.992 0.141361 22.7488C0.043761 22.5055 -0.00429109 22.2453 2.25604e-05 21.9833V1.95251C0.00938649 1.43182 0.223701 0.935823 0.596462 0.572154C0.969223 0.208485 1.47036 0.00648018 1.99112 0.0099737C2.4272 0.00359255 2.85275 0.144148 3.19924 0.40901C3.54574 0.673872 3.79302 1.04763 3.90128 1.47011C3.91462 1.51588 3.92543 1.56236 3.93365 1.60933V1.69674C3.95219 1.80364 3.96086 1.91201 3.95955 2.0205C3.95955 2.0205 3.95955 21.7696 3.95955 21.9962C3.96127 22.2572 3.91123 22.5159 3.81235 22.7575C3.71346 22.999 3.56768 23.2185 3.38344 23.4034C3.19919 23.5882 2.98013 23.7347 2.73893 23.8344C2.49772 23.9341 2.23916 23.9849 1.97817 23.9841Z" fill="white"/>
</g>
<path d="M199.45 24.1273C198.721 24.1273 198.171 23.9198 197.8 23.505C197.43 23.0901 197.244 22.4836 197.244 21.6853V16.1224H195.783V14.265H197.244V11.295L199.356 10.2861V14.265H201.6V16.1224H199.356V21.2233C199.356 21.569 199.422 21.8267 199.554 21.9964C199.692 22.1598 199.903 22.2416 200.186 22.2416C200.645 22.2416 201.144 22.0907 201.685 21.789L201.449 23.6936C201.154 23.8381 200.843 23.945 200.516 24.0141C200.189 24.0896 199.834 24.1273 199.45 24.1273Z" fill="#F4F7FA"/>
<path d="M185.462 23.9006L188.875 18.9035L185.698 14.2646H188.111L189.516 16.3201C189.623 16.4646 189.727 16.6186 189.827 16.7821C189.934 16.9455 190.019 17.0964 190.082 17.2346C190.164 17.0901 190.255 16.9392 190.355 16.7821C190.456 16.6186 190.556 16.4646 190.657 16.3201L192.062 14.2646H194.485L191.298 18.9035L194.721 23.9006H192.298L190.648 21.4869C190.547 21.3361 190.446 21.1821 190.346 21.0249C190.252 20.8615 190.164 20.7106 190.082 20.5724C190.019 20.7106 189.934 20.8615 189.827 21.0249C189.72 21.1821 189.617 21.3361 189.516 21.4869L187.876 23.9006H185.462Z" fill="#F4F7FA"/>
<path d="M180.334 24.1276C179.423 24.1276 178.637 23.9171 177.977 23.4959C177.317 23.0748 176.811 22.4871 176.459 21.7328C176.107 20.9722 175.931 20.0859 175.931 19.0739C175.931 18.0242 176.113 17.1253 176.478 16.3773C176.843 15.6231 177.355 15.0448 178.015 14.6425C178.675 14.2402 179.448 14.0391 180.334 14.0391C181.095 14.0391 181.786 14.2025 182.409 14.5293C183.037 14.8562 183.537 15.3591 183.908 16.0379C184.279 16.7105 184.464 17.5685 184.464 18.6119C184.464 18.7753 184.461 18.9702 184.455 19.1965C184.448 19.4165 184.429 19.6396 184.398 19.8659H178.034C178.071 20.3562 178.188 20.7836 178.383 21.1482C178.584 21.5128 178.851 21.7988 179.184 22.0062C179.517 22.2073 179.91 22.3079 180.363 22.3079C180.803 22.3079 181.192 22.2356 181.532 22.0911C181.871 21.9402 182.195 21.7013 182.503 21.3745L183.729 22.6662C183.333 23.0999 182.849 23.4519 182.277 23.7222C181.711 23.9925 181.063 24.1276 180.334 24.1276ZM178.043 18.1593H182.39C182.371 17.7005 182.277 17.2982 182.107 16.9525C181.943 16.6068 181.711 16.3396 181.409 16.1511C181.107 15.9562 180.74 15.8588 180.306 15.8588C179.703 15.8588 179.187 16.0473 178.76 16.4245C178.339 16.8016 178.1 17.3799 178.043 18.1593Z" fill="#F4F7FA"/>
<path d="M163.112 23.9012V10.7012H165.186L170.598 19.0172C170.68 19.1429 170.771 19.2969 170.871 19.4792C170.978 19.6552 171.069 19.828 171.145 19.9977C171.138 19.8469 171.129 19.6772 171.116 19.4886C171.11 19.3 171.107 19.1429 171.107 19.0172V10.7012H173.276V23.9012H171.286L165.77 15.5475C165.695 15.4217 165.604 15.2677 165.497 15.0855C165.396 14.9032 165.305 14.7366 165.224 14.5857C165.249 14.7366 165.261 14.9 165.261 15.076C165.268 15.2457 165.271 15.4029 165.271 15.5475V23.9012H163.112Z" fill="#F4F7FA"/>
<path d="M151.828 24.1276C150.916 24.1276 150.13 23.9171 149.47 23.4959C148.81 23.0748 148.304 22.4871 147.952 21.7328C147.6 20.9722 147.424 20.0859 147.424 19.0739C147.424 18.0242 147.607 17.1253 147.971 16.3773C148.336 15.6231 148.848 15.0448 149.508 14.6425C150.168 14.2402 150.941 14.0391 151.828 14.0391C152.588 14.0391 153.28 14.2025 153.902 14.5293C154.53 14.8562 155.03 15.3591 155.401 16.0379C155.772 16.7105 155.957 17.5685 155.957 18.6119C155.957 18.7753 155.954 18.9702 155.948 19.1965C155.942 19.4165 155.923 19.6396 155.891 19.8659H149.527C149.565 20.3562 149.681 20.7836 149.876 21.1482C150.077 21.5128 150.344 21.7988 150.677 22.0062C151.01 22.2073 151.403 22.3079 151.856 22.3079C152.296 22.3079 152.686 22.2356 153.025 22.0911C153.364 21.9402 153.688 21.7013 153.996 21.3745L155.222 22.6662C154.826 23.0999 154.342 23.4519 153.77 23.7222C153.204 23.9925 152.557 24.1276 151.828 24.1276ZM149.536 18.1593H153.883C153.864 17.7005 153.77 17.2982 153.6 16.9525C153.437 16.6068 153.204 16.3396 152.902 16.1511C152.601 15.9562 152.233 15.8588 151.799 15.8588C151.196 15.8588 150.68 16.0473 150.253 16.4245C149.832 16.8016 149.593 17.3799 149.536 18.1593Z" fill="#F4F7FA"/>
<path d="M140.472 23.9006L136.945 14.2646H139.123L141.235 20.2235C141.286 20.3681 141.336 20.5189 141.386 20.6761C141.436 20.8332 141.48 20.9935 141.518 21.1569C141.562 20.9935 141.606 20.8364 141.65 20.6855C141.7 20.5284 141.754 20.3744 141.81 20.2235L143.894 14.2646H146.063L142.536 23.9006H140.472Z" fill="#F4F7FA"/>
<path d="M132.76 23.9011V14.2651H134.872V23.9011H132.76ZM133.807 12.8696C133.461 12.8696 133.166 12.7471 132.921 12.5019C132.675 12.2568 132.553 11.9613 132.553 11.6156C132.553 11.2636 132.672 10.9651 132.911 10.7199C133.156 10.4685 133.455 10.3428 133.807 10.3428C134.171 10.3428 134.473 10.4653 134.712 10.7105C134.957 10.9556 135.08 11.2573 135.08 11.6156C135.08 11.9676 134.957 12.2662 134.712 12.5113C134.467 12.7502 134.165 12.8696 133.807 12.8696Z" fill="#F4F7FA"/>
<path d="M125.154 23.9013V14.2653H127.266V15.3779C127.455 14.9631 127.738 14.6362 128.115 14.3973C128.498 14.1585 128.919 14.0391 129.378 14.0391C130.026 14.0391 130.572 14.2496 131.019 14.6708L130.726 16.6225C130.488 16.4339 130.249 16.2988 130.01 16.2171C129.771 16.1353 129.507 16.0945 129.218 16.0945C128.816 16.0945 128.47 16.1951 128.181 16.3962C127.892 16.5973 127.665 16.8833 127.502 17.2542C127.345 17.6251 127.266 18.0651 127.266 18.5742V23.9013H125.154Z" fill="#F4F7FA"/>
<path d="M112.046 23.9012V10.7012H116.214C117.358 10.7012 118.326 10.8897 119.118 11.2669C119.916 11.6377 120.56 12.1406 121.051 12.7755C121.547 13.404 121.909 14.1112 122.135 14.8969C122.361 15.6826 122.474 16.484 122.474 17.3012C122.474 18.0555 122.368 18.8192 122.154 19.5923C121.94 20.3655 121.591 21.0789 121.107 21.7326C120.623 22.3863 119.976 22.9112 119.165 23.3072C118.354 23.7032 117.345 23.9012 116.138 23.9012H112.046ZM114.224 21.8457H116.374C117.097 21.8457 117.704 21.7137 118.194 21.4497C118.684 21.1795 119.077 20.8212 119.372 20.3749C119.674 19.9286 119.888 19.4383 120.014 18.904C120.146 18.3697 120.212 17.8355 120.212 17.3012C120.212 16.7355 120.142 16.1823 120.004 15.6417C119.866 15.0949 119.649 14.6046 119.354 14.1709C119.064 13.7372 118.69 13.3915 118.232 13.1337C117.773 12.8697 117.223 12.7377 116.582 12.7377H114.224V21.8457Z" fill="#F4F7FA"/>
<path d="M106.758 23.9011V14.2651H108.87V23.9011H106.758ZM107.805 12.8696C107.459 12.8696 107.164 12.7471 106.918 12.5019C106.673 12.2568 106.551 11.9613 106.551 11.6156C106.551 11.2636 106.67 10.9651 106.909 10.7199C107.154 10.4685 107.453 10.3428 107.805 10.3428C108.169 10.3428 108.471 10.4653 108.71 10.7105C108.955 10.9556 109.078 11.2573 109.078 11.6156C109.078 11.9676 108.955 12.2662 108.71 12.5113C108.465 12.7502 108.163 12.8696 107.805 12.8696Z" fill="#F4F7FA"/>
<path d="M93.4286 23.9012V10.7012H95.6066V16.0472H101.396V10.7012H103.574V23.9012H101.396V18.112H95.6066V23.9012H93.4286Z" fill="#F4F7FA"/>
<g clip-path="url(#clip1_5346_61477)">
<path d="M76.0793 23.9969C75.6725 23.998 75.2667 23.9568 74.8685 23.8739C74.011 23.6967 73.2 23.3418 72.488 22.8321C71.7759 22.3225 71.1785 21.6693 70.7341 20.9148L70.7115 20.8727C70.491 20.455 70.4375 19.969 70.562 19.5133C70.6864 19.0577 70.9794 18.6663 71.3816 18.4186C71.6602 18.251 71.9792 18.1626 72.3043 18.1629C72.6282 18.1634 72.9461 18.25 73.2254 18.4138C73.5048 18.5777 73.7355 18.8129 73.894 19.0953L73.9555 19.1989L74.1498 19.4611L74.4088 19.7234C74.7456 20.0147 75.1531 20.2124 75.5905 20.2964C75.9442 20.3648 76.3083 20.3587 76.6595 20.2784C77.0107 20.1982 77.3413 20.0455 77.6301 19.8302C77.9285 19.6179 78.176 19.3419 78.3546 19.0222C78.5333 18.7024 78.6386 18.347 78.6629 17.9816C78.6929 17.6198 78.6451 17.2559 78.5228 16.9141C78.4005 16.5724 78.2065 16.2608 77.9539 16.0002C77.9539 16.0002 71.9838 9.84883 71.8543 9.67724L71.5597 9.24017C70.8612 8.14997 70.5457 6.85822 70.6629 5.56878C70.7268 4.6753 70.9913 3.80772 71.4367 3.03053L71.6957 2.57728C72.1669 1.90335 72.7831 1.34357 73.499 0.939074L73.7936 0.728633C75.1709 -0.0284042 76.7901 -0.215101 78.3034 0.208646C79.8168 0.632392 81.1037 1.63278 81.8875 2.99492C82.0097 3.20049 82.0892 3.42852 82.1215 3.66545C82.1537 3.90238 82.138 4.14338 82.0753 4.37412C82.0131 4.60903 81.9047 4.82914 81.7562 5.02152C81.6078 5.21389 81.4223 5.37464 81.2109 5.49431C80.9414 5.65413 80.6338 5.73803 80.3205 5.73713C79.9984 5.73625 79.6824 5.64973 79.4048 5.48646C79.1271 5.32318 78.8979 5.08901 78.7406 4.80795C78.5698 4.5173 78.3391 4.26626 78.064 4.07146C77.7888 3.87667 77.4754 3.74257 77.1445 3.67805C76.8081 3.61253 76.4617 3.61755 76.1274 3.69278C75.793 3.76801 75.4779 3.91182 75.202 4.11512C74.9368 4.32174 74.7188 4.58255 74.5625 4.88012C74.4062 5.17769 74.3151 5.50518 74.2954 5.84073C74.2674 6.17756 74.3106 6.51653 74.4221 6.83558C74.5337 7.15464 74.7111 7.44664 74.943 7.69261L80.5536 13.4781C81.3999 14.3562 81.9689 15.464 82.1897 16.6634C82.4104 17.8627 82.2731 19.1006 81.7949 20.2224C81.3166 21.3442 80.5187 22.3004 79.5005 22.9716C78.4824 23.6429 77.2891 23.9995 76.0696 23.9969H76.0793Z" fill="white"/>
<path d="M58.3311 23.9935C56.732 23.9918 55.1988 23.3558 54.0681 22.225C52.9373 21.0943 52.3013 19.5611 52.2996 17.962V6.03157C52.2996 5.23949 52.4556 4.45517 52.7587 3.72339C53.0618 2.9916 53.5061 2.32669 54.0662 1.76661C54.6262 1.20652 55.2912 0.76224 56.0229 0.459126C56.7547 0.156011 57.5391 0 58.3311 0C59.1232 0 59.9075 0.156011 60.6393 0.459126C61.3711 0.76224 62.036 1.20652 62.5961 1.76661C63.1562 2.32669 63.6005 2.9916 63.9036 3.72339C64.2067 4.45517 64.3627 5.23949 64.3627 6.03157V17.962C64.361 19.5611 63.725 21.0943 62.5942 22.225C61.4634 23.3558 59.9303 23.9918 58.3311 23.9935ZM58.3311 3.64225C57.6977 3.64311 57.0905 3.89511 56.6426 4.34301C56.1947 4.79091 55.9427 5.39814 55.9418 6.03157V17.962C55.9383 18.2767 55.9978 18.5889 56.1166 18.8804C56.2355 19.1719 56.4113 19.4366 56.6339 19.6592C56.8565 19.8818 57.1212 20.0576 57.4127 20.1765C57.7041 20.2953 58.0164 20.3547 58.3311 20.3513C58.9646 20.3504 59.5718 20.0984 60.0197 19.6505C60.4676 19.2026 60.7196 18.5954 60.7204 17.962V6.03157C60.7121 5.40049 60.4576 4.79761 60.0114 4.35133C59.5651 3.90505 58.9622 3.65063 58.3311 3.64225Z" fill="white"/>
<path d="M34.9042 12.3064V22.1907C34.9042 22.6733 34.7125 23.1361 34.3712 23.4773C34.03 23.8185 33.5672 24.0102 33.0846 24.0102C32.6021 24.0102 32.1393 23.8185 31.7981 23.4773C31.4568 23.1361 31.2651 22.6733 31.2651 22.1907V4.74998L34.9042 12.3064ZM44.7301 19.2542V1.81999C44.7103 1.35028 44.5098 0.906396 44.1704 0.581046C43.8311 0.255697 43.3791 0.0740504 42.909 0.0740504C42.4389 0.0740504 41.9869 0.255697 41.6476 0.581046C41.3082 0.906396 41.1077 1.35028 41.0879 1.81999V11.6945L44.7301 19.2542ZM34.7326 1.03327V0.997653C34.5685 0.704302 34.3295 0.459791 34.04 0.289135C33.7504 0.118479 33.4207 0.0278035 33.0846 0.026386C32.9616 0.0258014 32.8389 0.0388309 32.7188 0.0652367C32.3095 0.144937 31.9413 0.365986 31.6785 0.68972C31.4158 1.01345 31.2752 1.41927 31.2813 1.83618V2.25382L41.2724 22.9968C41.4291 23.2921 41.6617 23.5401 41.9463 23.7154C42.2309 23.8907 42.557 23.9869 42.8912 23.994C43.032 23.9944 43.1724 23.9769 43.3088 23.9422C43.711 23.8581 44.0719 23.638 44.3307 23.319C44.5896 23 44.7306 22.6015 44.7301 22.1907V21.7795C44.7301 21.7795 35.0013 1.58689 34.7326 1.03327Z" fill="white"/>
<path d="M17.6124 23.9935C16.013 23.9927 14.4793 23.3569 13.3484 22.226C12.2174 21.095 11.5817 19.5614 11.5808 17.962V6.03157C11.5808 4.4319 12.2163 2.89774 13.3474 1.76661C14.4786 0.635467 16.0127 0 17.6124 0C19.212 0 20.7462 0.635467 21.8773 1.76661C23.0085 2.89774 23.6439 4.4319 23.6439 6.03157V17.962C23.6431 19.5614 23.0073 21.095 21.8764 22.226C20.7454 23.3569 19.2118 23.9927 17.6124 23.9935ZM17.6124 3.64225C17.2985 3.64182 16.9876 3.70333 16.6975 3.82326C16.4074 3.94318 16.1439 4.11916 15.9219 4.34111C15.7 4.56307 15.524 4.82663 15.4041 5.11671C15.2841 5.40679 15.2226 5.71768 15.2231 6.03157V17.962C15.2231 18.5956 15.4748 19.2034 15.9229 19.6515C16.371 20.0995 16.9787 20.3513 17.6124 20.3513C18.2461 20.3513 18.8538 20.0995 19.3019 19.6515C19.75 19.2034 20.0017 18.5956 20.0017 17.962V6.03157C19.9933 5.40049 19.7389 4.79761 19.2926 4.35133C18.8463 3.90505 18.2435 3.65063 17.6124 3.64225Z" fill="white"/>
<path d="M1.97817 23.9841C1.71611 23.9854 1.45642 23.9344 1.21433 23.834C0.972249 23.7337 0.752641 23.586 0.568392 23.3996C0.384142 23.2132 0.23896 22.992 0.141361 22.7488C0.043761 22.5055 -0.00429109 22.2453 2.25604e-05 21.9833V1.95251C0.00938649 1.43182 0.223701 0.935823 0.596462 0.572154C0.969223 0.208485 1.47036 0.00648018 1.99112 0.0099737C2.4272 0.00359255 2.85275 0.144148 3.19924 0.40901C3.54574 0.673872 3.79302 1.04763 3.90128 1.47011C3.91462 1.51588 3.92543 1.56236 3.93365 1.60933V1.69674C3.95219 1.80364 3.96086 1.91201 3.95955 2.0205C3.95955 2.0205 3.95955 21.7696 3.95955 21.9962C3.96127 22.2572 3.91123 22.5159 3.81235 22.7575C3.71346 22.999 3.56768 23.2185 3.38344 23.4034C3.19919 23.5882 2.98013 23.7347 2.73893 23.8344C2.49772 23.9341 2.23916 23.9849 1.97817 23.9841Z" fill="white"/>
</g>
<defs>
<clipPath id="clip0_5346_61477">
<rect width="82.3149" height="24" fill="white"/>
</clipPath>
<clipPath id="clip1_5346_61477">
<rect width="82.3149" height="24" fill="white"/>
</clipPath>
</defs>
</svg>
