<svg width="34" height="24" viewBox="0 0 34 24" fill="none" xmlns="http://www.w3.org/2000/svg">
<path d="M18.8062 4.82143C17.6375 3.48214 15.9375 2.57143 14.025 2.57143C10.4656 2.57143 7.65 5.46429 7.65 9V9.05357C7.65 10.125 6.95937 11.0893 5.95 11.4643C3.93125 12.1607 2.55 14.0893 2.55 16.2857C2.55 19.125 4.83437 21.4286 7.65 21.4286H26.9344C26.9344 21.4286 26.9875 21.4286 27.0406 21.4286C29.4844 21.3214 31.45 19.2321 31.45 16.7143C31.45 14.7857 30.2812 13.125 28.6344 12.4286C27.5719 11.9464 26.9344 10.8214 27.1469 9.64286C27.1469 9.42857 27.2 9.21429 27.2 9C27.2 6.91071 25.4469 5.14286 23.375 5.14286C22.7906 5.14286 22.2594 5.30357 21.7812 5.51786C20.7719 5.94643 19.55 5.67857 18.8062 4.82143ZM27.2 24H7.65C3.4 24 0 20.5714 0 16.2857C0 12.9643 2.125 10.0714 5.1 9.05357V9C5.1 4.07143 9.08438 0 14.025 0C16.6812 0 19.125 1.23214 20.7719 3.16071C21.5688 2.78571 22.4188 2.57143 23.375 2.57143C26.8813 2.57143 29.75 5.46429 29.75 9C29.75 9.375 29.6969 9.69643 29.6437 10.0714C32.1937 11.1964 34 13.7679 34 16.7143C34 20.625 30.9719 23.7857 27.2 24ZM11.8469 15.0536C11.3156 14.5714 11.3156 13.7679 11.8469 13.2857C12.325 12.75 13.1219 12.75 13.6531 13.2857L15.725 15.375V8.14286C15.725 7.44643 16.2563 6.85714 17 6.85714C17.6906 6.85714 18.275 7.44643 18.275 8.14286V15.375L20.3469 13.2857C20.825 12.75 21.6219 12.75 22.1 13.2857C22.6313 13.7679 22.6313 14.5714 22.1 15.0536L17.85 19.3393C17.3719 19.875 16.575 19.875 16.0969 19.3393L11.8469 15.0536Z" fill="#465A75"/>
</svg>
