<svg width="16" height="16" viewBox="0 0 16 16" fill="none" xmlns="http://www.w3.org/2000/svg">
<path d="M13.3234 7.30135C13.3274 7.23824 13.3332 7.17513 13.3332 7.11113C13.3332 5.39291 11.9403 4.00002 10.2221 4.00002C9.84167 4.00002 9.479 4.07158 9.14211 4.19646C8.49989 3.27246 7.43234 2.66669 6.22211 2.66669C4.26656 2.66669 2.68122 4.24535 2.66789 6.1978C1.35145 6.85246 0.444336 8.20758 0.444336 9.7778C0.444336 11.9871 2.235 13.7778 4.44434 13.7778H12.2221C14.063 13.7778 15.5554 12.2854 15.5554 10.4445C15.5554 8.99024 14.6226 7.75646 13.3234 7.30135ZM12.2221 12.8889H4.44434C2.72878 12.8889 1.33322 11.4934 1.33322 9.7778C1.33322 8.59158 1.99634 7.52446 3.06345 6.9938C3.36345 6.84446 3.55411 6.53913 3.55634 6.20402C3.56611 4.74358 4.76211 3.55558 6.22167 3.55558C7.09322 3.55558 7.91189 3.98491 8.41189 4.70402C8.58167 4.94846 8.85722 5.0858 9.14211 5.0858C9.24522 5.0858 9.34967 5.06758 9.451 5.03024C9.70345 4.93646 9.963 4.88935 10.2221 4.88935C11.4474 4.88935 12.4443 5.88624 12.4443 7.11158C12.4443 7.13913 12.4417 7.16624 12.4399 7.19335L12.4363 7.24802C12.4123 7.64446 12.6546 8.00891 13.0297 8.14046C14.0088 8.48358 14.6666 9.4098 14.6666 10.4449C14.6666 11.7929 13.5701 12.8889 12.2221 12.8889ZM10.3141 9.01913C10.4879 9.19291 10.4879 9.4738 10.3141 9.64758L8.31411 11.6476C8.22745 11.7342 8.11367 11.7778 7.99989 11.7778C7.88611 11.7778 7.77234 11.7342 7.68567 11.6476L5.68567 9.64758C5.51189 9.4738 5.51189 9.19291 5.68567 9.01913C5.85945 8.84535 6.14034 8.84535 6.31411 9.01913L7.55545 10.2605V6.66669C7.55545 6.42135 7.75456 6.22224 7.99989 6.22224C8.24522 6.22224 8.44434 6.42135 8.44434 6.66669V10.2605L9.68567 9.01913C9.85945 8.84535 10.1403 8.84535 10.3141 9.01913Z" fill="#001B41"/>
</svg>
