<svg width="84" height="84" viewBox="0 0 84 84" fill="none" xmlns="http://www.w3.org/2000/svg">
<path d="M46.4625 24.3125C43.575 21.0312 39.375 18.8 34.65 18.8C25.8563 18.8 18.9 25.8875 18.9 34.55V34.6812C18.9 37.3062 17.1938 39.6688 14.7 40.5875C9.7125 42.2938 6.3 47.0187 6.3 52.4C6.3 59.3563 11.9438 65 18.9 65H66.5437C66.5437 65 66.675 65 66.8063 65C72.8438 64.7375 77.7 59.6188 77.7 53.45C77.7 48.725 74.8125 44.6562 70.7438 42.95C68.1188 41.7687 66.5437 39.0125 67.0687 36.125C67.0687 35.6 67.2 35.075 67.2 34.55C67.2 29.4312 62.8688 25.1 57.75 25.1C56.3063 25.1 54.9938 25.4937 53.8125 26.0188C51.3187 27.0688 48.3 26.4125 46.4625 24.3125ZM67.2 71.3H18.9C8.4 71.3 0 62.9 0 52.4C0 44.2625 5.25 37.175 12.6 34.6812V34.55C12.6 22.475 22.4438 12.5 34.65 12.5C41.2125 12.5 47.25 15.5187 51.3187 20.2438C53.2875 19.325 55.3875 18.8 57.75 18.8C66.4125 18.8 73.5 25.8875 73.5 34.55C73.5 35.4688 73.3688 36.2563 73.2375 37.175C79.5375 39.9312 84 46.2313 84 53.45C84 63.0312 76.5188 70.775 67.2 71.3ZM29.2687 49.3812C27.9562 48.2 27.9562 46.2313 29.2687 45.05C30.45 43.7375 32.4188 43.7375 33.7313 45.05L38.85 50.1688V32.45C38.85 30.7437 40.1625 29.3 42 29.3C43.7062 29.3 45.15 30.7437 45.15 32.45V50.1688L50.2687 45.05C51.45 43.7375 53.4188 43.7375 54.6 45.05C55.9125 46.2313 55.9125 48.2 54.6 49.3812L44.1 59.8812C42.9188 61.1937 40.95 61.1937 39.7687 59.8812L29.2687 49.3812Z" fill="#001B41"/>
</svg>
