<svg width="48" height="48" viewBox="0 0 48 48" fill="none" xmlns="http://www.w3.org/2000/svg">
<g clip-path="url(#clip0_7545_40056)">
<path d="M24.0002 1.33337C11.4815 1.33337 1.3335 11.4814 1.3335 24C1.3335 36.5187 11.4815 46.6667 24.0002 46.6667C36.5188 46.6667 46.6668 36.5187 46.6668 24C46.6668 11.4814 36.5188 1.33337 24.0002 1.33337ZM35.0175 25.7227L20.3508 34.3894C20.0375 34.5747 19.6855 34.6667 19.3335 34.6667C18.9922 34.6667 18.6495 34.58 18.3415 34.404C17.7175 34.048 17.3335 33.3854 17.3335 32.6667V15.3334C17.3335 14.6147 17.7188 13.952 18.3415 13.596C18.9655 13.2387 19.7322 13.2467 20.3508 13.6107L35.0175 22.2774C35.6268 22.6374 36.0002 23.292 36.0002 24C36.0002 24.708 35.6268 25.3614 35.0175 25.7227Z" fill="white"/>
</g>
<defs>
<clipPath id="clip0_7545_40056">
<rect width="48" height="48" fill="white"/>
</clipPath>
</defs>
</svg>
