<svg width="96" height="96" viewBox="0 0 96 96" fill="none" xmlns="http://www.w3.org/2000/svg">
<path d="M57.9727 29.4609C54.2148 24.1133 48 20.5 41.0625 20.5C29.7891 20.5 20.6836 29.3164 20.25 40.4453C20.1055 42.3242 18.9492 43.9141 17.0703 44.6367C10.8555 46.8047 6.375 52.875 6.375 59.8125C6.375 68.7734 13.6016 76 22.5625 76H75.75C83.4102 76 89.625 69.7852 89.625 62.125C89.625 56.9219 86.5898 52.2969 82.1094 49.9844C80.2305 48.8281 79.2188 46.6602 79.9414 44.4922C80.2305 43.625 80.375 42.4688 80.375 41.3125C80.375 34.9531 75.1719 29.75 68.8125 29.75C66.9336 29.75 65.3438 30.1836 63.7539 30.9062C61.7305 31.918 59.2734 31.1953 57.9727 29.4609ZM41.0625 15.875C49.5898 15.875 57.25 20.2109 61.875 26.7148C63.8984 25.7031 66.2109 25.125 68.8125 25.125C77.6289 25.125 85 32.4961 85 41.3125C85 42.9023 84.7109 44.3477 84.2773 45.793C90.2031 48.9727 94.25 55.043 94.25 62.125C94.25 72.3867 85.8672 80.625 75.75 80.625H22.5625C11 80.625 1.75 71.375 1.75 59.8125C1.75 50.8516 7.53125 43.0469 15.625 40.3008C16.2031 26.7148 27.332 15.875 41.0625 15.875ZM34.7031 54.6094C33.8359 53.7422 33.8359 52.1523 34.7031 51.2852C35.5703 50.418 37.1602 50.418 38.0273 51.2852L45.6875 58.9453V36.6875C45.6875 35.5312 46.6992 34.375 48 34.375C49.1562 34.375 50.3125 35.5312 50.3125 36.6875V58.9453L57.8281 51.2852C58.6953 50.418 60.2852 50.418 61.1523 51.2852C62.0195 52.1523 62.0195 53.7422 61.1523 54.6094L49.5898 66.1719C48.7227 67.0391 47.1328 67.0391 46.2656 66.1719L34.7031 54.6094Z" fill="#001B41"/>
</svg>
