<svg width="48" height="48" viewBox="0 0 48 48" fill="none" xmlns="http://www.w3.org/2000/svg">
<path d="M43.5 18H31.5C30.6562 18 30 17.3438 30 16.5C30 15.75 30.6562 15 31.5 15H39.5625C36.4688 9.65625 30.6562 6 24 6C14.0625 6 6 14.0625 6 24C6 33.9375 14.0625 42 24 42C30.2812 42 35.9062 38.7188 39.0938 33.8438C39.375 33.375 39.9375 33 40.5 33C41.625 33 42.375 34.2188 41.7188 35.25C38.0625 41.1562 31.4062 45 24 45C12.375 45 3 35.625 3 24C3 12.4688 12.375 3 24 3C31.5938 3 38.25 7.125 42 13.2188V4.5C42 3.75 42.6562 3 43.5 3C44.25 3 45 3.75 45 4.5V16.5C45 17.3438 44.25 18 43.5 18Z" fill="#F4F7FA"/>
<path d="M19.5971 29V21.084H19.4741L17.0541 22.7656V20.9062L19.6039 19.1357H21.6616V29H19.5971ZM27.022 29.2529C26.2108 29.2529 25.5113 29.0433 24.9234 28.624C24.3401 28.2002 23.8912 27.6009 23.5767 26.8262C23.2623 26.0514 23.105 25.1331 23.105 24.0713V24.0576C23.105 22.9912 23.2623 22.0729 23.5767 21.3027C23.8912 20.528 24.3401 19.931 24.9234 19.5117C25.5113 19.0924 26.2108 18.8828 27.022 18.8828C27.8378 18.8828 28.5373 19.0924 29.1207 19.5117C29.704 19.931 30.1529 20.528 30.4673 21.3027C30.7818 22.0729 30.939 22.9912 30.939 24.0576V24.0713C30.939 25.1331 30.7818 26.0514 30.4673 26.8262C30.1529 27.6009 29.704 28.2002 29.1207 28.624C28.5373 29.0433 27.8378 29.2529 27.022 29.2529ZM27.022 27.6191C27.414 27.6191 27.7444 27.4779 28.0132 27.1953C28.2867 26.9128 28.494 26.5072 28.6353 25.9785C28.7811 25.4499 28.8541 24.8141 28.8541 24.0713V24.0576C28.8541 23.3102 28.7811 22.6745 28.6353 22.1504C28.494 21.6217 28.2867 21.2184 28.0132 20.9404C27.7444 20.6579 27.414 20.5166 27.022 20.5166C26.6347 20.5166 26.3043 20.6579 26.0308 20.9404C25.7619 21.2184 25.5546 21.6217 25.4088 22.1504C25.2675 22.6745 25.1968 23.3102 25.1968 24.0576V24.0713C25.1968 24.8141 25.2675 25.4499 25.4088 25.9785C25.5546 26.5072 25.7619 26.9128 26.0308 27.1953C26.3043 27.4779 26.6347 27.6191 27.022 27.6191Z" fill="#F4F7FA"/>
</svg>
