<svg width="48" height="48" viewBox="0 0 48 48" fill="none" xmlns="http://www.w3.org/2000/svg">
<path d="M4.5 18C3.65625 18 3 17.3438 3 16.5V4.5C3 3.75 3.65625 3 4.5 3C5.25 3 6 3.75 6 4.5V13.2188C9.65625 7.125 16.3125 3 24 3C35.5312 3 45 12.4688 45 24C45 35.625 35.5312 45 24 45C16.5 45 9.9375 41.1562 6.1875 35.25C5.53125 34.2188 6.28125 33 7.5 33C8.0625 33 8.53125 33.375 8.8125 33.8438C12 38.7188 17.625 42 24 42C33.9375 42 42 33.9375 42 24C42 14.0625 33.9375 6 24 6C17.25 6 11.4375 9.65625 8.34375 15H16.5C17.25 15 18 15.75 18 16.5C18 17.3438 17.25 18 16.5 18H4.5Z" fill="#F4F7FA"/>
<path d="M19.5971 29V21.084H19.4741L17.0541 22.7656V20.9062L19.6039 19.1357H21.6616V29H19.5971ZM27.022 29.2529C26.2108 29.2529 25.5113 29.0433 24.9234 28.624C24.3401 28.2002 23.8912 27.6009 23.5767 26.8262C23.2623 26.0514 23.105 25.1331 23.105 24.0713V24.0576C23.105 22.9912 23.2623 22.0729 23.5767 21.3027C23.8912 20.528 24.3401 19.931 24.9234 19.5117C25.5113 19.0924 26.2108 18.8828 27.022 18.8828C27.8378 18.8828 28.5373 19.0924 29.1207 19.5117C29.704 19.931 30.1529 20.528 30.4673 21.3027C30.7818 22.0729 30.939 22.9912 30.939 24.0576V24.0713C30.939 25.1331 30.7818 26.0514 30.4673 26.8262C30.1529 27.6009 29.704 28.2002 29.1207 28.624C28.5373 29.0433 27.8378 29.2529 27.022 29.2529ZM27.022 27.6191C27.414 27.6191 27.7444 27.4779 28.0132 27.1953C28.2867 26.9128 28.494 26.5072 28.6353 25.9785C28.7811 25.4499 28.8541 24.8141 28.8541 24.0713V24.0576C28.8541 23.3102 28.7811 22.6745 28.6353 22.1504C28.494 21.6217 28.2867 21.2184 28.0132 20.9404C27.7444 20.6579 27.414 20.5166 27.022 20.5166C26.6347 20.5166 26.3043 20.6579 26.0308 20.9404C25.7619 21.2184 25.5546 21.6217 25.4088 22.1504C25.2675 22.6745 25.1968 23.3102 25.1968 24.0576V24.0713C25.1968 24.8141 25.2675 25.4499 25.4088 25.9785C25.5546 26.5072 25.7619 26.9128 26.0308 27.1953C26.3043 27.4779 26.6347 27.6191 27.022 27.6191Z" fill="#F4F7FA"/>
</svg>
