<?xml version="1.0" encoding="UTF-8"?>
<svg xmlns="http://www.w3.org/2000/svg" width="141.485" height="99.603" xmlns:svg="http://www.w3.org/2000/svg" xmlns:sodipodi="http://sodipodi.sourceforge.net/DTD/sodipodi-0.dtd" xmlns:rdf="http://www.w3.org/1999/02/22-rdf-syntax-ns#" xmlns:inkscape="http://www.inkscape.org/namespaces/inkscape" xmlns:dc="http://purl.org/dc/elements/1.1/" xmlns:cc="http://creativecommons.org/ns#" version="1.1" viewBox="0 0 141.485 99.603">
  <!-- Generator: Adobe Illustrator 29.5.1, SVG Export Plug-In . SVG Version: 2.1.0 Build 141)  -->
  <g id="Layer_1" inkscape:version="0.92.3 (2405546, 2018-03-11)">
    <sodipodi:namedview id="namedview16" bordercolor="#666666" borderopacity="1" fit-margin-bottom="10" fit-margin-left="10" fit-margin-right="10" fit-margin-top="10" gridtolerance="10" guidetolerance="10" inkscape:bbox-nodes="true" inkscape:bbox-paths="true" inkscape:current-layer="Layer_1" inkscape:cx="-34.704986" inkscape:cy="33.920203" inkscape:pageopacity="0" inkscape:pageshadow="2" inkscape:snap-bbox="true" inkscape:snap-bbox-edge-midpoints="true" inkscape:snap-bbox-midpoints="true" inkscape:snap-page="true" inkscape:window-height="1046" inkscape:window-maximized="1" inkscape:window-width="1920" inkscape:window-x="0" inkscape:window-y="34" inkscape:zoom="2.8284271" objecttolerance="10" pagecolor="#ffffff" showgrid="false" units="px"/>
    <path id="path1052" d="M70.835,22.149c-12.592,0-23.265,8.537-26.573,20.103-2.875-6.135-9.105-10.433-16.281-10.433-9.869,0-17.981,8.112-17.981,17.981s8.112,17.985,17.981,17.985c7.176,0,13.406-4.301,16.281-10.437,3.308,11.567,13.981,20.107,26.573,20.107,12.499,0,23.118-8.411,26.51-19.848,2.928,5.997,9.081,10.177,16.155,10.177,9.869,0,17.985-8.116,17.985-17.985s-8.116-17.981-17.985-17.981c-7.074,0-13.227,4.178-16.155,10.174-3.393-11.436-14.011-19.844-26.51-19.844ZM70.835,32.704c9.506,0,17.099,7.59,17.099,17.096s-7.594,17.099-17.099,17.099-17.096-7.594-17.096-17.099,7.59-17.096,17.096-17.096ZM27.981,42.374c4.165,0,7.429,3.261,7.429,7.426s-3.265,7.429-7.429,7.429-7.426-3.265-7.426-7.429,3.261-7.426,7.426-7.426ZM113.5,42.374c4.165,0,7.429,3.261,7.429,7.426s-3.265,7.429-7.429,7.429-7.426-3.265-7.426-7.429,3.261-7.426,7.426-7.426Z" inkscape:connector-curvature="0" inkscape:export-filename="Nextcloud Hub logo variants.png" inkscape:export-xdpi="300" inkscape:export-ydpi="300" fill="#fff"/>
  </g>
</svg>