<svg width="18" height="18" viewBox="0 0 18 18" fill="none" xmlns="http://www.w3.org/2000/svg">
<g clip-path="url(#clip0_2154_3109)">
<path d="M14 3.5H4C3.71875 3.5 3.5 3.75 3.5 4V14C3.5 14.2812 3.71875 14.5 4 14.5H14C14.25 14.5 14.5 14.2812 14.5 14V4C14.5 3.75 14.25 3.5 14 3.5ZM4 2H14C15.0938 2 16 2.90625 16 4V14C16 15.125 15.0938 16 14 16H4C2.875 16 2 15.125 2 14V4C2 2.90625 2.875 2 4 2Z" fill="#718095"/>
</g>
<defs>
<clipPath id="clip0_2154_3109">
<rect width="16" height="16" fill="white" transform="translate(1 1)"/>
</clipPath>
</defs>
</svg>
