<svg width="60" height="60" viewBox="0 0 60 60" fill="none" xmlns="http://www.w3.org/2000/svg">
<circle cx="30" cy="30" r="30" fill="#465A75"/>
<path d="M31.1953 12.9922L39 20.8672C39.7031 21.5703 39.7031 22.625 39 23.2578C38.3672 23.9609 37.3125 23.9609 36.6094 23.2578L31.6172 18.2656V35.5625C31.6172 36.5469 30.9141 37.25 29.9297 37.25C29.0156 37.25 28.2422 36.5469 28.2422 35.5625V18.2656L23.25 23.2578C22.6172 23.9609 21.5625 23.9609 20.9297 23.2578C20.2266 22.625 20.2266 21.5703 20.9297 20.8672L28.8047 12.9922C29.4375 12.3594 30.4922 12.3594 31.1953 12.9922ZM17.0625 14.75H17.625C18.5391 14.75 19.3125 15.5234 19.3125 16.4375C19.3125 17.4219 18.5391 18.125 17.625 18.125H17.0625C16.0781 18.125 15.375 18.8984 15.375 19.8125V43.4375C15.375 44.4219 16.0781 45.125 17.0625 45.125H42.9375C43.8516 45.125 44.625 44.4219 44.625 43.4375V19.8125C44.625 18.8984 43.8516 18.125 42.9375 18.125H42.375C41.3906 18.125 40.6875 17.4219 40.6875 16.4375C40.6875 15.5234 41.3906 14.75 42.375 14.75H42.9375C45.6797 14.75 48 17.0703 48 19.8125V43.4375C48 46.25 45.6797 48.5 42.9375 48.5H17.0625C14.25 48.5 12 46.25 12 43.4375V19.8125C12 17.0703 14.25 14.75 17.0625 14.75Z" fill="#1D2D42"/>
</svg>
