<?xml version="1.0" encoding="UTF-8" standalone="no"?>
<svg
   width="16"
   height="17"
   viewBox="0 0 16 17"
   fill="none"
   version="1.1"
   id="svg1"
   sodipodi:docname="checkMarkYesGridView.svg"
   inkscape:version="1.3.2 (091e20e, 2023-11-25)"
   xmlns:inkscape="http://www.inkscape.org/namespaces/inkscape"
   xmlns:sodipodi="http://sodipodi.sourceforge.net/DTD/sodipodi-0.dtd"
   xmlns="http://www.w3.org/2000/svg"
   xmlns:svg="http://www.w3.org/2000/svg">
  <defs
     id="defs1" />
  <sodipodi:namedview
     id="namedview1"
     pagecolor="#ffffff"
     bordercolor="#000000"
     borderopacity="0.25"
     inkscape:showpageshadow="2"
     inkscape:pageopacity="0.0"
     inkscape:pagecheckerboard="0"
     inkscape:deskcolor="#d1d1d1"
     inkscape:zoom="13.882353"
     inkscape:cx="8.0317797"
     inkscape:cy="8.5"
     inkscape:window-width="1920"
     inkscape:window-height="1027"
     inkscape:window-x="0"
     inkscape:window-y="25"
     inkscape:window-maximized="1"
     inkscape:current-layer="svg1" />
  <path
     d="M2.375 0.375H13.625C14.8555 0.375 15.875 1.39453 15.875 2.625V13.875C15.875 15.1406 14.8555 16.125 13.625 16.125H2.375C1.10938 16.125 0.125 15.1406 0.125 13.875V2.625C0.125 1.39453 1.10938 0.375 2.375 0.375ZM11.9727 6.59766H11.9375C12.2891 6.28125 12.2891 5.75391 11.9375 5.40234C11.6211 5.08594 11.0938 5.08594 10.7773 5.40234L6.875 9.33984L5.22266 7.6875C4.87109 7.33594 4.34375 7.33594 4.02734 7.6875C3.67578 8.00391 3.67578 8.53125 4.02734 8.84766L6.27734 11.0977C6.59375 11.4492 7.12109 11.4492 7.47266 11.0977L11.9727 6.59766Z"
     fill="#1474C4"
     id="path1" />
  <path
     style="fill:#ffffff;stroke-width:0.0720339"
     d="M 6.5460525,11.230998 C 6.4222288,11.169915 5.7699668,10.562867 5.0965813,9.8820026 3.7517248,8.5222099 3.6565914,8.3674923 3.9044165,7.9431571 3.9784353,7.8164195 4.1440069,7.6513954 4.2723534,7.576437 4.6942431,7.33004 4.8712543,7.4261539 5.9066007,8.4638037 L 6.8405857,9.3998665 8.9337048,7.3111621 11.026824,5.2224576 h 0.310529 c 0.257104,0 0.352664,0.042135 0.555444,0.2449153 0.202859,0.2028599 0.244915,0.2982938 0.244915,0.5557724 V 6.3340025 L 9.7425847,8.7367503 C 8.4252648,10.058261 7.2599254,11.185812 7.1529416,11.242419 6.9095871,11.37118 6.8270715,11.369627 6.5460525,11.230998 Z"
     id="path2" />
</svg>
