<svg width="24" height="24" viewBox="0 0 24 24" fill="none" xmlns="http://www.w3.org/2000/svg">
<path d="M19.3333 14C18.2287 14 17.3333 13.1047 17.3333 12C17.3333 10.8953 18.2287 10 19.3333 10C20.438 10 21.3333 10.8953 21.3333 12C21.3333 13.1047 20.438 14 19.3333 14ZM14 12C14 10.8953 13.1047 10 12 10C10.8953 10 10 10.8953 10 12C10 13.1047 10.8953 14 12 14C13.1047 14 14 13.1047 14 12ZM6.66667 12C6.66667 10.8953 5.77134 10 4.66667 10C3.56201 10 2.66667 10.8953 2.66667 12C2.66667 13.1047 3.56201 14 4.66667 14C5.77134 14 6.66667 13.1047 6.66667 12Z" fill="#001B41"/>
</svg>
