<svg width="85" height="84" viewBox="0 0 85 84" fill="none" xmlns="http://www.w3.org/2000/svg">
<path d="M60.7251 73.5C63.1771 73.5 65.3405 71.5312 65.3405 69V33H49.1867C45.2924 33 42.2636 30.0469 42.2636 26.25V10.5H23.8021C21.2059 10.5 19.1867 12.6094 19.1867 15V69C19.1867 71.5312 21.2059 73.5 23.8021 73.5H60.7251ZM49.1867 28.5H65.1963C65.0521 28.2188 64.9078 27.7969 64.6194 27.5156L47.8886 11.2031C47.6001 10.9219 47.1674 10.7812 46.879 10.6406V26.25C46.879 27.5156 47.8886 28.5 49.1867 28.5ZM23.8021 6H46.3021C48.0328 6 49.9078 6.84375 51.2059 8.10938L67.7924 24.2812C69.0905 25.5469 69.9559 27.375 69.9559 29.0625V69C69.9559 74.0625 65.7732 78 60.7251 78H23.8021C18.6098 78 14.5713 74.0625 14.5713 69V15C14.5713 10.0781 18.6098 6 23.8021 6ZM44.5713 45.2344V62.25C44.5713 63.5156 43.4174 64.5 42.2636 64.5C40.9655 64.5 39.9559 63.5156 39.9559 62.25V45.2344L32.3117 52.6875C31.4463 53.5312 29.8598 53.5312 28.9944 52.6875C28.129 51.8438 28.129 50.2969 28.9944 49.4531L40.5328 38.2031C41.3982 37.3594 42.9848 37.3594 43.8501 38.2031L55.3886 49.4531C56.254 50.2969 56.254 51.8438 55.3886 52.6875C54.5232 53.5312 52.9367 53.5312 52.0713 52.6875L44.5713 45.2344Z" fill="#001B41"/>
</svg>
