<svg width="16" height="16" viewBox="0 0 16 16" fill="none" xmlns="http://www.w3.org/2000/svg">
<path d="M8.79688 5.35938C8.28125 4.77344 7.53125 4.375 6.6875 4.375C5.11719 4.375 3.875 5.64062 3.875 7.1875V7.21094C3.875 7.67969 3.57031 8.10156 3.125 8.26562C2.23438 8.57031 1.625 9.41406 1.625 10.375C1.625 11.6172 2.63281 12.625 3.875 12.625H12.3125H12.3828C12.3828 12.625 12.4062 12.625 12.4297 12.625C13.5078 12.5781 14.375 11.6641 14.375 10.5625C14.375 9.71875 13.8594 8.99219 13.1328 8.6875C12.6641 8.47656 12.3828 7.98438 12.4766 7.46875C12.4766 7.375 12.5 7.28125 12.5 7.1875C12.5 6.27344 11.7266 5.5 10.8125 5.5C10.5547 5.5 10.3203 5.57031 10.1094 5.66406C9.66406 5.85156 9.125 5.73438 8.79688 5.35938ZM12.5 13.75H12.3125H11.375H3.875C2 13.75 0.5 12.25 0.5 10.375C0.5 8.92188 1.4375 7.65625 2.75 7.21094V7.1875C2.75 5.03125 4.50781 3.25 6.6875 3.25C7.85938 3.25 8.9375 3.78906 9.66406 4.63281C10.0156 4.46875 10.3906 4.375 10.8125 4.375C12.3594 4.375 13.625 5.64062 13.625 7.1875C13.625 7.35156 13.6016 7.49219 13.5781 7.65625C14.7031 8.14844 15.5 9.27344 15.5 10.5625C15.5 12.2734 14.1641 13.6562 12.5 13.75ZM10.6484 8.14844L7.64844 11.1484C7.41406 11.3828 7.0625 11.3828 6.85156 11.1484L5.35156 9.64844C5.11719 9.4375 5.11719 9.08594 5.35156 8.875C5.5625 8.64062 5.91406 8.64062 6.14844 8.875L7.25 9.97656L9.85156 7.375C10.0625 7.14062 10.4141 7.14062 10.6484 7.375C10.8594 7.58594 10.8594 7.9375 10.6484 8.14844Z" fill="#001B41"/>
</svg>
