<svg width="85" height="84" viewBox="0 0 85 84" fill="none" xmlns="http://www.w3.org/2000/svg">
<path d="M6.57129 12.75C6.57129 9.09375 9.52441 6 13.3213 6H26.8213C27.9463 6 29.0713 7.125 29.0713 8.25C29.0713 9.51562 27.9463 10.5 26.8213 10.5H13.3213C12.0557 10.5 11.0713 11.625 11.0713 12.75V26.25C11.0713 27.5156 9.94629 28.5 8.82129 28.5C7.55566 28.5 6.57129 27.5156 6.57129 26.25V12.75ZM36.9463 19.5H48.0557C50.4463 19.5 52.5557 21.0469 53.2588 23.1562L53.6807 24H57.1963C61.415 24 65.0713 27.6562 65.0713 31.875V52.125C65.0713 56.4844 61.415 60 57.1963 60H27.9463C23.5869 60 20.0713 56.4844 20.0713 52.125V31.875C20.0713 27.6562 23.5869 24 27.9463 24H31.3213L31.7432 23.1562C32.5869 21.0469 34.5557 19.5 36.9463 19.5ZM35.9619 24.8438L35.1182 27.0938C34.6963 27.9375 33.8525 28.5 33.0088 28.5H27.9463C25.9775 28.5 24.5713 30.0469 24.5713 31.875V52.125C24.5713 54.0938 25.9775 55.5 27.9463 55.5H57.1963C59.0244 55.5 60.5713 54.0938 60.5713 52.125V31.875C60.5713 30.0469 59.0244 28.5 57.1963 28.5H52.1338C51.1494 28.5 50.3057 27.9375 50.0244 27.0938L49.04 24.8438C48.8994 24.4219 48.4775 24 48.0557 24H36.9463C36.5244 24 36.1025 24.4219 35.9619 24.8438ZM38.0713 42C38.0713 44.5312 40.04 46.5 42.5713 46.5C44.9619 46.5 47.0713 44.5312 47.0713 42C47.0713 39.6094 44.9619 37.5 42.5713 37.5C40.04 37.5 38.0713 39.6094 38.0713 42ZM51.5713 42C51.5713 45.2344 49.7432 48.1875 47.0713 49.875C44.2588 51.4219 40.7432 51.4219 38.0713 49.875C35.2588 48.1875 33.5713 45.2344 33.5713 42C33.5713 38.9062 35.2588 35.9531 38.0713 34.2656C40.7432 32.7188 44.2588 32.7188 47.0713 34.2656C49.7432 35.9531 51.5713 38.9062 51.5713 42ZM71.8213 6C75.4775 6 78.5713 9.09375 78.5713 12.75V26.25C78.5713 27.5156 77.4463 28.5 76.3213 28.5C75.0557 28.5 74.0713 27.5156 74.0713 26.25V12.75C74.0713 11.625 72.9463 10.5 71.8213 10.5H58.3213C57.0557 10.5 56.0713 9.51562 56.0713 8.25C56.0713 7.125 57.0557 6 58.3213 6H71.8213ZM6.57129 71.25V57.75C6.57129 56.625 7.55566 55.5 8.82129 55.5C9.94629 55.5 11.0713 56.625 11.0713 57.75V71.25C11.0713 72.5156 12.0557 73.5 13.3213 73.5H26.8213C27.9463 73.5 29.0713 74.625 29.0713 75.75C29.0713 77.0156 27.9463 78 26.8213 78H13.3213C9.52441 78 6.57129 75.0469 6.57129 71.25ZM71.8213 78H58.3213C57.0557 78 56.0713 77.0156 56.0713 75.75C56.0713 74.625 57.0557 73.5 58.3213 73.5H71.8213C72.9463 73.5 74.0713 72.5156 74.0713 71.25V57.75C74.0713 56.625 75.0557 55.5 76.3213 55.5C77.4463 55.5 78.5713 56.625 78.5713 57.75V71.25C78.5713 75.0469 75.4775 78 71.8213 78Z" fill="#001B41"/>
</svg>
