<svg width="22" height="22" viewBox="0 0 22 22" fill="none" xmlns="http://www.w3.org/2000/svg">
<path d="M6.11106 2.44439V4.88883C6.11106 5.56411 5.56411 6.11106 4.88883 6.11106H2.44439C1.76911 6.11106 1.22217 5.56411 1.22217 4.88883V2.44439C1.22217 1.76911 1.76911 1.22217 2.44439 1.22217H4.88883C5.56411 1.22217 6.11106 1.76911 6.11106 2.44439ZM12.2222 1.22217H9.77772C9.10245 1.22217 8.5555 1.76911 8.5555 2.44439V4.88883C8.5555 5.56411 9.10245 6.11106 9.77772 6.11106H12.2222C12.8974 6.11106 13.4444 5.56411 13.4444 4.88883V2.44439C13.4444 1.76911 12.8974 1.22217 12.2222 1.22217ZM19.5555 1.22217H17.1111C16.4358 1.22217 15.8888 1.76911 15.8888 2.44439V4.88883C15.8888 5.56411 16.4358 6.11106 17.1111 6.11106H19.5555C20.2308 6.11106 20.7777 5.56411 20.7777 4.88883V2.44439C20.7777 1.76911 20.2308 1.22217 19.5555 1.22217ZM4.88883 8.5555H2.44439C1.76911 8.5555 1.22217 9.10245 1.22217 9.77772V12.2222C1.22217 12.8974 1.76911 13.4444 2.44439 13.4444H4.88883C5.56411 13.4444 6.11106 12.8974 6.11106 12.2222V9.77772C6.11106 9.10245 5.56411 8.5555 4.88883 8.5555ZM12.2222 8.5555H9.77772C9.10245 8.5555 8.5555 9.10245 8.5555 9.77772V12.2222C8.5555 12.8974 9.10245 13.4444 9.77772 13.4444H12.2222C12.8974 13.4444 13.4444 12.8974 13.4444 12.2222V9.77772C13.4444 9.10245 12.8974 8.5555 12.2222 8.5555ZM19.5555 8.5555H17.1111C16.4358 8.5555 15.8888 9.10245 15.8888 9.77772V12.2222C15.8888 12.8974 16.4358 13.4444 17.1111 13.4444H19.5555C20.2308 13.4444 20.7777 12.8974 20.7777 12.2222V9.77772C20.7777 9.10245 20.2308 8.5555 19.5555 8.5555ZM4.88883 15.8888H2.44439C1.76911 15.8888 1.22217 16.4358 1.22217 17.1111V19.5555C1.22217 20.2308 1.76911 20.7777 2.44439 20.7777H4.88883C5.56411 20.7777 6.11106 20.2308 6.11106 19.5555V17.1111C6.11106 16.4358 5.56411 15.8888 4.88883 15.8888ZM12.2222 15.8888H9.77772C9.10245 15.8888 8.5555 16.4358 8.5555 17.1111V19.5555C8.5555 20.2308 9.10245 20.7777 9.77772 20.7777H12.2222C12.8974 20.7777 13.4444 20.2308 13.4444 19.5555V17.1111C13.4444 16.4358 12.8974 15.8888 12.2222 15.8888ZM19.5555 15.8888H17.1111C16.4358 15.8888 15.8888 16.4358 15.8888 17.1111V19.5555C15.8888 20.2308 16.4358 20.7777 17.1111 20.7777H19.5555C20.2308 20.7777 20.7777 20.2308 20.7777 19.5555V17.1111C20.7777 16.4358 20.2308 15.8888 19.5555 15.8888Z" fill="#001B41"/>
</svg>
