<?xml version="1.0" encoding="UTF-8"?>
<svg xmlns="http://www.w3.org/2000/svg" xmlns:xlink="http://www.w3.org/1999/xlink" width="26px" height="26px" viewBox="0 0 26 26" version="1.1">
<g id="surface1">
<path style=" stroke:none;fill-rule:nonzero;fill:rgb(43.921569%,43.921569%,43.921569%);fill-opacity:1;" d="M 14.328125 1.71875 C 14.066406 1.199219 13.523438 0.863281 12.917969 0.863281 C 12.316406 0.863281 11.773438 1.199219 11.507812 1.71875 L 8.363281 7.988281 L 1.335938 8.992188 C 0.75 9.082031 0.253906 9.480469 0.078125 10.019531 C -0.105469 10.566406 0.0429688 11.167969 0.460938 11.570312 L 5.5625 16.457031 L 4.355469 23.363281 C 4.261719 23.929688 4.507812 24.511719 4.992188 24.84375 C 5.472656 25.183594 6.113281 25.226562 6.648438 24.953125 L 12.921875 21.710938 L 19.203125 24.953125 C 19.730469 25.226562 20.367188 25.1875 20.859375 24.84375 C 21.34375 24.503906 21.582031 23.929688 21.484375 23.363281 L 20.277344 16.457031 L 25.375 11.570312 C 25.800781 11.167969 25.949219 10.566406 25.765625 10.019531 C 25.578125 9.480469 25.097656 9.082031 24.507812 8.992188 L 17.476562 7.988281 Z M 14.328125 1.71875 "/>
</g>
</svg>
