<svg width="32" height="32" viewBox="0 0 84 84" fill="none" xmlns="http://www.w3.org/2000/svg"><path d="M45.9171 9.45428C45.1944 7.95444 43.6673 7 41.9902 7C40.3131 7 38.7996 7.95444 38.0634 9.45428L29.2961 27.4933L9.71639 30.3839C8.0802 30.6293 6.71671 31.7746 6.21222 33.3426C5.70773 34.9107 6.11678 36.6423 7.28938 37.8013L21.4969 51.8588L18.1428 71.7249C17.8701 73.3611 18.5518 75.0245 19.9017 75.9926C21.2515 76.9607 23.0377 77.0834 24.5103 76.3062L42.0038 66.9663L59.4974 76.3062C60.97 77.0834 62.7562 76.9743 64.106 75.9926C65.4559 75.0109 66.1376 73.3611 65.8649 71.7249L62.4971 51.8588L76.7047 37.8013C77.8773 36.6423 78.3 34.9107 77.7818 33.3426C77.2637 31.7746 75.9138 30.6293 74.2777 30.3839L54.6843 27.4933L45.9171 9.45428Z" fill="#707070" /></svg>