<svg width="22" height="21" viewBox="0 0 22 21" fill="none" xmlns="http://www.w3.org/2000/svg">
<path d="M11.9721 0.737647L14.6358 6.18804L20.496 7.04862C20.9877 7.13058 21.3975 7.45843 21.5615 7.95019C21.7254 8.40098 21.6024 8.93372 21.2336 9.26156L16.9717 13.4825L17.9962 19.4657C18.0781 19.9574 17.8732 20.4492 17.4634 20.7361C17.0536 21.0639 16.5209 21.0639 16.0701 20.859L10.8246 18.0314L5.53813 20.859C5.12833 21.0639 4.59559 21.0639 4.18578 20.7361C3.77598 20.4492 3.57108 19.9574 3.65304 19.4657L4.63657 13.4825L0.374607 9.26156C0.0467641 8.93372 -0.076177 8.40098 0.0467641 7.95019C0.210686 7.45843 0.620489 7.13058 1.11225 7.04862L7.01343 6.18804L9.63617 0.737647C9.84107 0.286863 10.2919 0 10.8246 0C11.3164 0 11.7672 0.286863 11.9721 0.737647Z" fill="#465A75"/>
</svg>
