<svg width="16" height="16" viewBox="0 0 16 16" fill="none" xmlns="http://www.w3.org/2000/svg">
<g clip-path="url(#clip0_7423_2789)">
<path d="M12.4444 9.7778C11.6435 9.7778 10.9258 10.1342 10.4364 10.6951L6.16221 8.55825C6.20087 8.37825 6.22176 8.19158 6.22176 8.00003C6.22176 7.80847 6.20043 7.62225 6.16221 7.4418L10.4364 5.30492C10.9258 5.8658 11.6435 6.22225 12.4444 6.22225C13.9151 6.22225 15.1111 5.02625 15.1111 3.55558C15.1111 2.08492 13.9151 0.888916 12.4444 0.888916C10.9738 0.888916 9.77776 2.08492 9.77776 3.55558C9.77776 3.74714 9.79909 3.93336 9.83732 4.1138L5.56309 6.25069C5.07376 5.6898 4.35598 5.33336 3.55509 5.33336C2.08443 5.33336 0.888428 6.52936 0.888428 8.00003C0.888428 9.47069 2.08443 10.6667 3.55509 10.6667C4.35598 10.6667 5.07376 10.3102 5.56309 9.74936L9.83732 11.8862C9.79865 12.0662 9.77776 12.2529 9.77776 12.4445C9.77776 13.9151 10.9738 15.1111 12.4444 15.1111C13.9151 15.1111 15.1111 13.9151 15.1111 12.4445C15.1111 10.9738 13.9151 9.7778 12.4444 9.7778Z" fill="#3196D6"/>
</g>
<defs>
<clipPath id="clip0_7423_2789">
<rect width="16" height="16" fill="white"/>
</clipPath>
</defs>
</svg>
