<?xml version="1.0" encoding="UTF-8"?>
<!-- Generated by Pixelmator Pro 3.6.16 -->
<svg width="24" height="24" viewBox="0 0 24 24" xmlns="http://www.w3.org/2000/svg">
    <clipPath id="clipPath1">
        <path d="M 4 4 L 20 4 L 20 20 L 4 20 Z"/>
    </clipPath>
    <g id="Group" clip-path="url(#clipPath1)">
        <path id="Path" fill="#1474c4" stroke="none" d="M 16.444401 13.7778 C 15.6435 13.7778 14.9258 14.1342 14.4364 14.6951 L 10.16221 12.55825 C 10.200871 12.37825 10.22176 12.19158 10.22176 12.00003 C 10.22176 11.80847 10.20043 11.62225 10.16221 11.4418 L 14.4364 9.30492 C 14.9258 9.8658 15.6435 10.22225 16.444401 10.22225 C 17.9151 10.22225 19.111101 9.02625 19.111101 7.55558 C 19.111101 6.084919 17.9151 4.888916 16.444401 4.888916 C 14.9738 4.888916 13.77776 6.084919 13.77776 7.55558 C 13.77776 7.747139 13.79909 7.933359 13.83732 8.1138 L 9.56309 10.25069 C 9.07376 9.6898 8.35598 9.333361 7.55509 9.333361 C 6.08443 9.333361 4.888428 10.52936 4.888428 12.00003 C 4.888428 13.47069 6.08443 14.6667 7.55509 14.6667 C 8.35598 14.6667 9.07376 14.3102 9.56309 13.74936 L 13.83732 15.8862 C 13.79865 16.0662 13.77776 16.252899 13.77776 16.4445 C 13.77776 17.9151 14.9738 19.111099 16.444401 19.111099 C 17.9151 19.111099 19.111101 17.9151 19.111101 16.4445 C 19.111101 14.9738 17.9151 13.7778 16.444401 13.7778 Z"/>
    </g>
</svg>
