<svg width="16" height="16" viewBox="0 0 16 16" fill="none" xmlns="http://www.w3.org/2000/svg">
<g clip-path="url(#clip0_8371_6946)">
<path d="M12.4445 9.77777C11.6436 9.77777 10.9258 10.1342 10.4365 10.6951L6.16224 8.55822C6.2009 8.37822 6.22179 8.19155 6.22179 8C6.22179 7.80844 6.20046 7.62222 6.16224 7.44177L10.4365 5.30489C10.9258 5.86577 11.6436 6.22222 12.4445 6.22222C13.9151 6.22222 15.1111 5.02622 15.1111 3.55555C15.1111 2.08489 13.9151 0.888885 12.4445 0.888885C10.9738 0.888885 9.77779 2.08489 9.77779 3.55555C9.77779 3.74711 9.79912 3.93333 9.83735 4.11377L5.56313 6.25066C5.07379 5.68977 4.35601 5.33333 3.55512 5.33333C2.08446 5.33333 0.888458 6.52933 0.888458 8C0.888458 9.47066 2.08446 10.6667 3.55512 10.6667C4.35601 10.6667 5.07379 10.3102 5.56313 9.74933L9.83735 11.8862C9.79868 12.0662 9.77779 12.2529 9.77779 12.4444C9.77779 13.9151 10.9738 15.1111 12.4445 15.1111C13.9151 15.1111 15.1111 13.9151 15.1111 12.4444C15.1111 10.9738 13.9151 9.77777 12.4445 9.77777Z" fill="#3196D6"/>
</g>
<defs>
<clipPath id="clip0_8371_6946">
<rect width="16" height="16" fill="white"/>
</clipPath>
</defs>
</svg>
