<?xml version="1.0" encoding="utf-8"?>
<svg version="1.1" width="24" height="24" viewBox="0 0 24 24" xmlns="http://www.w3.org/2000/svg">
  <path d="M 13.5 21 C 8.529 21 4.5 16.971 4.5 12 L 1.5 12 L 5.5 8 L 9.5 12 L 6.5 12 C 6.5 15.866 9.634 19 13.5 19 C 17.366 19 20.5 15.866 20.5 12 C 20.5 8.134 17.366 5 13.5 5 C 12 5 10.59 5.5 9.44 6.3 L 8 4.86 C 9.54 3.7 11.44 3 13.5 3 C 18.471 3 22.5 7.029 22.5 12 C 22.5 16.971 18.471 21 13.5 21 M 15.5 12 C 15.5 13.105 14.605 14 13.5 14 C 12.395 14 11.5 13.105 11.5 12 C 11.5 10.895 12.395 10 13.5 10 C 14.605 10 15.5 10.895 15.5 12 Z" transform="matrix(-1, 0, 0, -1, 24, 24)"/>
</svg>