<svg width="24" height="21" viewBox="0 0 24 21" fill="none" xmlns="http://www.w3.org/2000/svg">
<path d="M1.16129 0H3.48387C4.1129 0 4.64516 0.532258 4.64516 1.16129V3.48387C4.64516 4.16129 4.1129 4.64516 3.48387 4.64516H1.16129C0.483871 4.64516 0 4.16129 0 3.48387V1.16129C0 0.532258 0.483871 0 1.16129 0ZM8.12903 1.16129H22.8387C23.4677 1.16129 24 1.69355 24 2.32258C24 3 23.4677 3.48387 22.8387 3.48387H8.12903C7.45161 3.48387 6.96774 3 6.96774 2.32258C6.96774 1.69355 7.45161 1.16129 8.12903 1.16129ZM8.12903 8.90323H22.8387C23.4677 8.90323 24 9.43548 24 10.0645C24 10.7419 23.4677 11.2258 22.8387 11.2258H8.12903C7.45161 11.2258 6.96774 10.7419 6.96774 10.0645C6.96774 9.43548 7.45161 8.90323 8.12903 8.90323ZM8.12903 16.6452H22.8387C23.4677 16.6452 24 17.1774 24 17.8065C24 18.4839 23.4677 18.9677 22.8387 18.9677H8.12903C7.45161 18.9677 6.96774 18.4839 6.96774 17.8065C6.96774 17.1774 7.45161 16.6452 8.12903 16.6452ZM0 8.90323C0 8.27419 0.483871 7.74194 1.16129 7.74194H3.48387C4.1129 7.74194 4.64516 8.27419 4.64516 8.90323V11.2258C4.64516 11.9032 4.1129 12.3871 3.48387 12.3871H1.16129C0.483871 12.3871 0 11.9032 0 11.2258V8.90323ZM1.16129 15.4839H3.48387C4.1129 15.4839 4.64516 16.0161 4.64516 16.6452V18.9677C4.64516 19.6452 4.1129 20.129 3.48387 20.129H1.16129C0.483871 20.129 0 19.6452 0 18.9677V16.6452C0 16.0161 0.483871 15.4839 1.16129 15.4839Z" fill="black"/>
</svg>
