<svg fill="#000000" xmlns="http://www.w3.org/2000/svg"  viewBox="0 0 64 64" width="96px" height="96px"><path d="M 11 12 C 8.791 12 7 13.791 7 16 L 7 48 C 7 50.209 8.791 52 11 52 L 38.050781 52 C 38.024781 51.669 38 51.338 38 51 C 38 49.966 38.134281 48.965 38.363281 48 C 39.570281 42.918 43.761469 38.992828 48.980469 38.173828 L 44.224609 33.800781 C 42.307609 32.038781 39.361219 32.042594 37.449219 33.808594 L 29.085938 41.53125 L 24.505859 37.613281 C 22.628859 36.009281 19.863187 36.014953 17.992188 37.626953 L 11 43.650391 L 11 17 C 11 16.448 11.448 16 12 16 L 52 16 C 52.552 16 53 16.448 53 17 L 53 38.169922 C 54.422 38.390922 55.769 38.834516 57 39.478516 L 57 16 C 57 13.791 55.209 12 53 12 L 11 12 z M 23 20 C 20.791 20 19 21.791 19 24 C 19 26.209 20.791 28 23 28 C 25.209 28 27 26.209 27 24 C 27 21.791 25.209 20 23 20 z M 51 41 C 45.477 41 41 45.477 41 51 C 41 56.523 45.477 61 51 61 C 56.523 61 61 56.523 61 51 C 61 45.477 56.523 41 51 41 z M 51 45 C 51.553 45 52 45.448 52 46 L 52 50 L 56 50 C 56.553 50 57 50.448 57 51 C 57 51.552 56.553 52 56 52 L 52 52 L 52 56 C 52 56.552 51.553 57 51 57 C 50.447 57 50 56.552 50 56 L 50 52 L 46 52 C 45.447 52 45 51.552 45 51 C 45 50.448 45.447 50 46 50 L 50 50 L 50 46 C 50 45.448 50.447 45 51 45 z"/></svg>