<?xml version="1.0" encoding="utf-8"?>
<svg fill="#000000" viewBox="0 0 64 64" width="96px" height="96px" xmlns="http://www.w3.org/2000/svg">
  <path d="M 6.444 4.778 C 3.989 4.778 2 6.767 2 9.222 L 2 44.779 C 2 47.234 3.989 49.223 6.444 49.223 L 36.501 49.223 C 36.473 48.856 36.444 48.485 36.444 48.111 C 36.444 46.962 36.595 45.852 36.848 44.779 C 38.188 39.133 42.846 34.771 48.644 33.861 L 43.36 29.002 C 41.231 27.043 37.957 27.047 35.833 29.01 L 26.54 37.591 L 21.451 33.237 C 19.364 31.456 16.292 31.462 14.215 33.254 L 6.444 39.945 L 6.444 10.335 C 6.444 9.719 6.941 9.222 7.557 9.222 L 51.999 9.222 C 52.615 9.222 53.112 9.719 53.112 10.335 L 53.112 33.857 C 54.691 34.102 56.187 34.594 57.556 35.31 L 57.556 9.222 C 57.556 6.767 55.566 4.778 53.112 4.778 L 6.444 4.778 Z M 19.777 13.666 C 17.322 13.666 15.333 15.656 15.333 18.111 C 15.333 20.565 17.322 22.555 19.777 22.555 C 22.232 22.555 24.221 20.565 24.221 18.111 C 24.221 15.656 22.232 13.666 19.777 13.666 Z M 50.889 37 C 44.754 37 39.779 41.975 39.779 48.111 C 39.779 54.25 44.754 59.221 50.889 59.221 C 57.025 59.221 62 54.25 62 48.111 C 62 41.975 57.025 37 50.889 37 Z M 50.889 41.444 C 51.503 41.444 51.999 41.941 51.999 42.557 L 51.999 47.001 L 56.443 47.001 C 57.06 47.001 57.556 47.498 57.556 48.111 C 57.556 48.723 57.06 49.223 56.443 49.223 L 51.999 49.223 L 51.999 53.667 C 51.999 54.28 51.503 54.777 50.889 54.777 C 50.276 54.777 49.777 54.28 49.777 53.667 L 49.777 49.223 L 45.333 49.223 C 44.719 49.223 44.223 48.723 44.223 48.111 C 44.223 47.498 44.719 47.001 45.333 47.001 L 49.777 47.001 L 49.777 42.557 C 49.777 41.941 50.276 41.444 50.889 41.444 Z"/>
</svg>