<?xml version="1.0" encoding="iso-8859-1"?>
<!-- Generator: Adobe Illustrator 19.0.0, SVG Export Plug-In . SVG Version: 6.00 Build 0)  -->
<svg version="1.1" id="Capa_1" xmlns="http://www.w3.org/2000/svg" xmlns:xlink="http://www.w3.org/1999/xlink" x="0px" y="0px"
	 viewBox="0 0 52 52" style="enable-background:new 0 0 52 52;" xml:space="preserve">
<g>
	<path d="M52,26C52,11.727,40.438,0.108,26.189,0.005C26.173,0.005,26.157,0,26.141,0h-0.281c-0.017,0-0.032,0.005-0.049,0.005
		C11.561,0.108,0,11.727,0,26c0,4.635,1.225,8.987,3.36,12.76c0.02,0.038,0.031,0.079,0.053,0.117l0.141,0.245
		c0.021,0.037,0.05,0.066,0.073,0.102C8.16,46.864,16.49,52,26,52c9.51,0,17.84-5.135,22.373-12.776
		c0.023-0.037,0.053-0.066,0.075-0.104l0.139-0.242c0.021-0.037,0.032-0.077,0.052-0.114C50.774,34.99,52,30.637,52,26z M50,26
		c0,3.095-0.595,6.051-1.667,8.77c-0.333-0.435-0.755-0.804-1.264-1.066h0l-16.131-8.317c-0.17-1.372-0.887-2.566-1.938-3.361
		l0.863-18.123c0.027-0.576-0.084-1.128-0.298-1.636C41.114,3.994,50,13.978,50,26z M46.644,38.22
		c-0.244,0.366-0.597,0.626-1.016,0.727c-0.457,0.111-0.933,0.028-1.341-0.234l-14.481-9.307l1.046-1.813l15.299,7.888c0,0,0,0,0,0
		c0.434,0.224,0.746,0.595,0.878,1.043c0.12,0.41,0.071,0.845-0.126,1.243C46.819,37.919,46.733,38.071,46.644,38.22z M7.712,38.712
		c-0.411,0.265-0.889,0.35-1.342,0.238c-0.417-0.1-0.771-0.363-1.016-0.732c-0.089-0.15-0.175-0.301-0.261-0.453
		c-0.193-0.394-0.242-0.829-0.121-1.24c0.132-0.451,0.443-0.821,0.875-1.044l15.299-7.888l1.046,1.813L7.712,38.712z M23,26
		c0-1.654,1.346-3,3-3s3,1.346,3,3s-1.346,3-3,3S23,27.654,23,26z M24.954,21L24.135,3.807c-0.023-0.488,0.142-0.943,0.465-1.282
		c0.311-0.326,0.74-0.507,1.209-0.52C25.873,2.004,25.936,2,26,2c0.064,0,0.127,0.004,0.19,0.005
		c0.467,0.013,0.895,0.194,1.208,0.523c0.324,0.34,0.49,0.794,0.467,1.279L27.046,21H24.954z M22.432,2.266
		c-0.213,0.508-0.323,1.059-0.295,1.635c0,0.001,0,0.001,0,0.001L23,22.026c-1.051,0.796-1.768,1.99-1.938,3.361L4.931,33.704
		c-0.51,0.263-0.931,0.632-1.263,1.069C2.596,32.053,2,29.096,2,26C2,13.979,10.885,3.995,22.432,2.266z M26,50
		c-7.578,0-14.342-3.534-18.744-9.036c0.537-0.072,1.06-0.262,1.537-0.568v-0.001l15.246-9.797C24.642,30.855,25.304,31,26,31
		s1.358-0.145,1.961-0.403l15.246,9.797c0.477,0.307,1,0.495,1.539,0.567C40.344,46.465,33.579,50,26,50z"/>
</g>
<g>
</g>
<g>
</g>
<g>
</g>
<g>
</g>
<g>
</g>
<g>
</g>
<g>
</g>
<g>
</g>
<g>
</g>
<g>
</g>
<g>
</g>
<g>
</g>
<g>
</g>
<g>
</g>
<g>
</g>
</svg>
