<svg width="24" height="24" viewBox="0 0 24 24" fill="none" xmlns="http://www.w3.org/2000/svg">
<path d="M8.66683 17.6668V10.3335C8.66683 9.7815 9.11483 9.3335 9.66683 9.3335C10.2188 9.3335 10.6668 9.7815 10.6668 10.3335V17.6668C10.6668 18.2188 10.2188 18.6668 9.66683 18.6668C9.11483 18.6668 8.66683 18.2188 8.66683 17.6668ZM14.3335 18.6668C14.8855 18.6668 15.3335 18.2188 15.3335 17.6668V10.3335C15.3335 9.7815 14.8855 9.3335 14.3335 9.3335C13.7815 9.3335 13.3335 9.7815 13.3335 10.3335V17.6668C13.3335 18.2188 13.7815 18.6668 14.3335 18.6668ZM22.6668 6.3335C22.6668 6.8855 22.2188 7.3335 21.6668 7.3335H20.3288C20.3288 7.35683 20.3328 7.3795 20.3308 7.40283L19.4935 19.4075C19.4148 20.5348 18.7228 22.6668 16.6668 22.6668H7.3335C5.2775 22.6668 4.5855 20.5348 4.50683 19.4075L3.6695 7.40283C3.6675 7.3795 3.6715 7.35683 3.6715 7.3335H2.3335C1.7815 7.3335 1.3335 6.8855 1.3335 6.3335C1.3335 5.7815 1.7815 5.3335 2.3335 5.3335H7.04883C7.28283 4.2375 8.0855 1.3335 10.0002 1.3335H14.0002C15.9155 1.3335 16.7175 4.2375 16.9515 5.3335H21.6668C22.2188 5.3335 22.6668 5.7815 22.6668 6.3335ZM9.1095 5.3335H14.8908C14.6348 4.3995 14.2268 3.5035 13.9548 3.3335H10.0462C9.77416 3.5035 9.3655 4.3995 9.11016 5.3335H9.1095ZM18.3315 7.3335H5.66883L6.5015 19.2688C6.5015 19.2775 6.64483 20.6668 7.3335 20.6668H16.6668C17.3555 20.6668 17.4982 19.2775 17.4988 19.2635L18.3315 7.3335Z" fill="black"/>
</svg>
