<svg width="21" height="24" viewBox="0 0 21 24" fill="none" xmlns="http://www.w3.org/2000/svg">
<path d="M7.96875 2.4375L7.07812 3.75H13.875L12.9844 2.4375C12.9375 2.34375 12.7969 2.25 12.6562 2.25H8.29688C8.15625 2.25 8.01562 2.34375 7.96875 2.4375ZM14.8594 1.17188L16.5938 3.75H19.875C20.4844 3.75 21 4.26562 21 4.875C21 5.53125 20.4844 6 19.875 6H19.5V20.25C19.5 22.3594 17.8125 24 15.75 24H5.25C3.14062 24 1.5 22.3594 1.5 20.25V6H1.125C0.46875 6 0 5.53125 0 4.875C0 4.26562 0.46875 3.75 1.125 3.75H4.35938L6.09375 1.17188C6.5625 0.46875 7.40625 0 8.29688 0H12.6562C13.5469 0 14.3906 0.46875 14.8594 1.17188ZM3.75 6V20.25C3.75 21.0938 4.40625 21.75 5.25 21.75H15.75C16.5469 21.75 17.25 21.0938 17.25 20.25V6H3.75ZM7.5 9V18.75C7.5 19.1719 7.125 19.5 6.75 19.5C6.32812 19.5 6 19.1719 6 18.75V9C6 8.625 6.32812 8.25 6.75 8.25C7.125 8.25 7.5 8.625 7.5 9ZM11.25 9V18.75C11.25 19.1719 10.875 19.5 10.5 19.5C10.0781 19.5 9.75 19.1719 9.75 18.75V9C9.75 8.625 10.0781 8.25 10.5 8.25C10.875 8.25 11.25 8.625 11.25 9ZM15 9V18.75C15 19.1719 14.625 19.5 14.25 19.5C13.8281 19.5 13.5 19.1719 13.5 18.75V9C13.5 8.625 13.8281 8.25 14.25 8.25C14.625 8.25 15 8.625 15 9Z" fill="#465A75"/>
</svg>
