<svg width="16" height="16" viewBox="0 0 16 16" fill="none" xmlns="http://www.w3.org/2000/svg">
<g clip-path="url(#clip0_7602_2694)">
<path d="M4.13934 5.42905C3.96067 5.26105 3.95223 4.97972 4.12023 4.8006L7.67578 1.02283C7.84423 0.844605 8.15489 0.844605 8.32334 1.02283L11.8789 4.8006C12.0469 4.97927 12.0384 5.2606 11.8598 5.42905C11.774 5.50994 11.6647 5.54994 11.5549 5.54994C11.4367 5.54994 11.3189 5.50327 11.2309 5.41038L8.44378 2.4486V11.5499C8.44378 11.7953 8.24512 11.9944 7.99934 11.9944C7.75356 11.9944 7.55489 11.7953 7.55489 11.5499V2.44816L4.76778 5.40994C4.59889 5.5886 4.31756 5.59705 4.13934 5.4286V5.42905ZM14.6664 10.2166C14.4207 10.2166 14.222 10.4157 14.222 10.661V12.8833C14.222 13.6184 13.6238 14.2166 12.8887 14.2166H3.11089C2.37578 14.2166 1.77756 13.6184 1.77756 12.8833V10.661C1.77756 10.4157 1.57889 10.2166 1.33312 10.2166C1.08734 10.2166 0.888672 10.4157 0.888672 10.661V12.8833C0.888672 14.1086 1.88556 15.1055 3.11089 15.1055H12.8887C14.114 15.1055 15.1109 14.1086 15.1109 12.8833V10.661C15.1109 10.4157 14.9122 10.2166 14.6664 10.2166Z" fill="#001B41"/>
</g>
<defs>
<clipPath id="clip0_7602_2694">
<rect width="16" height="16" fill="white"/>
</clipPath>
</defs>
</svg>
