<svg width="96" height="96" viewBox="0 0 96 96" fill="none" xmlns="http://www.w3.org/2000/svg">
<path d="M49.5898 11.9727L64.6211 27.0039C65.4883 27.8711 65.4883 29.4609 64.6211 30.3281C63.7539 31.1953 62.1641 31.1953 61.2969 30.3281L50.3125 19.1992V57.5C50.3125 58.8008 49.1562 59.8125 48 59.8125C46.6992 59.8125 45.6875 58.8008 45.6875 57.5V19.1992L34.5586 30.3281C33.6914 31.1953 32.1016 31.1953 31.2344 30.3281C30.3672 29.4609 30.3672 27.8711 31.2344 27.0039L46.2656 11.9727C47.1328 11.1055 48.7227 11.1055 49.5898 11.9727ZM20.25 15.875H24.875C26.0312 15.875 27.1875 17.0312 27.1875 18.1875C27.1875 19.4883 26.0312 20.5 24.875 20.5H20.25C17.6484 20.5 15.625 22.668 15.625 25.125V76C15.625 78.6016 17.6484 80.625 20.25 80.625H75.75C78.207 80.625 80.375 78.6016 80.375 76V25.125C80.375 22.668 78.207 20.5 75.75 20.5H71.125C69.8242 20.5 68.8125 19.4883 68.8125 18.1875C68.8125 17.0312 69.8242 15.875 71.125 15.875H75.75C80.8086 15.875 85 20.0664 85 25.125V76C85 81.2031 80.8086 85.25 75.75 85.25H20.25C15.0469 85.25 11 81.2031 11 76V25.125C11 20.0664 15.0469 15.875 20.25 15.875Z" fill="#001B41"/>
</svg>
