<svg width="96" height="96" viewBox="0 0 96 96" fill="none" xmlns="http://www.w3.org/2000/svg">
<path d="M75.5 81V37H56.25C51.6094 37 48 33.3906 48 28.75V9.5H26C22.9062 9.5 20.5 12.0781 20.5 15V81C20.5 84.0938 22.9062 86.5 26 86.5H70C72.9219 86.5 75.5 84.0938 75.5 81ZM75.3281 31.5C75.1562 31.1562 74.9844 30.6406 74.6406 30.2969L54.7031 10.3594C54.3594 10.0156 53.8438 9.84375 53.5 9.67188V28.75C53.5 30.2969 54.7031 31.5 56.25 31.5H75.3281ZM15 15C15 8.98438 19.8125 4 26 4H52.8125C54.875 4 57.1094 5.03125 58.6562 6.57812L78.4219 26.3438C79.9688 27.8906 81 30.125 81 32.1875V81C81 87.1875 76.0156 92 70 92H26C19.8125 92 15 87.1875 15 81V15Z" fill="#001B41"/>
<g clip-path="url(#clip0_3463_12116)">
<path d="M50 46.25V57.5H61.25C62.5781 57.5 63.75 58.6719 63.75 60C63.75 61.4062 62.5781 62.5 61.25 62.5H50V73.75C50 75.1562 48.8281 76.25 47.5 76.25C46.0938 76.25 45 75.1562 45 73.75V62.5H33.75C32.3438 62.5 31.25 61.4062 31.25 60C31.25 58.6719 32.3438 57.5 33.75 57.5H45V46.25C45 44.9219 46.0938 43.75 47.5 43.75C48.8281 43.75 50 44.9219 50 46.25Z" fill="#001B41"/>
</g>
<defs>
<clipPath id="clip0_3463_12116">
<rect width="38" height="38" fill="white" transform="translate(29 40)"/>
</clipPath>
</defs>
</svg>
