<svg width="48" height="48" viewBox="0 0 48 48" fill="none" xmlns="http://www.w3.org/2000/svg">
<path d="M32 22C30.375 22 28.875 21.375 27.8125 20.375L21.9375 23.3125C21.9375 23.5 22 23.75 22 24C22 24.3125 21.9375 24.5 21.9375 24.75L27.8125 27.6875C28.875 26.6875 30.375 26 32 26C35.3125 26 38 28.6875 38 32C38 35.3125 35.3125 38 32 38C28.6875 38 26 35.3125 26 32C26 31.75 26 31.5 26 31.3125L20.125 28.375C19.0625 29.375 17.5625 30 16 30C12.6875 30 10 27.3125 10 24C10 20.6875 12.6875 18 16 18C17.5625 18 19.0625 18.6875 20.125 19.6875L26 16.75C26 16.5 26 16.25 26 16C26 12.6875 28.6875 10 32 10C35.3125 10 38 12.6875 38 16C38 19.3125 35.3125 22 32 22Z" fill="#1474C4"/>
</svg>
