<svg width="49" height="59" viewBox="0 0 49 59" fill="none" xmlns="http://www.w3.org/2000/svg">
<path d="M19.8115 29.291C19.8115 30.3564 19.5959 31.3639 19.2804 32.3199L31.3701 42.8967C32.2606 41.6745 33.4269 40.6795 34.7742 39.9927C36.1215 39.3059 37.6118 38.9467 39.124 38.944C41.0338 38.944 42.9008 39.5104 44.4888 40.5714C46.0767 41.6325 47.3144 43.1406 48.0452 44.905C48.7761 46.6695 48.9673 48.611 48.5947 50.4841C48.2221 52.3573 47.3025 54.0779 45.952 55.4283C44.6016 56.7788 42.881 57.6984 41.0079 58.071C39.1347 58.4436 37.1932 58.2524 35.4287 57.5215C33.6643 56.7907 32.1562 55.553 31.0951 53.965C30.0341 52.3771 29.4678 50.5101 29.4678 48.6003C29.4678 47.6508 29.648 46.7527 29.9023 45.8869L17.7193 35.2296C16.8243 36.3838 15.6778 37.3185 14.367 37.9628C13.0563 38.607 11.6158 38.9437 10.1553 38.9473C7.59428 38.9473 5.13817 37.9299 3.32727 36.119C1.51638 34.3081 0.499023 31.852 0.499023 29.291C0.499023 26.73 1.51638 24.2739 3.32727 22.463C5.13817 20.6521 7.59428 19.6348 10.1553 19.6348C13.2388 19.6348 15.949 21.1057 17.7193 23.3524L29.9023 12.6919C29.6277 11.8131 29.4814 10.8992 29.4678 9.97852C29.4678 8.0687 30.0341 6.20176 31.0951 4.6138C32.1562 3.02583 33.6643 1.78817 35.4287 1.05731C37.1932 0.32645 39.1347 0.135224 41.0079 0.507812C42.881 0.880401 44.6016 1.80007 45.952 3.15052C47.3025 4.50097 48.2221 6.22155 48.5947 8.09468C48.9673 9.96781 48.7761 11.9094 48.0452 13.6738C47.3144 15.4383 46.0767 16.9464 44.4888 18.0074C42.9008 19.0684 41.0338 19.6348 39.124 19.6348C37.6118 19.6322 36.1215 19.2729 34.7742 18.5861C33.4269 17.8993 32.2606 16.9044 31.3701 15.6821L19.2804 26.259C19.5959 27.2181 19.8115 28.2256 19.8115 29.291Z" fill="#1474C4"/>
</svg>
