<svg width="20" height="20" viewBox="0 0 20 20" fill="none" xmlns="http://www.w3.org/2000/svg">
<path d="M18.4178 8.63223C17.9939 8.08945 17.3556 7.77778 16.6667 7.77778V6.66667C16.6667 5.44112 15.67 4.44445 14.4444 4.44445H10.5083L8.77333 2.70945C8.46333 2.39945 8.03444 2.22223 7.59667 2.22223H3.33389C2.10778 2.22223 1.11111 3.2189 1.11111 4.44445V15.5556C1.11111 16.7811 2.10778 17.7778 3.33333 17.7778H15.2772C16.2983 17.7778 17.185 17.0856 17.4328 16.095L18.8217 10.5389C18.9889 9.87056 18.8417 9.17556 18.4172 8.63278L18.4178 8.63223ZM3.33333 3.33334H7.59611C7.74167 3.33334 7.88444 3.39223 7.98722 3.49556L9.72222 5.23056C9.92889 5.43723 10.215 5.55556 10.5072 5.55556H14.4439C15.0567 5.55556 15.555 6.0539 15.555 6.66667V7.77778H5.27833C4.25722 7.77778 3.37056 8.47001 3.12278 9.46056L2.22222 13.0628V4.44445C2.22222 3.83167 2.72056 3.33334 3.33333 3.33334ZM17.7439 10.2689L16.355 15.825C16.2311 16.3206 15.7878 16.6667 15.2778 16.6667H3.88944C3.545 16.6667 3.22556 16.5111 3.01389 16.2395C2.80222 15.9683 2.72833 15.6206 2.81167 15.2867L4.20056 9.73056C4.32444 9.23501 4.76778 8.8889 5.27778 8.8889H16.6656C17.01 8.8889 17.3294 9.04445 17.5411 9.31612C17.7528 9.58723 17.8272 9.93501 17.7439 10.2689Z" fill="#001B41"/>
</svg>
