<svg width="16" height="16" viewBox="0 0 16 16" fill="none" xmlns="http://www.w3.org/2000/svg">
<g clip-path="url(#clip0_7044_2422)">
<path d="M14.8261 3.53154L12.4697 1.1751C12.0884 0.793766 11.4675 0.793766 11.0861 1.1751L2.79681 9.46399C2.75015 9.51065 2.71859 9.56488 2.69681 9.62265C2.69637 9.62443 2.6937 9.62443 2.69326 9.62621L0.915479 14.5151C0.856368 14.6773 0.896813 14.8591 1.01904 14.9813C1.10392 15.0662 1.21726 15.1115 1.33326 15.1115C1.38437 15.1115 1.43548 15.1027 1.48526 15.0849L6.37415 13.3071C6.37415 13.3071 6.37592 13.304 6.3777 13.3035C6.43548 13.2818 6.49015 13.2502 6.53637 13.2035L14.8261 4.91421C15.011 4.72932 15.1128 4.48399 15.1128 4.22265C15.1128 3.96132 15.011 3.71643 14.8261 3.53154ZM3.29015 10.5862L5.41415 12.7102L2.07592 13.924L3.2897 10.5858L3.29015 10.5862ZM6.22215 12.2609L3.73948 9.77821L10.2266 3.2911L12.7093 5.77377L6.22215 12.2609ZM14.1977 4.28577L13.3381 5.14532L10.8555 2.66265L11.7146 1.80354C11.7497 1.76888 11.8061 1.76888 11.8413 1.80354L14.1977 4.15999C14.227 4.18977 14.227 4.25599 14.1977 4.28577Z" fill="#001B41"/>
</g>
<defs>
<clipPath id="clip0_7044_2422">
<rect width="16" height="16" fill="white"/>
</clipPath>
</defs>
</svg>
