<svg width="96" height="96" viewBox="0 0 96 96" fill="none" xmlns="http://www.w3.org/2000/svg">
<g clip-path="url(#clip0_5_103)">
<path fill-rule="evenodd" clip-rule="evenodd" d="M40 16H16C11.6 16 8.04 19.6 8.04 24L8 72C8 76.4 11.6 80 16 80H80C84.4 80 88 76.4 88 72V32C88 27.6 84.4 24 80 24H48L40 16ZM47.9167 57.65C51.0831 57.65 53.65 55.0831 53.65 51.9167C53.65 48.7503 51.0831 46.1833 47.9167 46.1833C44.7503 46.1833 42.1833 48.7503 42.1833 51.9167C42.1833 55.0831 44.7503 57.65 47.9167 57.65ZM39.2629 37.5833L42.5417 34H53.2917L56.5704 37.5833H62.25C64.2208 37.5833 65.8333 39.1958 65.8333 41.1667V62.6667C65.8333 64.6375 64.2208 66.25 62.25 66.25H33.5833C31.6125 66.25 30 64.6375 30 62.6667V41.1667C30 39.1958 31.6125 37.5833 33.5833 37.5833H39.2629ZM38.9583 51.9167C38.9583 56.8617 42.9717 60.875 47.9167 60.875C52.8617 60.875 56.875 56.8617 56.875 51.9167C56.875 46.9717 52.8617 42.9583 47.9167 42.9583C42.9717 42.9583 38.9583 46.9717 38.9583 51.9167Z" fill="#00679E"/>
</g>
<defs>
<clipPath id="clip0_5_103">
<rect width="96" height="96" fill="white"/>
</clipPath>
</defs>
</svg>
