<?xml version="1.0" encoding="UTF-8" standalone="no"?>
<svg
   width="32"
   height="28"
   viewBox="0 0 32 28"
   fill="none"
   version="1.1"
   id="svg2"
   sodipodi:docname="folder_auto_upload_icon_light_mode.svg"
   inkscape:version="1.3.2 (091e20e, 2023-11-25)"
   xmlns:inkscape="http://www.inkscape.org/namespaces/inkscape"
   xmlns:sodipodi="http://sodipodi.sourceforge.net/DTD/sodipodi-0.dtd"
   xmlns="http://www.w3.org/2000/svg"
   xmlns:svg="http://www.w3.org/2000/svg">
  <defs
     id="defs2" />
  <sodipodi:namedview
     id="namedview2"
     pagecolor="#ffffff"
     bordercolor="#000000"
     borderopacity="0.25"
     inkscape:showpageshadow="2"
     inkscape:pageopacity="0.0"
     inkscape:pagecheckerboard="0"
     inkscape:deskcolor="#d1d1d1"
     inkscape:zoom="4.9166667"
     inkscape:cx="23.898305"
     inkscape:cy="24"
     inkscape:window-width="1680"
     inkscape:window-height="1051"
     inkscape:window-x="106"
     inkscape:window-y="1118"
     inkscape:window-maximized="1"
     inkscape:current-layer="svg2" />
  <path
     d="M 4,28 C 1.75,28 0,26.25 0,24 V 4 C 0,1.8125 1.75,0 4,0 h 8 c 1.25,0 2.4375,0.625 3.1875,1.625 L 16.375,3.25 C 16.75,3.75 17.3125,4 18,4 h 10 c 2.1875,0 4,1.8125 4,4 v 16 c 0,2.25 -1.8125,4 -4,4 z"
     fill="#1474c4"
     id="path1" />
  <path
     d="m 16.6016,9.0234 3.5,3.5 c 0.3554,0.3282 0.3554,0.9024 0,1.2305 -0.3282,0.3555 -0.9024,0.3555 -1.2305,0 L 16.875,11.7578 V 17.5 c 0,0.4922 -0.4102,0.875 -0.875,0.875 -0.4922,0 -0.875,-0.3828 -0.875,-0.875 v -5.7422 l -2.0234,1.9961 c -0.3282,0.3555 -0.9024,0.3555 -1.2305,0 -0.3555,-0.3281 -0.3555,-0.9023 0,-1.2305 l 3.5,-3.5 c 0.3281,-0.3554 0.9023,-0.3554 1.2305,0 z M 11.625,18.375 v 1.75 c 0,0.4922 0.3828,0.875 0.875,0.875 h 7 c 0.4648,0 0.875,-0.3828 0.875,-0.875 v -1.75 c 0,-0.4648 0.3828,-0.875 0.875,-0.875 0.4648,0 0.875,0.4102 0.875,0.875 v 1.75 c 0,1.4492 -1.1758,2.625 -2.625,2.625 h -7 c -1.4492,0 -2.625,-1.1758 -2.625,-2.625 v -1.75 c 0,-0.4648 0.3828,-0.875 0.875,-0.875 0.4648,0 0.875,0.4102 0.875,0.875 z"
     fill="#f4f7fa"
     id="path2" />
</svg>
