<?xml version="1.0" encoding="UTF-8" standalone="no"?>
<svg
   width="32"
   height="32"
   viewBox="0 0 32 32"
   fill="none"
   version="1.1"
   id="svg2"
   sodipodi:docname="Folder_camera_icon.svg"
   inkscape:version="1.3.2 (091e20e, 2023-11-25)"
   xmlns:inkscape="http://www.inkscape.org/namespaces/inkscape"
   xmlns:sodipodi="http://sodipodi.sourceforge.net/DTD/sodipodi-0.dtd"
   xmlns="http://www.w3.org/2000/svg"
   xmlns:svg="http://www.w3.org/2000/svg">
  <defs
     id="defs2" />
  <sodipodi:namedview
     id="namedview2"
     pagecolor="#ffffff"
     bordercolor="#000000"
     borderopacity="0.25"
     inkscape:showpageshadow="2"
     inkscape:pageopacity="0.0"
     inkscape:pagecheckerboard="0"
     inkscape:deskcolor="#d1d1d1"
     inkscape:zoom="7.375"
     inkscape:cx="15.932203"
     inkscape:cy="16"
     inkscape:window-width="1680"
     inkscape:window-height="1051"
     inkscape:window-x="50"
     inkscape:window-y="38"
     inkscape:window-maximized="1"
     inkscape:current-layer="svg2" />
  <path
     id="path1"
     inkscape:label="path1"
     d="M 7 5.5 C 5.3125017 5.5 4 6.8593816 4 8.5 L 4 23.5 C 4 25.187498 5.3125017 26.5 7 26.5 L 25 26.5 C 26.640598 26.5 28 25.187498 28 23.5 L 28 11.5 C 28 9.8593816 26.640598 8.5 25 8.5 L 17.5 8.5 C 16.984401 8.5 16.56255 8.3124996 16.28125 7.9375 L 15.390625 6.71875 C 14.828126 5.9687507 13.937499 5.5 13 5.5 L 7 5.5 z M 14.789062 12.875 L 17.191406 12.875 C 17.601606 12.875 17.953113 13.148432 18.070312 13.519531 L 18.285156 14.125 L 19.75 14.125 C 20.433599 14.125 21 14.691401 21 15.375 L 21 20.375 C 21 21.078099 20.433599 21.625 19.75 21.625 L 12.25 21.625 C 11.546901 21.625 11 21.078099 11 20.375 L 11 15.375 C 11 14.691401 11.546901 14.125 12.25 14.125 L 13.695312 14.125 L 13.910156 13.519531 C 14.027256 13.148432 14.378863 12.875 14.789062 12.875 z M 16 16 C 15.316401 16 14.710875 16.371101 14.359375 16.9375 C 14.027275 17.523399 14.027275 18.246101 14.359375 18.8125 C 14.710875 19.398399 15.316401 19.75 16 19.75 C 16.664099 19.75 17.269494 19.398399 17.621094 18.8125 C 17.953093 18.246101 17.953093 17.523399 17.621094 16.9375 C 17.269494 16.371101 16.664099 16 16 16 z "
     style="fill:#1474c4;fill-opacity:1" />
</svg>
