<?xml version="1.0" encoding="UTF-8" standalone="no"?>
<svg
   width="38"
   height="36"
   viewBox="0 0 38 36"
   fill="none"
   version="1.1"
   id="svg2"
   sodipodi:docname="folder_auto_upload_icon_dark_mode.svg"
   inkscape:version="1.3.2 (091e20e, 2023-11-25)"
   xmlns:inkscape="http://www.inkscape.org/namespaces/inkscape"
   xmlns:sodipodi="http://sodipodi.sourceforge.net/DTD/sodipodi-0.dtd"
   xmlns="http://www.w3.org/2000/svg"
   xmlns:svg="http://www.w3.org/2000/svg">
  <defs
     id="defs2" />
  <sodipodi:namedview
     id="namedview2"
     pagecolor="#ffffff"
     bordercolor="#000000"
     borderopacity="0.25"
     inkscape:showpageshadow="2"
     inkscape:pageopacity="0.0"
     inkscape:pagecheckerboard="0"
     inkscape:deskcolor="#d1d1d1"
     inkscape:zoom="4.9166667"
     inkscape:cx="23.898305"
     inkscape:cy="24"
     inkscape:window-width="1312"
     inkscape:window-height="449"
     inkscape:window-x="0"
     inkscape:window-y="25"
     inkscape:window-maximized="0"
     inkscape:current-layer="svg2" />
  <path
     d="M 7,32 C 4.75,32 3,30.25 3,28 V 8 C 3,5.8125 4.75,4 7,4 h 8 c 1.25,0 2.4375,0.625 3.1875,1.625 L 19.375,7.25 C 19.75,7.75 20.3125,8 21,8 h 10 c 2.1875,0 4,1.8125 4,4 v 16 c 0,2.25 -1.8125,4 -4,4 z"
     fill="#3196d6"
     id="path1" />
  <path
     d="m 19.6016,13.0234 3.5,3.5 c 0.3554,0.3282 0.3554,0.9024 0,1.2305 -0.3282,0.3555 -0.9024,0.3555 -1.2305,0 L 19.875,15.7578 V 21.5 c 0,0.4922 -0.4102,0.875 -0.875,0.875 -0.4922,0 -0.875,-0.3828 -0.875,-0.875 v -5.7422 l -2.0234,1.9961 c -0.3282,0.3555 -0.9024,0.3555 -1.2305,0 -0.3555,-0.3281 -0.3555,-0.9023 0,-1.2305 l 3.5,-3.5 c 0.3281,-0.3554 0.9023,-0.3554 1.2305,0 z M 14.625,22.375 v 1.75 c 0,0.4922 0.3828,0.875 0.875,0.875 h 7 c 0.4648,0 0.875,-0.3828 0.875,-0.875 v -1.75 c 0,-0.4648 0.3828,-0.875 0.875,-0.875 0.4648,0 0.875,0.4102 0.875,0.875 v 1.75 c 0,1.4492 -1.1758,2.625 -2.625,2.625 h -7 c -1.4492,0 -2.625,-1.1758 -2.625,-2.625 v -1.75 c 0,-0.4648 0.3828,-0.875 0.875,-0.875 0.4648,0 0.875,0.4102 0.875,0.875 z"
     fill="#f4f7fa"
     id="path2" />
</svg>
