<?xml version="1.0" encoding="utf-8"?>
<svg fill="#000000" viewBox="0 0 48 48" width="400px" height="400px" xmlns="http://www.w3.org/2000/svg">
  <path d="M 24 2 C 19.047281 2 15 6.0472805 15 11 L 15 26 C 15 30.952719 19.047281 35 24 35 C 28.952719 35 33 30.952719 33 26 L 33 11 C 33 6.0472805 28.952719 2 24 2 z M 10.476562 20.978516 A 1.50015 1.50015 0 0 0 9 22.5 L 9 26 C 9 33.760508 14.934038 40.16812 22.5 40.923828 L 22.5 45.5 A 1.50015 1.50015 0 1 0 25.5 45.5 L 25.5 40.923828 C 33.065962 40.16812 39 33.760508 39 26 L 39 22.5 A 1.50015 1.50015 0 1 0 36 22.5 L 36 26 C 36 32.585372 30.739679 37.894735 24.177734 37.990234 A 1.50015 1.50015 0 0 0 23.976562 37.978516 A 1.50015 1.50015 0 0 0 23.8125 37.990234 C 17.255134 37.889572 12 32.582085 12 26 L 12 22.5 A 1.50015 1.50015 0 0 0 10.476562 20.978516 z" style="fill: rgb(255, 255, 255);"/>
</svg>