<svg width="20" height="20" viewBox="0 0 20 20" fill="none" xmlns="http://www.w3.org/2000/svg">
<path d="M14.9999 8.89831H14.4444V5.55553C14.4444 3.18775 12.3677 1.11108 9.99992 1.11108C7.63214 1.11108 5.55547 3.18775 5.55547 5.55553V8.89831H4.99992C4.08103 8.89831 3.33325 9.64608 3.33325 10.565V17.2316C3.33325 18.1505 4.08103 18.8983 4.99992 18.8983H14.9999C15.9188 18.8983 16.6666 18.1505 16.6666 17.2316V10.565C16.6666 9.64608 15.9188 8.89831 14.9999 8.89831ZM6.66658 5.55553C6.66658 3.77997 8.22436 2.2222 9.99992 2.2222C11.7755 2.2222 13.3333 3.77997 13.3333 5.55553V8.89831H6.66658V5.55553ZM15.5555 17.2316C15.5555 17.5383 15.3066 17.7872 14.9999 17.7872H4.99992C4.69325 17.7872 4.44436 17.5383 4.44436 17.2316V10.565C4.44436 10.2583 4.69325 10.0094 4.99992 10.0094H14.9999C15.3066 10.0094 15.5555 10.2583 15.5555 10.565V17.2316ZM11.111 13.8983C11.111 14.5122 10.6138 15.0094 9.99992 15.0094C9.38603 15.0094 8.88881 14.5122 8.88881 13.8983C8.88881 13.2844 9.38603 12.7872 9.99992 12.7872C10.6138 12.7872 11.111 13.2844 11.111 13.8983Z" fill="#001B41"/>
</svg>
