<svg width="24" height="24" viewBox="0 0 24 24" fill="none" xmlns="http://www.w3.org/2000/svg">
<path d="M11.9998 2C5.7505 2 0.666504 6.486 0.666504 12C0.666504 13.9927 1.33517 15.9207 2.59984 17.576C2.65517 17.6487 2.66717 17.758 2.64784 17.8153L1.53917 20.496C1.30584 21.06 1.43517 21.7027 1.86784 22.1327C2.15584 22.4187 2.53584 22.57 2.92384 22.57C3.11917 22.57 3.31717 22.5313 3.50584 22.4527L6.8965 21.0307C7.00184 20.9913 7.11184 21.0247 7.16784 21.048C8.68584 21.6793 10.3112 22 11.9998 22C18.2492 22 23.3332 17.514 23.3332 12C23.3332 6.486 18.2492 2 11.9998 2Z" fill="white"/>
</svg>
