<svg width="24" height="25" viewBox="0 0 24 25" fill="none" xmlns="http://www.w3.org/2000/svg">
<path d="M0 3C0 1.35938 1.3125 0 3 0H21C22.6406 0 24 1.35938 24 3V16.5C24 18.1875 22.6406 19.5 21 19.5H14.4844L8.67188 23.8594C8.4375 24.0469 8.15625 24.0469 7.875 23.9531C7.64062 23.8125 7.5 23.5781 7.5 23.25V19.5H3C1.3125 19.5 0 18.1875 0 16.5V3ZM7.125 6.75C6.46875 6.75 6 7.26562 6 7.875C6 8.53125 6.46875 9 7.125 9H16.875C17.4844 9 18 8.53125 18 7.875C18 7.26562 17.4844 6.75 16.875 6.75H7.125ZM7.125 11.25C6.46875 11.25 6 11.7656 6 12.375C6 13.0312 6.46875 13.5 7.125 13.5H12.375C12.9844 13.5 13.5 13.0312 13.5 12.375C13.5 11.7656 12.9844 11.25 12.375 11.25H7.125Z" fill="#F4F7FA"/>
</svg>
