<svg width="48" height="48" viewBox="0 0 48 48" fill="none" xmlns="http://www.w3.org/2000/svg">
<g clip-path="url(#clip0_7292_26857)">
<path d="M18.6665 16.6667C18.6665 17.772 17.7705 18.6667 16.6665 18.6667H4.6665C3.5625 18.6667 2.6665 17.772 2.6665 16.6667V3.33337C2.6665 2.22804 3.5625 1.33337 4.6665 1.33337C5.7705 1.33337 6.6665 2.22804 6.6665 3.33337V9.43604C10.9078 4.42137 17.2278 1.33337 23.9998 1.33337C36.4985 1.33337 46.6665 11.5014 46.6665 24C46.6665 36.4987 36.4985 46.6667 23.9998 46.6667C14.6412 46.6667 6.12384 40.7894 2.8025 32.044C2.4105 31.0107 2.9305 29.856 3.9625 29.464C4.98784 29.0747 6.14917 29.5907 6.5425 30.624C9.2785 37.828 16.2932 42.668 24.0012 42.668C34.2945 42.668 42.6678 34.2947 42.6678 24.0014C42.6678 13.708 34.2945 5.33471 24.0012 5.33471C17.3078 5.33471 11.1398 8.98804 7.83984 14.668H16.6678C17.7718 14.668 18.6678 15.5627 18.6678 16.668L18.6665 16.6667Z" fill="white"/>
<path d="M20.0039 28V21.0332H19.8984L17.7949 22.5156V21.0977L20.0039 19.5449H21.5098V28H20.0039ZM26.959 28.2109C26.2871 28.2109 25.7109 28.0312 25.2305 27.6719C24.7539 27.3125 24.3867 26.8008 24.1289 26.1367C23.8711 25.4727 23.7422 24.6855 23.7422 23.7754V23.7637C23.7422 22.8535 23.8711 22.0684 24.1289 21.4082C24.3867 20.7441 24.7539 20.2324 25.2305 19.873C25.7109 19.5137 26.2871 19.334 26.959 19.334C27.6309 19.334 28.207 19.5137 28.6875 19.873C29.168 20.2324 29.5371 20.7441 29.7949 21.4082C30.0527 22.0684 30.1816 22.8535 30.1816 23.7637V23.7754C30.1816 24.6855 30.0527 25.4727 29.7949 26.1367C29.5371 26.8008 29.168 27.3125 28.6875 27.6719C28.207 28.0312 27.6309 28.2109 26.959 28.2109ZM26.959 26.9863C27.3184 26.9863 27.625 26.8574 27.8789 26.5996C28.1328 26.3418 28.3262 25.9746 28.459 25.498C28.5957 25.0176 28.6641 24.4434 28.6641 23.7754V23.7637C28.6641 23.0957 28.5957 22.5234 28.459 22.0469C28.3262 21.5664 28.1328 21.1992 27.8789 20.9453C27.625 20.6875 27.3184 20.5586 26.959 20.5586C26.5996 20.5586 26.293 20.6875 26.0391 20.9453C25.7891 21.1992 25.5957 21.5664 25.459 22.0469C25.3262 22.5234 25.2598 23.0957 25.2598 23.7637V23.7754C25.2598 24.4434 25.3262 25.0176 25.459 25.498C25.5957 25.9746 25.7891 26.3418 26.0391 26.5996C26.293 26.8574 26.5996 26.9863 26.959 26.9863Z" fill="white"/>
</g>
<defs>
<clipPath id="clip0_7292_26857">
<rect width="48" height="48" fill="white"/>
</clipPath>
</defs>
</svg>
