<svg width="48" height="48" viewBox="0 0 48 48" fill="none" xmlns="http://www.w3.org/2000/svg">
<path d="M11 16.125C11 14.3477 12.4219 12.875 14.25 12.875H33.75C35.5273 12.875 37 14.3477 37 16.125V32.375C37 34.2031 35.5273 35.625 33.75 35.625H14.25C12.4219 35.625 11 34.2031 11 32.375V16.125ZM27.4023 21.5586C27.1992 21.2031 26.793 21 26.4375 21C26.0312 21 25.625 21.2031 25.4219 21.5586L21.0039 28.0586L19.6328 26.332C19.4297 26.0781 19.0742 25.875 18.7188 25.875C18.3125 25.875 17.957 26.0781 17.7539 26.332L14.5039 30.3945C14.1992 30.8008 14.1484 31.3086 14.3516 31.7148C14.5547 32.1211 14.9609 32.375 15.4688 32.375H20.3438H21.9688H32.5312C32.9375 32.375 33.3945 32.1719 33.5977 31.7656C33.8008 31.3594 33.75 30.8516 33.4961 30.4961L27.4023 21.5586ZM16.6875 21C17.5508 21 18.3125 20.543 18.7695 19.7812C19.2266 19.0703 19.2266 18.1055 18.7695 17.3438C18.3125 16.6328 17.5508 16.125 16.6875 16.125C15.7734 16.125 15.0117 16.6328 14.5547 17.3438C14.0977 18.1055 14.0977 19.0703 14.5547 19.7812C15.0117 20.543 15.7734 21 16.6875 21Z" fill="white"/>
</svg>
