<svg width="48" height="48" viewBox="0 0 48 48" fill="none" xmlns="http://www.w3.org/2000/svg">
<path d="M13.8438 11.25H17.9062C18.5664 11.25 19.125 11.8086 19.125 12.4688C19.125 13.1797 18.5664 13.6875 17.9062 13.6875H13.8438C13.5898 13.6875 13.4375 13.8906 13.4375 14.0938V18.1562C13.4375 18.8672 12.8789 19.375 12.2188 19.375C11.5078 19.375 11 18.8672 11 18.1562V14.0938C11 12.5703 12.2695 11.25 13.8438 11.25ZM30.0938 11.25H34.1562C35.6797 11.25 37 12.5703 37 14.0938V18.1562C37 18.8672 36.4414 19.375 35.7812 19.375C35.0703 19.375 34.5625 18.8672 34.5625 18.1562V14.0938C34.5625 13.8906 34.3594 13.6875 34.1562 13.6875H30.0938C29.3828 13.6875 28.875 13.1797 28.875 12.4688C28.875 11.8086 29.3828 11.25 30.0938 11.25ZM13.4375 30.3438V34.4062C13.4375 34.6602 13.5898 34.8125 13.8438 34.8125H17.9062C18.5664 34.8125 19.125 35.3711 19.125 36.0312C19.125 36.7422 18.5664 37.25 17.9062 37.25H13.8438C12.2695 37.25 11 35.9805 11 34.4062V30.3438C11 29.6836 11.5078 29.125 12.2188 29.125C12.8789 29.125 13.4375 29.6836 13.4375 30.3438ZM37 30.3438V34.4062C37 35.9805 35.6797 37.25 34.1562 37.25H30.0938C29.3828 37.25 28.875 36.7422 28.875 36.0312C28.875 35.3711 29.3828 34.8125 30.0938 34.8125H34.1562C34.3594 34.8125 34.5625 34.6602 34.5625 34.4062V30.3438C34.5625 29.6836 35.0703 29.125 35.7812 29.125C36.4414 29.125 37 29.6836 37 30.3438ZM20.1406 17.75L20.4453 16.9375C20.5977 16.4805 21.0547 16.125 21.5625 16.125H26.3867C26.8945 16.125 27.3516 16.4805 27.5039 16.9375L27.8594 17.75H29.6875C31.0078 17.75 32.125 18.8672 32.125 20.1875V28.3125C32.125 29.6836 31.0078 30.75 29.6875 30.75H18.3125C16.9414 30.75 15.875 29.6836 15.875 28.3125V20.1875C15.875 18.8672 16.9414 17.75 18.3125 17.75H20.1406ZM27.25 24.25C27.25 23.1328 26.5898 22.0664 25.625 21.457C24.6094 20.8984 23.3398 20.8984 22.375 21.457C21.3594 22.0664 20.75 23.1328 20.75 24.25C20.75 25.418 21.3594 26.4844 22.375 27.0938C23.3398 27.6523 24.6094 27.6523 25.625 27.0938C26.5898 26.4844 27.25 25.418 27.25 24.25Z" fill="white"/>
</svg>
