<svg width="32" height="32" viewBox="0 0 32 32" fill="none" xmlns="http://www.w3.org/2000/svg">
<path d="M4 8.5C4 6.85938 5.3125 5.5 7 5.5H13.1875C14.0781 5.5 14.9219 5.875 15.5781 6.53125L17.5469 8.5H25C26.6406 8.5 28 9.85938 28 11.5V23.5C28 25.1875 26.6406 26.5 25 26.5H7C5.3125 26.5 4 25.1875 4 23.5V8.5ZM7 7.75C6.57812 7.75 6.25 8.125 6.25 8.5V23.5C6.25 23.9219 6.57812 24.25 7 24.25H25C25.375 24.25 25.75 23.9219 25.75 23.5V11.5C25.75 11.125 25.375 10.75 25 10.75H17.4062C16.9375 10.75 16.4219 10.5625 16.0938 10.2344L13.9844 8.07812C13.75 7.89062 13.4688 7.75 13.1875 7.75H7Z" fill="#1474C4"/>
</svg>
