<?xml version="1.0" encoding="utf-8"?>
<svg viewBox="0,0,256,256" width="50px" height="50px" fill-rule="nonzero" xmlns="http://www.w3.org/2000/svg">
  <g fill="#000000" fill-rule="nonzero" stroke="none" stroke-width="1" stroke-linecap="butt" stroke-linejoin="miter" stroke-miterlimit="10" stroke-dasharray="" stroke-dashoffset="0" font-family="none" font-weight="none" font-size="none" text-anchor="none" style="mix-blend-mode: normal" transform="matrix(1, 0, 0, 1, 17.988363, 0.535021)">
    <g transform="translate(237.95133,17.46496) rotate(90) scale(5.12,5.12)">
      <path d="M24.15625,3c-0.30469,0 -0.60547,0.0625 -0.90625,0.15625c-0.60547,0.19141 -1.18359,0.55078 -1.6875,1.0625l-11.75,11.75h-6.8125c-1.66797,0 -3.03125,1.36328 -3.03125,3.03125v12c0,1.66797 1.36328,3.03125 3.03125,3.03125h6.8125l11.71875,11.65625c1.11719,1.12109 2.55078,1.61328 3.71875,1.0625c1.17578,-0.55469 1.75,-1.89062 1.75,-3.4375v-37c0,-1.5 -0.76562,-2.74609 -1.9375,-3.15625c-0.29297,-0.10156 -0.60156,-0.15625 -0.90625,-0.15625zM24.1875,5c0.10156,0 0.17969,0.00781 0.25,0.03125c0.28516,0.09766 0.5625,0.35156 0.5625,1.28125v37c0,1.06641 -0.35156,1.54297 -0.59375,1.65625c-0.24219,0.11328 -0.73047,0.125 -1.5,-0.65625l-12.59375,-12.59375c-0.01953,-0.01172 -0.04297,-0.02344 -0.0625,-0.03125c0.07422,0.06641 -0.25,-0.56641 -0.25,-0.9375v-11.5c0,-0.37109 0.33594,-1.01172 0.25,-0.9375c0.02344,-0.01953 0.04297,-0.03906 0.0625,-0.0625l12.65625,-12.625c0.46875,-0.47266 0.91016,-0.62109 1.21875,-0.625zM34.71875,12.125c-0.44531,0.05469 -0.80078,0.40234 -0.86328,0.84766c-0.06641,0.44141 0.17188,0.875 0.58203,1.05859c3.90234,2.10547 6.5625,6.21484 6.5625,10.96875c0,4.73828 -2.64844,8.85938 -6.53125,10.96875c-0.48437,0.26563 -0.66016,0.875 -0.39062,1.35938c0.26563,0.48438 0.875,0.66016 1.35938,0.39063c4.50781,-2.44922 7.5625,-7.23437 7.5625,-12.71875c0,-5.5 -3.0625,-10.30469 -7.59375,-12.75c-0.17969,-0.10156 -0.38672,-0.14453 -0.59375,-0.125c-0.03125,0 -0.0625,0 -0.09375,0zM3,18.03125h5.1875c-0.12891,0.38281 -0.1875,0.80078 -0.1875,1.21875v11.5c0,0.41797 0.0625,0.83203 0.1875,1.21875h-5.1875c-0.53906,0 -0.96875,-0.42969 -0.96875,-0.96875v-12c0,-0.53906 0.42969,-0.96875 0.96875,-0.96875zM30.53125,18.40625c-0.48437,0.05859 -0.85156,0.45703 -0.875,0.94531c-0.02344,0.48438 0.30469,0.91797 0.78125,1.02344c2.04688,0.53516 3.5625,2.40234 3.5625,4.625c0,2.22266 -1.51562,4.08984 -3.5625,4.625c-0.53516,0.13672 -0.85547,0.68359 -0.71875,1.21875c0.13672,0.53516 0.68359,0.85547 1.21875,0.71875c2.91016,-0.76172 5.0625,-3.42578 5.0625,-6.5625c0,-3.13672 -2.15234,-5.80078 -5.0625,-6.5625c-0.13281,-0.03906 -0.26953,-0.04687 -0.40625,-0.03125z"/>
    </g>
  </g>
</svg>