<svg xmlns="http://www.w3.org/2000/svg" fill="none" viewBox="0 0 24 24" id="Vlc-Logo--Streamline-Ultimate" height="24" width="24">
  <desc>
    Vlc Logo Streamline Icon: https://streamlinehq.com
  </desc>
  <path stroke="#000000" stroke-linecap="round" stroke-linejoin="round" d="m22.43 21.63 -1.9 -5.58c-0.0826 -0.2337 -0.2357 -0.4361 -0.438 -0.5794 -0.2023 -0.1433 -0.4441 -0.2203 -0.692 -0.2206h-1.54l0.48 1.48c0.053 0.1737 0.0578 0.3585 0.0138 0.5347 -0.0441 0.1762 -0.1353 0.337 -0.2638 0.4653 -0.73 0.73 -2.51 2 -6.09 2 -3.58001 0 -5.36001 -1.28 -6.09001 -2 -0.12854 -0.1283 -0.21973 -0.2891 -0.26377 -0.4653 -0.04405 -0.1762 -0.03928 -0.361 0.01377 -0.5347l0.48 -1.48h-1.54c-0.24792 0.0003 -0.48967 0.0773 -0.69201 0.2206 -0.20234 0.1433 -0.35535 0.3457 -0.43799 0.5794l-1.9 5.58c-0.06322 0.1845 -0.08169 0.3813 -0.05387 0.5743 0.02782 0.193 0.10113 0.3766 0.21387 0.5357 0.11248 0.1601 0.26239 0.2902 0.43669 0.3791 0.17429 0.0889 0.36768 0.1339 0.56331 0.1309H21.28c0.1956 0.003 0.389 -0.042 0.5633 -0.1309 0.1743 -0.0889 0.3242 -0.219 0.4367 -0.3791 0.1111 -0.1599 0.1826 -0.344 0.2087 -0.5369 0.026 -0.193 0.0059 -0.3894 -0.0587 -0.5731Z" stroke-width="1.5"></path>
  <path stroke="#000000" stroke-linecap="round" stroke-linejoin="round" d="m14.34 4.19003 -0.71 -2.25c-0.1098 -0.34619 -0.3269 -0.64843 -0.62 -0.86294 -0.2931 -0.21451 -0.6468 -0.330142 -1.01 -0.330142 -0.3632 0 -0.7169 0.115632 -1.01 0.330142 -0.2931 0.21451 -0.5102 0.51675 -0.62 0.86294l-0.71 2.25c0.7252 0.36775 1.5269 0.55959 2.34 0.56 0.8131 -0.00041 1.6148 -0.19225 2.34 -0.56Z" stroke-width="1.5"></path>
  <path stroke="#000000" stroke-linecap="round" stroke-linejoin="round" d="M15.59 8.10999c-1.05 0.74212 -2.3042 1.1406 -3.59 1.1406s-2.54 -0.39848 -3.59001 -1.1406l-1.51 4.74001c1.52893 0.9498 3.30041 1.4361 5.10001 1.4 1.7996 0.0361 3.5711 -0.4502 5.1 -1.4l-1.51 -4.74001Z" stroke-width="1.5"></path>
  <path stroke="#000000" stroke-linecap="round" stroke-linejoin="round" d="m6.13998 15.2501 3.52 -11.06004" stroke-width="1.5"></path>
  <path stroke="#000000" stroke-linecap="round" stroke-linejoin="round" d="M17.86 15.2501 14.34 4.19006" stroke-width="1.5"></path>
</svg>