<svg width="36" height="36" viewBox="0 0 36 36" fill="none" xmlns="http://www.w3.org/2000/svg">
<path fill-rule="evenodd" clip-rule="evenodd" d="M19.188 2.20613L31.021 6.59213C31.609 6.81113 32 7.37213 32 7.99913C32 32.0531 18.743 33.9201 18.179 33.9881C18.119 33.9961 18.06 33.9991 18 33.9991C17.94 33.9991 17.881 33.9951 17.821 33.9881C17.257 33.9201 4 32.0531 4 7.99913C4 7.37113 4.391 6.81013 4.979 6.59213L16.8 2.21013C17.579 1.93113 18.421 1.93013 19.188 2.20613ZM15.8296 24.2576C15.9029 24.8073 16.3767 25.2224 16.9318 25.2224H18.4296L18.4301 25.222C18.9852 25.222 19.4589 24.8073 19.5323 24.2571L19.6936 23.0455C20.1447 22.862 20.5652 22.6193 20.9487 22.3216L22.0781 22.7869C22.5918 22.9989 23.1874 22.7958 23.4652 22.3149L24.2141 21.0175C24.4909 20.5371 24.3687 19.9193 23.9292 19.5807L22.9625 18.8367C22.9967 18.5918 23.0141 18.3487 23.0141 18.1109C23.0141 17.8731 22.9967 17.63 22.9625 17.3851L23.9292 16.6411C24.3687 16.3024 24.4914 15.6851 24.2141 15.2038L23.4647 13.9069C23.1874 13.426 22.5914 13.222 22.0776 13.4349L20.9483 13.9002C20.5643 13.6024 20.1443 13.3598 19.6932 13.1762L19.5318 11.9647C19.4585 11.4149 18.9847 10.9998 18.4296 10.9998H16.9318C16.3767 10.9998 15.9029 11.4144 15.8296 11.9647L15.6683 13.1762C15.2172 13.3598 14.7967 13.6024 14.4132 13.9002L13.2838 13.4349C12.7705 13.2229 12.1745 13.426 11.8967 13.9069L11.1478 15.2042C10.8705 15.6856 10.9927 16.3029 11.4327 16.642L12.3994 17.386C12.3652 17.6309 12.3478 17.874 12.3478 18.1118C12.3478 18.3496 12.3652 18.5927 12.3994 18.8376L11.4327 19.5816C10.9932 19.9198 10.8705 20.5375 11.1478 21.0184L11.8967 22.3153C12.1736 22.7958 12.7692 22.9989 13.2838 22.7873L14.4132 22.322C14.7972 22.6198 15.2172 22.8624 15.6683 23.046L15.8296 24.2576ZM15.6807 18.1113C15.6807 17.0087 16.5781 16.1113 17.6807 16.1113C18.7834 16.1113 19.6807 17.0087 19.6807 18.1113C19.6807 19.214 18.7834 20.1113 17.6807 20.1113C16.5781 20.1113 15.6807 19.214 15.6807 18.1113Z" fill="#1474C4"/>
</svg>
