<svg width="60" height="64" viewBox="0 0 60 64" fill="none" xmlns="http://www.w3.org/2000/svg">
<path fill-rule="evenodd" clip-rule="evenodd" d="M31.5165 0.376471C31.0183 0.12549 30.3956 0 29.8974 0C29.2746 0 28.6518 0.12549 28.1536 0.376471L4.73814 10.4157C1.99803 11.6706 -0.119326 14.3059 0.00522484 17.5686C0.00522484 30.1176 5.1118 52.8314 26.5345 63.2471C28.6518 64.251 31.0183 64.251 33.1357 63.2471C54.5584 52.8314 59.6649 30.1176 59.7895 17.5686C59.7895 14.3059 57.6721 11.6706 54.932 10.4157L31.5165 0.376471ZM33.4656 19.5072L33.2873 18.1454C33.2278 17.5533 32.7523 17.0204 32.0984 16.9612C31.5634 16.902 30.969 16.8428 30.3746 16.8428C29.6613 16.8428 29.0074 16.902 28.413 17.0204C27.7591 17.0796 27.343 17.5533 27.2241 18.2046L27.1052 19.5665C27.0458 19.9217 26.7486 20.2178 26.3919 20.3362C25.7975 20.573 25.2626 20.8098 24.7276 21.0467L24.7275 21.0467C24.3708 21.2244 23.9548 21.2244 23.6575 20.9875L22.5876 20.1586C22.112 19.7441 21.3987 19.7441 20.9232 20.0994C19.9721 20.8691 19.0804 21.7572 18.3077 22.7638C17.951 23.2375 17.951 23.8888 18.3077 24.4217L19.1993 25.4875C19.4371 25.7836 19.4371 26.198 19.2588 26.5533L19.2588 26.5533C19.021 27.0862 18.7832 27.6191 18.6049 28.152C18.486 28.5072 18.1294 28.8033 17.7727 28.8625L16.4055 29.0401C15.8111 29.0994 15.3356 29.573 15.2167 30.1651C15.1572 30.7572 15.1572 31.4086 15.1572 32.0007C15.1572 32.652 15.1572 33.3033 15.2167 33.8954C15.3356 34.4875 15.8111 34.9612 16.4055 35.0204L17.7727 35.198C18.1888 35.2572 18.486 35.5533 18.6049 35.9086C18.7832 36.4415 19.021 36.9744 19.2588 37.5072C19.4371 37.8625 19.4371 38.277 19.1993 38.573L18.3671 39.6388C17.951 40.1125 17.951 40.823 18.3077 41.2967C19.0804 42.3033 19.9721 43.1915 20.9232 43.9612C21.4582 44.3165 22.112 44.3165 22.5876 43.902L23.6575 43.073C23.9548 42.8362 24.4303 42.8362 24.7275 43.0138C24.995 43.1322 25.2774 43.2507 25.5597 43.3691C25.8421 43.4875 26.1244 43.6059 26.3919 43.7244C26.7486 43.8428 27.0458 44.1388 27.1052 44.4941L27.2835 45.8559C27.343 46.5072 27.8185 46.9809 28.413 47.0401C29.0668 47.1586 29.7207 47.1586 30.3746 47.1586C30.969 47.1586 31.5634 47.1586 32.1578 47.0994C32.7523 47.0401 33.2278 46.5072 33.2873 45.9151L33.4656 44.5533C33.525 44.198 33.7628 43.8428 34.1789 43.7244C34.6396 43.5867 35.0645 43.4135 35.5091 43.2322C35.6382 43.1796 35.769 43.1263 35.9027 43.073C36.2 42.8954 36.6161 42.8954 36.9133 43.1322L38.0427 43.9612C38.5182 44.3757 39.1721 44.3757 39.6476 44.0204C39.7368 43.9612 39.826 43.8872 39.9151 43.8132C40.0043 43.7391 40.0935 43.6651 40.1826 43.6059L41.9659 41.7704L42.3226 41.4151C42.6792 40.9415 42.6792 40.2309 42.2631 39.7572L41.4309 38.6915C41.1931 38.3954 41.1931 37.9809 41.3715 37.6257C41.6687 37.0928 41.9065 36.5007 42.0848 35.9086C42.2037 35.4941 42.5009 35.2572 42.917 35.198L44.2842 35.0204C44.8786 34.9612 45.3541 34.4875 45.473 33.8954V33.5994V30.5204V30.1651C45.3541 29.573 44.8786 29.0994 44.2842 29.0401L42.917 28.8625C42.5009 28.8033 42.2037 28.5665 42.0848 28.2112C41.9065 27.5599 41.6687 26.9678 41.3715 26.4349C41.1931 26.0796 41.1931 25.6651 41.4309 25.3691L42.2631 24.3033C42.6792 23.8296 42.6792 23.1191 42.3226 22.6454L41.9659 22.2901L40.1826 20.4546C40.0043 20.277 39.826 20.1586 39.6476 20.0401C39.1721 19.6849 38.5182 19.6849 38.0427 20.0994L36.9133 20.9283C36.6161 21.1651 36.2 21.1651 35.8433 20.9875C35.3084 20.7507 34.7141 20.5139 34.1197 20.2771L34.1195 20.277C33.7628 20.1586 33.525 19.8625 33.4656 19.5072ZM26.2136 29.6322C27.1052 28.2112 28.6507 27.2638 30.3746 27.2638C32.039 27.2638 33.5845 28.2112 34.4761 29.6322C35.3083 31.1125 35.3083 32.948 34.4761 34.3691C33.5845 35.8494 32.039 36.7375 30.3746 36.7375C28.6507 36.7375 27.1052 35.8494 26.2136 34.3691C25.3814 32.948 25.3814 31.1125 26.2136 29.6322Z" fill="#3196D6"/>
</svg>
