<svg width="20" height="20" viewBox="0 0 20 20" fill="none" xmlns="http://www.w3.org/2000/svg">
<path d="M6.66664 13.8983C6.66664 13.2844 7.16386 12.7872 7.77775 12.7872C8.39164 12.7872 8.88886 13.2844 8.88886 13.8983C8.88886 14.5122 8.39164 15.0094 7.77775 15.0094C7.16386 15.0094 6.66664 14.5122 6.66664 13.8983ZM18.8889 5.55553V7.23164C18.8889 7.53831 18.64 7.7872 18.3333 7.7872C18.0266 7.7872 17.7778 7.53831 17.7778 7.23164V5.55553C17.7778 3.77997 16.22 2.2222 14.4444 2.2222C12.6689 2.2222 11.1111 3.77997 11.1111 5.55553V8.89831H12.7778C13.6966 8.89831 14.4444 9.64608 14.4444 10.565V17.2316C14.4444 18.1505 13.6966 18.8983 12.7778 18.8983H2.77775C1.85886 18.8983 1.11108 18.1505 1.11108 17.2316V10.565C1.11108 9.64608 1.85886 8.89831 2.77775 8.89831H9.99997V5.55553C9.99997 3.18775 12.0766 1.11108 14.4444 1.11108C16.8122 1.11108 18.8889 3.18775 18.8889 5.55553ZM2.77775 10.0094C2.47108 10.0094 2.2222 10.2583 2.2222 10.565V17.2316C2.2222 17.5383 2.47108 17.7872 2.77775 17.7872H12.7778C13.0844 17.7872 13.3333 17.5383 13.3333 17.2316V10.565C13.3333 10.2583 13.0844 10.0094 12.7778 10.0094H2.77775Z" fill="#001B41"/>
</svg>
