<svg width="24" height="24" viewBox="0 0 24 24" fill="none" xmlns="http://www.w3.org/2000/svg">
<path d="M22.6668 2.66671V8.66671C22.6668 9.40271 22.0695 10 21.3335 10C20.5975 10 20.0002 9.40271 20.0002 8.66671V5.88537L15.6095 10.276C15.3495 10.5367 15.0082 10.6667 14.6668 10.6667C14.3255 10.6667 13.9842 10.5367 13.7242 10.276C13.2035 9.75537 13.2035 8.91137 13.7242 8.39071L18.1148 4.00004H15.3335C14.5975 4.00004 14.0002 3.40271 14.0002 2.66671C14.0002 1.93071 14.5975 1.33337 15.3335 1.33337H21.3335C22.0695 1.33337 22.6668 1.93071 22.6668 2.66671ZM8.39083 13.724L4.00016 18.1147V15.3334C4.00016 14.5974 3.40283 14 2.66683 14C1.93083 14 1.3335 14.5974 1.3335 15.3334V21.3334C1.3335 22.0694 1.93083 22.6667 2.66683 22.6667H8.66683C9.40283 22.6667 10.0002 22.0694 10.0002 21.3334C10.0002 20.5974 9.40283 20 8.66683 20H5.8855L10.2762 15.6094C10.7968 15.0887 10.7968 14.2447 10.2762 13.724C9.75616 13.2034 8.91083 13.2034 8.39083 13.724Z" fill="white"/>
</svg>
