<svg width="32" height="32" viewBox="0 0 32 32" fill="none" xmlns="http://www.w3.org/2000/svg">
<circle cx="16" cy="16" r="16" fill="#3196D6"/>
<path d="M13.2224 9.88885C13.2224 11.1161 12.2274 12.1111 11.0002 12.1111C9.77299 12.1111 8.77799 11.1161 8.77799 9.88885C8.77799 8.66163 9.77299 7.66663 11.0002 7.66663C12.2274 7.66663 13.2224 8.66163 13.2224 9.88885ZM13.4724 16.7272C12.6408 16.0133 12.1113 14.9572 12.1113 13.7777C12.1113 13.4994 12.1419 13.2283 12.198 12.9666C12.0797 12.9566 11.963 12.9444 11.8336 12.9444H10.1669C7.11133 12.9444 7.11744 15.8505 7.11188 17.3811C7.11188 17.3838 7.11133 17.3866 7.11133 17.3888V17.6666C7.11133 17.9733 7.36022 18.2222 7.66688 18.2222H11.1247C11.6508 17.5377 12.3986 16.9866 13.4724 16.7272ZM21.0002 7.66663C19.773 7.66663 18.778 8.66163 18.778 9.88885C18.778 11.1161 19.773 12.1111 21.0002 12.1111C22.2274 12.1111 23.2224 11.1161 23.2224 9.88885C23.2224 8.66163 22.2274 7.66663 21.0002 7.66663ZM21.8336 12.9444H20.1669C20.0374 12.9444 19.9213 12.9566 19.803 12.9666C19.8586 13.2283 19.8897 13.4994 19.8897 13.7777C19.8897 14.9572 19.3602 16.0133 18.5286 16.7266C19.6041 16.9861 20.3524 17.5372 20.8791 18.2222H24.3336C24.6402 18.2222 24.8891 17.9733 24.8891 17.6666V17.3888C24.8891 15.855 24.8891 12.9444 21.8336 12.9444ZM17.0719 17.6666H14.9291C11.0008 17.6666 11.008 21.3372 11.0013 23.2705C11.0013 23.2738 11.0002 23.2777 11.0002 23.2805V23.6316C11.0002 24.0194 11.3202 24.3333 11.7147 24.3333H20.2863C20.6808 24.3333 21.0008 24.0188 21.0008 23.6316V23.2805C21.0008 21.3427 21.0002 17.6666 17.0719 17.6666ZM16.0002 11C14.4663 11 13.2224 12.2438 13.2224 13.7777C13.2224 15.3116 14.4663 16.5555 16.0002 16.5555C17.5341 16.5555 18.778 15.3116 18.778 13.7777C18.778 12.2438 17.5341 11 16.0002 11Z" fill="white"/>
</svg>
