<svg width="32" height="32" viewBox="0 0 32 32" fill="none" xmlns="http://www.w3.org/2000/svg">
<circle cx="16" cy="16" r="16" fill="#1474C4"/>
<path d="M13.2224 9.88891C13.2224 11.1161 12.2274 12.1111 11.0002 12.1111C9.77299 12.1111 8.77799 11.1161 8.77799 9.88891C8.77799 8.66169 9.77299 7.66669 11.0002 7.66669C12.2274 7.66669 13.2224 8.66169 13.2224 9.88891ZM13.4724 16.7272C12.6408 16.0134 12.1113 14.9572 12.1113 13.7778C12.1113 13.4995 12.1419 13.2284 12.198 12.9667C12.0797 12.9567 11.963 12.9445 11.8336 12.9445H10.1669C7.11133 12.9445 7.11744 15.8506 7.11188 17.3811C7.11188 17.3839 7.11133 17.3867 7.11133 17.3889V17.6667C7.11133 17.9734 7.36022 18.2222 7.66688 18.2222H11.1247C11.6508 17.5378 12.3986 16.9867 13.4724 16.7272ZM21.0002 7.66669C19.773 7.66669 18.778 8.66169 18.778 9.88891C18.778 11.1161 19.773 12.1111 21.0002 12.1111C22.2274 12.1111 23.2224 11.1161 23.2224 9.88891C23.2224 8.66169 22.2274 7.66669 21.0002 7.66669ZM21.8336 12.9445H20.1669C20.0374 12.9445 19.9213 12.9567 19.803 12.9667C19.8586 13.2284 19.8897 13.4995 19.8897 13.7778C19.8897 14.9572 19.3602 16.0134 18.5286 16.7267C19.6041 16.9861 20.3524 17.5372 20.8791 18.2222H24.3336C24.6402 18.2222 24.8891 17.9734 24.8891 17.6667V17.3889C24.8891 15.855 24.8891 12.9445 21.8336 12.9445ZM17.0719 17.6667H14.9291C11.0008 17.6667 11.008 21.3372 11.0013 23.2706C11.0013 23.2739 11.0002 23.2778 11.0002 23.2806V23.6317C11.0002 24.0195 11.3202 24.3334 11.7147 24.3334H20.2863C20.6808 24.3334 21.0008 24.0189 21.0008 23.6317V23.2806C21.0008 21.3428 21.0002 17.6667 17.0719 17.6667ZM16.0002 11C14.4663 11 13.2224 12.2439 13.2224 13.7778C13.2224 15.3117 14.4663 16.5556 16.0002 16.5556C17.5341 16.5556 18.778 15.3117 18.778 13.7778C18.778 12.2439 17.5341 11 16.0002 11Z" fill="white"/>
</svg>
