<svg width="18" height="18" viewBox="0 0 18 18" fill="none" xmlns="http://www.w3.org/2000/svg">
<path d="M12.5 1H3.5C2.6715 1 2 1.6715 2 2.5V15.5C2 16.3285 2.6715 17 3.5 17H12.5C13.3285 17 14 16.3285 14 15.5V2.5C14 1.6715 13.3285 1 12.5 1ZM8 4.5C9.1045 4.5 10 5.3955 10 6.5C10 7.6045 9.1045 8.5 8 8.5C6.8955 8.5 6 7.6045 6 6.5C6 5.3955 6.8955 4.5 8 4.5ZM11.5 13.0555C11.5 13.301 11.276 13.5 11 13.5H5C4.724 13.5 4.5 13.301 4.5 13.0555V12.8335C4.5 12.8335 4.5005 12.829 4.5005 12.827C4.5055 11.6025 4.5 9.5 7.25 9.5H8.75C11.5 9.5 11.5 11.606 11.5 12.8335V13.0555ZM15.75 6C15.3355 6 15 5.6645 15 5.25V3.25C15 2.8355 15.3355 2.5 15.75 2.5C16.1645 2.5 16.5 2.8355 16.5 3.25V5.25C16.5 5.6645 16.1645 6 15.75 6ZM15.75 11C15.3355 11 15 10.6645 15 10.25V8.25C15 7.8355 15.3355 7.5 15.75 7.5C16.1645 7.5 16.5 7.8355 16.5 8.25V10.25C16.5 10.6645 16.1645 11 15.75 11ZM15.75 16C15.3355 16 15 15.6645 15 15.25V13.25C15 12.8355 15.3355 12.5 15.75 12.5C16.1645 12.5 16.5 12.8355 16.5 13.25V15.25C16.5 15.6645 16.1645 16 15.75 16Z" fill="#97A3B4"/>
</svg>
