<svg version="1.1" xmlns="http://www.w3.org/2000/svg" xmlns:xlink="http://www.w3.org/1999/xlink" width="96px" height="96px" viewBox="0,0,256,256"><g transform="translate(25.6,25.6) scale(0.8,0.8)"><g fill="#f4f7fa" fill-rule="nonzero" stroke="none" stroke-width="1" stroke-linecap="butt" stroke-linejoin="miter" stroke-miterlimit="10" stroke-dasharray="" stroke-dashoffset="0" font-family="none" font-weight="none" font-size="none" text-anchor="none" style="mix-blend-mode: normal"><g transform="translate(-3.19792,0) scale(2.66667,2.66667)"><g id="surface1"><path d="M39.60156,9.60156c0,-2.54687 1.01172,-4.98828 2.80859,-6.78906c1.80078,-1.80078 4.24219,-2.8125 6.78906,-2.8125c2.54688,0 4.98828,1.01172 6.78906,2.8125c1.80078,1.80078 2.8125,4.24219 2.8125,6.78906c0,2.54297 -1.01172,4.98438 -2.8125,6.78516c-1.80078,1.80078 -4.24219,2.8125 -6.78906,2.8125c-2.54687,0 -4.98828,-1.01172 -6.78906,-2.8125c-1.79687,-1.80078 -2.80859,-4.24219 -2.80859,-6.78516zM30,38.39844c0,-3.53906 2.85938,-6.39844 6.39844,-6.39844h12.80078c3.53906,0 6.40234,2.85938 6.40234,6.39844v44.80078h6.39844c3.53906,0 6.39844,2.85938 6.39844,6.40234c0,3.53906 -2.85938,6.39844 -6.39844,6.39844h-25.60156c-3.53906,0 -6.39844,-2.85937 -6.39844,-6.39844c0,-3.54297 2.85938,-6.40234 6.39844,-6.40234h6.40234v-38.39844h-6.40234c-3.53906,0 -6.39844,-2.85937 -6.39844,-6.40234zM30,38.39844"></path></g></g></g></g></svg>