<svg width="84" height="84" viewBox="0 0 84 84" fill="none" xmlns="http://www.w3.org/2000/svg">
<path d="M35.2 13.2C35.2 11.2904 35.9586 9.45909 37.3088 8.10883C38.6591 6.75857 40.4904 6 42.4 6C44.3096 6 46.1409 6.75857 47.4912 8.10883C48.8414 9.45909 49.6 11.2904 49.6 13.2C49.6 15.1096 48.8414 16.9409 47.4912 18.2912C46.1409 19.6414 44.3096 20.4 42.4 20.4C40.4904 20.4 38.6591 19.6414 37.3088 18.2912C35.9586 16.9409 35.2 15.1096 35.2 13.2ZM28 34.8C28 32.145 30.145 30 32.8 30H42.4C45.055 30 47.2 32.145 47.2 34.8V68.4H52C54.655 68.4 56.8 70.545 56.8 73.2C56.8 75.855 54.655 78 52 78H32.8C30.145 78 28 75.855 28 73.2C28 70.545 30.145 68.4 32.8 68.4H37.6V39.6H32.8C30.145 39.6 28 37.455 28 34.8Z" fill="#001B41"/>
</svg>
