<svg width="96" height="96" viewBox="0 0 96 96" fill="none" xmlns="http://www.w3.org/2000/svg">
<path d="M48 13C35.3438 13 23.9375 19.7188 17.6875 30.5C11.2812 41.4375 11.2812 54.7188 17.6875 65.5C23.9375 76.4375 35.3438 83 48 83C60.5 83 71.9062 76.4375 78.1562 65.5C84.5625 54.7188 84.5625 41.4375 78.1562 30.5C71.9062 19.7188 60.5 13 48 13ZM48 88C33.625 88 20.5 80.5 13.3125 68C6.125 55.6562 6.125 40.5 13.3125 28C20.5 15.6562 33.625 8 48 8C62.2188 8 75.3438 15.6562 82.5312 28C89.7188 40.5 89.7188 55.6562 82.5312 68C75.3438 80.5 62.2188 88 48 88ZM40.5 63H45.5V48H41.75C40.3438 48 39.25 46.9062 39.25 45.5C39.25 44.25 40.3438 43 41.75 43H48C49.25 43 50.5 44.25 50.5 45.5V63H55.5C56.75 63 58 64.25 58 65.5C58 66.9062 56.75 68 55.5 68H40.5C39.0938 68 38 66.9062 38 65.5C38 64.25 39.0938 63 40.5 63ZM48 36.75C45.8125 36.75 44.25 35.1875 44.25 33C44.25 30.9688 45.8125 29.25 48 29.25C50.0312 29.25 51.75 30.9688 51.75 33C51.75 35.1875 50.0312 36.75 48 36.75Z" fill="#001B41"/>
</svg>
