<svg width="20" height="20" viewBox="0 0 20 20" fill="none" xmlns="http://www.w3.org/2000/svg">
<g clip-path="url(#clip0_7109_2169)">
<path fill-rule="evenodd" clip-rule="evenodd" d="M10.0079 0.555799C4.78122 0.555799 0.555664 4.81247 0.555664 10.078C0.555664 14.2875 3.26289 17.8502 7.019 19.1114C7.48844 19.2064 7.66066 18.9064 7.66066 18.6541C7.66066 18.4336 7.64511 17.6769 7.64511 16.888C5.01566 17.4558 4.46844 15.753 4.46844 15.753C4.04566 14.6497 3.41955 14.3658 3.41955 14.3658C2.559 13.7825 3.48233 13.7825 3.48233 13.7825C4.43677 13.8458 4.93789 14.7597 4.93789 14.7597C5.78289 16.2102 7.14455 15.8002 7.69233 15.548C7.77066 14.933 8.02122 14.5075 8.28733 14.2708C6.19011 14.0502 3.984 13.2302 3.984 9.57246C3.984 8.53191 4.35955 7.6808 4.954 7.01858C4.86011 6.78191 4.53122 5.80469 5.04789 4.4958C5.04789 4.4958 5.84622 4.24358 7.64566 5.47302C8.41622 5.26469 9.21066 5.15858 10.009 5.15746C10.8073 5.15746 11.6207 5.26802 12.3718 5.47302C14.1718 4.24302 14.9696 4.4958 14.9696 4.4958C15.4862 5.80413 15.1573 6.78191 15.0634 7.01858C15.674 7.6808 16.034 8.53191 16.034 9.57246C16.034 13.2302 13.8273 14.0341 11.7146 14.2708C12.059 14.5702 12.3562 15.138 12.3562 16.0364C12.3562 17.3136 12.3407 18.338 12.3407 18.6536C12.3407 18.9058 12.5129 19.2058 12.9823 19.1108C16.7379 17.8491 19.4457 14.2864 19.4457 10.0769C19.4612 4.8108 15.2201 0.554688 10.009 0.554688L10.0079 0.555799Z" fill="#001B41"/>
</g>
<defs>
<clipPath id="clip0_7109_2169">
<rect width="20" height="20" fill="white"/>
</clipPath>
</defs>
</svg>
