<svg width="20" height="20" viewBox="0 0 20 20" fill="none" xmlns="http://www.w3.org/2000/svg">
<path d="M6.44531 16.0469C6.44531 15.9688 6.36719 15.8906 6.25 15.8906C6.13281 15.8906 6.05469 15.9688 6.05469 16.0469C6.05469 16.125 6.13281 16.2031 6.25 16.1641C6.36719 16.1641 6.44531 16.125 6.44531 16.0469ZM5.23438 15.8516C5.27344 15.7734 5.39062 15.7344 5.50781 15.7734C5.625 15.8125 5.66406 15.8906 5.66406 15.9688C5.625 16.0469 5.50781 16.0859 5.42969 16.0469C5.3125 16.0469 5.23438 15.9297 5.23438 15.8516ZM6.99219 15.8125C7.07031 15.7734 7.1875 15.8516 7.1875 15.9297C7.22656 16.0078 7.14844 16.0469 7.03125 16.0859C6.91406 16.125 6.79688 16.0859 6.79688 16.0078C6.79688 15.8906 6.875 15.8125 6.99219 15.8125ZM9.53125 0.8125C14.9609 0.8125 19.375 4.95312 19.375 10.3438C19.375 14.6797 16.7188 18.3906 12.8125 19.6797C12.3047 19.7969 12.1094 19.4844 12.1094 19.2109C12.1094 18.8984 12.1484 17.2578 12.1484 15.9688C12.1484 15.0312 11.8359 14.4453 11.4844 14.1328C13.6719 13.8984 15.9766 13.5859 15.9766 9.83594C15.9766 8.74219 15.5859 8.23438 14.9609 7.53125C15.0391 7.25781 15.3906 6.24219 14.8438 4.875C14.0234 4.60156 12.1484 5.92969 12.1484 5.92969C11.3672 5.69531 10.5469 5.61719 9.6875 5.61719C8.86719 5.61719 8.04688 5.69531 7.26562 5.92969C7.26562 5.92969 5.35156 4.64062 4.57031 4.875C4.02344 6.24219 4.33594 7.25781 4.45312 7.53125C3.82812 8.23438 3.51562 8.74219 3.51562 9.83594C3.51562 13.5859 5.74219 13.8984 7.92969 14.1328C7.61719 14.4062 7.38281 14.8359 7.30469 15.4609C6.71875 15.7344 5.3125 16.1641 4.45312 14.6406C3.90625 13.7031 2.92969 13.625 2.92969 13.625C1.99219 13.625 2.89062 14.25 2.89062 14.25C3.51562 14.5234 3.94531 15.6562 3.94531 15.6562C4.53125 17.4141 7.26562 16.8281 7.26562 16.8281C7.26562 17.6484 7.26562 18.9766 7.26562 19.25C7.26562 19.4844 7.10938 19.7969 6.60156 19.7188C2.69531 18.3906 0 14.6797 0 10.3438C0 4.95312 4.14062 0.8125 9.53125 0.8125ZM3.78906 14.2891C3.82812 14.25 3.90625 14.2891 3.98438 14.3281C4.0625 14.4062 4.0625 14.5234 4.02344 14.5625C3.94531 14.6016 3.86719 14.5625 3.78906 14.5234C3.75 14.4453 3.71094 14.3281 3.78906 14.2891ZM3.35938 13.9766C3.39844 13.9375 3.4375 13.9375 3.51562 13.9766C3.59375 14.0156 3.63281 14.0547 3.63281 14.0938C3.59375 14.1719 3.51562 14.1719 3.4375 14.1328C3.35938 14.0938 3.32031 14.0547 3.35938 13.9766ZM4.60938 15.3828C4.6875 15.3047 4.80469 15.3438 4.88281 15.4219C4.96094 15.5 4.96094 15.6172 4.92188 15.6562C4.88281 15.7344 4.76562 15.6953 4.6875 15.6172C4.57031 15.5391 4.57031 15.4219 4.60938 15.3828ZM4.17969 14.7969C4.25781 14.7578 4.33594 14.7969 4.41406 14.875C4.45312 14.9531 4.45312 15.0703 4.41406 15.1094C4.33594 15.1484 4.25781 15.1094 4.17969 15.0312C4.10156 14.9531 4.10156 14.8359 4.17969 14.7969Z" fill="#001B41"/>
</svg>
