<?xml version="1.0" encoding="UTF-8"?>
<!-- Generated by Pixelmator Pro 3.6.17 -->
<svg width="34" height="32" viewBox="0 0 34 32" xmlns="http://www.w3.org/2000/svg">
    <path id="Path" fill="#3196d6" stroke="none" d="M 27.221802 28.444401 L 6.7773 28.444401 C 4.572 28.444401 2.77734 26.649799 2.77734 24.444401 L 2.77734 7.5555 C 2.77734 5.350201 4.572 3.5555 6.7773 3.5555 L 12.7089 3.5555 C 13.526699 3.5555 14.3276 3.8871 14.9062 4.465801 L 17.5516 7.111099 L 27.221802 7.111099 C 29.427101 7.111099 31.221802 8.9058 31.221802 11.111099 L 31.221802 24.444401 C 31.221802 26.649799 29.427101 28.444401 27.221802 28.444401 Z"/>
    <clipPath id="clipPath1">
        <path d="M 9 10 L 25 10 L 25 26 L 9 26 Z"/>
    </clipPath>
    <g id="Group" clip-path="url(#clipPath1)">
        <path id="path1" fill="#ffffff" stroke="none" d="M 17.686899 20.8249 C 16.776199 20.8249 15.865999 20.478201 15.1731 19.785299 C 14.826 19.4382 14.826 18.875601 15.1731 18.5285 C 15.520201 18.181299 16.082899 18.181299 16.43 18.5285 C 17.1229 19.2213 18.2509 19.2213 18.944201 18.5285 L 21.7722 15.700001 C 22.1082 15.364 22.2931 14.917801 22.2931 14.442699 C 22.2931 13.9676 22.1082 13.521299 21.7722 13.185801 C 21.0793 12.4925 19.9513 12.4925 19.257999 13.185801 L 18.5509 13.8929 C 18.2038 14.24 17.6411 14.24 17.294001 13.8929 C 16.946899 13.545799 16.946899 12.983101 17.294001 12.635599 L 18.001101 11.928499 C 19.3873 10.5422 21.6429 10.5422 23.0291 11.928499 C 23.701099 12.6 24.0709 13.492901 24.0709 14.442699 C 24.0709 15.3925 23.701099 16.285299 23.0291 16.9569 L 20.201099 19.785299 C 19.507799 20.478201 18.597601 20.8249 17.686899 20.8249 Z M 15.958401 24.028 L 16.6656 23.3209 C 17.012699 22.973801 17.012699 22.4111 16.6656 22.063601 C 16.318399 21.7169 15.7558 21.716499 15.408701 22.063601 L 14.701599 22.7707 C 14.007799 23.464001 12.879801 23.464001 12.1873 22.7707 C 11.851299 22.435101 11.666401 21.988501 11.666401 21.5138 C 11.666401 21.039101 11.851299 20.592501 12.1873 20.2565 L 15.015301 17.427999 C 15.709101 16.734699 16.837099 16.7351 17.5296 17.427999 C 17.876699 17.775101 18.439301 17.775101 18.7864 17.427999 C 19.1336 17.0809 19.1336 16.5182 18.7864 16.171101 C 17.4002 14.784901 15.144699 14.785299 13.7584 16.171101 L 10.930401 18.999599 C 10.2584 19.671101 9.8887 20.564501 9.8887 21.5138 C 9.8887 22.4631 10.2584 23.356501 10.930401 24.028 C 11.6238 24.721298 12.5336 25.0676 13.444201 25.0676 C 14.3549 25.0676 15.2656 24.721298 15.958401 24.028 Z"/>
    </g>
</svg>
