<svg width="16" height="16" viewBox="0 0 16 16" fill="none" xmlns="http://www.w3.org/2000/svg">
<g clip-path="url(#clip0_7043_2416)">
<path d="M3.75071 15.3267C3.61071 15.3267 3.47071 15.2831 3.3516 15.1965C3.1276 15.0338 3.02493 14.7542 3.09071 14.4854L4.17604 10.0409L0.68493 7.08269C0.473375 6.90358 0.392486 6.61736 0.477819 6.3538C0.563597 6.09025 0.797375 5.90669 1.07337 5.8858L5.63604 5.54447L7.37071 1.31114C7.4756 1.05469 7.72271 0.888916 8.00004 0.888916C8.27737 0.888916 8.52404 1.05469 8.62938 1.31114L10.364 5.54492L14.9267 5.88625C15.2032 5.90714 15.4365 6.09069 15.5223 6.35425C15.6076 6.6178 15.5267 6.90358 15.3156 7.08269L11.8249 10.0409L12.9103 14.4854C12.9756 14.7547 12.8734 15.0338 12.6494 15.1969C12.4254 15.36 12.1285 15.3707 11.8925 15.2249L8.00093 12.8191L4.10937 15.2249C3.99871 15.2929 3.87515 15.3267 3.7516 15.3267H3.75071ZM1.64893 6.73425L4.84893 9.44625C5.04626 9.61292 5.13115 9.87292 5.07026 10.1254L4.07515 14.2005L7.64271 11.9951C7.86315 11.8587 8.13693 11.8587 8.35782 11.9951L11.9254 14.2L10.9303 10.1258C10.8689 9.87292 10.9543 9.61247 11.152 9.44536L14.3512 6.73425L10.1685 6.42136C9.90982 6.4018 9.68804 6.24092 9.59026 6.00092L8.00004 2.12003L6.40982 6.00092C6.3116 6.24092 6.09026 6.4018 5.8316 6.42136L1.64893 6.73425Z" fill="#001B41"/>
</g>
<defs>
<clipPath id="clip0_7043_2416">
<rect width="16" height="16" fill="white"/>
</clipPath>
</defs>
</svg>
