<svg width="58" height="51" viewBox="0 0 58 51" fill="none" xmlns="http://www.w3.org/2000/svg">
<path d="M56.9379 28.0728C58.354 26.6498 58.354 24.3388 56.9379 22.9158L42.4372 8.34442C41.0211 6.92143 38.7214 6.92143 37.3053 8.34442C35.8893 9.76741 35.8893 12.0783 37.3053 13.5013L45.6206 21.8571L21.7511 21.8571C19.7459 21.8571 18.1259 23.485 18.1259 25.5C18.1259 27.515 19.7459 29.1429 21.7511 29.1429L45.6206 29.1429L37.3053 37.4987C35.8893 38.9216 35.8893 41.2326 37.3053 42.6556C38.7214 44.0786 41.0211 44.0786 42.4372 42.6556L56.9379 28.0842L56.9379 28.0728ZM18.1259 7.28571C20.1311 7.28571 21.7511 5.65781 21.7511 3.64286C21.7511 1.6279 20.1311 -1.6553e-06 18.1259 -1.74295e-06L10.8755 -2.05988e-06C4.87133 -2.32233e-06 -2.13971e-07 4.89509 -4.77703e-07 10.9286L-1.75158e-06 40.0714C-2.01531e-06 46.1049 4.87133 51 10.8755 51L18.1259 51C20.1311 51 21.7511 49.3721 21.7511 47.3571C21.7511 45.3422 20.1311 43.7143 18.1259 43.7143L10.8755 43.7143C8.87036 43.7143 7.25035 42.0864 7.25035 40.0714L7.25035 10.9286C7.25035 8.91361 8.87036 7.28571 10.8755 7.28571L18.1259 7.28571Z" fill="black"/>
</svg>
