<svg width="21" height="24" viewBox="0 0 21 24" fill="none" xmlns="http://www.w3.org/2000/svg">
<path d="M11.2969 0.316406L17.25 6.31641C17.7188 6.78516 17.7188 7.48828 17.25 7.91016C16.8281 8.37891 16.125 8.37891 15.7031 7.91016L11.625 3.83203V15.3633C11.625 16.0195 11.1094 16.4883 10.5 16.4883C9.84375 16.4883 9.375 16.0195 9.375 15.3633L9.32812 3.83203L5.25 7.91016C4.82812 8.37891 4.125 8.37891 3.70312 7.91016C3.23438 7.48828 3.23438 6.78516 3.70312 6.31641L9.70312 0.316406C10.125 -0.105469 10.8281 -0.105469 11.2969 0.316406ZM2.25 16.1133V19.8633C2.25 20.9414 3.04688 21.7383 4.125 21.7383H16.875C17.9062 21.7383 18.75 20.9414 18.75 19.8633V16.1133C18.75 15.5039 19.2188 14.9883 19.875 14.9883C20.4844 14.9883 21 15.5039 21 16.1133V19.8633C21 22.1602 19.125 23.9883 16.875 23.9883H4.125C1.82812 23.9883 0 22.1602 0 19.8633V16.1133C0 15.5039 0.46875 14.9883 1.125 14.9883C1.73438 14.9883 2.25 15.5039 2.25 16.1133Z" fill="#465A75"/>
</svg>
