<svg width="84" height="84" viewBox="0 0 84 84" fill="none" xmlns="http://www.w3.org/2000/svg">
<path d="M73.0091 8.33381C69.8974 5.22206 64.8674 5.22206 61.7557 8.33381L57.4788 12.5965L71.3893 26.507L75.6662 22.2301C78.7779 19.1184 78.7779 14.0884 75.6662 10.9767L73.0091 8.33381ZM30.4961 39.5934C29.6294 40.4601 28.9616 41.5258 28.5779 42.7051L24.3721 55.3226C23.96 56.5446 24.2868 57.8944 25.1962 58.818C26.1056 59.7416 27.4554 60.0542 28.6916 59.6421L41.3091 55.4363C42.4742 55.0526 43.5399 54.3848 44.4208 53.5181L68.1923 29.7324L54.2676 15.8077L30.4961 39.5934ZM19.6405 14.3442C12.1098 14.3442 6 20.454 6 27.9847V64.3595C6 71.8902 12.1098 78 19.6405 78H56.0153C63.546 78 69.6558 71.8902 69.6558 64.3595V50.7189C69.6558 48.204 67.624 46.1721 65.109 46.1721C62.594 46.1721 60.5621 48.204 60.5621 50.7189V64.3595C60.5621 66.8744 58.5303 68.9063 56.0153 68.9063H19.6405C17.1256 68.9063 15.0937 66.8744 15.0937 64.3595V27.9847C15.0937 25.4697 17.1256 23.4379 19.6405 23.4379H33.2811C35.796 23.4379 37.8279 21.406 37.8279 18.891C37.8279 16.376 35.796 14.3442 33.2811 14.3442H19.6405Z" fill="#001B41"/>
</svg>
