<svg version="1.1" xmlns="http://www.w3.org/2000/svg" xmlns:xlink="http://www.w3.org/1999/xlink" width="96px" height="96px" viewBox="0,0,256,256"><g transform="translate(25.6,25.6) scale(0.8,0.8)"><g fill="#f4f7fa" fill-rule="nonzero" stroke="none" stroke-width="1" stroke-linecap="butt" stroke-linejoin="miter" stroke-miterlimit="10" stroke-dasharray="" stroke-dashoffset="0" font-family="none" font-weight="none" font-size="none" text-anchor="none" style="mix-blend-mode: normal"><g transform="translate(-0.0013,0.0013) scale(2.66667,2.66667)"><g id="surface1"><path d="M89.34375,3.11328c-4.14844,-4.15234 -10.85547,-4.15234 -15.00391,0l-5.70312,5.68359l18.55078,18.54688l5.69922,-5.70312c4.15234,-4.14844 4.15234,-10.85547 0,-15.00391zM32.66016,44.79297c-1.15625,1.15234 -2.04297,2.57422 -2.55469,4.14844l-5.60937,16.82031c-0.55078,1.63281 -0.11328,3.42969 1.09766,4.66016c1.21484,1.23438 3.01172,1.64844 4.66016,1.10156l16.82422,-5.60938c1.55469,-0.51172 2.97656,-1.40234 4.14844,-2.55469l31.69531,-31.71484l-18.56641,-18.56641zM18.1875,11.125c-10.04297,0 -18.1875,8.14844 -18.1875,18.1875v48.5c0,10.04297 8.14453,18.1875 18.1875,18.1875h48.5c10.03906,0 18.1875,-8.14453 18.1875,-18.1875v-18.1875c0,-3.35156 -2.71094,-6.0625 -6.0625,-6.0625c-3.35547,0 -6.0625,2.71094 -6.0625,6.0625v18.1875c0,3.35547 -2.71094,6.0625 -6.0625,6.0625h-48.5c-3.35156,0 -6.0625,-2.70703 -6.0625,-6.0625v-48.5c0,-3.35156 2.71094,-6.0625 6.0625,-6.0625h18.1875c3.35156,0 6.0625,-2.70703 6.0625,-6.0625c0,-3.35156 -2.71094,-6.0625 -6.0625,-6.0625zM18.1875,11.125"></path></g></g></g></g></svg>