<svg width="96" height="96" viewBox="0 0 96 96" fill="none" xmlns="http://www.w3.org/2000/svg">
<path d="M76.6172 17.8984C74.8828 16.0195 71.8477 16.0195 70.1133 17.8984L66.2109 21.6562L74.5938 30.0391L78.3516 26.1367C80.2305 24.4023 80.2305 21.3672 78.3516 19.6328L76.6172 17.8984ZM38.3164 49.6953C37.5938 50.2734 37.1602 51.1406 37.0156 51.8633L34.8477 61.4023L44.3867 59.2344C45.1094 59.0898 45.9766 58.6562 46.5547 57.9336L71.2695 33.2188L63.0312 24.9805L38.3164 49.6953ZM66.7891 14.5742C70.4023 10.9609 76.3281 10.9609 79.9414 14.5742L81.6758 16.3086C85.2891 19.9219 85.2891 25.8477 81.6758 29.4609L49.8789 61.2578C48.5781 62.5586 46.9883 63.4258 45.3984 63.7148L32.2461 66.75C31.5234 66.8945 30.6562 66.75 30.0781 66.1719C29.5 65.5938 29.3555 64.7266 29.5 64.0039L32.5352 50.8516C32.9688 49.2617 33.6914 47.6719 34.9922 46.3711L66.7891 14.5742ZM22.5625 20.5H41.0625C42.2188 20.5 43.375 21.6562 43.375 22.8125C43.375 24.1133 42.2188 25.125 41.0625 25.125H22.5625C18.6602 25.125 15.625 28.3047 15.625 32.0625V73.6875C15.625 77.5898 18.6602 80.625 22.5625 80.625H64.1875C67.9453 80.625 71.125 77.5898 71.125 73.6875V55.1875C71.125 54.0312 72.1367 52.875 73.4375 52.875C74.5938 52.875 75.75 54.0312 75.75 55.1875V73.6875C75.75 80.1914 70.5469 85.25 64.1875 85.25H22.5625C16.0586 85.25 11 80.1914 11 73.6875V32.0625C11 25.7031 16.0586 20.5 22.5625 20.5Z" fill="#001B41"/>
</svg>
