<svg width="16" height="16" viewBox="0 0 16 16" fill="none" xmlns="http://www.w3.org/2000/svg">
<g clip-path="url(#clip0_7092_35129)">
<path d="M13.6394 13.0111C14.7706 12.4787 15.5554 11.3333 15.5554 10C15.5554 8.54579 14.6226 7.31202 13.3234 6.85691C13.3274 6.79379 13.3332 6.73068 13.3332 6.66668C13.3332 4.94846 11.9403 3.55557 10.2221 3.55557C9.84167 3.55557 9.479 3.62713 9.14211 3.75202C8.49989 2.82802 7.43234 2.22224 6.22211 2.22224C5.287 2.22224 4.43856 2.58535 3.80478 3.17646L1.64745 1.01913C1.47367 0.845349 1.19278 0.845349 1.019 1.01913C0.845225 1.19291 0.845225 1.47379 1.019 1.64757L14.3523 14.9809C14.439 15.0676 14.5528 15.1111 14.6666 15.1111C14.7803 15.1111 14.8941 15.0676 14.9808 14.9809C15.1546 14.8071 15.1546 14.5262 14.9808 14.3525L13.6394 13.0111ZM4.43722 3.80891C4.911 3.37824 5.53545 3.11113 6.22211 3.11113C7.09367 3.11113 7.91234 3.54046 8.41234 4.25957C8.58211 4.50402 8.85767 4.64135 9.14256 4.64135C9.24567 4.64135 9.35011 4.62313 9.45145 4.58579C9.70389 4.49202 9.96345 4.44491 10.2226 4.44491C11.4479 4.44491 12.4448 5.44179 12.4448 6.66713C12.4448 6.69468 12.4421 6.72179 12.4403 6.74891L12.4368 6.80357C12.4128 7.20002 12.655 7.56446 13.0301 7.69602C14.0092 8.03913 14.667 8.96535 14.667 10.0005C14.667 11.0916 13.9483 12.0178 12.9594 12.3311L4.43722 3.80891ZM10.559 12.4445L11.4479 13.3333H4.44434C2.235 13.3333 0.444336 11.5427 0.444336 9.33335C0.444336 7.76313 1.35145 6.40802 2.66789 5.75335C2.67056 5.39202 2.72745 5.04357 2.83011 4.71513L3.57678 5.46179C3.56522 5.55957 3.55767 5.65868 3.55678 5.75913C3.55456 6.09424 3.36389 6.39957 3.06389 6.5489C1.99678 7.07957 1.33367 8.14624 1.33367 9.33291C1.33367 11.0485 2.72922 12.444 4.44478 12.444H10.5594L10.559 12.4445Z" fill="#001B41"/>
</g>
<defs>
<clipPath id="clip0_7092_35129">
<rect width="16" height="16" fill="white"/>
</clipPath>
</defs>
</svg>
