<svg width="96" height="96" viewBox="0 0 96 96" fill="none" xmlns="http://www.w3.org/2000/svg">
<path d="M48 29.75C48 24.8359 45.2539 20.3555 41.0625 17.7539C36.7266 15.2969 31.3789 15.2969 27.1875 17.7539C22.8516 20.3555 20.25 24.8359 20.25 29.75C20.25 34.8086 22.8516 39.2891 27.1875 41.8906C31.3789 44.3477 36.7266 44.3477 41.0625 41.8906C45.2539 39.2891 48 34.8086 48 29.75ZM15.625 29.75C15.625 23.2461 19.0938 17.1758 24.875 13.8516C30.5117 10.5273 37.5938 10.5273 43.375 13.8516C49.0117 17.1758 52.625 23.2461 52.625 29.75C52.625 36.3984 49.0117 42.4688 43.375 45.793C37.5938 49.1172 30.5117 49.1172 24.875 45.793C19.0938 42.4688 15.625 36.3984 15.625 29.75ZM6.375 80.625H48.2891L48.1445 81.2031C47.7109 82.6484 47.8555 84.0938 48.2891 85.25H5.94141C3.62891 85.25 1.75 83.3711 1.75 81.0586C1.75 66.75 13.168 55.1875 27.4766 55.1875H40.6289C46.9883 55.1875 52.9141 57.6445 57.3945 61.4023L54.0703 64.7266C50.457 61.6914 45.832 59.8125 40.6289 59.8125H27.4766C15.9141 59.8125 6.51953 69.207 6.375 80.625ZM85.8672 49.4062C85 48.5391 83.5547 48.5391 82.6875 49.4062L79.0742 53.0195L84.8555 58.8008L88.4688 55.1875C89.3359 54.3203 89.3359 52.875 88.4688 52.0078L85.8672 49.4062ZM60.4297 71.6641C60.1406 71.9531 59.9961 72.3867 59.8516 72.8203L58.1172 79.9023L65.1992 78.0234C65.4883 78.0234 65.9219 77.7344 66.2109 77.4453L81.5312 62.125L75.75 56.3438L60.4297 71.6641ZM79.3633 46.2266C82.1094 43.4805 86.4453 43.4805 89.1914 46.2266L91.6484 48.6836C94.3945 51.4297 94.3945 55.7656 91.6484 58.5117L69.5352 80.7695C68.5234 81.6367 67.5117 82.2148 66.2109 82.5039L55.3711 85.25C54.6484 85.3945 53.7812 85.25 53.2031 84.6719C52.625 84.0938 52.4805 83.2266 52.625 82.5039L55.3711 71.6641C55.6602 70.3633 56.2383 69.3516 57.1055 68.3398L79.3633 46.2266Z" fill="#001B41"/>
</svg>
