<svg width="12" height="12" viewBox="0 0 12 12" fill="none" xmlns="http://www.w3.org/2000/svg">
<circle cx="6" cy="6" r="5.5" fill="#095BB1" stroke="white"/>
<path d="M7.95796 6.40321C7.82779 6.27304 7.61679 6.27304 7.48663 6.40321L6.36112 7.52871V3.66671C6.36112 3.48271 6.21179 3.33337 6.02779 3.33337C5.84379 3.33337 5.69446 3.48271 5.69446 3.66671V7.52871L4.56896 6.40321C4.43879 6.27304 4.22779 6.27304 4.09763 6.40321C3.96746 6.53337 3.96746 6.74454 4.09763 6.87471L5.79213 8.56921C5.85729 8.63421 5.94246 8.66687 6.02779 8.66687C6.11313 8.66687 6.19829 8.63437 6.26346 8.56921L7.95796 6.87471C8.08813 6.74454 8.08813 6.53354 7.95796 6.40321Z" fill="white"/>
</svg>
