<svg width="84" height="84" viewBox="0 0 84 84" fill="none" xmlns="http://www.w3.org/2000/svg">
<path d="M32.3571 7.42857L29.7857 11.2857H54.0536L51.4821 7.42857C51 6.625 50.1964 6.14286 49.3929 6.14286H34.4464C33.6429 6.14286 32.8393 6.625 32.3571 7.42857ZM55.9821 4.69643L60 11.2857H75.4286C76.7143 11.2857 78 12.5714 78 13.8571C78 15.3036 76.7143 16.4286 75.4286 16.4286H72.8571V70.4286C72.8571 77.6607 67.0714 83.2857 60 83.2857H24C16.7679 83.2857 11.1429 77.6607 11.1429 70.4286V16.4286H8.57143C7.125 16.4286 6 15.3036 6 13.8571C6 12.5714 7.125 11.2857 8.57143 11.2857H23.8393L28.0179 4.69643C29.3036 2.44643 31.875 1 34.4464 1H49.3929C51.9643 1 54.5357 2.44643 55.8214 4.69643H55.9821ZM16.2857 16.4286V70.4286C16.2857 74.7679 19.6607 78.1429 24 78.1429H60C64.1786 78.1429 67.7143 74.7679 67.7143 70.4286V16.4286H16.2857ZM29.1429 29.2857V65.2857C29.1429 66.7321 27.8571 67.8571 26.5714 67.8571C25.125 67.8571 24 66.7321 24 65.2857V29.2857C24 28 25.125 26.7143 26.5714 26.7143C27.8571 26.7143 29.1429 28 29.1429 29.2857ZM44.5714 29.2857V65.2857C44.5714 66.7321 43.2857 67.8571 42 67.8571C40.5536 67.8571 39.4286 66.7321 39.4286 65.2857V29.2857C39.4286 28 40.5536 26.7143 42 26.7143C43.2857 26.7143 44.5714 28 44.5714 29.2857ZM60 29.2857V65.2857C60 66.7321 58.7143 67.8571 57.4286 67.8571C55.9821 67.8571 54.8571 66.7321 54.8571 65.2857V29.2857C54.8571 28 55.9821 26.7143 57.4286 26.7143C58.7143 26.7143 60 28 60 29.2857Z" fill="#001B41"/>
</svg>
