<svg width="48" height="48" viewBox="0 0 48 48" fill="none" xmlns="http://www.w3.org/2000/svg">
<g clip-path="url(#clip0_7292_26850)">
<path d="M30.6665 16.6667C30.6665 17.772 31.5625 18.6667 32.6665 18.6667H44.6665C45.7705 18.6667 46.6665 17.772 46.6665 16.6667V3.33337C46.6665 2.22804 45.7705 1.33337 44.6665 1.33337C43.5625 1.33337 42.6665 2.22804 42.6665 3.33337V9.43604C38.4252 4.42137 32.1052 1.33337 25.3332 1.33337C12.8345 1.33337 2.6665 11.5014 2.6665 24C2.6665 36.4987 12.8345 46.6667 25.3332 46.6667C34.6918 46.6667 43.2092 40.7894 46.5305 32.044C46.9225 31.0107 46.4025 29.856 45.3705 29.464C44.3452 29.0747 43.1838 29.5907 42.7905 30.624C40.0545 37.828 33.0398 42.668 25.3318 42.668C15.0385 42.668 6.66517 34.2947 6.66517 24.0014C6.66517 13.708 15.0398 5.33337 25.3332 5.33337C32.0265 5.33337 38.1945 8.98671 41.4945 14.6667H32.6665C31.5625 14.6667 30.6665 15.5614 30.6665 16.6667Z" fill="white"/>
<path d="M20.0039 28V21.0332H19.8984L17.7949 22.5156V21.0977L20.0039 19.5449H21.5098V28H20.0039ZM26.959 28.2109C26.2871 28.2109 25.7109 28.0312 25.2305 27.6719C24.7539 27.3125 24.3867 26.8008 24.1289 26.1367C23.8711 25.4727 23.7422 24.6855 23.7422 23.7754V23.7637C23.7422 22.8535 23.8711 22.0684 24.1289 21.4082C24.3867 20.7441 24.7539 20.2324 25.2305 19.873C25.7109 19.5137 26.2871 19.334 26.959 19.334C27.6309 19.334 28.207 19.5137 28.6875 19.873C29.168 20.2324 29.5371 20.7441 29.7949 21.4082C30.0527 22.0684 30.1816 22.8535 30.1816 23.7637V23.7754C30.1816 24.6855 30.0527 25.4727 29.7949 26.1367C29.5371 26.8008 29.168 27.3125 28.6875 27.6719C28.207 28.0312 27.6309 28.2109 26.959 28.2109ZM26.959 26.9863C27.3184 26.9863 27.625 26.8574 27.8789 26.5996C28.1328 26.3418 28.3262 25.9746 28.459 25.498C28.5957 25.0176 28.6641 24.4434 28.6641 23.7754V23.7637C28.6641 23.0957 28.5957 22.5234 28.459 22.0469C28.3262 21.5664 28.1328 21.1992 27.8789 20.9453C27.625 20.6875 27.3184 20.5586 26.959 20.5586C26.5996 20.5586 26.293 20.6875 26.0391 20.9453C25.7891 21.1992 25.5957 21.5664 25.459 22.0469C25.3262 22.5234 25.2598 23.0957 25.2598 23.7637V23.7754C25.2598 24.4434 25.3262 25.0176 25.459 25.498C25.5957 25.9746 25.7891 26.3418 26.0391 26.5996C26.293 26.8574 26.5996 26.9863 26.959 26.9863Z" fill="white"/>
</g>
<defs>
<clipPath id="clip0_7292_26850">
<rect width="48" height="48" fill="white"/>
</clipPath>
</defs>
</svg>
