<svg width="48" height="48" viewBox="0 0 48 48" fill="none" xmlns="http://www.w3.org/2000/svg">
<path d="M34.2218 36.4444H13.7773C11.572 36.4444 9.77734 34.6498 9.77734 32.4444V15.5555C9.77734 13.3502 11.572 11.5555 13.7773 11.5555H19.7089C20.5267 11.5555 21.3276 11.8871 21.9062 12.4658L24.5516 15.1111H34.2218C36.4271 15.1111 38.2218 16.9058 38.2218 19.1111V32.4444C38.2218 34.6498 36.4271 36.4444 34.2218 36.4444Z" fill="#1474C4"/>
<path d="M21.7776 20.1111C21.7776 21.0929 20.9816 21.8889 19.9998 21.8889C19.018 21.8889 18.222 21.0929 18.222 20.1111C18.222 19.1293 19.018 18.3333 19.9998 18.3333C20.9816 18.3333 21.7776 19.1293 21.7776 20.1111ZM21.9776 25.5818C21.3122 25.0106 20.8887 24.1658 20.8887 23.2222C20.8887 22.9995 20.9131 22.7826 20.958 22.5733C20.8633 22.5653 20.77 22.5555 20.6664 22.5555H19.3331C16.8887 22.5555 16.8936 24.8804 16.8891 26.1049C16.8891 26.1071 16.8887 26.1093 16.8887 26.1111V26.3333C16.8887 26.5786 17.0878 26.7778 17.3331 26.7778H20.0993C20.5202 26.2302 21.1184 25.7893 21.9776 25.5818ZM27.9998 18.3333C27.018 18.3333 26.222 19.1293 26.222 20.1111C26.222 21.0929 27.018 21.8889 27.9998 21.8889C28.9816 21.8889 29.7776 21.0929 29.7776 20.1111C29.7776 19.1293 28.9816 18.3333 27.9998 18.3333ZM28.6664 22.5555H27.3331C27.2296 22.5555 27.1367 22.5653 27.042 22.5733C27.0864 22.7826 27.1113 22.9995 27.1113 23.2222C27.1113 24.1658 26.6878 25.0106 26.0224 25.5813C26.8829 25.7889 27.4816 26.2298 27.9029 26.7778H30.6664C30.9118 26.7778 31.1109 26.5786 31.1109 26.3333V26.1111C31.1109 24.884 31.1109 22.5555 28.6664 22.5555ZM24.8571 26.3333H23.1429C20.0002 26.3333 20.006 29.2698 20.0007 30.8164C20.0007 30.8191 19.9998 30.8222 19.9998 30.8244V31.1053C19.9998 31.4155 20.2558 31.6666 20.5713 31.6666H27.4287C27.7442 31.6666 28.0002 31.4151 28.0002 31.1053V30.8244C28.0002 29.2742 27.9998 26.3333 24.8571 26.3333ZM23.9998 21C22.7727 21 21.7776 21.9951 21.7776 23.2222C21.7776 24.4493 22.7727 25.4444 23.9998 25.4444C25.2269 25.4444 26.222 24.4493 26.222 23.2222C26.222 21.9951 25.2269 21 23.9998 21Z" fill="white"/>
<path d="M29.9756 28.1849L29.9755 28.185L29.193 28.9677C29.1732 28.7741 29.0892 28.5858 28.9408 28.4375C28.7691 28.2658 28.5769 28.1268 28.372 28.0207C28.5341 27.9874 28.6887 27.9078 28.8146 27.782L29.1936 27.403C29.4091 27.1875 29.7604 27.1876 29.9755 27.4029L29.9757 27.4032C30.0807 27.5079 30.1376 27.6453 30.1376 27.7938C30.1376 27.9424 30.0807 28.0798 29.9756 28.1849ZM27.575 26.5425C27.2345 26.8835 27.2328 27.4351 27.571 27.7778C26.8971 27.7018 26.196 27.9218 25.6801 28.4374L25.6801 28.4375L24.1643 29.9535C24.1643 29.9535 24.1643 29.9535 24.1642 29.9536C23.729 30.3886 23.4887 30.9692 23.4887 31.584C23.4887 32.1989 23.729 32.7795 24.1642 33.2145C24.6142 33.6645 25.205 33.8889 25.7945 33.8889C26.3839 33.8889 26.9753 33.6645 27.4251 33.2145L27.804 32.8355C28.145 32.4945 28.1461 31.9428 27.8082 31.6001C27.8948 31.6099 27.9817 31.6148 28.0686 31.6148C28.6582 31.6148 29.2492 31.3901 29.699 30.9405L29.6991 30.9404L31.2149 29.4244C31.2149 29.4244 31.2149 29.4244 31.215 29.4243C31.6502 28.9893 31.8905 28.409 31.8905 27.7938C31.8905 27.1787 31.6502 26.5983 31.2149 26.1633C30.3156 25.2641 28.8534 25.2641 27.9542 26.1633L27.5752 26.5424L27.575 26.5425ZM26.5646 31.5959L26.1857 31.9748C25.9699 32.1905 25.6186 32.1901 25.4038 31.9751L25.4034 31.9747C25.2986 31.87 25.2416 31.7324 25.2416 31.584C25.2416 31.4357 25.2986 31.298 25.4036 31.1929L25.4037 31.1929L26.1862 30.4102C26.206 30.6038 26.29 30.7921 26.4384 30.9404C26.6101 31.1121 26.8024 31.2511 27.0074 31.3572C26.8452 31.3904 26.6906 31.4699 26.5646 31.5959ZM27.4356 29.5295C27.5332 29.552 27.6257 29.6011 27.7013 29.6768L27.7014 29.6769C27.7739 29.7493 27.8558 29.8064 27.9432 29.8482C27.8458 29.8257 27.7534 29.7766 27.6778 29.701C27.6052 29.6285 27.5231 29.5713 27.4356 29.5295Z" fill="white" stroke="#1474C4" stroke-width="0.8"/>
</svg>
