<?xml version="1.0" encoding="UTF-8"?>
<svg width="24px" height="24px" viewBox="0 0 24 24" version="1.1" xmlns="http://www.w3.org/2000/svg" xmlns:xlink="http://www.w3.org/1999/xlink">
    <title>01_24px/icon/user_file/contacts/default</title>
    <g id="icon/user_file/contacts/default" stroke="none" stroke-width="1" fill="none" fill-rule="evenodd">
        <path d="M18,1.49999996 C19.5910715,1.49999996 20.9031887,2.75529333 20.994882,4.32441003 L21,4.49999996 L21,19.5 C21,21.0910715 19.7447067,22.4031887 18.1755899,22.494882 L18,22.5 L2.99999996,22.5 L2.99999996,1.49999996 L18,1.49999996 Z M18,2.99999996 L4.49999997,2.99999996 L4.49999997,21 L18,21 C18.8,21 19.4228373,20.4242215 19.4933442,19.6478323 L19.5,19.5 L19.5,4.49999996 C19.5,3.69999997 18.9242215,3.07716259 18.1478323,3.00665577 L18,2.99999996 Z M14,13.4 C14.75,13.4 15.3681641,13.9273438 15.5661011,14.6524414 L15.6,14.8 L15.75,15.5 L8.24999998,15.5 L8.34999998,14.8 C8.49062499,14.05 9.11464843,13.5197266 9.85128173,13.4563721 L9.99999999,13.45 L10.85,13.45 L12,14.6 L13.2,13.4 L14,13.4 Z M12,7.99999998 C13.15,7.99999998 14.1,8.84999999 14.1,10.1 C14.1,11.35 13.2,12.6 12,12.6 C10.8,12.6 9.89999999,11.35 9.89999999,10.1 C9.89999999,8.84999999 10.85,7.99999998 12,7.99999998 Z" id="Shape" fill="#000000"></path>
    </g>
</svg>