<svg width="16" height="16" viewBox="0 0 16 16" fill="none" xmlns="http://www.w3.org/2000/svg">
<path d="M8.76302 15.1111H7.26524C6.71013 15.1111 6.23635 14.696 6.16302 14.1462L6.00169 12.9346C5.55057 12.7511 5.13057 12.5084 4.74657 12.2106L3.61724 12.676C3.10257 12.8875 2.50702 12.6844 2.23013 12.204L1.48124 10.9071C1.20391 10.4262 1.32657 9.80843 1.76613 9.47021L2.7328 8.72621C2.69857 8.48132 2.68124 8.2382 2.68124 8.00043C2.68124 7.76265 2.69857 7.51954 2.7328 7.27465L1.76613 6.53065C1.32613 6.19154 1.20391 5.57421 1.48124 5.09287L2.23013 3.79554C2.50791 3.31465 3.10391 3.11154 3.61724 3.32354L4.74657 3.78887C5.13013 3.49109 5.55057 3.24843 6.00169 3.06487L6.16302 1.85332C6.23635 1.30309 6.71013 0.888428 7.26524 0.888428H8.76302C9.31813 0.888428 9.79191 1.30354 9.86524 1.85332L10.0266 3.06487C10.4777 3.24843 10.8977 3.49109 11.2817 3.78887L12.411 3.32354C12.9248 3.11065 13.5208 3.31465 13.7981 3.79554L14.5475 5.09243C14.8248 5.57376 14.7021 6.19109 14.2626 6.52976L13.2959 7.27376C13.3301 7.51865 13.3475 7.76176 13.3475 7.99954C13.3475 8.23732 13.3301 8.48043 13.2959 8.72532L14.2626 9.46932C14.7021 9.80798 14.8244 10.4258 14.5475 10.9062L13.7986 12.2035C13.5208 12.6844 12.9252 12.8875 12.4115 12.6755L11.2821 12.2102C10.8986 12.508 10.4781 12.7506 10.027 12.9342L9.86569 14.1458C9.79235 14.696 9.31857 15.1106 8.76346 15.1106L8.76302 15.1111ZM4.82257 11.2538C4.92746 11.2538 5.03102 11.2906 5.11324 11.3618C5.53769 11.728 6.02169 12.008 6.55324 12.1929C6.71146 12.248 6.82524 12.3875 6.84746 12.5538L7.04391 14.028C7.05857 14.1386 7.15369 14.2218 7.26524 14.2218H8.76302C8.87413 14.2218 8.96924 14.1382 8.98435 14.028L9.1808 12.5538C9.20302 12.3875 9.3168 12.248 9.47502 12.1929C10.0061 12.0075 10.4906 11.728 10.915 11.3618C11.0421 11.2515 11.2204 11.2231 11.375 11.2875L12.7501 11.8542C12.8537 11.8969 12.9728 11.856 13.0284 11.7595L13.7772 10.4626C13.8328 10.3662 13.8084 10.2422 13.7199 10.1746L12.543 9.26843C12.4106 9.1662 12.3466 8.99776 12.3777 8.83332C12.4315 8.55065 12.4586 8.2702 12.4586 8.00043C12.4586 7.73065 12.4315 7.45021 12.3777 7.16754C12.3466 7.00309 12.4106 6.83465 12.543 6.73243L13.7199 5.82621C13.8084 5.75821 13.8328 5.63421 13.7772 5.53776L13.0284 4.24087C12.9728 4.14487 12.8532 4.10443 12.7501 4.14621L11.375 4.71287C11.2204 4.77732 11.0421 4.74798 10.915 4.63865C10.4906 4.27243 10.0066 3.99243 9.47502 3.80754C9.3168 3.75243 9.20302 3.61287 9.1808 3.44665L8.98435 1.97243C8.96969 1.86176 8.87457 1.77865 8.76302 1.77865H7.26524C7.15413 1.77865 7.05902 1.86221 7.04391 1.97243L6.84746 3.44665C6.82524 3.61287 6.71146 3.75243 6.55324 3.80754C6.02213 3.99287 5.53769 4.27243 5.11324 4.63865C4.98569 4.74843 4.80746 4.77687 4.65324 4.71287L3.27813 4.14621C3.17635 4.10443 3.05546 4.14487 2.99991 4.24087L2.25102 5.53776C2.19546 5.63421 2.21991 5.75821 2.30835 5.82621L3.48524 6.73243C3.61768 6.83465 3.68169 7.00309 3.65057 7.16754C3.5968 7.45021 3.56968 7.73065 3.56968 8.00043C3.56968 8.2702 3.5968 8.55065 3.65057 8.83332C3.68169 8.99776 3.61768 9.1662 3.48524 9.26843L2.30835 10.1746C2.21991 10.2426 2.19546 10.3666 2.25102 10.4631L2.99991 11.76C3.05546 11.8564 3.17546 11.8978 3.27813 11.8546L4.65324 11.288C4.70791 11.2653 4.76568 11.2542 4.82257 11.2542V11.2538ZM8.01413 10.6666C6.54346 10.6666 5.34746 9.47065 5.34746 7.99998C5.34746 6.52932 6.54346 5.33332 8.01413 5.33332C9.4848 5.33332 10.6808 6.52932 10.6808 7.99998C10.6808 9.47065 9.4848 10.6666 8.01413 10.6666ZM8.01413 6.22221C7.03369 6.22221 6.23635 7.01954 6.23635 7.99998C6.23635 8.98043 7.03369 9.77776 8.01413 9.77776C8.99457 9.77776 9.79191 8.98043 9.79191 7.99998C9.79191 7.01954 8.99457 6.22221 8.01413 6.22221Z" fill="#001B41"/>
</svg>
