<svg width="21" height="24" viewBox="0 0 21 24" fill="none" xmlns="http://www.w3.org/2000/svg">
<path d="M18 15.75C18.375 15.75 18.75 15.4219 18.75 15V5.4375L15.5625 2.25H9C8.57812 2.25 8.25 2.625 8.25 3V15C8.25 15.4219 8.57812 15.75 9 15.75H18ZM9 18C7.3125 18 6 16.6875 6 15V3C6 1.35938 7.3125 0 9 0H15.5625C16.125 0 16.7344 0.28125 17.1562 0.703125L20.2969 3.84375C20.7188 4.26562 21 4.875 21 5.4375V15C21 16.6875 19.6406 18 18 18H9ZM3 6H4.5V8.25H3C2.57812 8.25 2.25 8.625 2.25 9V21C2.25 21.4219 2.57812 21.75 3 21.75H12C12.375 21.75 12.75 21.4219 12.75 21V19.5H15V21C15 22.6875 13.6406 24 12 24H3C1.3125 24 0 22.6875 0 21V9C0 7.35938 1.3125 6 3 6Z" fill="#465A75"/>
</svg>
