<svg width="32" height="32" viewBox="0 0 84 84" fill="none" xmlns="http://www.w3.org/2000/svg"><path d="M22.2 13C25.35 13 28.275 14.7877 29.9625 17.4692C31.5375 20.2624 31.5375 23.726 29.9625 26.4075C28.275 29.2008 25.35 30.8767 22.2 30.8767C18.9375 30.8767 16.0125 29.2008 14.325 26.4075C12.75 23.726 12.75 20.2624 14.325 17.4692C16.0125 14.7877 18.9375 13 22.2 13ZM63.6 13C66.75 13 69.675 14.7877 71.3625 17.4692C72.9375 20.2624 72.9375 23.726 71.3625 26.4075C69.675 29.2008 66.75 30.8767 63.6 30.8767C60.3375 30.8767 57.4125 29.2008 55.725 26.4075C54.15 23.726 54.15 20.2624 55.725 17.4692C57.4125 14.7877 60.3375 13 63.6 13ZM6 46.4071C6 39.8151 11.2875 34.4521 17.925 34.4521H22.7625C24.5625 34.4521 26.25 34.899 27.825 35.5694C27.6 36.3515 27.6 37.2453 27.6 38.0274C27.6 42.3848 29.4 46.1836 32.4375 48.7534C32.4375 48.7534 32.4375 48.7534 32.325 48.7534H8.3625C7.0125 48.7534 6 47.7479 6 46.4071ZM51.5625 48.7534H51.45C54.4875 46.1836 56.2875 42.3848 56.2875 38.0274C56.2875 37.2453 56.2875 36.3515 56.175 35.5694C57.6375 34.899 59.325 34.4521 61.125 34.4521H65.9625C72.6 34.4521 78 39.8151 78 46.4071C78 47.7479 76.875 48.7534 75.525 48.7534H51.5625ZM31.2 38.0274C31.2 34.2286 33.225 30.765 36.6 28.7539C39.8625 26.8545 44.025 26.8545 47.4 28.7539C50.6625 30.765 52.8 34.2286 52.8 38.0274C52.8 41.9379 50.6625 45.4015 47.4 47.4127C44.025 49.3121 39.8625 49.3121 36.6 47.4127C33.225 45.4015 31.2 41.9379 31.2 38.0274ZM20.4 67.3005C20.4 59.0325 27.0375 52.3288 35.3625 52.3288H48.525C56.85 52.3288 63.6 59.0325 63.6 67.3005C63.6 68.8647 62.25 70.2055 60.5625 70.2055H23.325C21.75 70.2055 20.4 68.9765 20.4 67.3005Z" fill="#707070" /></svg>