<?xml version="1.0" encoding="UTF-8"?>
<svg xmlns="http://www.w3.org/2000/svg" xmlns:xlink="http://www.w3.org/1999/xlink" width="30px" height="30px" viewBox="0 0 30 23" version="1.1">
<g id="surface1">
<path style=" stroke:none;fill-rule:nonzero;fill:rgb(43.921569%,43.921569%,43.921569%);fill-opacity:1;" d="M 6.730469 0 C 8.039062 0 9.253906 0.71875 9.953125 1.796875 C 10.609375 2.917969 10.609375 4.3125 9.953125 5.390625 C 9.253906 6.511719 8.039062 7.1875 6.730469 7.1875 C 5.375 7.1875 4.160156 6.511719 3.457031 5.390625 C 2.804688 4.3125 2.804688 2.917969 3.457031 1.796875 C 4.160156 0.71875 5.375 0 6.730469 0 Z M 23.925781 0 C 25.234375 0 26.449219 0.71875 27.152344 1.796875 C 27.804688 2.917969 27.804688 4.3125 27.152344 5.390625 C 26.449219 6.511719 25.234375 7.1875 23.925781 7.1875 C 22.570312 7.1875 21.355469 6.511719 20.65625 5.390625 C 20 4.3125 20 2.917969 20.65625 1.796875 C 21.355469 0.71875 22.570312 0 23.925781 0 Z M 0 13.433594 C 0 10.78125 2.195312 8.625 4.953125 8.625 L 6.964844 8.625 C 7.710938 8.625 8.410156 8.804688 9.066406 9.074219 C 8.972656 9.386719 8.972656 9.746094 8.972656 10.0625 C 8.972656 11.816406 9.71875 13.339844 10.980469 14.375 C 10.980469 14.375 10.980469 14.375 10.933594 14.375 L 0.980469 14.375 C 0.421875 14.375 0 13.972656 0 13.433594 Z M 18.925781 14.375 L 18.878906 14.375 C 20.140625 13.339844 20.890625 11.816406 20.890625 10.0625 C 20.890625 9.746094 20.890625 9.386719 20.84375 9.074219 C 21.449219 8.804688 22.152344 8.625 22.898438 8.625 L 24.90625 8.625 C 27.664062 8.625 29.90625 10.78125 29.90625 13.433594 C 29.90625 13.972656 29.441406 14.375 28.878906 14.375 Z M 10.46875 10.0625 C 10.46875 8.535156 11.308594 7.144531 12.710938 6.332031 C 14.066406 5.570312 15.796875 5.570312 17.195312 6.332031 C 18.550781 7.144531 19.441406 8.535156 19.441406 10.0625 C 19.441406 11.636719 18.550781 13.027344 17.195312 13.835938 C 15.796875 14.597656 14.066406 14.597656 12.710938 13.835938 C 11.308594 13.027344 10.46875 11.636719 10.46875 10.0625 Z M 5.980469 21.832031 C 5.980469 18.507812 8.738281 15.8125 12.195312 15.8125 L 17.664062 15.8125 C 21.121094 15.8125 23.925781 18.507812 23.925781 21.832031 C 23.925781 22.460938 23.367188 23 22.664062 23 L 7.195312 23 C 6.542969 23 5.980469 22.503906 5.980469 21.832031 Z M 5.980469 21.832031 "/>
</g>
</svg>
