<svg width="27" height="21" viewBox="0 0 27 21" fill="none" xmlns="http://www.w3.org/2000/svg">
<path d="M5.90625 0C7.05469 0 8.12109 0.65625 8.73633 1.64062C9.31055 2.66602 9.31055 3.9375 8.73633 4.92188C8.12109 5.94727 7.05469 6.5625 5.90625 6.5625C4.7168 6.5625 3.65039 5.94727 3.03516 4.92188C2.46094 3.9375 2.46094 2.66602 3.03516 1.64062C3.65039 0.65625 4.7168 0 5.90625 0ZM21 0C22.1484 0 23.2148 0.65625 23.8301 1.64062C24.4043 2.66602 24.4043 3.9375 23.8301 4.92188C23.2148 5.94727 22.1484 6.5625 21 6.5625C19.8105 6.5625 18.7441 5.94727 18.1289 4.92188C17.5547 3.9375 17.5547 2.66602 18.1289 1.64062C18.7441 0.65625 19.8105 0 21 0ZM0 12.2637C0 9.84375 1.92773 7.875 4.34766 7.875H6.11133C6.76758 7.875 7.38281 8.03906 7.95703 8.28516C7.875 8.57227 7.875 8.90039 7.875 9.1875C7.875 10.7871 8.53125 12.1816 9.63867 13.125C9.63867 13.125 9.63867 13.125 9.59766 13.125H0.861328C0.369141 13.125 0 12.7559 0 12.2637ZM16.5703 13.125C17.6777 12.1816 18.334 10.7871 18.334 9.1875C18.334 8.90039 18.334 8.57227 18.293 8.28516C18.8262 8.03906 19.4414 7.875 20.0977 7.875H21.8613C24.2812 7.875 26.25 9.84375 26.25 12.2637C26.25 12.7559 25.8398 13.125 25.3477 13.125H16.5703ZM9.1875 9.1875C9.1875 7.79297 9.92578 6.52148 11.1562 5.7832C12.3457 5.08594 13.8633 5.08594 15.0937 5.7832C16.2832 6.52148 17.0625 7.79297 17.0625 9.1875C17.0625 10.623 16.2832 11.8945 15.0937 12.6328C13.8633 13.3301 12.3457 13.3301 11.1562 12.6328C9.92578 11.8945 9.1875 10.623 9.1875 9.1875ZM5.25 19.9336C5.25 16.8984 7.66992 14.4375 10.7051 14.4375H15.5039C18.5391 14.4375 21 16.8984 21 19.9336C21 20.5078 20.5078 21 19.8926 21H6.31641C5.74219 21 5.25 20.5488 5.25 19.9336Z" fill="#465A75"/>
</svg>
