<svg width="24" height="24" viewBox="0 0 24 24" fill="none" xmlns="http://www.w3.org/2000/svg">
<path d="M19.9852 10.952C19.9912 10.8573 19.9998 10.7627 19.9998 10.6667C19.9998 8.08933 17.9105 6 15.3332 6C14.7625 6 14.2185 6.10733 13.7132 6.29467C12.7498 4.90867 11.1485 4 9.33317 4C6.39984 4 4.02184 6.368 4.00184 9.29667C2.02717 10.2787 0.666504 12.3113 0.666504 14.6667C0.666504 17.9807 3.3525 20.6667 6.6665 20.6667H18.3332C21.0945 20.6667 23.3332 18.428 23.3332 15.6667C23.3332 13.4853 21.9338 11.6347 19.9852 10.952ZM18.3332 18.6667H6.6665C4.46117 18.6667 2.6665 16.872 2.6665 14.6667C2.6665 13.142 3.51917 11.7707 4.8925 11.0873C5.56784 10.7513 5.9965 10.064 6.00184 9.31C6.0145 7.48467 7.5085 5.99933 9.33317 5.99933C10.4225 5.99933 11.4458 6.536 12.0712 7.43533C12.4532 7.98533 13.0732 8.294 13.7138 8.294C13.9458 8.294 14.1812 8.25333 14.4085 8.16933C14.7125 8.05667 15.0238 7.99933 15.3332 7.99933C16.8038 7.99933 17.9998 9.19533 17.9998 10.66C17.9992 10.688 17.9965 10.7153 17.9945 10.7427L17.9885 10.83C17.9345 11.7227 18.4792 12.5427 19.3232 12.838C20.5252 13.2593 21.3325 14.3953 21.3325 15.6653C21.3325 17.3193 19.9865 18.6653 18.3325 18.6653L18.3332 18.6667ZM15.3738 12.9593C15.7645 13.3493 15.7645 13.9833 15.3738 14.3733L12.7072 17.04C12.5118 17.2353 12.2558 17.3327 11.9998 17.3327C11.7438 17.3327 11.4878 17.2353 11.2925 17.04L8.62584 14.3733C8.23517 13.9833 8.23517 13.3493 8.62584 12.9593C9.0165 12.5687 9.64917 12.5687 10.0398 12.9593L10.9992 13.9187V10.3327C10.9992 9.78 11.4465 9.33267 11.9992 9.33267C12.5518 9.33267 12.9992 9.78 12.9992 10.3327V13.9187L13.9585 12.9593C14.3492 12.5687 14.9818 12.5687 15.3725 12.9593H15.3738Z" fill="black"/>
</svg>
