<?xml version="1.0" encoding="utf-8"?>
<svg fill="#000000" viewBox="0 0 30 30" width="30px" height="30px" xmlns="http://www.w3.org/2000/svg">
  <path d="M 3 1.5 C 1.895 1.5 1 2.395 1 3.5 L 1 6.5 L 12 6.5 L 27 6.5 L 27 5.5 C 27 4.395 26.105 3.5 25 3.5 L 10.199 3.5 L 9.582 2.471 C 9.221 1.869 8.57 1.5 7.867 1.5 L 3 1.5 Z M 2 8.5 C 1.448 8.5 1 8.948 1 9.5 L 1 21.5 C 1 22.605 1.895 23.5 3 23.5 L 13.23 23.5 C 13.083 22.856 13 22.188 13 21.5 C 13 16.529 17.029 12.5 22 12.5 C 23.851 12.5 25.57 13.06 27 14.018 L 27 9.5 C 27 8.948 26.552 8.5 26 8.5 L 2 8.5 Z M 22 14.5 C 18.134 14.5 15 17.634 15 21.5 C 15 25.366 18.134 28.5 22 28.5 C 25.866 28.5 29 25.366 29 21.5 C 29 17.634 25.866 14.5 22 14.5 Z M 22 17.5 C 22.552 17.5 23 17.947 23 18.5 L 23 20.5 L 25 20.5 C 25.552 20.5 26 20.947 26 21.5 C 26 22.053 25.552 22.5 25 22.5 L 23 22.5 L 23 24.5 C 23 25.053 22.552 25.5 22 25.5 C 21.448 25.5 21 25.053 21 24.5 L 21 22.5 L 19 22.5 C 18.448 22.5 18 22.053 18 21.5 C 18 20.947 18.448 20.5 19 20.5 L 21 20.5 L 21 18.5 C 21 17.947 21.448 17.5 22 17.5 Z"/>
</svg>