<?xml version="1.0"?><svg fill="#000000" xmlns="http://www.w3.org/2000/svg"  viewBox="0 0 30 30" width="30px" height="30px">    <path d="M 4 3 C 2.895 3 2 3.895 2 5 L 2 8 L 13 8 L 28 8 L 28 7 C 28 5.895 27.105 5 26 5 L 11.199219 5 L 10.582031 3.9707031 C 10.221031 3.3687031 9.5701875 3 8.8671875 3 L 4 3 z M 3 10 C 2.448 10 2 10.448 2 11 L 2 23 C 2 24.105 2.895 25 4 25 L 14.230469 25 C 14.083469 24.356 14 23.688 14 23 C 14 18.029 18.029 14 23 14 C 24.851 14 26.57 14.559578 28 15.517578 L 28 11 C 28 10.448 27.552 10 27 10 L 3 10 z M 23 16 C 19.134 16 16 19.134 16 23 C 16 26.866 19.134 30 23 30 C 26.866 30 30 26.866 30 23 C 30 19.134 26.866 16 23 16 z M 23 19 C 23.552 19 24 19.447 24 20 L 24 22 L 26 22 C 26.552 22 27 22.447 27 23 C 27 23.553 26.552 24 26 24 L 24 24 L 24 26 C 24 26.553 23.552 27 23 27 C 22.448 27 22 26.553 22 26 L 22 24 L 20 24 C 19.448 24 19 23.553 19 23 C 19 22.447 19.448 22 20 22 L 22 22 L 22 20 C 22 19.447 22.448 19 23 19 z"/></svg>