<svg width="36" height="36" viewBox="0 0 36 36" fill="none" xmlns="http://www.w3.org/2000/svg">
<path d="M12 4V12H4V4H12ZM14 2H2V14H14V2ZM12 24V32H4V24H12ZM14 22H2V34H14V22ZM32 4V12H24V4H32ZM34 2H22V14H34V2ZM10 16H2V20H4V18H8V20H10V16ZM20 7H18V2H16V9H18V12H16V14H20V7ZM20 18H24V16H18V18H14V16H12V20H20V18ZM34 16H26V18H32V21H34V16ZM34 23H32V32H28V28H26V34H34V23ZM24 32H18V28H16V34H24V32ZM24 28H22V24H18V22H16V26H20V30H24V28ZM26 24H24V28H26V24ZM9.5 6.5H6.5V9.5H9.5V6.5ZM9.5 26.5H6.5V29.5H9.5V26.5ZM29.5 6.5H26.5V9.5H29.5V6.5ZM30 20H22V22H28V30H30V20Z" fill="#001B41"/>
</svg>
