<svg width="48" height="48" viewBox="0 0 48 48" fill="none" xmlns="http://www.w3.org/2000/svg">
<circle cx="24" cy="24" r="24" fill="#1474C4"/>
<path d="M15.75 12C17.0625 12 18.2812 12.75 18.9844 13.875C19.6406 15.0469 19.6406 16.5 18.9844 17.625C18.2812 18.7969 17.0625 19.5 15.75 19.5C14.3906 19.5 13.1719 18.7969 12.4688 17.625C11.8125 16.5 11.8125 15.0469 12.4688 13.875C13.1719 12.75 14.3906 12 15.75 12ZM33 12C34.3125 12 35.5312 12.75 36.2344 13.875C36.8906 15.0469 36.8906 16.5 36.2344 17.625C35.5312 18.7969 34.3125 19.5 33 19.5C31.6406 19.5 30.4219 18.7969 29.7188 17.625C29.0625 16.5 29.0625 15.0469 29.7188 13.875C30.4219 12.75 31.6406 12 33 12ZM9 26.0156C9 23.25 11.2031 21 13.9688 21H15.9844C16.7344 21 17.4375 21.1875 18.0938 21.4688C18 21.7969 18 22.1719 18 22.5C18 24.3281 18.75 25.9219 20.0156 27C20.0156 27 20.0156 27 19.9688 27H9.98438C9.42188 27 9 26.5781 9 26.0156ZM27.9844 27H27.9375C29.2031 25.9219 29.9531 24.3281 29.9531 22.5C29.9531 22.1719 29.9531 21.7969 29.9062 21.4688C30.5156 21.1875 31.2188 21 31.9688 21H33.9844C36.75 21 39 23.25 39 26.0156C39 26.5781 38.5312 27 37.9688 27H27.9844ZM19.5 22.5C19.5 20.9062 20.3438 19.4531 21.75 18.6094C23.1094 17.8125 24.8438 17.8125 26.25 18.6094C27.6094 19.4531 28.5 20.9062 28.5 22.5C28.5 24.1406 27.6094 25.5938 26.25 26.4375C24.8438 27.2344 23.1094 27.2344 21.75 26.4375C20.3438 25.5938 19.5 24.1406 19.5 22.5ZM15 34.7812C15 31.3125 17.7656 28.5 21.2344 28.5H26.7188C30.1875 28.5 33 31.3125 33 34.7812C33 35.4375 32.4375 36 31.7344 36H16.2188C15.5625 36 15 35.4844 15 34.7812Z" fill="white"/>
</svg>
