<?xml version="1.0" encoding="UTF-8" standalone="no"?>
<svg
   width="103"
   height="103"
   viewBox="0 0 103 103"
   fill="none"
   version="1.1"
   id="svg1"
   sodipodi:docname="shared.svg"
   inkscape:version="1.3.2 (091e20e, 2023-11-25)"
   xmlns:inkscape="http://www.inkscape.org/namespaces/inkscape"
   xmlns:sodipodi="http://sodipodi.sourceforge.net/DTD/sodipodi-0.dtd"
   xmlns="http://www.w3.org/2000/svg"
   xmlns:svg="http://www.w3.org/2000/svg">
  <sodipodi:namedview
     id="namedview1"
     pagecolor="#ffffff"
     bordercolor="#000000"
     borderopacity="0.25"
     inkscape:showpageshadow="2"
     inkscape:pageopacity="0.0"
     inkscape:pagecheckerboard="0"
     inkscape:deskcolor="#d1d1d1"
     inkscape:zoom="2.2912621"
     inkscape:cx="51.28178"
     inkscape:cy="51.500001"
     inkscape:window-width="1680"
     inkscape:window-height="1051"
     inkscape:window-x="108"
     inkscape:window-y="1118"
     inkscape:window-maximized="1"
     inkscape:current-layer="svg1" />
  <g
     clip-path="url(#clip0_341_2636)"
     id="g1">
    <path
       id="circle1"
       d="M 51.5 0 A 51.5 51.5 0 0 0 0 51.5 A 51.5 51.5 0 0 0 51.5 103 A 51.5 51.5 0 0 0 103 51.5 A 51.5 51.5 0 0 0 51.5 0 z M 51.640625 28.96875 C 57.279219 28.96875 61.152344 33.920798 61.152344 38.371094 L 61.152344 45.087891 C 61.152344 48.312787 59.1334 54.069856 55.595703 57.001953 L 66.646484 63.294922 C 66.646484 63.294922 69.078125 64.35338 69.078125 66.580078 L 69.078125 68.125 C 69.078125 69.610499 67.935789 70.8125 66.525391 70.8125 L 36.740234 70.8125 C 36.399735 70.8074 36.064553 70.733503 35.751953 70.595703 C 35.439253 70.458003 35.155169 70.259265 34.917969 70.009766 C 34.680769 69.760266 34.49474 69.465878 34.369141 69.142578 C 34.243441 68.819378 34.180447 68.4728 34.185547 68.125 L 34.185547 66.580078 C 34.185547 64.31158 36.832031 63.023437 36.832031 63.023438 L 47.037109 56.974609 C 43.467313 53.958812 41.427734 48.022888 41.427734 45.087891 L 41.427734 38.371094 C 41.427734 33.920798 45.999031 28.96875 51.640625 28.96875 z M 31.962891 39.474609 C 36.305286 39.474609 39.119141 43.284835 39.119141 46.707031 L 39.119141 51.875 C 39.119141 54.334798 37.743804 58.698159 35.066406 60.972656 C 33.936907 61.657156 31.693359 63.471681 31.693359 66.580078 L 31.693359 70.732422 L 21.755859 70.732422 C 20.67026 70.732422 19.3125 70.741408 19.3125 69.599609 L 19.3125 68.410156 C 19.3125 66.664658 21.833984 65.1875 21.833984 65.1875 L 28.085938 61.021484 C 25.33534 58.699087 24.263672 54.131598 24.263672 51.875 L 24.263672 46.707031 C 24.263672 43.284835 27.620495 39.474609 31.962891 39.474609 z M 71.037109 39.474609 C 75.376605 39.474609 78.736328 43.284835 78.736328 46.707031 L 78.736328 51.875 C 78.736328 54.131598 77.66466 58.699087 74.914062 61.021484 L 81.166016 65.267578 C 81.166016 65.267578 83.6875 66.664658 83.6875 68.410156 L 83.6875 69.599609 C 83.6875 70.741408 82.32974 70.732422 81.244141 70.732422 L 71.306641 70.732422 L 71.306641 66.580078 C 71.306641 63.471681 69.063093 61.657156 67.933594 60.972656 C 65.256196 58.698159 63.880859 54.334798 63.880859 51.875 L 63.880859 46.707031 C 63.880859 43.284835 66.697614 39.474609 71.037109 39.474609 z "
       style="fill:#1474c4;fill-opacity:1" />
  </g>
  <defs
     id="defs1">
    <clipPath
       id="clip0_341_2636">
      <rect
         width="103"
         height="103"
         fill="white"
         id="rect1" />
    </clipPath>
  </defs>
</svg>
