<svg width="32" height="32" viewBox="0 0 32 32" fill="none" xmlns="http://www.w3.org/2000/svg">
<path d="M26.2223 28.4444H5.77783C3.5725 28.4444 1.77783 26.6498 1.77783 24.4444V7.55554C1.77783 5.35021 3.5725 3.55554 5.77783 3.55554H11.7094C12.5272 3.55554 13.3281 3.8871 13.9067 4.46576L16.5521 7.1111H26.2223C28.4276 7.1111 30.2223 8.90576 30.2223 11.1111V24.4444C30.2223 26.6498 28.4276 28.4444 26.2223 28.4444Z" fill="#3196D6"/>
<path d="M13.7776 13.1111C13.7776 14.0929 12.9816 14.8889 11.9998 14.8889C11.018 14.8889 10.222 14.0929 10.222 13.1111C10.222 12.1293 11.018 11.3333 11.9998 11.3333C12.9816 11.3333 13.7776 12.1293 13.7776 13.1111ZM13.9776 18.5818C13.3122 18.0107 12.8887 17.1658 12.8887 16.2222C12.8887 15.9996 12.9131 15.7827 12.958 15.5733C12.8633 15.5653 12.77 15.5556 12.6664 15.5556H11.3331C8.88867 15.5556 8.89356 17.8805 8.88912 19.1049C8.88912 19.1071 8.88867 19.1093 8.88867 19.1111V19.3333C8.88867 19.5787 9.08778 19.7778 9.33312 19.7778H12.0993C12.5202 19.2302 13.1184 18.7893 13.9776 18.5818ZM19.9998 11.3333C19.018 11.3333 18.222 12.1293 18.222 13.1111C18.222 14.0929 19.018 14.8889 19.9998 14.8889C20.9816 14.8889 21.7776 14.0929 21.7776 13.1111C21.7776 12.1293 20.9816 11.3333 19.9998 11.3333ZM20.6664 15.5556H19.3331C19.2296 15.5556 19.1367 15.5653 19.042 15.5733C19.0864 15.7827 19.1113 15.9996 19.1113 16.2222C19.1113 17.1658 18.6878 18.0107 18.0224 18.5813C18.8829 18.7889 19.4816 19.2298 19.9029 19.7778H22.6664C22.9118 19.7778 23.1109 19.5787 23.1109 19.3333V19.1111C23.1109 17.884 23.1109 15.5556 20.6664 15.5556ZM16.8571 19.3333H15.1429C12.0002 19.3333 12.006 22.2698 12.0007 23.8165C12.0007 23.8191 11.9998 23.8222 11.9998 23.8245V24.1053C11.9998 24.4156 12.2558 24.6667 12.5713 24.6667H19.4287C19.7442 24.6667 20.0002 24.4151 20.0002 24.1053V23.8245C20.0002 22.2742 19.9998 19.3333 16.8571 19.3333ZM15.9998 14C14.7727 14 13.7776 14.9951 13.7776 16.2222C13.7776 17.4493 14.7727 18.4445 15.9998 18.4445C17.2269 18.4445 18.222 17.4493 18.222 16.2222C18.222 14.9951 17.2269 14 15.9998 14Z" fill="white"/>
</svg>
