<svg width="21" height="21" viewBox="0 0 21 21" fill="none" xmlns="http://www.w3.org/2000/svg">
<path d="M5.10062 20.1449C4.85679 20.1449 4.61412 20.0691 4.40704 19.9186C4.01796 19.6357 3.84004 19.1509 3.95496 18.6837L5.28729 13.2266L1.00096 9.59416C0.634041 9.28266 0.492875 8.78625 0.641625 8.32891C0.790375 7.87158 1.19637 7.5525 1.67529 7.51691L7.27762 7.0975L9.40796 1.89883C9.58996 1.45375 10.0187 1.16675 10.5 1.16675C10.9812 1.16675 11.41 1.45433 11.592 1.89883L13.7217 7.0975L19.324 7.51691C19.8041 7.55308 20.2101 7.87158 20.3583 8.32891C20.5065 8.78625 20.3659 9.28266 19.999 9.59358L15.7126 13.226L17.045 18.6837C17.1593 19.1503 16.982 19.6351 16.5929 19.918C16.2038 20.2009 15.6881 20.2207 15.2786 19.967L10.5 17.013L5.72129 19.967C5.52996 20.0854 5.31471 20.1449 5.10062 20.1449ZM5.55562 13.4535C5.55562 13.4535 5.55621 13.4535 5.55679 13.4541L5.55562 13.4535ZM15.4455 13.4529L15.4443 13.4541C15.4443 13.4541 15.4449 13.4541 15.4455 13.4529ZM5.37071 12.8836C5.37071 12.8836 5.37071 12.8847 5.37071 12.8859V12.8836ZM15.6292 12.8824V12.8842C15.6292 12.8842 15.6292 12.883 15.6292 12.8824Z" fill="black"/>
</svg>
