<svg width="16" height="16" viewBox="0 0 16 16" fill="none" xmlns="http://www.w3.org/2000/svg">
<path d="M7.99978 10.6669C6.52912 10.6669 5.33312 9.47088 5.33312 8.00022C5.33312 6.52955 6.52912 5.33355 7.99978 5.33355C9.47045 5.33355 10.6664 6.52955 10.6664 8.00022C10.6664 9.47088 9.47045 10.6669 7.99978 10.6669ZM7.99978 6.22244C7.01934 6.22244 6.222 7.01977 6.222 8.00022C6.222 8.98066 7.01934 9.778 7.99978 9.778C8.98023 9.778 9.77756 8.98066 9.77756 8.00022C9.77756 7.01977 8.98023 6.22244 7.99978 6.22244ZM7.55534 8.00022C7.55534 7.75533 7.75489 7.55577 7.99978 7.55577C8.24467 7.55577 8.44423 7.35666 8.44423 7.11133C8.44423 6.866 8.24512 6.66688 7.99978 6.66688C7.26467 6.66688 6.66645 7.26511 6.66645 8.00022C6.66645 8.24555 6.86556 8.44466 7.11089 8.44466C7.35623 8.44466 7.55534 8.24555 7.55534 8.00022ZM7.99978 12.8891C3.83356 12.8891 0.888672 8.81311 0.888672 8.00022C0.888672 7.18733 3.83356 3.11133 7.99978 3.11133C12.166 3.11133 15.1109 7.18733 15.1109 8.00022C15.1109 8.81311 12.166 12.8891 7.99978 12.8891ZM1.79089 8.00022C2.06823 8.70288 4.51223 12.0002 7.99978 12.0002C11.4873 12.0002 13.9313 8.70288 14.2087 8.00022C13.9313 7.29755 11.4873 4.00022 7.99978 4.00022C4.51223 4.00022 2.06823 7.29755 1.79089 8.00022Z" fill="#001B41"/>
</svg>
