<?xml version="1.0" encoding="utf-8"?>
<svg viewBox="0 0 60 60" width="512px" height="512px" xmlns="http://www.w3.org/2000/svg">
  <path d="M60,28.16937V5c0-1.6543-1.3457-3-3-3H3C1.3457,2,0,3.3457,0,5v38c0,1.6543,1.3457,3,3,3h25.52655 C30.30988,52.8894,36.56104,58,44,58c8.82227,0,16-7.17773,16-16V28.16998C60,28.16974,60,28.16962,60,28.16937z M3,4h54 c0.55127,0,1,0.44873,1,1v20.75659L45.12158,12.88721c-1.13379-1.14746-3.11377-1.14258-4.23877-0.00488L25.29346,28.46289 l-1.29358,1.29352l-9.8783-9.8692c-1.13379-1.14746-3.11377-1.14307-4.23877-0.00439L2,27.76605V5C2,4.44873,2.44873,4,3,4z M2,43 V30.59424l9.30127-9.30176c0.37598-0.38086,1.0166-0.38574,1.40234,0.00488l9.8822,9.87311L9.75586,44H3C2.44873,44,2,43.55127,2,43 z M44,56c-7.71973,0-14-6.28027-14-14s6.28027-14,14-14s14,6.28027,14,14S51.71973,56,44,56z M44,26c-8.82227,0-16,7.17773-16,16 c0,0.67871,0.0564,1.34326,0.13885,2H12.58417l14.12335-14.12207l15.59375-15.58545 c0.37598-0.38086,1.01709-0.38574,1.40186,0.00488L58,28.58466v5.68665C55.26947,29.34515,50.01996,26,44,26z" style="fill: rgb(255, 255, 255);"/>
  <path d="M24,21c3.30859,0,6-2.69141,6-6s-2.69141-6-6-6s-6,2.69141-6,6S20.69141,21,24,21z M24,11 c2.20557,0,4,1.79443,4,4s-1.79443,4-4,4s-4-1.79443-4-4S21.79443,11,24,11z" style="fill: rgb(255, 255, 255);"/>
  <path d="M52,41h-7v-7c0-0.55225-0.44775-1-1-1s-1,0.44775-1,1v7h-7c-0.55225,0-1,0.44775-1,1s0.44775,1,1,1h7v7 c0,0.55225,0.44775,1,1,1s1-0.44775,1-1v-7h7c0.55225,0,1-0.44775,1-1S52.55225,41,52,41z" style="fill: rgb(255, 255, 255);"/>
</svg>