<?xml version="1.0" encoding="utf-8"?>
<svg fill="#000000" viewBox="0 0 512 512" width="512px" height="512px" xmlns="http://www.w3.org/2000/svg">
  <path d="M 40 30 A 40.045 40.045 0 0 0 0 70 L 0 334.91211 A 40.121 40.121 0 0 0 40 375 L 240.32617 375 C 254.22017 436 309.08489 482.04492 374.46289 482.04492 C 450.30189 482.04492 512.16211 420.32337 512.16211 344.48438 C 512.16111 304.09238 494 267.69281 467 242.50781 L 467 70 C 467 47.944 448.73373 30 426.67773 30 L 40 30 z M 40 50 L 426.67773 50 A 20.3 20.3 0 0 1 447 70 L 447 227.45703 A 137.255 137.255 0 0 0 374.62305 206.92383 A 138.761 138.761 0 0 0 351.53906 208.85742 A 61.651 61.651 0 0 0 280.14453 213.59961 L 209.92383 272.19922 A 41.068 41.068 0 0 1 163.57227 276.37695 L 20 195.92383 L 20 70 A 20.024 20.024 0 0 1 40 50 z M 166.64648 80.462891 C 130.66548 80.462891 101.39258 108.64516 101.39258 143.28516 C 101.39258 177.92516 130.66548 206.10742 166.64648 206.10742 C 202.62748 206.10742 231.90039 177.92516 231.90039 143.28516 C 231.90039 108.64516 202.62748 80.462891 166.64648 80.462891 z M 166.64648 100.46289 C 191.59948 100.46289 211.90039 119.67316 211.90039 143.28516 C 211.90039 166.89716 191.60048 186.10742 166.64648 186.10742 C 141.69248 186.10742 121.39258 166.89716 121.39258 143.28516 C 121.39258 119.67316 141.69348 100.46289 166.64648 100.46289 z M 20 218.84961 L 153.80078 293.83203 A 60.969 60.969 0 0 0 222.66211 287.59961 L 292.86133 228.99805 A 41.216 41.216 0 0 1 316.54883 219.72852 A 137.781 137.781 0 0 0 236.91992 344.50586 C 236.91992 348.02086 237.05431 351 237.32031 355 L 40 355 A 20.1 20.1 0 0 1 20 334.91211 L 20 218.84961 z M 369.57227 227.02344 A 117.539 117.539 0 0 1 492 344.46289 A 117.672 117.672 0 0 1 374.46289 462 A 117.539 117.539 0 0 1 369.57227 227.02344 z M 374.69727 288.78516 A 10 10 0 0 0 368.03906 291.59961 L 329.89062 328.57617 A 10.000059 10.000059 0 1 0 343.81055 342.9375 L 365 322.40039 L 365 391.2207 A 10 10 0 0 0 385 391.2207 L 385 322.40039 L 406.18945 342.9375 A 10.000059 10.000059 0 0 0 420.10938 328.57617 L 381.96094 291.59961 A 10 10 0 0 0 374.69727 288.78516 z" style="fill: rgb(255, 255, 255);"/>
</svg>