<svg width="32" height="32" viewBox="0 0 84 84" fill="none" xmlns="http://www.w3.org/2000/svg"><path d="M33.6 14.3C32.4188 14.3 31.5 15.35 31.5 16.4V45.8C31.5 46.9812 32.2875 47.9 33.4688 47.9L42.525 35.5625C43.1813 34.775 44.1 34.25 45.15 34.25C46.0687 34.25 46.9875 34.775 47.6437 35.5625L49.875 38.5812L57.225 27.2937C57.75 26.375 58.8 25.85 59.85 25.85C60.9 25.85 61.8187 26.375 62.475 27.2937L75.8625 47.9C76.9125 47.7687 77.7 46.85 77.7 45.8V16.4C77.7 15.35 76.65 14.3 75.6 14.3H33.6ZM25.2 16.4C25.2 11.8062 28.875 8 33.6 8H75.6C80.1937 8 84 11.8062 84 16.4V45.8C84 50.525 80.1937 54.2 75.6 54.2H33.6C28.875 54.2 25.2 50.525 25.2 45.8V16.4ZM21 24.8V68.9H46.2V58.4H52.5V68.9H58.8C59.85 68.9 60.9 67.9812 60.9 66.8V58.4H67.2V66.8C67.2 71.525 63.3937 75.2 58.8 75.2H8.4C3.675 75.2 0 71.525 0 66.8V33.2C0 28.6062 3.675 24.8 8.4 24.8H21ZM14.7 31.1H8.4C7.21875 31.1 6.3 32.15 6.3 33.2V39.5H14.7V31.1ZM14.7 68.9V60.5H6.3V66.8C6.3 67.9812 7.21875 68.9 8.4 68.9H14.7ZM6.3 54.2H14.7V45.8H6.3V54.2ZM39.9 18.5C42.1312 18.5 44.1 20.4687 44.1 22.7C44.1 25.0625 42.1312 26.9 39.9 26.9C37.5375 26.9 35.7 25.0625 35.7 22.7C35.7 20.4687 37.5375 18.5 39.9 18.5Z" fill="#707070" /></svg>