<?xml version="1.0" encoding="UTF-8"?>
<svg xmlns="http://www.w3.org/2000/svg" xmlns:xlink="http://www.w3.org/1999/xlink" width="30px" height="30px" viewBox="0 0 30 24" version="1.1">
<g id="surface1">
<path style=" stroke:none;fill-rule:nonzero;fill:rgb(43.921569%,43.921569%,43.921569%);fill-opacity:1;" d="M 12 2.25 C 11.578125 2.25 11.25 2.625 11.25 3 L 11.25 13.5 C 11.25 13.921875 11.53125 14.25 11.953125 14.25 L 15.1875 9.84375 C 15.421875 9.5625 15.75 9.375 16.125 9.375 C 16.453125 9.375 16.78125 9.5625 17.015625 9.84375 L 17.8125 10.921875 L 20.4375 6.890625 C 20.625 6.5625 21 6.375 21.375 6.375 C 21.75 6.375 22.078125 6.5625 22.3125 6.890625 L 27.09375 14.25 C 27.46875 14.203125 27.75 13.875 27.75 13.5 L 27.75 3 C 27.75 2.625 27.375 2.25 27 2.25 Z M 9 3 C 9 1.359375 10.3125 0 12 0 L 27 0 C 28.640625 0 30 1.359375 30 3 L 30 13.5 C 30 15.1875 28.640625 16.5 27 16.5 L 12 16.5 C 10.3125 16.5 9 15.1875 9 13.5 Z M 7.5 6 L 7.5 21.75 L 16.5 21.75 L 16.5 18 L 18.75 18 L 18.75 21.75 L 21 21.75 C 21.375 21.75 21.75 21.421875 21.75 21 L 21.75 18 L 24 18 L 24 21 C 24 22.6875 22.640625 24 21 24 L 3 24 C 1.3125 24 0 22.6875 0 21 L 0 9 C 0 7.359375 1.3125 6 3 6 Z M 5.25 8.25 L 3 8.25 C 2.578125 8.25 2.25 8.625 2.25 9 L 2.25 11.25 L 5.25 11.25 Z M 5.25 21.75 L 5.25 18.75 L 2.25 18.75 L 2.25 21 C 2.25 21.421875 2.578125 21.75 3 21.75 Z M 2.25 16.5 L 5.25 16.5 L 5.25 13.5 L 2.25 13.5 Z M 14.25 3.75 C 15.046875 3.75 15.75 4.453125 15.75 5.25 C 15.75 6.09375 15.046875 6.75 14.25 6.75 C 13.40625 6.75 12.75 6.09375 12.75 5.25 C 12.75 4.453125 13.40625 3.75 14.25 3.75 Z M 14.25 3.75 "/>
</g>
</svg>
