<svg width="24" height="24" viewBox="0 0 24 24" fill="none" xmlns="http://www.w3.org/2000/svg">
<path d="M6.31616 8.38266C5.9135 8.00533 5.89283 7.372 6.27083 6.96933L11.2702 1.636C11.6488 1.23266 12.3508 1.23266 12.7295 1.636L17.7295 6.96933C18.1068 7.372 18.0862 8.00533 17.6842 8.38266C17.4908 8.56333 17.2455 8.65333 17.0002 8.65333C16.7342 8.65333 16.4675 8.54733 16.2702 8.33733L13.0002 4.84933V16.9873C13.0002 17.54 12.5522 17.9873 12.0002 17.9873C11.4482 17.9873 11.0002 17.54 11.0002 16.9873V4.84866L7.73016 8.33666C7.3515 8.74 6.71883 8.76 6.31616 8.382V8.38266ZM21.6668 15.32C21.1148 15.32 20.6668 15.7673 20.6668 16.32V18.9867C20.6668 19.9053 19.9195 20.6533 19.0002 20.6533H5.00016C4.08083 20.6533 3.3335 19.9053 3.3335 18.9867V16.32C3.3335 15.7673 2.8855 15.32 2.3335 15.32C1.7815 15.32 1.3335 15.7673 1.3335 16.32V18.9867C1.3335 21.0087 2.97883 22.6533 5.00016 22.6533H19.0002C21.0215 22.6533 22.6668 21.0087 22.6668 18.9867V16.32C22.6668 15.7673 22.2188 15.32 21.6668 15.32Z" fill="black"/>
</svg>
