<svg width="22" height="21" viewBox="0 0 22 21" fill="none" xmlns="http://www.w3.org/2000/svg">
<path d="M1.125 8.97073C0.46875 8.97073 0 8.50198 0 7.84573V1.84573C0 1.42385 0.234375 1.00198 0.65625 0.814479C1.07812 0.673854 1.59375 0.767604 1.92188 1.04885L3.84375 3.0176C7.96875 -1.01365 14.5781 -1.01365 18.6562 3.06448C22.7344 7.18948 22.7344 13.7989 18.6562 17.9239C14.5312 22.002 7.92188 22.002 3.79688 17.9239C3.23438 17.3145 3.23438 16.377 3.79688 15.8145C4.40625 15.2051 5.34375 15.2051 5.90625 15.8145C8.85938 18.7207 13.5938 18.7207 16.5469 15.8145C19.4531 12.8614 19.4531 8.12698 16.5469 5.17385C13.6406 2.2676 8.90625 2.2676 5.95312 5.12698L7.92188 7.04885C8.20312 7.37698 8.29688 7.8926 8.15625 8.31448C7.96875 8.73635 7.54688 8.97073 7.125 8.97073H1.125Z" fill="#465A75"/>
</svg>
