<svg width="26" height="26" viewBox="0 0 26 26" fill="none" xmlns="http://www.w3.org/2000/svg">
<path d="M24.5312 3.57812L18.8594 9.25H21.25C22.0469 9.25 22.75 9.95312 22.75 10.75C22.75 11.5938 22.0469 12.25 21.25 12.25H15.25C14.4062 12.25 13.75 11.5938 13.75 10.75V4.75C13.75 3.95312 14.4062 3.25 15.25 3.25C16.0469 3.25 16.75 3.95312 16.75 4.75V7.14062L22.4219 1.46875C22.9844 0.859375 23.9688 0.859375 24.5312 1.46875C25.1406 2.03125 25.1406 3.01562 24.5312 3.57812ZM4.75 13.75H10.75C11.5469 13.75 12.25 14.4531 12.25 15.25V21.25C12.25 22.0938 11.5469 22.75 10.75 22.75C9.90625 22.75 9.25 22.0938 9.25 21.25V18.9062L3.53125 24.5781C2.96875 25.1875 1.98438 25.1875 1.42188 24.5781C0.8125 24.0156 0.8125 23.0312 1.42188 22.4688L7.09375 16.75H4.75C3.90625 16.75 3.25 16.0938 3.25 15.25C3.25 14.4531 3.90625 13.75 4.75 13.75Z" fill="#F4F7FA"/>
</svg>
