<svg width="20" height="21" viewBox="0 0 20 21" fill="none" xmlns="http://www.w3.org/2000/svg">
<path d="M10 0.5C10.1562 0.5 10.3516 0.539062 10.5078 0.617188L17.8516 3.74219C18.7109 4.13281 19.375 4.95312 19.375 5.96875C19.3359 9.875 17.7344 16.9453 11.0156 20.1875C10.3516 20.5 9.60938 20.5 8.94531 20.1875C2.22656 16.9453 0.625 9.875 0.625 5.96875C0.585938 4.95312 1.25 4.13281 2.10938 3.74219L9.45312 0.617188C9.60938 0.539062 9.80469 0.5 10 0.5ZM10 3.11719V17.8828C15.3906 15.2656 16.8359 9.52344 16.875 6.04688L10 3.11719Z" fill="#001B41"/>
</svg>
