<svg width="84" height="84" viewBox="0 0 84 84" fill="none" xmlns="http://www.w3.org/2000/svg">
<path d="M45.9171 8.53097C45.1944 6.98426 43.6673 6 41.9902 6C40.3131 6 38.7996 6.98426 38.0634 8.53097L29.2961 27.1336L9.71639 30.1145C8.0802 30.3676 6.71671 31.5487 6.21222 33.1657C5.70773 34.7827 6.11678 36.5685 7.28938 37.7636L21.4969 52.2604L18.1428 72.7472C17.8701 74.4345 18.5518 76.15 19.9017 77.1483C21.2515 78.1466 23.0377 78.2732 24.5103 77.4717L42.0038 67.84L59.4974 77.4717C60.97 78.2732 62.7562 78.1607 64.106 77.1483C65.4559 76.1359 66.1376 74.4345 65.8649 72.7472L62.4971 52.2604L76.7047 37.7636C77.8773 36.5685 78.3 34.7827 77.7818 33.1657C77.2637 31.5487 75.9138 30.3676 74.2777 30.1145L54.6843 27.1336L45.9171 8.53097Z" fill="#001B41"/>
</svg>
