<svg width="16" height="16" viewBox="0 0 16 16" fill="none" xmlns="http://www.w3.org/2000/svg">
<path d="M12.6875 4.71875L9.40625 8L12.6875 11.3125C13.0938 11.6875 13.0938 12.3438 12.6875 12.7188C12.3125 13.125 11.6562 13.125 11.2812 12.7188L8 9.4375L4.6875 12.7188C4.3125 13.125 3.65625 13.125 3.28125 12.7188C2.875 12.3438 2.875 11.6875 3.28125 11.3125L6.5625 8L3.28125 4.71875C2.875 4.34375 2.875 3.6875 3.28125 3.3125C3.65625 2.90625 4.3125 2.90625 4.6875 3.3125L8 6.59375L11.2812 3.3125C11.6562 2.90625 12.3125 2.90625 12.6875 3.3125C13.0938 3.6875 13.0938 4.34375 12.6875 4.71875Z" fill="#718095"/>
</svg>
