<svg width="48" height="48" viewBox="0 0 48 48" fill="none" xmlns="http://www.w3.org/2000/svg">
<circle cx="24" cy="24" r="16" fill="#3196D6"/>
<path d="M24.8591 27.5311C23.7208 27.5311 22.583 27.0978 21.7169 26.2317C21.283 25.7978 21.283 25.0944 21.7169 24.6605C22.1508 24.2267 22.8541 24.2267 23.288 24.6605C24.1541 25.5267 25.5641 25.5267 26.4308 24.6605L29.9658 21.125C30.3858 20.705 30.6169 20.1472 30.6169 19.5533C30.6169 18.9594 30.3858 18.4017 29.9658 17.9822C29.0997 17.1155 27.6897 17.1155 26.823 17.9822L25.9391 18.8661C25.5052 19.3 24.8019 19.3 24.368 18.8661C23.9341 18.4322 23.9341 17.7289 24.368 17.2944L25.2519 16.4105C26.9847 14.6778 29.8041 14.6778 31.5369 16.4105C32.3769 17.25 32.8391 18.3661 32.8391 19.5533C32.8391 20.7405 32.3769 21.8567 31.5369 22.6961L28.0019 26.2317C27.1352 27.0978 25.9974 27.5311 24.8591 27.5311ZM22.6985 31.535L23.5824 30.6511C24.0163 30.2172 24.0163 29.5139 23.5824 29.0794C23.1486 28.6461 22.4452 28.6455 22.0113 29.0794L21.1274 29.9633C20.2602 30.83 18.8502 30.83 17.9847 29.9633C17.5647 29.5439 17.3336 28.9855 17.3336 28.3922C17.3336 27.7989 17.5647 27.2405 17.9847 26.8205L21.5197 23.285C22.3869 22.4183 23.7969 22.4189 24.6624 23.285C25.0963 23.7189 25.7997 23.7189 26.2336 23.285C26.6674 22.8511 26.6674 22.1478 26.2336 21.7139C24.5008 19.9811 21.6813 19.9817 19.9485 21.7139L16.4136 25.2494C15.5736 26.0889 15.1113 27.2055 15.1113 28.3922C15.1113 29.5789 15.5736 30.6955 16.4136 31.535C17.2802 32.4017 18.4174 32.8344 19.5558 32.8344C20.6941 32.8344 21.8324 32.4017 22.6985 31.535Z" fill="white"/>
</svg>
