<svg width="84" height="84" viewBox="0 0 84 84" fill="none" xmlns="http://www.w3.org/2000/svg">
<path d="M56.3063 26.15C54.4688 27.0688 52.2375 26.4125 51.0563 24.8375C47.6438 19.9813 42 16.7 35.7 16.7C25.4625 16.7 17.1938 24.7063 16.8 34.8125C16.6688 36.5188 15.6188 37.9625 13.9125 38.6188C8.26875 40.5875 4.2 46.1 4.2 52.4C4.2 60.5375 10.7625 67.1 18.9 67.1H67.2C74.1563 67.1 79.8 61.4563 79.8 54.5C79.8 49.775 77.0438 45.575 72.975 43.475C71.2688 42.425 70.35 40.4563 71.0063 38.4875C71.1375 37.5688 71.4 36.65 71.4 35.6C71.4 29.825 66.675 25.1 60.9 25.1C59.1938 25.1 57.75 25.4938 56.3063 26.15ZM54.6 22.3438C56.4375 21.425 58.5375 20.9 60.9 20.9C68.9063 20.9 75.6 27.5938 75.6 35.6C75.6 37.0438 75.3375 38.3563 74.9438 39.6688C80.325 42.5563 84 48.0688 84 54.5C84 63.8188 76.3875 71.3 67.2 71.3H18.9C8.4 71.3 0 62.9 0 52.4C0 44.2625 5.25 37.175 12.6 34.6813C13.125 22.3438 23.2313 12.5 35.7 12.5C43.4438 12.5 50.4 16.4375 54.6 22.3438Z" fill="#001B41"/>
</svg>
