<svg width="178" height="24" viewBox="0 0 178 24" fill="none" xmlns="http://www.w3.org/2000/svg">
<g clip-path="url(#clip0_2745_2980)">
<path d="M67.2946 20.6192C66.9348 20.6202 66.5758 20.5847 66.2236 20.5135C65.465 20.3612 64.7478 20.0563 64.1179 19.6184C63.4881 19.1805 62.9596 18.6193 62.5666 17.971L62.5465 17.9348C62.3515 17.5759 62.3042 17.1583 62.4143 16.7668C62.5244 16.3753 62.7836 16.0391 63.1393 15.8262C63.3857 15.6822 63.6679 15.6062 63.9555 15.6065C64.2419 15.6069 64.5231 15.6813 64.7702 15.8221C65.0173 15.9629 65.2214 16.165 65.3616 16.4076L65.416 16.4966L65.5878 16.722L65.8169 16.9473C66.1148 17.1976 66.4753 17.3675 66.8622 17.4397C67.175 17.4984 67.4971 17.4932 67.8077 17.4242C68.1184 17.3552 68.4108 17.2241 68.6663 17.0391C68.9303 16.8567 69.1492 16.6195 69.3072 16.3448C69.4652 16.0701 69.5583 15.7647 69.5798 15.4507C69.6063 15.1399 69.5641 14.8272 69.4559 14.5335C69.3477 14.2399 69.1762 13.9721 68.9527 13.7482C68.9527 13.7482 63.672 8.46285 63.5574 8.31542L63.2968 7.93988C62.679 7.00316 62.3999 5.89325 62.5036 4.78534C62.5601 4.01764 62.7941 3.2722 63.188 2.60442L63.4171 2.21497C63.8339 1.63592 64.3789 1.15494 65.0122 0.80739L65.2728 0.626574C66.491 -0.0238888 67.9232 -0.184303 69.2619 0.17979C70.6005 0.543882 71.7388 1.40344 72.4321 2.57382C72.5401 2.75045 72.6105 2.94638 72.639 3.14995C72.6676 3.35353 72.6537 3.5606 72.5982 3.75886C72.5432 3.9607 72.4473 4.14983 72.316 4.31512C72.1847 4.48041 72.0206 4.61853 71.8336 4.72136C71.5953 4.85867 71.3231 4.93077 71.0461 4.92999C70.7612 4.92923 70.4816 4.8549 70.236 4.7146C69.9905 4.57431 69.7877 4.37311 69.6486 4.13162C69.4975 3.88188 69.2935 3.66618 69.0501 3.49881C68.8067 3.33144 68.5294 3.21622 68.2368 3.16078C67.9392 3.10448 67.6328 3.1088 67.3371 3.17344C67.0413 3.23808 66.7626 3.36165 66.5185 3.53632C66.284 3.71386 66.0912 3.93794 65.9529 4.19362C65.8146 4.4493 65.7341 4.73069 65.7167 5.01901C65.6919 5.30842 65.7301 5.59966 65.8287 5.8738C65.9274 6.14794 66.0844 6.39884 66.2894 6.61019L71.2522 11.5812C72.0008 12.3357 72.5041 13.2875 72.6994 14.3181C72.8946 15.3486 72.7732 16.4121 72.3502 17.376C71.9271 18.3399 71.2213 19.1615 70.3207 19.7383C69.4202 20.315 68.3647 20.6214 67.286 20.6192H67.2946Z" fill="#003D8F"/>
<path d="M51.5956 20.6158C50.1811 20.6143 48.825 20.0678 47.8248 19.0962C46.8246 18.1247 46.262 16.8073 46.2605 15.4333V5.18246C46.2605 4.50189 46.3985 3.82798 46.6666 3.19922C46.9347 2.57045 47.3277 1.99914 47.8231 1.51791C48.3185 1.03667 48.9066 0.654934 49.5539 0.394491C50.2012 0.134048 50.895 0 51.5956 0C52.2962 0 52.99 0.134048 53.6372 0.394491C54.2845 0.654934 54.8727 1.03667 55.3681 1.51791C55.8635 1.99914 56.2565 2.57045 56.5246 3.19922C56.7927 3.82798 56.9307 4.50189 56.9307 5.18246V15.4333C56.9292 16.8073 56.3666 18.1247 55.3664 19.0962C54.3662 20.0678 53.0101 20.6143 51.5956 20.6158ZM51.5956 3.1295C51.0353 3.13024 50.4982 3.34677 50.102 3.73161C49.7058 4.11646 49.4829 4.63821 49.4822 5.18246V15.4333C49.4791 15.7037 49.5317 15.972 49.6368 16.2225C49.7419 16.4729 49.8975 16.7004 50.0943 16.8916C50.2912 17.0829 50.5254 17.234 50.7832 17.3361C51.041 17.4382 51.3172 17.4893 51.5956 17.4863C52.1559 17.4855 52.693 17.269 53.0892 16.8842C53.4853 16.4993 53.7083 15.9776 53.709 15.4333V5.18246C53.7016 4.64022 53.4766 4.12222 53.0818 3.73876C52.6871 3.35531 52.1538 3.13671 51.5956 3.1295Z" fill="#003D8F"/>
<path d="M30.8736 10.5738V19.0666C30.8736 19.4812 30.704 19.8788 30.4022 20.172C30.1004 20.4652 29.691 20.6299 29.2642 20.6299C28.8373 20.6299 28.428 20.4652 28.1261 20.172C27.8243 19.8788 27.6548 19.4812 27.6548 19.0666V4.0811L30.8736 10.5738ZM39.565 16.5435V1.56358C39.5475 1.16 39.3701 0.778602 39.0699 0.499054C38.7697 0.219506 38.37 0.0634315 37.9541 0.0634315C37.5383 0.0634315 37.1385 0.219506 36.8384 0.499054C36.5382 0.778602 36.3608 1.16 36.3433 1.56358V10.048L39.565 16.5435ZM30.7218 0.887611V0.857012C30.5767 0.604958 30.3653 0.394868 30.1092 0.248237C29.8531 0.101605 29.5615 0.023695 29.2642 0.0224771C29.1554 0.0219748 29.0468 0.03317 28.9406 0.0558585C28.5786 0.124339 28.2528 0.314269 28.0204 0.592429C27.788 0.870589 27.6636 1.21927 27.6691 1.57749V1.93634L36.5065 19.7592C36.6451 20.0129 36.8509 20.226 37.1026 20.3767C37.3543 20.5273 37.6428 20.6099 37.9384 20.616C38.063 20.6163 38.1871 20.6013 38.3078 20.5715C38.6635 20.4992 38.9827 20.3101 39.2117 20.036C39.4407 19.7619 39.5654 19.4196 39.565 19.0666V18.7133C39.565 18.7133 30.9595 1.3633 30.7218 0.887611Z" fill="#003D8F"/>
<path d="M15.5786 20.6158C14.1638 20.615 12.8073 20.0688 11.8069 19.0971C10.8065 18.1253 10.2442 16.8076 10.2434 15.4333V5.18246C10.2434 3.80798 10.8055 2.48981 11.8061 1.51791C12.8066 0.546008 14.1636 0 15.5786 0C16.9935 0 18.3505 0.546008 19.351 1.51791C20.3516 2.48981 20.9137 3.80798 20.9137 5.18246V15.4333C20.9129 16.8076 20.3506 18.1253 19.3502 19.0971C18.3498 20.0688 16.9933 20.615 15.5786 20.6158ZM15.5786 3.1295C15.3009 3.12914 15.0259 3.18199 14.7693 3.28503C14.5128 3.38807 14.2796 3.53928 14.0833 3.72998C13.887 3.92069 13.7313 4.14715 13.6252 4.39639C13.5192 4.64563 13.4647 4.91276 13.4651 5.18246V15.4333C13.4651 15.9778 13.6878 16.5 14.0841 16.885C14.4805 17.27 15.018 17.4863 15.5786 17.4863C16.1391 17.4863 16.6766 17.27 17.073 16.885C17.4693 16.5 17.692 15.9778 17.692 15.4333V5.18246C17.6846 4.64022 17.4595 4.12222 17.0648 3.73876C16.67 3.35531 16.1368 3.13671 15.5786 3.1295Z" fill="#003D8F"/>
<path d="M1.7497 20.6081C1.51789 20.6092 1.28819 20.5654 1.07406 20.4791C0.859926 20.3929 0.665677 20.266 0.502702 20.1059C0.339727 19.9457 0.211309 19.7556 0.124979 19.5467C0.0386493 19.3377 -0.00385431 19.1141 -3.87526e-05 18.8889V1.67804C0.00824394 1.23065 0.197812 0.804479 0.527531 0.492006C0.85725 0.179533 1.30052 0.00596613 1.76115 0.00896784C2.14688 0.00348502 2.52329 0.124253 2.82977 0.351829C3.13626 0.579405 3.35499 0.900546 3.45075 1.26355C3.46255 1.30288 3.47211 1.34281 3.47938 1.38317V1.45828C3.49578 1.55012 3.50344 1.64324 3.50229 1.73645C3.50229 1.73645 3.50229 18.7053 3.50229 18.9C3.50381 19.1243 3.45955 19.3466 3.37208 19.5541C3.28461 19.7617 3.15567 19.9503 2.9927 20.1091C2.82973 20.2679 2.63597 20.3938 2.42261 20.4794C2.20926 20.5651 1.98055 20.6088 1.7497 20.6081Z" fill="#003D8F"/>
</g>
<path d="M84.4183 20.472V8.8932H92.1492V10.6962H86.3851V13.5909H89.9185V15.3939H86.3851V18.6525H92.5068V20.472H84.4183Z" fill="#003D8F"/>
<path d="M97.2463 20.6705C96.2927 20.6705 95.5435 20.4197 94.9986 19.9179C94.4537 19.4162 94.1812 18.7352 94.1812 17.8751C94.1812 17.3127 94.3203 16.8247 94.5984 16.4112C94.8765 15.9921 95.2682 15.6696 95.7734 15.4435C96.2785 15.2119 96.8689 15.0961 97.5443 15.0961C97.9417 15.0961 98.3191 15.1347 98.6767 15.2119C99.04 15.2836 99.3635 15.3939 99.6473 15.5428V14.9969C99.6473 14.4566 99.5054 14.0568 99.2216 13.7977C98.9378 13.533 98.5093 13.4007 97.936 13.4007C97.5159 13.4007 97.0817 13.4751 96.6333 13.624C96.1849 13.7729 95.745 13.9879 95.3136 14.2691L94.7432 12.7887C95.2199 12.4799 95.7563 12.2428 96.3523 12.0774C96.9483 11.9065 97.5472 11.821 98.1488 11.821C99.267 11.821 100.104 12.0857 100.661 12.615C101.222 13.1388 101.503 13.9272 101.503 14.9804V20.472H99.6473V19.7608C99.3408 20.053 98.9804 20.2791 98.566 20.4389C98.1517 20.5933 97.7118 20.6705 97.2463 20.6705ZM97.638 19.0908C98.0069 19.0908 98.3645 19.0137 98.7108 18.8593C99.0627 18.7049 99.3749 18.4843 99.6473 18.1976V17.048C99.3919 16.9102 99.1024 16.8054 98.7789 16.7337C98.461 16.6565 98.1488 16.6179 97.8423 16.6179C97.2747 16.6179 96.8291 16.731 96.5056 16.957C96.1821 17.1776 96.0203 17.4836 96.0203 17.8751C96.0203 18.25 96.1622 18.5477 96.446 18.7683C96.7298 18.9833 97.1271 19.0908 97.638 19.0908Z" fill="#003D8F"/>
<path d="M106.746 20.6705C106.093 20.6705 105.466 20.5354 104.864 20.2653C104.263 19.9896 103.78 19.6229 103.417 19.1653L104.694 18.1066C104.995 18.4099 105.333 18.6497 105.707 18.8262C106.082 19.0026 106.448 19.0908 106.806 19.0908C107.26 19.0908 107.612 19.0137 107.861 18.8593C108.111 18.6994 108.236 18.4761 108.236 18.1893C108.236 18.0129 108.179 17.853 108.066 17.7097C107.952 17.5608 107.754 17.4147 107.47 17.2713C107.186 17.128 106.794 16.9653 106.295 16.7833C105.319 16.436 104.626 16.061 104.217 15.6585C103.809 15.2505 103.604 14.7405 103.604 14.1285C103.604 13.4393 103.888 12.8824 104.456 12.4578C105.023 12.0333 105.761 11.821 106.669 11.821C107.288 11.821 107.859 11.9368 108.381 12.1684C108.909 12.3944 109.363 12.7225 109.743 13.1526L108.474 14.1698C107.958 13.6571 107.345 13.4007 106.635 13.4007C106.255 13.4007 105.951 13.4724 105.724 13.6157C105.497 13.7536 105.384 13.9383 105.384 14.1698C105.384 14.4014 105.514 14.6082 105.775 14.7901C106.042 14.9666 106.53 15.1733 107.24 15.4104C107.887 15.62 108.415 15.8543 108.824 16.1134C109.238 16.3726 109.539 16.6703 109.726 17.0067C109.919 17.343 110.016 17.7317 110.016 18.1728C110.016 18.9502 109.723 19.5623 109.139 20.0089C108.56 20.45 107.762 20.6705 106.746 20.6705Z" fill="#003D8F"/>
<path d="M112.968 23.681L114.287 20.3066L111.043 12.0195H112.993L114.977 17.23C115.034 17.3623 115.085 17.4946 115.13 17.6269C115.176 17.7593 115.215 17.8971 115.25 18.0405C115.295 17.8971 115.34 17.7593 115.386 17.6269C115.431 17.4946 115.477 17.3623 115.522 17.23L117.523 12.0195H119.49L114.926 23.681H112.968Z" fill="#003D8F"/>
<path d="M123.774 20.6705C123.122 20.6705 122.495 20.5354 121.893 20.2653C121.291 19.9896 120.809 19.6229 120.445 19.1653L121.723 18.1066C122.023 18.4099 122.361 18.6497 122.736 18.8262C123.11 19.0026 123.476 19.0908 123.834 19.0908C124.288 19.0908 124.64 19.0137 124.89 18.8593C125.14 18.6994 125.264 18.4761 125.264 18.1893C125.264 18.0129 125.208 17.853 125.094 17.7097C124.981 17.5608 124.782 17.4147 124.498 17.2713C124.214 17.128 123.823 16.9653 123.323 16.7833C122.347 16.436 121.654 16.061 121.246 15.6585C120.837 15.2505 120.633 14.7405 120.633 14.1285C120.633 13.4393 120.917 12.8824 121.484 12.4578C122.052 12.0333 122.79 11.821 123.698 11.821C124.317 11.821 124.887 11.9368 125.409 12.1684C125.937 12.3944 126.391 12.7225 126.771 13.1526L125.503 14.1698C124.986 13.6571 124.373 13.4007 123.664 13.4007C123.284 13.4007 122.98 13.4724 122.753 13.6157C122.526 13.7536 122.412 13.9383 122.412 14.1698C122.412 14.4014 122.543 14.6082 122.804 14.7901C123.071 14.9666 123.559 15.1733 124.268 15.4104C124.915 15.62 125.443 15.8543 125.852 16.1134C126.266 16.3726 126.567 16.6703 126.754 17.0067C126.947 17.343 127.044 17.7317 127.044 18.1728C127.044 18.9502 126.752 19.5623 126.167 20.0089C125.588 20.45 124.791 20.6705 123.774 20.6705Z" fill="#003D8F"/>
<path d="M131.551 20.6705C130.893 20.6705 130.396 20.4886 130.061 20.1247C129.726 19.7608 129.559 19.2287 129.559 18.5284V13.6488H128.239V12.0195H129.559V9.41425L131.466 8.5293V12.0195H133.492V13.6488H131.466V18.1232C131.466 18.4264 131.525 18.6525 131.645 18.8014C131.77 18.9447 131.96 19.0164 132.215 19.0164C132.63 19.0164 133.081 18.8841 133.569 18.6194L133.356 20.2901C133.089 20.4169 132.808 20.5106 132.513 20.5713C132.218 20.6374 131.897 20.6705 131.551 20.6705Z" fill="#003D8F"/>
<path d="M138.99 20.6705C137.775 20.6705 136.819 20.2763 136.121 19.4878C135.423 18.6994 135.074 17.6214 135.074 16.254C135.074 15.3443 135.232 14.5586 135.55 13.8969C135.868 13.2353 136.319 12.7252 136.904 12.3669C137.494 12.0029 138.19 11.821 138.99 11.821C139.796 11.821 140.491 12.0002 141.076 12.3586C141.661 12.717 142.112 13.227 142.43 13.8886C142.748 14.5503 142.907 15.336 142.907 16.2458C142.907 17.1555 142.748 17.9412 142.43 18.6029C142.112 19.2645 141.661 19.7745 141.076 20.1329C140.491 20.4913 139.796 20.6705 138.99 20.6705ZM138.99 18.9089C139.62 18.9089 140.111 18.6746 140.463 18.2059C140.815 17.7372 140.991 17.0838 140.991 16.2458C140.991 15.4022 140.812 14.746 140.455 14.2774C140.103 13.8087 139.614 13.5744 138.99 13.5744C138.366 13.5744 137.875 13.8114 137.517 14.2856C137.165 14.7543 136.989 15.4104 136.989 16.254C136.989 17.0866 137.165 17.7372 137.517 18.2059C137.875 18.6746 138.366 18.9089 138.99 18.9089Z" fill="#003D8F"/>
<path d="M145.012 20.472V12.0195H146.92V12.9954C147.09 12.6315 147.345 12.3448 147.686 12.1353C148.032 11.9258 148.412 11.821 148.827 11.821C149.411 11.821 149.905 12.0057 150.308 12.3751L150.044 14.0871C149.829 13.9217 149.613 13.8032 149.397 13.7315C149.182 13.6598 148.943 13.624 148.682 13.624C148.319 13.624 148.007 13.7122 147.745 13.8886C147.484 14.0651 147.28 14.316 147.132 14.6413C146.991 14.9666 146.92 15.3525 146.92 15.7991V20.472H145.012Z" fill="#003D8F"/>
<path d="M154.268 20.6705C153.315 20.6705 152.565 20.4197 152.021 19.9179C151.476 19.4162 151.203 18.7352 151.203 17.8751C151.203 17.3127 151.342 16.8247 151.62 16.4112C151.898 15.9921 152.29 15.6696 152.795 15.4435C153.301 15.2119 153.891 15.0961 154.566 15.0961C154.964 15.0961 155.341 15.1347 155.699 15.2119C156.062 15.2836 156.385 15.3939 156.669 15.5428V14.9969C156.669 14.4566 156.527 14.0568 156.244 13.7977C155.96 13.533 155.531 13.4007 154.958 13.4007C154.538 13.4007 154.104 13.4751 153.655 13.624C153.207 13.7729 152.767 13.9879 152.336 14.2691L151.765 12.7887C152.242 12.4799 152.778 12.2428 153.374 12.0774C153.97 11.9065 154.569 11.821 155.171 11.821C156.289 11.821 157.126 12.0857 157.682 12.615C158.244 13.1388 158.525 13.9272 158.525 14.9804V20.472H156.669V19.7608C156.363 20.053 156.002 20.2791 155.588 20.4389C155.174 20.5933 154.734 20.6705 154.268 20.6705ZM154.66 19.0908C155.029 19.0908 155.386 19.0137 155.733 18.8593C156.085 18.7049 156.397 18.4843 156.669 18.1976V17.048C156.414 16.9102 156.124 16.8054 155.801 16.7337C155.483 16.6565 155.171 16.6179 154.864 16.6179C154.297 16.6179 153.851 16.731 153.528 16.957C153.204 17.1776 153.042 17.4836 153.042 17.8751C153.042 18.25 153.184 18.5477 153.468 18.7683C153.752 18.9833 154.149 19.0908 154.66 19.0908Z" fill="#003D8F"/>
<path d="M164.097 23.9953L163.075 22.4652C163.887 22.4156 164.525 22.3219 164.991 22.184C165.462 22.0462 165.794 21.8532 165.987 21.6051C166.186 21.3625 166.285 21.0455 166.285 20.654V19.86C165.82 20.4004 165.155 20.6705 164.293 20.6705C163.549 20.6705 162.908 20.4913 162.368 20.1329C161.829 19.769 161.412 19.2563 161.117 18.5946C160.827 17.933 160.683 17.1473 160.683 16.2375C160.683 15.3443 160.833 14.5668 161.134 13.9052C161.435 13.2435 161.858 12.7308 162.403 12.3669C162.947 12.0029 163.589 11.821 164.327 11.821C164.73 11.821 165.099 11.8872 165.434 12.0195C165.774 12.1463 166.058 12.3283 166.285 12.5653V12.0195H168.201V19.8931C168.201 20.5878 168.124 21.1833 167.971 21.6795C167.823 22.1813 167.585 22.5921 167.256 22.9119C166.932 23.2372 166.509 23.4853 165.987 23.6562C165.465 23.8271 164.835 23.9402 164.097 23.9953ZM164.625 18.9089C164.948 18.9089 165.258 18.8289 165.553 18.669C165.848 18.5036 166.092 18.2831 166.285 18.0074V14.451C166.115 14.1919 165.876 13.9824 165.57 13.8225C165.263 13.6571 164.957 13.5744 164.65 13.5744C163.986 13.5744 163.478 13.8032 163.126 14.2608C162.774 14.7129 162.598 15.3718 162.598 16.2375C162.598 16.7944 162.681 17.2713 162.845 17.6683C163.01 18.0653 163.243 18.3713 163.543 18.5863C163.844 18.8014 164.205 18.9089 164.625 18.9089Z" fill="#003D8F"/>
<path d="M174.271 20.6705C173.448 20.6705 172.738 20.4858 172.142 20.1164C171.546 19.747 171.089 19.2314 170.771 18.5698C170.453 17.9026 170.294 17.1252 170.294 16.2375C170.294 15.3167 170.459 14.5282 170.788 13.8721C171.117 13.2105 171.58 12.7032 172.176 12.3503C172.772 11.9974 173.47 11.821 174.271 11.821C174.957 11.821 175.582 11.9644 176.144 12.2511C176.711 12.5378 177.163 12.9789 177.497 13.5744C177.832 14.1643 178 14.917 178 15.8322C178 15.9756 177.997 16.1465 177.991 16.345C177.986 16.538 177.969 16.7337 177.94 16.9322H172.193C172.227 17.3623 172.332 17.7372 172.508 18.057C172.69 18.3768 172.931 18.6277 173.232 18.8096C173.533 18.9861 173.887 19.0743 174.296 19.0743C174.693 19.0743 175.045 19.0109 175.352 18.8841C175.658 18.7517 175.951 18.5422 176.229 18.2555L177.336 19.3886C176.978 19.769 176.541 20.0778 176.024 20.3149C175.514 20.552 174.929 20.6705 174.271 20.6705ZM172.202 15.4352H176.127C176.11 15.0327 176.024 14.6799 175.871 14.3766C175.724 14.0734 175.514 13.839 175.241 13.6736C174.969 13.5027 174.637 13.4172 174.245 13.4172C173.7 13.4172 173.235 13.5826 172.849 13.9135C172.468 14.2443 172.253 14.7515 172.202 15.4352Z" fill="#003D8F"/>
<defs>
<clipPath id="clip0_2745_2980">
<rect width="72.8101" height="20.6213" fill="white"/>
</clipPath>
</defs>
</svg>
