<?xml version="1.0" encoding="UTF-8"?>
<svg xmlns="http://www.w3.org/2000/svg" xmlns:xlink="http://www.w3.org/1999/xlink" width="204px" height="25px" viewBox="0 0 202 25" version="1.1">
<defs>
<clipPath id="clip1">
  <path d="M 69 0 L 81.507812 0 L 81.507812 23.808594 L 69 23.808594 Z M 69 0 "/>
</clipPath>
<clipPath id="clip2">
  <path d="M 51 0 L 64 0 L 64 23.808594 L 51 23.808594 Z M 51 0 "/>
</clipPath>
<clipPath id="clip3">
  <path d="M 30 0 L 45 0 L 45 23.808594 L 30 23.808594 Z M 30 0 "/>
</clipPath>
<clipPath id="clip4">
  <path d="M 11 0 L 24 0 L 24 23.808594 L 11 23.808594 Z M 11 0 "/>
</clipPath>
<clipPath id="clip5">
  <path d="M 0 0 L 4 0 L 4 23.808594 L 0 23.808594 Z M 0 0 "/>
</clipPath>
<clipPath id="clip6">
  <path d="M 69 0 L 81.507812 0 L 81.507812 23.808594 L 69 23.808594 Z M 69 0 "/>
</clipPath>
<clipPath id="clip7">
  <path d="M 51 0 L 64 0 L 64 23.808594 L 51 23.808594 Z M 51 0 "/>
</clipPath>
<clipPath id="clip8">
  <path d="M 30 0 L 45 0 L 45 23.808594 L 30 23.808594 Z M 30 0 "/>
</clipPath>
<clipPath id="clip9">
  <path d="M 11 0 L 24 0 L 24 23.808594 L 11 23.808594 Z M 11 0 "/>
</clipPath>
<clipPath id="clip10">
  <path d="M 0 0 L 4 0 L 4 23.808594 L 0 23.808594 Z M 0 0 "/>
</clipPath>
</defs>
<g id="surface1">
<g clip-path="url(#clip1)" clip-rule="nonzero">
<path style=" stroke:none;fill-rule:nonzero;fill:rgb(0%,23.921569%,56.078434%);fill-opacity:1;" d="M 75.332031 23.804688 C 74.929688 23.808594 74.527344 23.765625 74.132812 23.683594 C 73.285156 23.507812 72.480469 23.15625 71.777344 22.652344 C 71.070312 22.144531 70.480469 21.496094 70.039062 20.75 L 70.019531 20.707031 C 69.800781 20.292969 69.746094 19.808594 69.871094 19.359375 C 69.992188 18.90625 70.285156 18.519531 70.683594 18.273438 C 70.957031 18.105469 71.273438 18.019531 71.59375 18.019531 C 71.917969 18.019531 72.230469 18.105469 72.507812 18.269531 C 72.785156 18.429688 73.011719 18.664062 73.167969 18.945312 L 73.230469 19.046875 L 73.421875 19.304688 L 73.679688 19.566406 C 74.011719 19.855469 74.417969 20.050781 74.847656 20.136719 C 75.199219 20.203125 75.558594 20.195312 75.90625 20.117188 C 76.253906 20.039062 76.582031 19.886719 76.867188 19.671875 C 77.164062 19.460938 77.410156 19.1875 77.585938 18.871094 C 77.761719 18.554688 77.867188 18.203125 77.890625 17.839844 C 77.921875 17.480469 77.875 17.117188 77.753906 16.78125 C 77.632812 16.441406 77.441406 16.132812 77.191406 15.875 C 77.191406 15.875 71.277344 9.769531 71.148438 9.601562 L 70.859375 9.167969 C 70.167969 8.085938 69.855469 6.804688 69.96875 5.523438 C 70.035156 4.636719 70.296875 3.777344 70.734375 3.007812 L 70.992188 2.558594 C 71.460938 1.886719 72.070312 1.332031 72.777344 0.929688 L 73.070312 0.722656 C 74.433594 -0.0273438 76.039062 -0.214844 77.535156 0.207031 C 79.035156 0.628906 80.308594 1.621094 81.085938 2.972656 C 81.207031 3.175781 81.285156 3.402344 81.316406 3.636719 C 81.347656 3.871094 81.332031 4.109375 81.269531 4.339844 C 81.210938 4.574219 81.101562 4.789062 80.953125 4.980469 C 80.808594 5.171875 80.625 5.332031 80.414062 5.449219 C 80.148438 5.609375 79.84375 5.691406 79.53125 5.691406 C 79.214844 5.691406 78.902344 5.605469 78.625 5.441406 C 78.351562 5.28125 78.125 5.046875 77.96875 4.769531 C 77.800781 4.480469 77.570312 4.230469 77.296875 4.039062 C 77.027344 3.847656 76.714844 3.710938 76.386719 3.648438 C 76.054688 3.582031 75.710938 3.589844 75.382812 3.664062 C 75.050781 3.738281 74.738281 3.878906 74.464844 4.082031 C 74.203125 4.289062 73.984375 4.546875 73.832031 4.839844 C 73.675781 5.136719 73.585938 5.460938 73.566406 5.792969 C 73.539062 6.128906 73.582031 6.464844 73.691406 6.78125 C 73.804688 7.097656 73.980469 7.386719 74.207031 7.632812 L 79.765625 13.371094 C 80.601562 14.242188 81.164062 15.339844 81.382812 16.53125 C 81.601562 17.722656 81.464844 18.949219 80.992188 20.0625 C 80.519531 21.175781 79.730469 22.125 78.722656 22.789062 C 77.714844 23.457031 76.53125 23.808594 75.324219 23.804688 Z M 75.332031 23.804688 "/>
</g>
<g clip-path="url(#clip2)" clip-rule="nonzero">
<path style=" stroke:none;fill-rule:nonzero;fill:rgb(0%,23.921569%,56.078434%);fill-opacity:1;" d="M 57.757812 23.804688 C 56.175781 23.800781 54.65625 23.171875 53.539062 22.046875 C 52.417969 20.925781 51.789062 19.40625 51.785156 17.820312 L 51.785156 5.984375 C 51.785156 5.199219 51.941406 4.417969 52.242188 3.695312 C 52.542969 2.96875 52.980469 2.308594 53.535156 1.753906 C 54.089844 1.195312 54.75 0.757812 55.472656 0.457031 C 56.199219 0.15625 56.976562 0 57.757812 0 C 58.542969 0 59.320312 0.15625 60.042969 0.457031 C 60.769531 0.757812 61.425781 1.195312 61.980469 1.753906 C 62.535156 2.308594 62.976562 2.96875 63.277344 3.695312 C 63.578125 4.417969 63.730469 5.199219 63.730469 5.984375 L 63.730469 17.820312 C 63.730469 19.40625 63.101562 20.925781 61.980469 22.046875 C 60.859375 23.171875 59.34375 23.800781 57.757812 23.804688 Z M 57.757812 3.613281 C 57.132812 3.613281 56.53125 3.863281 56.085938 4.308594 C 55.644531 4.753906 55.394531 5.355469 55.394531 5.984375 L 55.394531 17.820312 C 55.390625 18.132812 55.449219 18.441406 55.566406 18.730469 C 55.683594 19.019531 55.859375 19.28125 56.078125 19.503906 C 56.300781 19.722656 56.5625 19.898438 56.851562 20.015625 C 57.136719 20.132812 57.449219 20.191406 57.757812 20.191406 C 58.386719 20.1875 58.988281 19.9375 59.429688 19.496094 C 59.875 19.050781 60.125 18.449219 60.125 17.820312 L 60.125 5.984375 C 60.117188 5.359375 59.863281 4.757812 59.421875 4.316406 C 58.980469 3.875 58.382812 3.621094 57.757812 3.613281 Z M 57.757812 3.613281 "/>
</g>
<g clip-path="url(#clip3)" clip-rule="nonzero">
<path style=" stroke:none;fill-rule:nonzero;fill:rgb(0%,23.921569%,56.078434%);fill-opacity:1;" d="M 34.5625 12.207031 L 34.5625 22.015625 C 34.5625 22.492188 34.371094 22.953125 34.035156 23.289062 C 33.695312 23.628906 33.238281 23.820312 32.761719 23.820312 C 32.28125 23.820312 31.824219 23.628906 31.484375 23.289062 C 31.148438 22.953125 30.957031 22.492188 30.957031 22.015625 L 30.957031 4.710938 Z M 44.292969 19.101562 L 44.292969 1.804688 C 44.273438 1.339844 44.074219 0.898438 43.738281 0.574219 C 43.402344 0.253906 42.953125 0.0742188 42.488281 0.0742188 C 42.023438 0.0742188 41.574219 0.253906 41.238281 0.574219 C 40.902344 0.898438 40.703125 1.339844 40.683594 1.804688 L 40.683594 11.601562 Z M 34.390625 1.023438 L 34.390625 0.988281 C 34.230469 0.699219 33.992188 0.457031 33.707031 0.285156 C 33.417969 0.117188 33.09375 0.0273438 32.761719 0.0273438 C 32.636719 0.0234375 32.515625 0.0390625 32.398438 0.0625 C 31.992188 0.144531 31.628906 0.363281 31.367188 0.683594 C 31.109375 1.003906 30.96875 1.40625 30.972656 1.820312 L 30.972656 2.234375 L 40.867188 22.8125 C 41.023438 23.105469 41.253906 23.351562 41.535156 23.527344 C 41.816406 23.699219 42.140625 23.796875 42.46875 23.804688 C 42.609375 23.804688 42.75 23.785156 42.882812 23.75 C 43.28125 23.667969 43.640625 23.449219 43.894531 23.132812 C 44.152344 22.816406 44.292969 22.421875 44.292969 22.015625 L 44.292969 21.605469 C 44.292969 21.605469 34.65625 1.574219 34.390625 1.023438 Z M 34.390625 1.023438 "/>
</g>
<g clip-path="url(#clip4)" clip-rule="nonzero">
<path style=" stroke:none;fill-rule:nonzero;fill:rgb(0%,23.921569%,56.078434%);fill-opacity:1;" d="M 17.441406 23.804688 C 15.855469 23.800781 14.335938 23.171875 13.21875 22.050781 C 12.097656 20.925781 11.46875 19.40625 11.46875 17.820312 L 11.46875 5.984375 C 11.46875 4.398438 12.097656 2.875 13.214844 1.753906 C 14.335938 0.628906 15.855469 0 17.441406 0 C 19.023438 0 20.542969 0.628906 21.664062 1.753906 C 22.78125 2.875 23.410156 4.398438 23.410156 5.984375 L 23.410156 17.820312 C 23.410156 19.40625 22.78125 20.925781 21.660156 22.050781 C 20.542969 23.171875 19.023438 23.800781 17.441406 23.804688 Z M 17.441406 3.613281 C 17.128906 3.613281 16.820312 3.675781 16.535156 3.792969 C 16.246094 3.910156 15.984375 4.085938 15.765625 4.308594 C 15.546875 4.527344 15.371094 4.789062 15.253906 5.074219 C 15.132812 5.363281 15.074219 5.671875 15.074219 5.984375 L 15.074219 17.820312 C 15.074219 18.449219 15.324219 19.050781 15.765625 19.496094 C 16.210938 19.941406 16.8125 20.191406 17.441406 20.191406 C 18.066406 20.191406 18.667969 19.941406 19.113281 19.496094 C 19.554688 19.050781 19.804688 18.449219 19.804688 17.820312 L 19.804688 5.984375 C 19.796875 5.359375 19.546875 4.757812 19.101562 4.316406 C 18.660156 3.875 18.066406 3.621094 17.441406 3.613281 Z M 17.441406 3.613281 "/>
</g>
<g clip-path="url(#clip5)" clip-rule="nonzero">
<path style=" stroke:none;fill-rule:nonzero;fill:rgb(0%,23.921569%,56.078434%);fill-opacity:1;" d="M 1.957031 23.792969 C 1.699219 23.796875 1.441406 23.746094 1.203125 23.644531 C 0.960938 23.546875 0.746094 23.398438 0.5625 23.214844 C 0.378906 23.027344 0.238281 22.808594 0.140625 22.566406 C 0.0429688 22.328125 -0.00390625 22.070312 0 21.808594 L 0 1.9375 C 0.0078125 1.421875 0.222656 0.929688 0.589844 0.566406 C 0.960938 0.207031 1.457031 0.0078125 1.972656 0.0117188 C 2.402344 0.00390625 2.824219 0.144531 3.167969 0.40625 C 3.511719 0.667969 3.753906 1.039062 3.863281 1.457031 C 3.875 1.503906 3.886719 1.550781 3.894531 1.597656 L 3.894531 1.683594 C 3.914062 1.789062 3.921875 1.898438 3.921875 2.003906 C 3.921875 2.003906 3.921875 21.597656 3.921875 21.820312 C 3.921875 22.082031 3.871094 22.335938 3.773438 22.578125 C 3.675781 22.816406 3.53125 23.035156 3.351562 23.21875 C 3.167969 23.402344 2.949219 23.546875 2.710938 23.644531 C 2.472656 23.742188 2.21875 23.792969 1.957031 23.792969 Z M 1.957031 23.792969 "/>
</g>
<path style=" stroke:none;fill-rule:nonzero;fill:rgb(0%,23.921569%,56.078434%);fill-opacity:1;" d="M 197.496094 23.933594 C 196.773438 23.933594 196.230469 23.730469 195.863281 23.316406 C 195.496094 22.90625 195.308594 22.304688 195.308594 21.511719 L 195.308594 15.996094 L 193.863281 15.996094 L 193.863281 14.152344 L 195.308594 14.152344 L 195.308594 11.203125 L 197.402344 10.203125 L 197.402344 14.152344 L 199.625 14.152344 L 199.625 15.996094 L 197.402344 15.996094 L 197.402344 21.054688 C 197.402344 21.398438 197.46875 21.652344 197.597656 21.820312 C 197.734375 21.984375 197.945312 22.066406 198.222656 22.066406 C 198.675781 22.066406 199.171875 21.914062 199.707031 21.617188 L 199.472656 23.503906 C 199.179688 23.648438 198.875 23.753906 198.550781 23.824219 C 198.226562 23.898438 197.875 23.933594 197.496094 23.933594 Z M 197.496094 23.933594 "/>
<path style=" stroke:none;fill-rule:nonzero;fill:rgb(0%,23.921569%,56.078434%);fill-opacity:1;" d="M 183.644531 23.710938 L 187.023438 18.753906 L 183.878906 14.152344 L 186.265625 14.152344 L 187.65625 16.191406 C 187.765625 16.332031 187.867188 16.488281 187.964844 16.648438 C 188.070312 16.8125 188.15625 16.960938 188.21875 17.097656 C 188.300781 16.953125 188.390625 16.804688 188.488281 16.648438 C 188.589844 16.488281 188.6875 16.332031 188.789062 16.191406 L 190.179688 14.152344 L 192.578125 14.152344 L 189.421875 18.753906 L 192.8125 23.710938 L 190.414062 23.710938 L 188.777344 21.316406 C 188.679688 21.167969 188.578125 21.015625 188.480469 20.859375 C 188.386719 20.695312 188.300781 20.546875 188.21875 20.410156 C 188.15625 20.546875 188.070312 20.695312 187.964844 20.859375 C 187.859375 21.015625 187.757812 21.167969 187.65625 21.316406 L 186.035156 23.710938 Z M 183.644531 23.710938 "/>
<path style=" stroke:none;fill-rule:nonzero;fill:rgb(0%,23.921569%,56.078434%);fill-opacity:1;" d="M 178.566406 23.9375 C 177.664062 23.9375 176.886719 23.726562 176.230469 23.308594 C 175.578125 22.890625 175.078125 22.308594 174.730469 21.558594 C 174.378906 20.804688 174.207031 19.925781 174.207031 18.921875 C 174.207031 17.878906 174.386719 16.988281 174.746094 16.246094 C 175.109375 15.5 175.617188 14.925781 176.269531 14.527344 C 176.921875 14.125 177.6875 13.925781 178.566406 13.925781 C 179.320312 13.925781 180.003906 14.089844 180.621094 14.414062 C 181.242188 14.738281 181.738281 15.238281 182.105469 15.910156 C 182.472656 16.578125 182.65625 17.429688 182.65625 18.464844 C 182.65625 18.625 182.652344 18.820312 182.644531 19.042969 C 182.640625 19.261719 182.621094 19.484375 182.589844 19.707031 L 176.289062 19.707031 C 176.324219 20.195312 176.441406 20.617188 176.632812 20.980469 C 176.832031 21.339844 177.097656 21.625 177.425781 21.832031 C 177.757812 22.03125 178.144531 22.128906 178.59375 22.128906 C 179.03125 22.128906 179.417969 22.058594 179.753906 21.914062 C 180.085938 21.765625 180.410156 21.527344 180.714844 21.203125 L 181.925781 22.484375 C 181.535156 22.914062 181.054688 23.265625 180.488281 23.535156 C 179.929688 23.800781 179.289062 23.9375 178.566406 23.9375 Z M 176.296875 18.015625 L 180.601562 18.015625 C 180.582031 17.558594 180.488281 17.160156 180.320312 16.816406 C 180.160156 16.472656 179.929688 16.210938 179.628906 16.023438 C 179.332031 15.828125 178.96875 15.730469 178.539062 15.730469 C 177.941406 15.730469 177.429688 15.917969 177.007812 16.292969 C 176.589844 16.667969 176.355469 17.242188 176.296875 18.015625 Z M 176.296875 18.015625 "/>
<path style=" stroke:none;fill-rule:nonzero;fill:rgb(0%,23.921569%,56.078434%);fill-opacity:1;" d="M 161.511719 23.710938 L 161.511719 10.617188 L 163.566406 10.617188 L 168.925781 18.867188 C 169.007812 18.992188 169.097656 19.144531 169.195312 19.324219 C 169.300781 19.5 169.390625 19.671875 169.46875 19.839844 C 169.460938 19.6875 169.449219 19.519531 169.4375 19.332031 C 169.433594 19.144531 169.429688 18.992188 169.429688 18.867188 L 169.429688 10.617188 L 171.578125 10.617188 L 171.578125 23.710938 L 169.605469 23.710938 L 164.144531 15.421875 C 164.070312 15.296875 163.980469 15.144531 163.875 14.964844 C 163.773438 14.785156 163.683594 14.621094 163.601562 14.46875 C 163.628906 14.621094 163.640625 14.78125 163.640625 14.957031 C 163.648438 15.125 163.652344 15.28125 163.652344 15.421875 L 163.652344 23.710938 Z M 161.511719 23.710938 "/>
<path style=" stroke:none;fill-rule:nonzero;fill:rgb(0%,23.921569%,56.078434%);fill-opacity:1;" d="M 150.339844 23.9375 C 149.4375 23.9375 148.660156 23.726562 148.003906 23.308594 C 147.351562 22.890625 146.851562 22.308594 146.503906 21.558594 C 146.152344 20.804688 145.980469 19.925781 145.980469 18.921875 C 145.980469 17.878906 146.160156 16.988281 146.519531 16.246094 C 146.882812 15.5 147.390625 14.925781 148.042969 14.527344 C 148.695312 14.125 149.460938 13.925781 150.339844 13.925781 C 151.09375 13.925781 151.777344 14.089844 152.394531 14.414062 C 153.015625 14.738281 153.511719 15.238281 153.878906 15.910156 C 154.246094 16.578125 154.429688 17.429688 154.429688 18.464844 C 154.429688 18.625 154.425781 18.820312 154.417969 19.042969 C 154.414062 19.261719 154.394531 19.484375 154.363281 19.707031 L 148.0625 19.707031 C 148.097656 20.195312 148.214844 20.617188 148.40625 20.980469 C 148.605469 21.339844 148.871094 21.625 149.199219 21.832031 C 149.53125 22.03125 149.917969 22.128906 150.367188 22.128906 C 150.800781 22.128906 151.1875 22.058594 151.523438 21.914062 C 151.859375 21.765625 152.183594 21.527344 152.484375 21.203125 L 153.699219 22.484375 C 153.308594 22.914062 152.828125 23.265625 152.261719 23.535156 C 151.703125 23.800781 151.0625 23.9375 150.339844 23.9375 Z M 148.070312 18.015625 L 152.375 18.015625 C 152.355469 17.558594 152.261719 17.160156 152.09375 16.816406 C 151.933594 16.472656 151.703125 16.210938 151.402344 16.023438 C 151.105469 15.828125 150.742188 15.730469 150.3125 15.730469 C 149.714844 15.730469 149.203125 15.917969 148.78125 16.292969 C 148.363281 16.667969 148.125 17.242188 148.070312 18.015625 Z M 148.070312 18.015625 "/>
<path style=" stroke:none;fill-rule:nonzero;fill:rgb(0%,23.921569%,56.078434%);fill-opacity:1;" d="M 139.09375 23.710938 L 135.601562 14.152344 L 137.757812 14.152344 L 139.851562 20.0625 C 139.902344 20.207031 139.949219 20.355469 140 20.511719 C 140.050781 20.667969 140.09375 20.828125 140.132812 20.988281 C 140.171875 20.828125 140.21875 20.671875 140.261719 20.519531 C 140.3125 20.367188 140.363281 20.210938 140.417969 20.0625 L 142.484375 14.152344 L 144.628906 14.152344 L 141.136719 23.710938 Z M 139.09375 23.710938 "/>
<path style=" stroke:none;fill-rule:nonzero;fill:rgb(0%,23.921569%,56.078434%);fill-opacity:1;" d="M 131.460938 23.710938 L 131.460938 14.152344 L 133.550781 14.152344 L 133.550781 23.710938 Z M 132.496094 12.765625 C 132.152344 12.765625 131.859375 12.644531 131.617188 12.402344 C 131.375 12.160156 131.253906 11.867188 131.253906 11.523438 C 131.253906 11.175781 131.371094 10.878906 131.609375 10.632812 C 131.851562 10.386719 132.144531 10.261719 132.496094 10.261719 C 132.855469 10.261719 133.15625 10.382812 133.390625 10.625 C 133.632812 10.867188 133.753906 11.167969 133.753906 11.523438 C 133.753906 11.871094 133.632812 12.167969 133.390625 12.410156 C 133.148438 12.648438 132.847656 12.765625 132.496094 12.765625 Z M 132.496094 12.765625 "/>
<path style=" stroke:none;fill-rule:nonzero;fill:rgb(0%,23.921569%,56.078434%);fill-opacity:1;" d="M 123.925781 23.710938 L 123.925781 14.152344 L 126.019531 14.152344 L 126.019531 15.253906 C 126.203125 14.84375 126.484375 14.519531 126.859375 14.28125 C 127.238281 14.046875 127.65625 13.925781 128.109375 13.925781 C 128.75 13.925781 129.292969 14.136719 129.734375 14.554688 L 129.445312 16.488281 C 129.207031 16.304688 128.972656 16.167969 128.734375 16.085938 C 128.5 16.007812 128.238281 15.964844 127.953125 15.964844 C 127.550781 15.964844 127.210938 16.066406 126.921875 16.265625 C 126.636719 16.464844 126.414062 16.75 126.253906 17.117188 C 126.097656 17.484375 126.019531 17.921875 126.019531 18.425781 L 126.019531 23.710938 Z M 123.925781 23.710938 "/>
<path style=" stroke:none;fill-rule:nonzero;fill:rgb(0%,23.921569%,56.078434%);fill-opacity:1;" d="M 110.949219 23.710938 L 110.949219 10.617188 L 115.074219 10.617188 C 116.207031 10.617188 117.164062 10.804688 117.949219 11.175781 C 118.742188 11.542969 119.378906 12.042969 119.863281 12.671875 C 120.355469 13.296875 120.714844 14 120.9375 14.777344 C 121.160156 15.558594 121.273438 16.351562 121.273438 17.164062 C 121.273438 17.910156 121.167969 18.667969 120.957031 19.4375 C 120.746094 20.203125 120.398438 20.910156 119.921875 21.558594 C 119.441406 22.207031 118.800781 22.730469 117.996094 23.121094 C 117.195312 23.515625 116.195312 23.710938 115 23.710938 Z M 113.105469 21.671875 L 115.234375 21.671875 C 115.949219 21.671875 116.550781 21.539062 117.035156 21.277344 C 117.519531 21.011719 117.910156 20.65625 118.203125 20.210938 C 118.5 19.769531 118.710938 19.285156 118.835938 18.753906 C 118.96875 18.222656 119.03125 17.695312 119.03125 17.164062 C 119.03125 16.601562 118.964844 16.054688 118.828125 15.515625 C 118.691406 14.976562 118.476562 14.488281 118.183594 14.058594 C 117.898438 13.628906 117.527344 13.285156 117.074219 13.027344 C 116.617188 12.765625 116.074219 12.636719 115.4375 12.636719 L 113.105469 12.636719 Z M 113.105469 21.671875 "/>
<path style=" stroke:none;fill-rule:nonzero;fill:rgb(0%,23.921569%,56.078434%);fill-opacity:1;" d="M 105.710938 23.710938 L 105.710938 14.152344 L 107.804688 14.152344 L 107.804688 23.710938 Z M 106.746094 12.765625 C 106.40625 12.765625 106.113281 12.644531 105.871094 12.402344 C 105.628906 12.160156 105.507812 11.867188 105.507812 11.523438 C 105.507812 11.175781 105.625 10.878906 105.859375 10.632812 C 106.105469 10.386719 106.398438 10.261719 106.746094 10.261719 C 107.109375 10.261719 107.40625 10.382812 107.644531 10.625 C 107.886719 10.867188 108.007812 11.167969 108.007812 11.523438 C 108.007812 11.871094 107.886719 12.167969 107.644531 12.410156 C 107.402344 12.648438 107.101562 12.765625 106.746094 12.765625 Z M 106.746094 12.765625 "/>
<path style=" stroke:none;fill-rule:nonzero;fill:rgb(0%,23.921569%,56.078434%);fill-opacity:1;" d="M 92.511719 23.710938 L 92.511719 10.617188 L 94.667969 10.617188 L 94.667969 15.917969 L 100.402344 15.917969 L 100.402344 10.617188 L 102.558594 10.617188 L 102.558594 23.710938 L 100.402344 23.710938 L 100.402344 17.96875 L 94.667969 17.96875 L 94.667969 23.710938 Z M 92.511719 23.710938 "/>
<g clip-path="url(#clip6)" clip-rule="nonzero">
<path style=" stroke:none;fill-rule:nonzero;fill:rgb(0%,23.921569%,56.078434%);fill-opacity:1;" d="M 75.332031 23.804688 C 74.929688 23.808594 74.527344 23.765625 74.132812 23.683594 C 73.285156 23.507812 72.480469 23.15625 71.777344 22.652344 C 71.070312 22.144531 70.480469 21.496094 70.039062 20.75 L 70.019531 20.707031 C 69.800781 20.292969 69.746094 19.808594 69.871094 19.359375 C 69.992188 18.90625 70.285156 18.519531 70.683594 18.273438 C 70.957031 18.105469 71.273438 18.019531 71.59375 18.019531 C 71.917969 18.019531 72.230469 18.105469 72.507812 18.269531 C 72.785156 18.429688 73.011719 18.664062 73.167969 18.945312 L 73.230469 19.046875 L 73.421875 19.304688 L 73.679688 19.566406 C 74.011719 19.855469 74.417969 20.050781 74.847656 20.136719 C 75.199219 20.203125 75.558594 20.195312 75.90625 20.117188 C 76.253906 20.039062 76.582031 19.886719 76.867188 19.671875 C 77.164062 19.460938 77.410156 19.1875 77.585938 18.871094 C 77.761719 18.554688 77.867188 18.203125 77.890625 17.839844 C 77.921875 17.480469 77.875 17.117188 77.753906 16.78125 C 77.632812 16.441406 77.441406 16.132812 77.191406 15.875 C 77.191406 15.875 71.277344 9.769531 71.148438 9.601562 L 70.859375 9.167969 C 70.167969 8.085938 69.855469 6.804688 69.96875 5.523438 C 70.035156 4.636719 70.296875 3.777344 70.734375 3.007812 L 70.992188 2.558594 C 71.460938 1.886719 72.070312 1.332031 72.777344 0.929688 L 73.070312 0.722656 C 74.433594 -0.0273438 76.039062 -0.214844 77.535156 0.207031 C 79.035156 0.628906 80.308594 1.621094 81.085938 2.972656 C 81.207031 3.175781 81.285156 3.402344 81.316406 3.636719 C 81.347656 3.871094 81.332031 4.109375 81.269531 4.339844 C 81.210938 4.574219 81.101562 4.789062 80.953125 4.980469 C 80.808594 5.171875 80.625 5.332031 80.414062 5.449219 C 80.148438 5.609375 79.84375 5.691406 79.53125 5.691406 C 79.214844 5.691406 78.902344 5.605469 78.625 5.441406 C 78.351562 5.28125 78.125 5.046875 77.96875 4.769531 C 77.800781 4.480469 77.570312 4.230469 77.296875 4.039062 C 77.027344 3.847656 76.714844 3.710938 76.386719 3.648438 C 76.054688 3.582031 75.710938 3.589844 75.382812 3.664062 C 75.050781 3.738281 74.738281 3.878906 74.464844 4.082031 C 74.203125 4.289062 73.984375 4.546875 73.832031 4.839844 C 73.675781 5.136719 73.585938 5.460938 73.566406 5.792969 C 73.539062 6.128906 73.582031 6.464844 73.691406 6.78125 C 73.804688 7.097656 73.980469 7.386719 74.207031 7.632812 L 79.765625 13.371094 C 80.601562 14.242188 81.164062 15.339844 81.382812 16.53125 C 81.601562 17.722656 81.464844 18.949219 80.992188 20.0625 C 80.519531 21.175781 79.730469 22.125 78.722656 22.789062 C 77.714844 23.457031 76.53125 23.808594 75.324219 23.804688 Z M 75.332031 23.804688 "/>
</g>
<g clip-path="url(#clip7)" clip-rule="nonzero">
<path style=" stroke:none;fill-rule:nonzero;fill:rgb(0%,23.921569%,56.078434%);fill-opacity:1;" d="M 57.757812 23.804688 C 56.175781 23.800781 54.65625 23.171875 53.539062 22.046875 C 52.417969 20.925781 51.789062 19.40625 51.785156 17.820312 L 51.785156 5.984375 C 51.785156 5.199219 51.941406 4.417969 52.242188 3.695312 C 52.542969 2.96875 52.980469 2.308594 53.535156 1.753906 C 54.089844 1.195312 54.75 0.757812 55.472656 0.457031 C 56.199219 0.15625 56.976562 0 57.757812 0 C 58.542969 0 59.320312 0.15625 60.042969 0.457031 C 60.769531 0.757812 61.425781 1.195312 61.980469 1.753906 C 62.535156 2.308594 62.976562 2.96875 63.277344 3.695312 C 63.578125 4.417969 63.730469 5.199219 63.730469 5.984375 L 63.730469 17.820312 C 63.730469 19.40625 63.101562 20.925781 61.980469 22.046875 C 60.859375 23.171875 59.34375 23.800781 57.757812 23.804688 Z M 57.757812 3.613281 C 57.132812 3.613281 56.53125 3.863281 56.085938 4.308594 C 55.644531 4.753906 55.394531 5.355469 55.394531 5.984375 L 55.394531 17.820312 C 55.390625 18.132812 55.449219 18.441406 55.566406 18.730469 C 55.683594 19.019531 55.859375 19.28125 56.078125 19.503906 C 56.300781 19.722656 56.5625 19.898438 56.851562 20.015625 C 57.136719 20.132812 57.449219 20.191406 57.757812 20.191406 C 58.386719 20.1875 58.988281 19.9375 59.429688 19.496094 C 59.875 19.050781 60.125 18.449219 60.125 17.820312 L 60.125 5.984375 C 60.117188 5.359375 59.863281 4.757812 59.421875 4.316406 C 58.980469 3.875 58.382812 3.621094 57.757812 3.613281 Z M 57.757812 3.613281 "/>
</g>
<g clip-path="url(#clip8)" clip-rule="nonzero">
<path style=" stroke:none;fill-rule:nonzero;fill:rgb(0%,23.921569%,56.078434%);fill-opacity:1;" d="M 34.5625 12.207031 L 34.5625 22.015625 C 34.5625 22.492188 34.371094 22.953125 34.035156 23.289062 C 33.695312 23.628906 33.238281 23.820312 32.761719 23.820312 C 32.28125 23.820312 31.824219 23.628906 31.484375 23.289062 C 31.148438 22.953125 30.957031 22.492188 30.957031 22.015625 L 30.957031 4.710938 Z M 44.292969 19.101562 L 44.292969 1.804688 C 44.273438 1.339844 44.074219 0.898438 43.738281 0.574219 C 43.402344 0.253906 42.953125 0.0742188 42.488281 0.0742188 C 42.023438 0.0742188 41.574219 0.253906 41.238281 0.574219 C 40.902344 0.898438 40.703125 1.339844 40.683594 1.804688 L 40.683594 11.601562 Z M 34.390625 1.023438 L 34.390625 0.988281 C 34.230469 0.699219 33.992188 0.457031 33.707031 0.285156 C 33.417969 0.117188 33.09375 0.0273438 32.761719 0.0273438 C 32.636719 0.0234375 32.515625 0.0390625 32.398438 0.0625 C 31.992188 0.144531 31.628906 0.363281 31.367188 0.683594 C 31.109375 1.003906 30.96875 1.40625 30.972656 1.820312 L 30.972656 2.234375 L 40.867188 22.8125 C 41.023438 23.105469 41.253906 23.351562 41.535156 23.527344 C 41.816406 23.699219 42.140625 23.796875 42.46875 23.804688 C 42.609375 23.804688 42.75 23.785156 42.882812 23.75 C 43.28125 23.667969 43.640625 23.449219 43.894531 23.132812 C 44.152344 22.816406 44.292969 22.421875 44.292969 22.015625 L 44.292969 21.605469 C 44.292969 21.605469 34.65625 1.574219 34.390625 1.023438 Z M 34.390625 1.023438 "/>
</g>
<g clip-path="url(#clip9)" clip-rule="nonzero">
<path style=" stroke:none;fill-rule:nonzero;fill:rgb(0%,23.921569%,56.078434%);fill-opacity:1;" d="M 17.441406 23.804688 C 15.855469 23.800781 14.335938 23.171875 13.21875 22.050781 C 12.097656 20.925781 11.46875 19.40625 11.46875 17.820312 L 11.46875 5.984375 C 11.46875 4.398438 12.097656 2.875 13.214844 1.753906 C 14.335938 0.628906 15.855469 0 17.441406 0 C 19.023438 0 20.542969 0.628906 21.664062 1.753906 C 22.78125 2.875 23.410156 4.398438 23.410156 5.984375 L 23.410156 17.820312 C 23.410156 19.40625 22.78125 20.925781 21.660156 22.050781 C 20.542969 23.171875 19.023438 23.800781 17.441406 23.804688 Z M 17.441406 3.613281 C 17.128906 3.613281 16.820312 3.675781 16.535156 3.792969 C 16.246094 3.910156 15.984375 4.085938 15.765625 4.308594 C 15.546875 4.527344 15.371094 4.789062 15.253906 5.074219 C 15.132812 5.363281 15.074219 5.671875 15.074219 5.984375 L 15.074219 17.820312 C 15.074219 18.449219 15.324219 19.050781 15.765625 19.496094 C 16.210938 19.941406 16.8125 20.191406 17.441406 20.191406 C 18.066406 20.191406 18.667969 19.941406 19.113281 19.496094 C 19.554688 19.050781 19.804688 18.449219 19.804688 17.820312 L 19.804688 5.984375 C 19.796875 5.359375 19.546875 4.757812 19.101562 4.316406 C 18.660156 3.875 18.066406 3.621094 17.441406 3.613281 Z M 17.441406 3.613281 "/>
</g>
<g clip-path="url(#clip10)" clip-rule="nonzero">
<path style=" stroke:none;fill-rule:nonzero;fill:rgb(0%,23.921569%,56.078434%);fill-opacity:1;" d="M 1.957031 23.792969 C 1.699219 23.796875 1.441406 23.746094 1.203125 23.644531 C 0.960938 23.546875 0.746094 23.398438 0.5625 23.214844 C 0.378906 23.027344 0.238281 22.808594 0.140625 22.566406 C 0.0429688 22.328125 -0.00390625 22.070312 0 21.808594 L 0 1.9375 C 0.0078125 1.421875 0.222656 0.929688 0.589844 0.566406 C 0.960938 0.207031 1.457031 0.0078125 1.972656 0.0117188 C 2.402344 0.00390625 2.824219 0.144531 3.167969 0.40625 C 3.511719 0.667969 3.753906 1.039062 3.863281 1.457031 C 3.875 1.503906 3.886719 1.550781 3.894531 1.597656 L 3.894531 1.683594 C 3.914062 1.789062 3.921875 1.898438 3.921875 2.003906 C 3.921875 2.003906 3.921875 21.597656 3.921875 21.820312 C 3.921875 22.082031 3.871094 22.335938 3.773438 22.578125 C 3.675781 22.816406 3.53125 23.035156 3.351562 23.21875 C 3.167969 23.402344 2.949219 23.546875 2.710938 23.644531 C 2.472656 23.742188 2.21875 23.792969 1.957031 23.792969 Z M 1.957031 23.792969 "/>
</g>
</g>
</svg>
