<svg width="20" height="21" viewBox="0 0 20 21" fill="none" xmlns="http://www.w3.org/2000/svg">
<path d="M2.85156 5.46094C2.61719 5.57812 2.5 5.77344 2.5 5.96875C2.5 9.5625 3.98438 15.6953 9.76562 18.4688C9.88281 18.5469 10.0781 18.5469 10.1953 18.4688C15.9766 15.7344 17.4609 9.5625 17.5 5.96875C17.5 5.77344 17.3438 5.57812 17.1484 5.46094L10 2.45312L2.85156 5.46094ZM17.8516 3.74219C18.7109 4.13281 19.375 4.95312 19.375 5.96875C19.3359 9.875 17.7344 16.9453 11.0156 20.1875C10.3516 20.5 9.60938 20.5 8.94531 20.1875C2.22656 16.9453 0.625 9.875 0.625 5.96875C0.585938 4.95312 1.25 4.13281 2.10938 3.74219L9.45312 0.617188C9.60938 0.539062 9.80469 0.5 10 0.5C10.1562 0.5 10.3516 0.539062 10.5078 0.617188L17.8516 3.74219ZM12.1875 8.625C12.1875 9.52344 11.6406 10.2656 10.9375 10.6172V13.3125C10.9375 13.8594 10.5078 14.25 10 14.25C9.45312 14.25 9.0625 13.8594 9.0625 13.3125V10.6172C8.32031 10.2656 7.8125 9.52344 7.8125 8.625C7.8125 7.45312 8.78906 6.4375 10 6.4375C11.1719 6.4375 12.1875 7.45312 12.1875 8.625Z" fill="#F4F7FA"/>
</svg>
