<svg width="20" height="20" viewBox="0 0 20 20" fill="none" xmlns="http://www.w3.org/2000/svg">
<path d="M9.99995 18.8882C9.96495 18.8882 9.92994 18.8849 9.89495 18.8782C9.58161 18.8182 2.22217 17.2521 2.22217 4.16602C2.22217 3.93102 2.36995 3.72157 2.59161 3.64268L9.4505 1.20379C9.80606 1.08046 10.1927 1.08046 10.5449 1.20213L17.4083 3.64268C17.6299 3.72157 17.7777 3.93102 17.7777 4.16602C17.7777 17.2521 10.4183 18.8182 10.1049 18.8782C10.0705 18.8849 10.0355 18.8882 9.99995 18.8882ZM3.3355 4.55713C3.4655 15.6249 9.11328 17.5316 9.99995 17.7621C10.8866 17.531 16.5344 15.6249 16.6644 4.55713L10.1772 2.25046C10.0638 2.21157 9.93495 2.21157 9.81772 2.25213L3.3355 4.55713Z" fill="#001B41"/>
<path d="M11.8462 9V7.84615C11.8462 6.84554 11.0006 6 10 6C8.99938 6 8.15385 6.84554 8.15385 7.84615V9C7.51762 9 7 9.51762 7 10.1538V12.2308C7 12.867 7.51762 13.3846 8.15385 13.3846H11.8462C12.4824 13.3846 13 12.867 13 12.2308V10.1538C13 9.51762 12.4824 9 11.8462 9ZM9.07692 7.84615C9.07692 7.41046 9.47154 6.92308 10 6.92308C10.5285 6.92308 10.9231 7.41046 10.9231 7.84615V9H9.07692V7.84615ZM12.0769 12.2308C12.0769 12.3582 11.9735 12.4615 11.8462 12.4615H8.15385C8.02646 12.4615 7.92308 12.3582 7.92308 12.2308V10.1538C7.92308 10.0265 8.02646 9.92308 8.15385 9.92308H11.8462C11.9735 9.92308 12.0769 10.0265 12.0769 10.1538V12.2308Z" fill="#001B41"/>
</svg>
