<svg width="24" height="24" viewBox="0 0 24 24" fill="none" xmlns="http://www.w3.org/2000/svg">
<path d="M22.374 20.9595L16.2193 14.8048C17.3313 13.3882 18.0007 11.6075 18.0007 9.66683C18 5.06416 14.2693 1.3335 9.66667 1.3335C5.064 1.3335 1.33333 5.06416 1.33333 9.66683C1.33333 14.2695 5.064 18.0002 9.66667 18.0002C11.6073 18.0002 13.3887 17.3315 14.8047 16.2188L20.9593 22.3735C21.1547 22.5688 21.4107 22.6662 21.6667 22.6662C21.9227 22.6662 22.1787 22.5688 22.374 22.3735C22.7647 21.9828 22.7647 21.3502 22.374 20.9595ZM9.66667 16.0002C6.17466 16.0002 3.33333 13.1588 3.33333 9.66683C3.33333 6.17483 6.17466 3.3335 9.66667 3.3335C13.1587 3.3335 16 6.17483 16 9.66683C16 13.1588 13.1587 16.0002 9.66667 16.0002Z" fill="#F4F7FA"/>
</svg>
