<svg width="16" height="16" viewBox="0 0 16 16" fill="none" xmlns="http://www.w3.org/2000/svg">
<g clip-path="url(#clip0_2123_10808)">
<g clip-path="url(#clip1_2123_10808)">
<path d="M13 2.5H3C2.71875 2.5 2.5 2.75 2.5 3V13C2.5 13.2812 2.71875 13.5 3 13.5H13C13.25 13.5 13.5 13.2812 13.5 13V3C13.5 2.75 13.25 2.5 13 2.5ZM3 1H13C14.0938 1 15 1.90625 15 3V13C15 14.125 14.0938 15 13 15H3C1.875 15 1 14.125 1 13V3C1 1.90625 1.875 1 3 1Z" fill="#718095"/>
</g>
</g>
<g clip-path="url(#clip2_2123_10808)">
<path d="M2.375 0.375H13.625C14.8555 0.375 15.875 1.39453 15.875 2.625V13.875C15.875 15.1406 14.8555 16.125 13.625 16.125H2.375C1.10938 16.125 0.125 15.1406 0.125 13.875V2.625C0.125 1.39453 1.10938 0.375 2.375 0.375ZM5.46875 7.40625C4.97656 7.40625 4.625 7.79297 4.625 8.25C4.625 8.74219 4.97656 9.09375 5.46875 9.09375H10.5312C10.9883 9.09375 11.375 8.74219 11.375 8.25C11.375 7.79297 10.9883 7.40625 10.5312 7.40625H5.46875Z" fill="#1474C4"/>
</g>
<defs>
<clipPath id="clip0_2123_10808">
<rect width="16" height="16" fill="white"/>
</clipPath>
<clipPath id="clip1_2123_10808">
<rect width="16" height="16" fill="white"/>
</clipPath>
<clipPath id="clip2_2123_10808">
<rect width="16" height="16" fill="white"/>
</clipPath>
</defs>
</svg>
