<svg width="96" height="96" viewBox="0 0 96 96" fill="none" xmlns="http://www.w3.org/2000/svg">
<path d="M23.2852 30.9062C17.0703 36.6875 12.8789 43.625 11 48.25C12.8789 52.875 17.0703 59.8125 23.2852 65.5938C29.5 71.375 37.7383 76 48 76C58.1172 76 66.3555 71.375 72.5703 65.5938C78.7852 59.8125 82.9766 52.875 85 48.25C82.9766 43.625 78.7852 36.6875 72.5703 30.9062C66.3555 25.125 58.1172 20.5 48 20.5C37.7383 20.5 29.5 25.125 23.2852 30.9062ZM48 15.875C59.5625 15.875 68.957 21.2227 75.75 27.582C82.543 33.7969 87.0234 41.3125 89.1914 46.5156C89.625 47.6719 89.625 48.9727 89.1914 50.1289C87.0234 55.1875 82.543 62.7031 75.75 69.0625C68.957 75.4219 59.5625 80.625 48 80.625C36.293 80.625 26.8984 75.4219 20.1055 69.0625C13.3125 62.7031 8.83203 55.1875 6.66406 50.1289C6.23047 48.9727 6.23047 47.6719 6.66406 46.5156C8.83203 41.3125 13.3125 33.7969 20.1055 27.582C26.8984 21.2227 36.293 15.875 48 15.875ZM34.125 48.25C34.125 53.3086 36.7266 57.7891 41.0625 60.3906C45.2539 62.8477 50.6016 62.8477 54.9375 60.3906C59.1289 57.7891 61.875 53.3086 61.875 48.25C61.875 43.3359 59.1289 38.8555 54.9375 36.2539C50.6016 33.7969 45.2539 33.7969 41.0625 36.2539C36.7266 38.8555 34.125 43.3359 34.125 48.25ZM66.5 48.25C66.5 54.8984 62.8867 60.9688 57.25 64.293C51.4688 67.6172 44.3867 67.6172 38.75 64.293C32.9688 60.9688 29.5 54.8984 29.5 48.25C29.5 41.7461 32.9688 35.6758 38.75 32.3516C44.3867 29.0273 51.4688 29.0273 57.25 32.3516C62.8867 35.6758 66.5 41.7461 66.5 48.25Z" fill="#001B41"/>
</svg>
