<svg width="24" height="24" viewBox="0 0 24 24" fill="none" xmlns="http://www.w3.org/2000/svg">
<path d="M20.3335 16.6668H9.66683C8.38016 16.6668 7.3335 15.6202 7.3335 14.3335V3.66683C7.3335 2.38016 8.38016 1.3335 9.66683 1.3335H20.3335C21.6202 1.3335 22.6668 2.38016 22.6668 3.66683V14.3335C22.6668 15.6202 21.6202 16.6668 20.3335 16.6668ZM9.66683 3.3335C9.48283 3.3335 9.3335 3.48283 9.3335 3.66683V14.3335C9.3335 14.5175 9.48283 14.6668 9.66683 14.6668H20.3335C20.5175 14.6668 20.6668 14.5175 20.6668 14.3335V3.66683C20.6668 3.48283 20.5175 3.3335 20.3335 3.3335H9.66683ZM16.6668 20.3335V18.6668H14.6668V20.3335C14.6668 20.5175 14.5175 20.6668 14.3335 20.6668H3.66683C3.48283 20.6668 3.3335 20.5175 3.3335 20.3335V9.66683C3.3335 9.48283 3.48283 9.3335 3.66683 9.3335H5.3335V7.3335H3.66683C2.38016 7.3335 1.3335 8.38016 1.3335 9.66683V20.3335C1.3335 21.6202 2.38016 22.6668 3.66683 22.6668H14.3335C15.6202 22.6668 16.6668 21.6202 16.6668 20.3335Z" fill="black"/>
</svg>
