<svg width="16" height="16" viewBox="0 0 16 16" fill="none" xmlns="http://www.w3.org/2000/svg">
<path d="M8.85062 8.22217L13.6475 3.42528C13.8213 3.25195 13.8213 2.97017 13.6475 2.79684C13.4737 2.62306 13.1928 2.62306 13.0191 2.79684L8.22217 7.59373L3.42528 2.79684C3.2515 2.62306 2.97062 2.62306 2.79684 2.79684C2.62306 2.97017 2.62306 3.25195 2.79684 3.42528L7.59373 8.22217L2.79684 13.0191C2.62306 13.1924 2.62306 13.4742 2.79684 13.6475C2.8835 13.7342 2.99728 13.7777 3.11106 13.7777C3.22484 13.7777 3.33862 13.7342 3.42528 13.6475L8.22217 8.85062L13.0191 13.6475C13.1057 13.7342 13.2195 13.7777 13.3333 13.7777C13.4471 13.7777 13.5608 13.7342 13.6475 13.6475C13.8213 13.4742 13.8213 13.1924 13.6475 13.0191L8.85062 8.22217Z" fill="#001B41"/>
</svg>
