<svg width="16" height="17" viewBox="0 0 16 17" fill="none" xmlns="http://www.w3.org/2000/svg">
<path d="M13.625 2.0625H2.375C2.05859 2.0625 1.8125 2.34375 1.8125 2.625V13.875C1.8125 14.1914 2.05859 14.4375 2.375 14.4375H13.625C13.9062 14.4375 14.1875 14.1914 14.1875 13.875V2.625C14.1875 2.34375 13.9062 2.0625 13.625 2.0625ZM2.375 0.375H13.625C14.8555 0.375 15.875 1.39453 15.875 2.625V13.875C15.875 15.1406 14.8555 16.125 13.625 16.125H2.375C1.10938 16.125 0.125 15.1406 0.125 13.875V2.625C0.125 1.39453 1.10938 0.375 2.375 0.375Z" fill="#718095"/>
</svg>
