<svg fill="#000000" xmlns="http://www.w3.org/2000/svg"  viewBox="0 0 50 50" width="50px" height="50px"><path d="M48.6 32H46v-1c0-.6-.4-1-1-1s-1 .4-1 1v1h-8v-1c0-.6-.4-1-1-1s-1 .4-1 1v1h-2.6c-.8 0-1.4.6-1.4 1.4v15.3c0 .7.6 1.3 1.4 1.3h17.3c.8 0 1.3-.6 1.3-1.4V33.4C49.9 32.6 49.4 32 48.6 32zM34 34c0 .6.4 1 1 1s1-.4 1-1h8c0 .6.4 1 1 1s1-.4 1-1h2v2H32v-2H34zM35 40h2v2h-2V40zM39 40h2v2h-2V40zM43 40h2v2h-2V40zM35 44h2v2h-2V44zM39 44h2v2h-2V44zM43 44h2v2h-2V44zM30.952 7.823C30.1 6.414 28.8 5.527 27.083 5.185 26.117 3.965 24.301 3.3 21.879 3.3h-.001c-3.685.083-6.378 1.21-8.005 3.35-1.926 2.533-2.287 6.416-1.076 11.546-.413.531-.785 1.38-.688 2.54.296 2.159 1.116 3.05 1.785 3.415.308 1.749 1.156 3.676 2.007 4.597v3.561c-.611 1.376-2.601 2.172-4.892 3.089-3.864 1.546-8.673 3.47-9.007 9.549L1.943 46H28V28.747c.846-.916 1.69-2.827 2.001-4.569.712-.351 1.59-1.241 1.795-3.494.095-1.126-.215-1.954-.641-2.487C32.004 15.468 32.749 10.794 30.952 7.823zM29.059 18.164l-.316.824.793.396c.089.064.329.409.269 1.125C29.669 21.988 29.2 22.383 29.1 22.4H28.19l-.086.905c-.181 1.896-1.239 3.854-1.6 4.126L26 27.719V32.5c-.018.373-1.464 1.5-4 1.5-2.489 0-4-1.042-4-1.5 0-.152-.039-.292-.1-.421V28.3l.02-.568-.504-.288c-.381-.284-1.439-2.242-1.621-4.138l-.012-.896h-.909c-.143-.056-.59-.53-.778-1.894-.069-.838.359-1.185.358-1.185l.59-.392-.174-.687c-1.213-4.783-1.012-8.28.596-10.395 1.239-1.63 3.412-2.491 6.435-2.56 1.891 0 3.252.476 3.736 1.304l.244.419L26.36 7.09c1.332.188 2.274.766 2.881 1.769C30.689 11.254 29.926 15.735 29.059 18.164z"/></svg>