<svg width="96" height="96" viewBox="0 0 96 96" fill="none" xmlns="http://www.w3.org/2000/svg">
<path d="M38.3125 34.4062C37.5312 35.9688 36.125 36.9062 34.5625 37.2188L13.1562 40.3438L28.625 55.8125C29.875 56.9062 30.3438 58.625 30.0312 60.1875L26.4375 82.0625L45.5 71.75C47.0625 70.9688 48.7812 70.9688 50.3438 71.75L69.4062 82.0625L65.8125 60.1875C65.5 58.625 65.9688 56.9062 67.2188 55.8125L82.6875 40.3438L61.2812 37.2188C59.5625 36.9062 58.1562 35.9688 57.5312 34.4062L47.8438 14.7188L38.3125 34.4062ZM69.25 87.6875H69.4062L48 76.125L26.5938 87.6875C25.3438 88.3125 23.7812 88.1562 22.5312 87.375C21.4375 86.4375 20.8125 85.0312 21.125 83.625L25.1875 59.4062L7.84375 42.2188C6.75 41.125 6.4375 39.7188 6.90625 38.3125C7.375 37.0625 8.46875 35.9688 9.875 35.8125L33.7812 32.2188L44.5625 10.1875C45.1875 8.9375 46.4375 8 47.8438 8C49.4062 8 50.6562 8.9375 51.2812 10.1875L62.0625 32.2188L85.9688 35.8125C87.375 35.9688 88.4688 37.0625 88.9375 38.3125C89.4062 39.7188 89.0938 41.125 88 42.2188L70.6562 59.4062L74.7188 83.625C75.0312 85.0312 74.4062 86.4375 73.3125 87.375C72.0625 88.1562 70.6562 88.3125 69.25 87.6875Z" fill="#001B41"/>
</svg>
