<svg width="48" height="48" viewBox="0 0 48 48" fill="none" xmlns="http://www.w3.org/2000/svg">
<circle cx="24" cy="24" r="16" fill="#1474C4"/>
<path d="M31.7788 31.2222V31.7778C31.7788 32.3917 31.2815 32.8889 30.6677 32.8889H17.3338C16.7199 32.8889 16.2227 32.3917 16.2227 31.7778V31.2222C16.2227 31.2172 16.2243 31.2111 16.2243 31.2061C16.2349 28.145 19.2715 25.6667 22.3343 25.6667H25.6677C28.736 25.6667 31.7788 28.1539 31.7788 31.2222ZM24.001 24C26.4554 24 28.4454 22.01 28.4454 19.5556C28.4454 17.1011 26.4554 15.1111 24.001 15.1111C21.5465 15.1111 19.5565 17.1011 19.5565 19.5556C19.5565 22.01 21.5465 24 24.001 24Z" fill="white"/>
</svg>
