<?xml version="1.0" encoding="UTF-8"?>
<!-- Generated by Pixelmator Pro 3.6.17 -->
<svg width="32" height="32" viewBox="0 0 32 32" xmlns="http://www.w3.org/2000/svg">
    <path id="Path" fill="#095bb1" stroke="none" d="M 32 16 C 32 24.836555 24.836555 32 16 32 C 7.163444 32 0 24.836555 0 16 C 0 7.163445 7.163444 0 16 0 C 24.836555 0 32 7.163445 32 16 Z"/>
    <clipPath id="clipPath1">
        <path d="M 8 8 L 24 8 L 24 24 L 8 24 Z"/>
    </clipPath>
    <g id="Group" clip-path="url(#clipPath1)">
        <path id="path1" fill="#f4f7fa" stroke="none" d="M 12.2827 13.748899 C 11.923599 13.4142 11.903999 12.851601 12.2391 12.4925 L 15.350201 9.1591 C 15.686199 8.7987 16.313801 8.7987 16.649799 9.1591 L 19.7609 12.4925 C 20.096001 12.851601 20.076401 13.413799 19.7173 13.748899 C 19.5462 13.908899 19.3284 13.988001 19.111099 13.988001 C 18.8738 13.988001 18.6364 13.893299 18.4613 13.705799 L 16.888901 12.020901 L 16.888901 19.0991 C 16.888901 19.5898 16.4907 19.988001 16 19.988001 C 15.5093 19.988001 15.111099 19.5898 15.111099 19.0991 L 15.111099 12.020901 L 13.5387 13.705799 C 13.2036 14.0653 12.6404 14.083599 12.2827 13.748899 Z M 22.2222 18.210199 C 21.7316 18.210199 21.3333 18.6085 21.3333 19.0991 L 21.3333 20.432501 C 21.3333 20.922701 20.9347 21.321301 20.444401 21.321301 L 11.555599 21.321301 C 11.0653 21.321301 10.6667 20.922701 10.6667 20.432501 L 10.6667 19.0991 C 10.6667 18.6085 10.2684 18.210199 9.7778 18.210199 C 9.2871 18.210199 8.888901 18.6085 8.888901 19.0991 L 8.888901 20.432501 C 8.888901 21.903099 10.0849 23.0991 11.555599 23.0991 L 20.444401 23.0991 C 21.9151 23.0991 23.111099 21.903099 23.111099 20.432501 L 23.111099 19.0991 C 23.111099 18.6085 22.7129 18.210199 22.2222 18.210199 Z"/>
    </g>
</svg>
