<svg width="32" height="32" viewBox="0 0 32 32" fill="none" xmlns="http://www.w3.org/2000/svg">
<circle cx="16" cy="16" r="16" fill="#3196D6"/>
<g clip-path="url(#clip0_6540_429)">
<path d="M12.2827 13.7488C11.9236 13.4141 11.904 12.8514 12.2391 12.4923L15.3502 9.15901C15.6862 8.79856 16.3138 8.79856 16.6498 9.15901L19.7609 12.4923C20.096 12.8514 20.0765 13.4137 19.7174 13.7488C19.5462 13.9088 19.3285 13.9879 19.1111 13.9879C18.8738 13.9879 18.6365 13.8932 18.4614 13.7057L16.8889 12.0208V19.099C16.8889 19.5897 16.4907 19.9879 16 19.9879C15.5094 19.9879 15.1111 19.5897 15.1111 19.099V12.0208L13.5387 13.7057C13.2036 14.0652 12.6405 14.0834 12.2827 13.7488ZM22.2222 18.2101C21.7316 18.2101 21.3334 18.6083 21.3334 19.099V20.4323C21.3334 20.9226 20.9347 21.3212 20.4445 21.3212H11.5556C11.0654 21.3212 10.6667 20.9226 10.6667 20.4323V19.099C10.6667 18.6083 10.2685 18.2101 9.7778 18.2101C9.28714 18.2101 8.88892 18.6083 8.88892 19.099V20.4323C8.88892 21.903 10.0849 23.099 11.5556 23.099H20.4445C21.9151 23.099 23.1111 21.903 23.1111 20.4323V19.099C23.1111 18.6083 22.7129 18.2101 22.2222 18.2101Z" fill="#F4F7FA"/>
</g>
<defs>
<clipPath id="clip0_6540_429">
<rect width="16" height="16" fill="white" transform="translate(8 8)"/>
</clipPath>
</defs>
</svg>
