<svg width="16" height="16" viewBox="0 0 16 16" fill="none" xmlns="http://www.w3.org/2000/svg">
<path fill-rule="evenodd" clip-rule="evenodd" d="M11.4673 11.5329C10.7504 10.8263 9.72917 10.3333 8.556 10.3333H5.88933C3.80267 10.3333 1.89689 12.0236 1.89022 13.8791C1.89022 13.892 1.88978 13.9058 1.88889 13.92V14.3333H9.68046C9.57351 14.6192 9.50019 14.8646 9.50019 15C9.50019 15.0918 9.54841 15.1644 9.62757 15.2222H1.88889C1.39778 15.2222 1 14.8244 1 14.3333V13.8889C1 13.8869 1.00033 13.8847 1.00067 13.8824C1.001 13.8802 1.00133 13.878 1.00133 13.876C1.00978 11.4276 3.43911 9.44444 5.88933 9.44444H8.556C9.8626 9.44444 11.1634 10.0082 12.0944 10.9058L11.4673 11.5329ZM9.88933 4.55556C9.88933 3.08533 8.69289 1.88889 7.22267 1.88889C5.75244 1.88889 4.556 3.08533 4.556 4.55556C4.556 6.02578 5.75244 7.22222 7.22267 7.22222C8.69289 7.22222 9.88933 6.02578 9.88933 4.55556ZM3.66711 4.55556C3.66711 2.592 5.25911 1 7.22267 1C9.18622 1 10.7782 2.592 10.7782 4.55556C10.7782 6.51911 9.18622 8.11111 7.22267 8.11111C5.25911 8.11111 3.66711 6.51911 3.66711 4.55556Z" fill="#001B41"/>
<path d="M15.2019 11.0108L14.3187 10.1276C14.1485 9.95746 13.8515 9.95746 13.6814 10.1276L10.7399 13.0691C10.714 13.0948 10.696 13.125 10.6839 13.157L10.6817 13.1605L10.015 14.9936C9.98188 15.085 10.0045 15.1871 10.0732 15.2558C10.1209 15.3036 10.1847 15.329 10.25 15.329C10.2785 15.329 10.3075 15.3241 10.3354 15.314L12.1687 14.6473L12.1722 14.645C12.2042 14.6328 12.2344 14.6148 12.26 14.589L15.2019 11.6475C15.2869 11.5625 15.3337 11.4495 15.3337 11.3291C15.3337 11.2088 15.2869 11.0958 15.2019 11.0108ZM10.668 14.6611L11.1065 13.4558L11.8735 14.2228L10.668 14.6611ZM14.5017 11.6406L13.6885 10.8275L14 10.516L14.8132 11.3291L14.5017 11.6406Z" fill="#001B41"/>
</svg>
