<svg width="96" height="96" viewBox="0 0 96 96" fill="none" xmlns="http://www.w3.org/2000/svg">
<path d="M80.375 48.25C80.375 36.6875 74.1602 26.1367 64.1875 20.3555C54.0703 14.4297 41.7852 14.4297 31.8125 20.3555C21.6953 26.1367 15.625 36.6875 15.625 48.25C15.625 59.957 21.6953 70.5078 31.8125 76.2891C41.7852 82.2148 54.0703 82.2148 64.1875 76.2891C74.1602 70.5078 80.375 59.957 80.375 48.25ZM11 48.25C11 35.0977 17.9375 22.957 29.5 16.3086C40.918 9.66016 54.9375 9.66016 66.5 16.3086C77.918 22.957 85 35.0977 85 48.25C85 61.5469 77.918 73.6875 66.5 80.3359C54.9375 86.9844 40.918 86.9844 29.5 80.3359C17.9375 73.6875 11 61.5469 11 48.25ZM58.8398 34.9531C57.9727 34.0859 56.5273 34.0859 55.5156 34.9531L52.4805 37.9883L58.2617 43.7695L61.2969 40.7344C62.3086 39.8672 62.3086 38.2773 61.2969 37.4102L58.8398 34.9531ZM37.3047 53.1641C37.0156 53.4531 36.8711 53.8867 36.7266 54.3203L34.9922 61.4023L42.0742 59.5234C42.3633 59.5234 42.7969 59.2344 43.0859 58.9453L54.9375 47.0938L49.1562 41.3125L37.3047 53.1641ZM52.3359 31.6289C55.082 28.8828 59.418 28.8828 62.1641 31.6289L64.6211 34.2305C67.3672 36.832 67.3672 41.3125 64.6211 43.9141L46.4102 62.2695C45.3984 63.1367 44.3867 63.7148 43.0859 64.0039L32.2461 66.75C31.5234 66.8945 30.6562 66.75 30.0781 66.1719C29.5 65.5938 29.3555 64.7266 29.5 64.0039L32.2461 53.1641C32.5352 51.8633 33.1133 50.8516 33.9805 49.8398L52.3359 31.6289Z" fill="#001B41"/>
</svg>
