<svg width="16" height="16" viewBox="0 0 16 16" fill="none" xmlns="http://www.w3.org/2000/svg">
<circle cx="8" cy="8" r="7.5" stroke="#001B41"/>
<g clip-path="url(#clip0_7603_2730)">
<path d="M12.2255 5.24032L10.7535 3.76837C10.4699 3.48476 9.9749 3.48476 9.69129 3.76837L4.78879 8.67087C4.74574 8.71365 4.71574 8.76393 4.69546 8.81726C4.69463 8.81948 4.69241 8.82087 4.69185 8.82309L3.58074 11.8784C3.52546 12.0306 3.56324 12.2009 3.67768 12.3153C3.75713 12.395 3.86352 12.4373 3.97241 12.4373C4.01991 12.4373 4.06824 12.4292 4.11463 12.4123L7.17018 11.3012C7.17241 11.3003 7.17379 11.2984 7.17602 11.2973C7.22935 11.277 7.27963 11.247 7.32241 11.2039L12.2255 6.30143C12.3671 6.15976 12.4452 5.97143 12.4452 5.77087C12.4452 5.57032 12.3671 5.38198 12.2255 5.24032ZM5.25157 9.72254L6.27074 10.7417L4.66907 11.3242L5.25157 9.72254ZM7.02796 10.3206L5.67268 8.96532L9.11407 5.52393L10.4693 6.87921L7.02796 10.3206ZM11.0585 6.29004L9.70324 4.93476L10.2224 4.41559L11.5777 5.77087L11.0585 6.29004Z" fill="#001B41"/>
</g>
<defs>
<clipPath id="clip0_7603_2730">
<rect width="10" height="10" fill="white" transform="translate(3 3)"/>
</clipPath>
</defs>
</svg>
