<?xml version="1.0" encoding="UTF-8"?>
<!-- Generated by Pixelmator Pro 3.6.8 -->
<svg width="52" height="52" viewBox="0 0 52 52" xmlns="http://www.w3.org/2000/svg">
    <path id="Path" fill="#f4f7fa" stroke="none" d="M 26 50 C 17.375 50 9.5 45.5 5.1875 38 C 0.875 30.5938 0.875 21.5 5.1875 14 C 9.5 6.59375 17.375 2 26 2 C 34.5312 2 42.4062 6.59375 46.7188 14 C 51.0312 21.5 51.0312 30.5938 46.7188 38 C 42.4062 45.5 34.5312 50 26 50 Z M 23 20 C 23 18.4062 21.5938 17 20 17 C 18.3125 17 17 18.4062 17 20 L 17 32 C 17 33.6875 18.3125 35 20 35 C 21.5938 35 23 33.6875 23 32 L 23 20 Z M 35 20 C 35 18.4062 33.5938 17 32 17 C 30.3125 17 29 18.4062 29 20 L 29 32 C 29 33.6875 30.3125 35 32 35 C 33.5938 35 35 33.6875 35 32 L 35 20 Z"/>
</svg>
