<svg width="48" height="48" viewBox="0 0 48 48" fill="none" xmlns="http://www.w3.org/2000/svg">
<g clip-path="url(#clip0_7292_26872)">
<path d="M24.0002 1.33337C11.4815 1.33337 1.3335 11.4814 1.3335 24C1.3335 36.5187 11.4815 46.6667 24.0002 46.6667C36.5188 46.6667 46.6668 36.5187 46.6668 24C46.6668 11.4814 36.5188 1.33337 24.0002 1.33337ZM20.0002 32C20.0002 33.1054 19.1055 34 18.0002 34C16.8948 34 16.0002 33.1054 16.0002 32V16C16.0002 14.8947 16.8948 14 18.0002 14C19.1055 14 20.0002 14.8947 20.0002 16V32ZM32.0002 32C32.0002 33.1054 31.1055 34 30.0002 34C28.8948 34 28.0002 33.1054 28.0002 32V16C28.0002 14.8947 28.8948 14 30.0002 14C31.1055 14 32.0002 14.8947 32.0002 16V32Z" fill="white"/>
</g>
<defs>
<clipPath id="clip0_7292_26872">
<rect width="48" height="48" fill="white"/>
</clipPath>
</defs>
</svg>
