<svg width="24" height="24" viewBox="0 0 24 24" fill="none" xmlns="http://www.w3.org/2000/svg">
<path d="M16.6667 1.3335H4.66666C3.56199 1.3335 2.66666 2.22883 2.66666 3.3335V20.6668C2.66666 21.7715 3.56199 22.6668 4.66666 22.6668H16.6667C17.7713 22.6668 18.6667 21.7715 18.6667 20.6668V3.3335C18.6667 2.22883 17.7713 1.3335 16.6667 1.3335ZM10.6667 6.00016C12.1393 6.00016 13.3333 7.19416 13.3333 8.66683C13.3333 10.1395 12.1393 11.3335 10.6667 11.3335C9.19399 11.3335 7.99999 10.1395 7.99999 8.66683C7.99999 7.19416 9.19399 6.00016 10.6667 6.00016ZM15.3333 17.4075C15.3333 17.7348 15.0347 18.0002 14.6667 18.0002H6.66666C6.29866 18.0002 5.99999 17.7348 5.99999 17.4075V17.1115C5.99999 17.1115 6.00066 17.1055 6.00066 17.1028C6.00732 15.4702 5.99999 12.6668 9.66666 12.6668H11.6667C15.3333 12.6668 15.3333 15.4748 15.3333 17.1115V17.4075ZM21 8.00016C20.4473 8.00016 20 7.55283 20 7.00016V4.3335C20 3.78083 20.4473 3.3335 21 3.3335C21.5527 3.3335 22 3.78083 22 4.3335V7.00016C22 7.55283 21.5527 8.00016 21 8.00016ZM21 14.6668C20.4473 14.6668 20 14.2195 20 13.6668V11.0002C20 10.4475 20.4473 10.0002 21 10.0002C21.5527 10.0002 22 10.4475 22 11.0002V13.6668C22 14.2195 21.5527 14.6668 21 14.6668ZM21 21.3335C20.4473 21.3335 20 20.8862 20 20.3335V17.6668C20 17.1142 20.4473 16.6668 21 16.6668C21.5527 16.6668 22 17.1142 22 17.6668V20.3335C22 20.8862 21.5527 21.3335 21 21.3335Z" fill="#586680"/>
</svg>
