<svg width="84" height="84" viewBox="0 0 84 84" fill="none" xmlns="http://www.w3.org/2000/svg">
<path d="M51.5 24V33H56C60.9219 33 65 37.0781 65 42V69C65 74.0625 60.9219 78 56 78H11C5.9375 78 2 74.0625 2 69V42C2 37.0781 5.9375 33 11 33H44.75V24C44.75 14.1562 52.7656 6 62.75 6C72.5938 6 80.75 14.1562 80.75 24V34.125C80.75 36.0938 79.2031 37.5 77.375 37.5C75.4062 37.5 74 36.0938 74 34.125V24C74 17.8125 68.9375 12.75 62.75 12.75C56.4219 12.75 51.5 17.8125 51.5 24ZM11 39.75C9.73438 39.75 8.75 40.875 8.75 42V69C8.75 70.2656 9.73438 71.25 11 71.25H56C57.125 71.25 58.25 70.2656 58.25 69V42C58.25 40.875 57.125 39.75 56 39.75H11Z" fill="#1474C4"/>
</svg>
