<svg width="24" height="24" viewBox="0 0 24 24" fill="none" xmlns="http://www.w3.org/2000/svg">
<path d="M11.3333 14V20C11.3333 20.736 10.736 21.3333 10 21.3333C9.264 21.3333 8.66666 20.736 8.66666 20V17.2187L3.60933 22.276C3.34933 22.5367 3.008 22.6667 2.66666 22.6667C2.32533 22.6667 1.984 22.5367 1.724 22.276C1.20333 21.7553 1.20333 20.9113 1.724 20.3907L6.78133 15.3333H4C3.264 15.3333 2.66666 14.736 2.66666 14C2.66666 13.264 3.264 12.6667 4 12.6667H10C10.736 12.6667 11.3333 13.264 11.3333 14ZM22.276 1.724C21.756 1.20333 20.9107 1.20333 20.3907 1.724L15.3333 6.78133V4C15.3333 3.264 14.736 2.66666 14 2.66666C13.264 2.66666 12.6667 3.264 12.6667 4V10C12.6667 10.736 13.264 11.3333 14 11.3333H20C20.736 11.3333 21.3333 10.736 21.3333 10C21.3333 9.264 20.736 8.66666 20 8.66666H17.2187L22.276 3.60933C22.7967 3.08866 22.7967 2.24466 22.276 1.724Z" fill="white"/>
</svg>
