<svg width="16" height="17" viewBox="0 0 16 17" fill="none" xmlns="http://www.w3.org/2000/svg">
<path d="M2.375 0.375H13.625C14.8555 0.375 15.875 1.39453 15.875 2.625V13.875C15.875 15.1406 14.8555 16.125 13.625 16.125H2.375C1.10938 16.125 0.125 15.1406 0.125 13.875V2.625C0.125 1.39453 1.10938 0.375 2.375 0.375ZM11.9727 6.59766H11.9375C12.2891 6.28125 12.2891 5.75391 11.9375 5.40234C11.6211 5.08594 11.0938 5.08594 10.7773 5.40234L6.875 9.33984L5.22266 7.6875C4.87109 7.33594 4.34375 7.33594 4.02734 7.6875C3.67578 8.00391 3.67578 8.53125 4.02734 8.84766L6.27734 11.0977C6.59375 11.4492 7.12109 11.4492 7.47266 11.0977L11.9727 6.59766Z" fill="#1474C4"/>
</svg>
