<svg width="32" height="32" viewBox="0 0 32 32" fill="none" xmlns="http://www.w3.org/2000/svg">
<circle cx="16" cy="16" r="16" fill="#3196D6"/>
<g clip-path="url(#clip0_8002_4708)">
<path d="M16.6871 18.8249C15.7764 18.8249 14.8662 18.4782 14.1733 17.7853C13.8262 17.4382 13.8262 16.8756 14.1733 16.5285C14.5204 16.1813 15.0831 16.1813 15.4302 16.5285C16.1231 17.2213 17.2511 17.2213 17.9444 16.5285L20.7724 13.7C21.1084 13.364 21.2933 12.9178 21.2933 12.4427C21.2933 11.9676 21.1084 11.5213 20.7724 11.1858C20.0796 10.4925 18.9516 10.4925 18.2582 11.1858L17.5511 11.8929C17.204 12.24 16.6413 12.24 16.2942 11.8929C15.9471 11.5458 15.9471 10.9831 16.2942 10.6356L17.0013 9.92846C18.3876 8.54224 20.6431 8.54224 22.0293 9.92846C22.7013 10.6 23.0711 11.4929 23.0711 12.4427C23.0711 13.3925 22.7013 14.2853 22.0293 14.9569L19.2013 17.7853C18.508 18.4782 17.5978 18.8249 16.6871 18.8249ZM14.9587 22.028L15.6658 21.3209C16.0129 20.9738 16.0129 20.4111 15.6658 20.0636C15.3187 19.7169 14.756 19.7165 14.4089 20.0636L13.7018 20.7707C13.008 21.464 11.88 21.464 11.1876 20.7707C10.8516 20.4351 10.6667 19.9885 10.6667 19.5138C10.6667 19.0391 10.8516 18.5925 11.1876 18.2565L14.0156 15.428C14.7093 14.7347 15.8373 14.7351 16.5298 15.428C16.8769 15.7751 17.4396 15.7751 17.7867 15.428C18.1338 15.0809 18.1338 14.5182 17.7867 14.1711C16.4004 12.7849 14.1449 12.7853 12.7587 14.1711L9.93066 16.9996C9.25866 17.6711 8.88889 18.5645 8.88889 19.5138C8.88889 20.4631 9.25866 21.3565 9.93066 22.028C10.624 22.7213 11.5338 23.0676 12.4444 23.0676C13.3551 23.0676 14.2658 22.7213 14.9587 22.028Z" fill="#02102B"/>
</g>
<defs>
<clipPath id="clip0_8002_4708">
<rect width="16" height="16" fill="white" transform="translate(8 8)"/>
</clipPath>
</defs>
</svg>
