<svg width="32" height="32" viewBox="0 0 32 32" fill="none" xmlns="http://www.w3.org/2000/svg">
<circle cx="16" cy="16" r="16" fill="#3196D6"/>
<g clip-path="url(#clip0_6540_429)">
<path d="M16.6871 18.8248C15.7765 18.8248 14.8662 18.4781 14.1734 17.7852C13.8262 17.4381 13.8262 16.8754 14.1734 16.5283C14.5205 16.1812 15.0831 16.1812 15.4302 16.5283C16.1231 17.2212 17.2511 17.2212 17.9445 16.5283L20.7725 13.6999C21.1085 13.3639 21.2934 12.9177 21.2934 12.4426C21.2934 11.9674 21.1085 11.5212 20.7725 11.1857C20.0796 10.4923 18.9516 10.4923 18.2582 11.1857L17.5511 11.8928C17.204 12.2399 16.6414 12.2399 16.2942 11.8928C15.9471 11.5457 15.9471 10.983 16.2942 10.6354L17.0014 9.92834C18.3876 8.54212 20.6431 8.54212 22.0294 9.92834C22.7014 10.5999 23.0711 11.4928 23.0711 12.4426C23.0711 13.3923 22.7014 14.2852 22.0294 14.9568L19.2014 17.7852C18.508 18.4781 17.5978 18.8248 16.6871 18.8248ZM14.9587 22.0279L15.6658 21.3208C16.0129 20.9737 16.0129 20.411 15.6658 20.0634C15.3187 19.7168 14.756 19.7163 14.4089 20.0634L13.7018 20.7706C13.008 21.4639 11.88 21.4639 11.1876 20.7706C10.8516 20.435 10.6667 19.9883 10.6667 19.5137C10.6667 19.039 10.8516 18.5923 11.1876 18.2563L14.0156 15.4279C14.7094 14.7346 15.8374 14.735 16.5298 15.4279C16.8769 15.775 17.4396 15.775 17.7867 15.4279C18.1338 15.0808 18.1338 14.5181 17.7867 14.171C16.4005 12.7848 14.1449 12.7852 12.7587 14.171L9.93069 16.9994C9.25869 17.671 8.88892 18.5643 8.88892 19.5137C8.88892 20.463 9.25869 21.3563 9.93069 22.0279C10.624 22.7212 11.5338 23.0674 12.4445 23.0674C13.3551 23.0674 14.2658 22.7212 14.9587 22.0279Z" fill="#F4F7FA"/>
</g>
<defs>
<clipPath id="clip0_6540_429">
<rect width="16" height="16" fill="white" transform="translate(8 8)"/>
</clipPath>
</defs>
</svg>
