<?xml version="1.0" encoding="UTF-8"?>
<!-- Generated by Pixelmator Pro 3.6.17 -->
<svg width="32" height="32" viewBox="0 0 32 32" xmlns="http://www.w3.org/2000/svg">
    <clipPath id="clipPath1">
        <path d="M -8 -8 L 40 -8 L 40 40 L -8 40 Z"/>
    </clipPath>
    <g id="Group" clip-path="url(#clipPath1)">
        <path id="Path" fill="#3196d6" stroke="none" d="M 32 16 C 32 24.836555 24.836555 32 16 32 C 7.163444 32 0 24.836555 0 16 C 0 7.163445 7.163444 0 16 0 C 24.836555 0 32 7.163445 32 16 Z"/>
        <clipPath id="clipPath2">
            <path d="M 8 8 L 24 8 L 24 24 L 8 24 Z"/>
        </clipPath>
        <g id="g1" clip-path="url(#clipPath2)">
            <path id="path1" fill="#f4f7fa" stroke="none" d="M 16.687099 18.8249 C 15.7764 18.8249 14.866199 18.478201 14.1733 17.785299 C 13.8262 17.4382 13.8262 16.875601 14.1733 16.5285 C 14.520399 16.181299 15.083099 16.181299 15.430201 16.5285 C 16.1231 17.2213 17.251101 17.2213 17.944401 16.5285 L 20.7724 13.700001 C 21.1084 13.364 21.293301 12.917801 21.293301 12.442699 C 21.293301 11.9676 21.1084 11.521299 20.7724 11.185801 C 20.079599 10.4925 18.951599 10.4925 18.2582 11.185801 L 17.5511 11.8929 C 17.204 12.24 16.6413 12.24 16.294201 11.8929 C 15.9471 11.545799 15.9471 10.983101 16.294201 10.635599 L 17.001301 9.928499 C 18.3876 8.5422 20.643101 8.5422 22.029301 9.928499 C 22.7013 10.6 23.0711 11.492901 23.0711 12.442699 C 23.0711 13.3925 22.7013 14.285299 22.029301 14.9569 L 19.2013 17.785299 C 18.507999 18.478201 17.597799 18.8249 16.687099 18.8249 Z M 14.9587 22.028 L 15.6658 21.3209 C 16.012899 20.973801 16.012899 20.4111 15.6658 20.063601 C 15.318701 19.7169 14.756001 19.716499 14.408899 20.063601 L 13.701799 20.7707 C 13.007999 21.464001 11.879999 21.464001 11.187599 20.7707 C 10.851601 20.435101 10.6667 19.988501 10.6667 19.5138 C 10.6667 19.039101 10.851601 18.592501 11.187599 18.2565 L 14.0156 15.427999 C 14.709299 14.734699 15.837299 14.7351 16.5298 15.427999 C 16.8769 15.775101 17.4396 15.775101 17.786699 15.427999 C 18.133801 15.0809 18.133801 14.5182 17.786699 14.171101 C 16.4004 12.784901 14.144899 12.785299 12.758699 14.171101 L 9.9307 16.999599 C 9.258699 17.671101 8.888901 18.564501 8.888901 19.5138 C 8.888901 20.4631 9.258699 21.356501 9.9307 22.028 C 10.624001 22.7213 11.5338 23.0676 12.444401 23.0676 C 13.355101 23.0676 14.2658 22.7213 14.9587 22.028 Z"/>
        </g>
    </g>
</svg>
