<svg width="16" height="12" viewBox="0 0 16 12" fill="none" xmlns="http://www.w3.org/2000/svg">
<path d="M0 8.00039C0 6.45039 1 5.10039 2.4 4.62539C2.4 4.55039 2.4 4.47539 2.4 4.40039C2.4 2.20039 4.175 0.400391 6.4 0.400391C7.875 0.400391 9.175 1.22539 9.85 2.42539C10.225 2.15039 10.7 2.00039 11.2 2.00039C12.525 2.00039 13.6 3.07539 13.6 4.40039C13.6 4.72539 13.525 5.00039 13.425 5.27539C14.9 5.57539 16 6.87539 16 8.40039C16 10.1754 14.55 11.6004 12.8 11.6004H3.6C1.6 11.6004 0 10.0004 0 8.00039Z" fill="#001B41"/>
</svg>
