<svg width="16" height="16" viewBox="0 0 16 16" fill="none" xmlns="http://www.w3.org/2000/svg">
<path d="M13.3234 7.30135C13.3274 7.23824 13.3332 7.17513 13.3332 7.11113C13.3332 5.39291 11.9403 4.00002 10.2221 4.00002C9.84167 4.00002 9.479 4.07158 9.14211 4.19646C8.49989 3.27246 7.43234 2.66669 6.22211 2.66669C4.26656 2.66669 2.68122 4.24535 2.66789 6.1978C1.35145 6.85247 0.444336 8.20758 0.444336 9.7778C0.444336 11.9871 2.235 13.7778 4.44434 13.7778H12.2221C14.063 13.7778 15.5554 12.2854 15.5554 10.4445C15.5554 8.99024 14.6226 7.75647 13.3234 7.30135ZM10.4586 7.98135L7.34745 10.9285C7.219 11.0502 7.05411 11.1111 6.88878 11.1111C6.72922 11.1111 6.56967 11.0542 6.443 10.94L4.66522 9.34002C4.39145 9.0938 4.36922 8.67247 4.61589 8.39869C4.86167 8.12535 5.28345 8.10224 5.55722 8.34935L6.87767 9.53735L9.54167 7.01335C9.80922 6.75958 10.231 6.77202 10.4843 7.03869C10.7377 7.30624 10.7261 7.72802 10.459 7.98135H10.4586Z" fill="#001B41"/>
</svg>
