<svg id="Ebene_1" xmlns="http://www.w3.org/2000/svg" version="1.1" width="24" height="24" viewBox="0 0 24 24">
  <!-- Generator: Adobe Illustrator 29.4.0, SVG Export Plug-In . SVG Version: 2.1.0 Build 152)  -->
  <path d="M14.48,9.37c.26,0,.5.15.64.39l2.5,4.06c.25.4.15.94-.22,1.2-.37.27-.86.16-1.11-.24l-1.87-3.04-1.82,2.63c-.14.2-.35.33-.58.34-.23.02-.46-.07-.62-.25l-1.01-1.1-.69,1c-.27.38-.77.46-1.12.17-.35-.29-.43-.83-.16-1.21l1.25-1.8c.14-.2.35-.33.58-.34.23-.01.46.07.62.25l1.01,1.1,1.94-2.81c.16-.22.4-.35.66-.35Z"/>
  <path d="M11.3,10.2c.44,0,.8-.39.8-.87s-.36-.87-.8-.87-.8.39-.8.87.36.87.8.87Z"/>
  <path d="M20.5,19.45c0,1.1-.9,2-2,2H6.5c-1.1,0-2-.9-2-2v-1c-.55,0-1-.45-1-1s.45-1,1-1h2c.55,0,1,.45,1,1s-.45,1-1,1v1h12V3.45H6.5v1c.55,0,1,.45,1,1s-.45,1-1,1h-2c-.55,0-1-.45-1-1s.45-1,1-1v-1c0-1.1.9-2,2-2h12c1.1,0,2,.9,2,2v16Z"/>
  <path d="M4.5,8.45c-.55,0-1,.45-1,1s.45,1,1,1h2c.55,0,1-.45,1-1s-.45-1-1-1h-2Z"/>
  <path d="M3.5,13.45c0-.55.45-1,1-1h2c.55,0,1,.45,1,1s-.45,1-1,1h-2c-.55,0-1-.45-1-1Z"/>
</svg>