<svg width="20" height="19" viewBox="0 0 20 19" fill="none" xmlns="http://www.w3.org/2000/svg">
<path d="M7.77344 0.75H12.1875C13.1641 0.75 13.9844 1.375 14.2969 2.27344L14.6094 3.25H17.5C18.8672 3.25 20 4.38281 20 5.75V15.75C20 17.1562 18.8672 18.25 17.5 18.25H2.5C1.09375 18.25 0 17.1562 0 15.75V5.75C0 4.38281 1.09375 3.25 2.5 3.25H5.35156L5.70312 2.27344L6.5625 2.54688L5.70312 2.27344C5.97656 1.375 6.83594 0.75 7.77344 0.75ZM7.46094 2.85938L6.91406 4.5C6.79688 4.89062 6.44531 5.125 6.01562 5.125H2.5C2.14844 5.125 1.875 5.4375 1.875 5.75V15.75C1.875 16.1016 2.14844 16.375 2.5 16.375H17.5C17.8125 16.375 18.125 16.1016 18.125 15.75V5.75C18.125 5.4375 17.8125 5.125 17.5 5.125H13.9453C13.5156 5.125 13.1641 4.89062 13.0469 4.5L12.5 2.85938C12.4609 2.74219 12.3438 2.625 12.1875 2.625H7.77344C7.61719 2.625 7.5 2.74219 7.46094 2.85938ZM10 15.125C8.39844 15.125 6.99219 14.3047 6.21094 12.9375C5.39062 11.6094 5.39062 9.92969 6.21094 8.5625C6.99219 7.23438 8.39844 6.375 10 6.375C11.5625 6.375 12.9688 7.23438 13.75 8.5625C14.5703 9.92969 14.5703 11.6094 13.75 12.9375C12.9688 14.3047 11.5625 15.125 10 15.125ZM7.5 10.75C7.5 11.6484 7.96875 12.4688 8.75 12.9375C9.49219 13.3672 10.4688 13.3672 11.25 12.9375C11.9922 12.4688 12.5 11.6484 12.5 10.75C12.5 9.89062 11.9922 9.07031 11.25 8.60156C10.4688 8.17188 9.49219 8.17188 8.75 8.60156C7.96875 9.07031 7.5 9.89062 7.5 10.75Z" fill="#001B41"/>
</svg>
