<svg width="24" height="24" viewBox="0 0 24 24" fill="none" xmlns="http://www.w3.org/2000/svg">
<path d="M14.6668 5.33333V18.6667C14.6668 19.402 14.0688 20 13.3335 20H12.4928C12.1768 20 11.8695 19.8867 11.6282 19.6813L7.3335 16H3.3335C2.23083 16 1.3335 15.1027 1.3335 14V10C1.3335 8.89733 2.23083 8 3.3335 8H7.3335L11.6255 4.32067C11.8702 4.11267 12.1768 4 12.4928 4H13.3335C14.0688 4 14.6668 4.598 14.6668 5.33333ZM16.2382 9.136C15.8595 9.538 15.8775 10.1707 16.2795 10.55C16.3562 10.622 16.6668 11.108 16.6668 12.0007C16.6668 12.8933 16.3615 13.3727 16.2802 13.4507C15.8815 13.8327 15.8675 14.4653 16.2495 14.8647C16.4462 15.07 16.7088 15.1727 16.9715 15.1727C17.2202 15.1727 17.4695 15.0807 17.6635 14.8947C18.2822 14.302 18.6668 13.1927 18.6668 12C18.6668 10.798 18.2782 9.68467 17.6522 9.09467C17.2495 8.71533 16.6175 8.734 16.2382 9.136ZM20.5562 6.41067C20.1728 6.012 19.5395 6 19.1422 6.38267C18.7442 6.76533 18.7315 7.39867 19.1142 7.79667C20.1008 8.82333 20.6668 10.3547 20.6668 12C20.6668 13.6453 20.1042 15.168 19.1228 16.1947C18.7408 16.594 18.7555 17.2267 19.1542 17.6087C19.3482 17.794 19.5968 17.886 19.8455 17.886C20.1088 17.886 20.3722 17.7827 20.5682 17.5773C21.9015 16.1827 22.6668 14.15 22.6668 12.0007C22.6668 9.85133 21.8975 7.80667 20.5562 6.41133V6.41067Z" fill="white"/>
</svg>
