<svg width="16" height="16" viewBox="0 0 16 16" fill="none" xmlns="http://www.w3.org/2000/svg">
<mask id="path-1-inside-1_7526_2794" fill="white">
<path fill-rule="evenodd" clip-rule="evenodd" d="M2 0C0.895431 0 0 0.895431 0 2V14C0 15.1046 0.895431 16 2 16H14C15.1046 16 16 15.1046 16 14V2C16 0.895431 15.1046 0 14 0H2ZM6.02643 11.6617C6.15143 11.7881 6.32243 11.8591 6.49976 11.8591C6.67709 11.8591 6.84709 11.7887 6.97209 11.6631L13.1388 5.47075C13.3984 5.20975 13.3978 4.78775 13.1368 4.52775C12.8758 4.26775 12.4538 4.26908 12.1941 4.52975L6.50076 10.2467L3.80643 7.53075C3.54776 7.26975 3.12509 7.26775 2.86376 7.52708C2.60243 7.78608 2.60043 8.20842 2.85976 8.46975L6.02643 11.6617Z"/>
</mask>
<path fill-rule="evenodd" clip-rule="evenodd" d="M2 0C0.895431 0 0 0.895431 0 2V14C0 15.1046 0.895431 16 2 16H14C15.1046 16 16 15.1046 16 14V2C16 0.895431 15.1046 0 14 0H2ZM6.02643 11.6617C6.15143 11.7881 6.32243 11.8591 6.49976 11.8591C6.67709 11.8591 6.84709 11.7887 6.97209 11.6631L13.1388 5.47075C13.3984 5.20975 13.3978 4.78775 13.1368 4.52775C12.8758 4.26775 12.4538 4.26908 12.1941 4.52975L6.50076 10.2467L3.80643 7.53075C3.54776 7.26975 3.12509 7.26775 2.86376 7.52708C2.60243 7.78608 2.60043 8.20842 2.85976 8.46975L6.02643 11.6617Z" fill="#1474C4"/>
<path d="M6.02643 11.6617L7.16378 10.5364L7.1623 10.5349L6.02643 11.6617ZM6.97209 11.6631L5.83838 10.5341L5.83772 10.5347L6.97209 11.6631ZM13.1388 5.47075L14.2725 6.59977L14.273 6.59922L13.1388 5.47075ZM13.1368 4.52775L12.0076 5.66129L12.0076 5.66129L13.1368 4.52775ZM12.1941 4.52975L11.0606 3.40055L11.0604 3.40073L12.1941 4.52975ZM6.50076 10.2467L5.36487 11.3736L6.49857 12.5164L7.63448 11.3758L6.50076 10.2467ZM3.80643 7.53075L2.66999 8.65703L2.67053 8.65758L3.80643 7.53075ZM2.86376 7.52708L3.99005 8.66352L3.99078 8.66279L2.86376 7.52708ZM2.85976 8.46975L3.99563 7.34289L3.99547 7.34273L2.85976 8.46975ZM1.6 2C1.6 1.77909 1.77909 1.6 2 1.6V-1.6C0.011775 -1.6 -1.6 0.011775 -1.6 2H1.6ZM1.6 14V2H-1.6V14H1.6ZM2 14.4C1.77909 14.4 1.6 14.2209 1.6 14H-1.6C-1.6 15.9882 0.011775 17.6 2 17.6V14.4ZM14 14.4H2V17.6H14V14.4ZM14.4 14C14.4 14.2209 14.2209 14.4 14 14.4V17.6C15.9882 17.6 17.6 15.9882 17.6 14H14.4ZM14.4 2V14H17.6V2H14.4ZM14 1.6C14.2209 1.6 14.4 1.77909 14.4 2H17.6C17.6 0.011775 15.9882 -1.6 14 -1.6V1.6ZM2 1.6H14V-1.6H2V1.6ZM6.49976 10.2591C6.74799 10.2591 6.98704 10.3578 7.16378 10.5364L4.88907 12.7871C5.31581 13.2184 5.89686 13.4591 6.49976 13.4591V10.2591ZM5.83772 10.5347C6.0146 10.3569 6.25352 10.2591 6.49976 10.2591V13.4591C7.10067 13.4591 7.67959 13.2206 8.10647 12.7914L5.83772 10.5347ZM12.005 4.34173L5.83838 10.5341L8.10581 12.7921L14.2725 6.59977L12.005 4.34173ZM12.0076 5.66129C11.6422 5.29732 11.6418 4.70682 12.0045 4.34228L14.273 6.59922C15.155 5.71268 15.1533 4.27817 14.266 3.39421L12.0076 5.66129ZM13.3276 5.65894C12.9648 6.0232 12.3737 6.02604 12.0076 5.66129L14.266 3.39421C13.3778 2.50946 11.9427 2.51496 11.0606 3.40055L13.3276 5.65894ZM7.63448 11.3758L13.3278 5.65877L11.0604 3.40073L5.36705 9.11773L7.63448 11.3758ZM2.67053 8.65758L5.36487 11.3736L7.63665 9.11992L4.94232 6.40392L2.67053 8.65758ZM3.99078 8.66279C3.62462 9.02614 3.03367 9.02399 2.66999 8.65703L4.94287 6.40447C4.06185 5.51551 2.62557 5.50935 1.73674 6.39137L3.99078 8.66279ZM3.99547 7.34273C4.35935 7.70942 4.35613 8.3007 3.99005 8.66352L1.73748 6.39065C0.84872 7.27147 0.841506 8.70741 1.72405 9.59677L3.99547 7.34273ZM7.1623 10.5349L3.99563 7.34289L1.72389 9.5966L4.89056 12.7886L7.1623 10.5349Z" fill="#1474C4" mask="url(#path-1-inside-1_7526_2794)"/>
</svg>
