<svg width="48" height="48" viewBox="0 0 48 48" fill="none" xmlns="http://www.w3.org/2000/svg">
<path d="M28.5625 17.75C28.5625 16.3281 27.75 15.0078 26.5312 14.2461C25.2617 13.5352 23.6875 13.5352 22.4688 14.2461C21.1992 15.0078 20.4375 16.3281 20.4375 17.75C20.4375 19.2227 21.1992 20.543 22.4688 21.3047C23.6875 22.0156 25.2617 22.0156 26.5312 21.3047C27.75 20.543 28.5625 19.2227 28.5625 17.75ZM18 17.75C18 15.4648 19.2188 13.332 21.25 12.1641C23.2305 10.9961 25.7188 10.9961 27.75 12.1641C29.7305 13.332 31 15.4648 31 17.75C31 20.0859 29.7305 22.2188 27.75 23.3867C25.7188 24.5547 23.2305 24.5547 21.25 23.3867C19.2188 22.2188 18 20.0859 18 17.75ZM15.6133 34.8125H33.3359C32.8789 31.6133 30.1367 29.125 26.7852 29.125H22.1641C18.8125 29.125 16.0703 31.6133 15.6133 34.8125ZM13.125 35.7773C13.125 30.75 17.1367 26.6875 22.1641 26.6875H26.7852C31.8125 26.6875 35.875 30.75 35.875 35.7773C35.875 36.5898 35.1641 37.25 34.3516 37.25H14.5977C13.7852 37.25 13.125 36.5898 13.125 35.7773Z" fill="#003D8F"/>
</svg>
