<svg width="96" height="96" viewBox="0 0 96 96" fill="none" xmlns="http://www.w3.org/2000/svg">
<path d="M71.125 62.125C73.582 62.125 75.75 60.1016 75.75 57.5V28.0156C75.75 27.4375 75.4609 26.8594 75.0273 26.4258L65.1992 16.5977C64.7656 16.1641 64.1875 15.875 63.6094 15.875H48C45.3984 15.875 43.375 18.043 43.375 20.5V57.5C43.375 60.1016 45.3984 62.125 48 62.125H71.125ZM78.207 23.1016C79.5078 24.4023 80.375 26.2812 80.375 28.0156V57.5C80.375 62.7031 76.1836 66.75 71.125 66.75H48C42.7969 66.75 38.75 62.7031 38.75 57.5V20.5C38.75 15.4414 42.7969 11.25 48 11.25H63.6094C65.3438 11.25 67.2227 12.1172 68.5234 13.418L78.207 23.1016ZM24.875 29.75H34.125V34.375H24.875C22.2734 34.375 20.25 36.543 20.25 39V76C20.25 78.6016 22.2734 80.625 24.875 80.625H48C50.457 80.625 52.625 78.6016 52.625 76V71.375H57.25V76C57.25 81.2031 53.0586 85.25 48 85.25H24.875C19.6719 85.25 15.625 81.2031 15.625 76V39C15.625 33.9414 19.6719 29.75 24.875 29.75Z" fill="#001B41"/>
</svg>
