<svg version="1.1" xmlns="http://www.w3.org/2000/svg" xmlns:xlink="http://www.w3.org/1999/xlink" width="96px" height="96px" viewBox="0,0,256,256"><g transform="translate(25.6,25.6) scale(0.8,0.8)"><g fill="#f4f7fa" fill-rule="nonzero" stroke="none" stroke-width="1" stroke-linecap="butt" stroke-linejoin="miter" stroke-miterlimit="10" stroke-dasharray="" stroke-dashoffset="0" font-family="none" font-weight="none" font-size="none" text-anchor="none" style="mix-blend-mode: normal"><g transform="translate(-1.77604,0) scale(2.66667,2.66667)"><g id="surface1"><path d="M45.61719,0h23.62109c2.28516,0 4.76172,1.125 6.47656,2.8125l12.76172,12.5625c1.71484,1.6875 2.85547,4.125 2.85547,6.375v41.25c0,5.0625 -4.1875,9 -9.14062,9h-36.57422c-5.14063,0 -9.14063,-3.9375 -9.14063,-9v-54c0,-4.875 4,-9 9.14063,-9zM15.14453,24h15.23828v12h-12.19141v48h36.57031v-6h12.19141v9c0,5.0625 -4.19141,9 -9.14453,9h-42.66406c-5.14453,0 -9.14453,-3.9375 -9.14453,-9v-54c0,-4.875 4,-9 9.14453,-9zM15.14453,24"></path></g></g></g></g></svg>