<svg width="16" height="16" viewBox="0 0 16 16" fill="none" xmlns="http://www.w3.org/2000/svg">
<mask id="path-1-inside-1_7526_2801" fill="white">
<path fill-rule="evenodd" clip-rule="evenodd" d="M2 0C0.895431 0 0 0.895431 0 2V14C0 15.1046 0.895431 16 2 16H14C15.1046 16 16 15.1046 16 14V2C16 0.895431 15.1046 0 14 0H2ZM3.66667 8.33333H13C13.368 8.33333 13.6667 8.03467 13.6667 7.66667C13.6667 7.29867 13.368 7 13 7H3.66667C3.29867 7 3 7.29867 3 7.66667C3 8.03467 3.29867 8.33333 3.66667 8.33333Z"/>
</mask>
<path fill-rule="evenodd" clip-rule="evenodd" d="M2 0C0.895431 0 0 0.895431 0 2V14C0 15.1046 0.895431 16 2 16H14C15.1046 16 16 15.1046 16 14V2C16 0.895431 15.1046 0 14 0H2ZM3.66667 8.33333H13C13.368 8.33333 13.6667 8.03467 13.6667 7.66667C13.6667 7.29867 13.368 7 13 7H3.66667C3.29867 7 3 7.29867 3 7.66667C3 8.03467 3.29867 8.33333 3.66667 8.33333Z" fill="#1474C4"/>
<path d="M1.6 2C1.6 1.77909 1.77909 1.6 2 1.6V-1.6C0.0117749 -1.6 -1.6 0.0117749 -1.6 2H1.6ZM1.6 14V2H-1.6V14H1.6ZM2 14.4C1.77909 14.4 1.6 14.2209 1.6 14H-1.6C-1.6 15.9882 0.0117749 17.6 2 17.6V14.4ZM14 14.4H2V17.6H14V14.4ZM14.4 14C14.4 14.2209 14.2209 14.4 14 14.4V17.6C15.9882 17.6 17.6 15.9882 17.6 14H14.4ZM14.4 2V14H17.6V2H14.4ZM14 1.6C14.2209 1.6 14.4 1.77909 14.4 2H17.6C17.6 0.0117749 15.9882 -1.6 14 -1.6V1.6ZM2 1.6H14V-1.6H2V1.6ZM13 6.73333H3.66667V9.93333H13V6.73333ZM12.0667 7.66667C12.0667 7.15101 12.4843 6.73333 13 6.73333V9.93333C14.2517 9.93333 15.2667 8.91832 15.2667 7.66667H12.0667ZM13 8.6C12.4843 8.6 12.0667 8.18232 12.0667 7.66667H15.2667C15.2667 6.41501 14.2517 5.4 13 5.4V8.6ZM3.66667 8.6H13V5.4H3.66667V8.6ZM4.6 7.66667C4.6 8.18232 4.18232 8.6 3.66667 8.6V5.4C2.41501 5.4 1.4 6.41501 1.4 7.66667H4.6ZM3.66667 6.73333C4.18232 6.73333 4.6 7.15101 4.6 7.66667H1.4C1.4 8.91832 2.41501 9.93333 3.66667 9.93333V6.73333Z" fill="#1474C4" mask="url(#path-1-inside-1_7526_2801)"/>
</svg>
