<svg width="24" height="24" viewBox="0 0 24 24" fill="none" xmlns="http://www.w3.org/2000/svg">
<path d="M9.3335 8.33317C9.3335 8.88584 8.8855 9.33317 8.3335 9.33317H2.3335C1.7815 9.33317 1.3335 8.88584 1.3335 8.33317V1.6665C1.3335 1.11384 1.7815 0.666504 2.3335 0.666504C2.8855 0.666504 3.3335 1.11384 3.3335 1.6665V4.71784C5.45416 2.2105 8.61416 0.666504 12.0002 0.666504C18.2495 0.666504 23.3335 5.7505 23.3335 11.9998C23.3335 18.2492 18.2495 23.3332 12.0002 23.3332C7.32083 23.3332 3.06216 20.3945 1.4015 16.0218C1.2055 15.5052 1.4655 14.9278 1.9815 14.7318C2.49416 14.5372 3.07483 14.7952 3.2715 15.3118C4.6395 18.9138 8.14683 21.3338 12.0008 21.3338C17.1475 21.3338 21.3342 17.1472 21.3342 12.0005C21.3342 6.85384 17.1475 2.66717 12.0008 2.66717C8.65416 2.66717 5.57016 4.49384 3.92016 7.33384H8.33416C8.88616 7.33384 9.33416 7.78117 9.33416 8.33384L9.3335 8.33317Z" fill="black"/>
</svg>
