<svg width="20" height="20" viewBox="0 0 20 20" fill="none" xmlns="http://www.w3.org/2000/svg">
<path d="M16.6667 17.7778H3.33333C2.10778 17.7778 1.11111 16.7811 1.11111 15.5556V4.44445C1.11111 3.2189 2.10778 2.22223 3.33333 2.22223H7.59611C8.03444 2.22223 8.46333 2.40001 8.77278 2.70945L10.5078 4.44445H16.6667C17.8922 4.44445 18.8889 5.44112 18.8889 6.66667V15.5556C18.8889 16.7811 17.8922 17.7778 16.6667 17.7778ZM3.33333 3.33334C2.72056 3.33334 2.22222 3.83167 2.22222 4.44445V15.5556C2.22222 16.1683 2.72056 16.6667 3.33333 16.6667H16.6667C17.2794 16.6667 17.7778 16.1683 17.7778 15.5556V6.66667C17.7778 6.0539 17.2794 5.55556 16.6667 5.55556H10.5078C10.2156 5.55556 9.92944 5.43723 9.72278 5.23056L7.98778 3.49556C7.88444 3.39278 7.74222 3.33334 7.59667 3.33334H3.33333Z" fill="#001B41"/>
</svg>
