<svg width="93" height="84" viewBox="0 0 93 84" fill="none" xmlns="http://www.w3.org/2000/svg">
<path d="M79.6 13.0765H37.6C35.2375 13.0765 33.4 14.9873 33.4 17.1529V38.8092L42.9813 29.3824C44.5562 27.8537 47.3125 27.8537 48.8875 29.3824L54.4 34.7327L68.1813 21.2294C69.7562 19.7007 72.5125 19.7007 74.0875 21.2294L83.8 30.6562V17.1529C83.8 14.9873 81.8312 13.0765 79.6 13.0765ZM88 35.4971C88 35.4971 88 35.4971 88 35.6244V45.8156C88 50.2743 84.1937 53.9686 79.6 53.9686H39.7H37.6C32.875 53.9686 29.2 50.2743 29.2 45.8156V43.65V17.1529C29.2 12.6943 32.875 9 37.6 9H79.6C84.1937 9 88 12.6943 88 17.1529V35.4971ZM83.8 36.3888L71.2 24.1594L55.8438 39.064L44.6875 49.7647H79.6C81.8312 49.7647 83.8 47.9812 83.8 45.6882V36.3888ZM38.7812 49.7647L51.3812 37.5353L46 32.3123L33.4 44.5417V45.6882C33.4 47.9812 35.2375 49.7647 37.6 49.7647H38.7812ZM42.85 19.1912C44.5562 19.1912 46 20.5925 46 22.2485C46 24.032 44.5562 25.3059 42.85 25.3059C41.0125 25.3059 39.7 24.032 39.7 22.2485C39.7 20.5925 41.0125 19.1912 42.85 19.1912ZM20.8 29.3824H25V33.4588H20.8V43.65V59.9559V70.1471H54.4V57.9176H58.6V70.1471H62.8C65.0312 70.1471 67 68.3636 67 66.0706V57.9176H71.2V66.0706C71.2 70.6566 67.3937 74.2235 62.8 74.2235H58.6H56.5H54.4H20.8H18.7H16.6H12.4C7.675 74.2235 4 70.6566 4 66.0706V37.5353C4 33.0767 7.675 29.3824 12.4 29.3824H16.6H18.7H20.8ZM8.2 41.6118H16.6V33.4588H12.4C10.0375 33.4588 8.2 35.3697 8.2 37.5353V41.6118ZM8.2 61.9941V66.0706C8.2 68.3636 10.0375 70.1471 12.4 70.1471H16.6V61.9941H8.2ZM16.6 57.9176V45.6882H8.2V57.9176H16.6Z" fill="#001B41"/>
</svg>
