<?xml version="1.0" encoding="utf-8"?>
<svg fill="#000000" viewBox="0 0 50 50" width="500px" height="500px" xmlns="http://www.w3.org/2000/svg">
  <path d="M 4 4 L 4 10 A 1.0001 1.0001 0 1 0 6 10 L 6 6 L 10 6 A 1.0001 1.0001 0 1 0 10 4 L 4 4 z M 40 4 A 1.0001 1.0001 0 1 0 40 6 L 44 6 L 44 10 A 1.0001 1.0001 0 1 0 46 10 L 46 4 L 40 4 z M 27.984375 9.9863281 A 1.0001 1.0001 0 0 0 27.839844 10 L 13 10 L 13 31 L 5 31 A 1.0001 1.0001 0 1 0 5 33 L 13.832031 33 A 1.0001 1.0001 0 0 0 14.158203 33 L 35.832031 33 A 1.0001 1.0001 0 0 0 36.158203 33 L 45 33 A 1.0001 1.0001 0 1 0 45 31 L 37 31 L 37 19.167969 A 1.0001 1.0001 0 0 0 37 18.841797 L 37 18.585938 L 36.806641 18.392578 A 1.0001 1.0001 0 0 0 36.617188 18.203125 L 28.791016 10.376953 A 1.0001 1.0001 0 0 0 28.603516 10.189453 L 28.414062 10 L 28.154297 10 A 1.0001 1.0001 0 0 0 27.984375 9.9863281 z M 15 12 L 27 12 L 27 20 L 35 20 L 35 31 L 15 31 L 15 12 z M 29 13.414062 L 33.585938 18 L 29 18 L 29 13.414062 z M 19 23 L 19 25 L 31 25 L 31 23 L 19 23 z M 19 27 L 19 29 L 31 29 L 31 27 L 19 27 z M 13 35 L 13 40 L 37 40 L 37 35 L 35 35 L 35 38 L 15 38 L 15 35 L 13 35 z M 4.984375 38.986328 A 1.0001 1.0001 0 0 0 4 40 L 4 46 L 10 46 A 1.0001 1.0001 0 1 0 10 44 L 6 44 L 6 40 A 1.0001 1.0001 0 0 0 4.984375 38.986328 z M 44.984375 38.986328 A 1.0001 1.0001 0 0 0 44 40 L 44 44 L 40 44 A 1.0001 1.0001 0 1 0 40 46 L 46 46 L 46 40 A 1.0001 1.0001 0 0 0 44.984375 38.986328 z" style="fill: rgb(255, 255, 255);"/>
</svg>