<?xml version="1.0" encoding="utf-8"?>
<svg fill="#000000" viewBox="0 0 24 24" width="384px" height="384px" xmlns="http://www.w3.org/2000/svg">
  <path d="M 4 1.25 C 2.481 1.25 1.25 2.481 1.25 4 L 1.25 8 C 1.25 8.414 1.586 8.75 2 8.75 C 2.414 8.75 2.75 8.414 2.75 8 L 2.75 4 C 2.75 3.31 3.31 2.75 4 2.75 L 8 2.75 C 8.414 2.75 8.75 2.414 8.75 2 C 8.75 1.586 8.414 1.25 8 1.25 L 4 1.25 z M 16 1.25 C 15.586 1.25 15.25 1.586 15.25 2 C 15.25 2.414 15.586 2.75 16 2.75 L 20 2.75 C 20.69 2.75 21.25 3.31 21.25 4 L 21.25 8 C 21.25 8.414 21.586 8.75 22 8.75 C 22.414 8.75 22.75 8.414 22.75 8 L 22.75 4 C 22.75 2.481 21.519 1.25 20 1.25 L 16 1.25 z M 8 5.25 C 7.536 5.25 7.0916719 5.4346719 6.7636719 5.7636719 C 6.4346719 6.0916719 6.25 6.536 6.25 7 L 6.25 17 C 6.25 17.966 7.033 18.75 8 18.75 L 16 18.75 C 16.967 18.75 17.75 17.966 17.75 17 L 17.75 10.414062 C 17.75 9.9500625 17.565328 9.5057344 17.236328 9.1777344 C 16.497328 8.4377344 14.562266 6.5026719 13.822266 5.7636719 C 13.494266 5.4346719 13.049938 5.25 12.585938 5.25 L 8 5.25 z M 8 6.75 L 12.25 6.75 L 12.25 9 C 12.25 9.464 12.434672 9.9083281 12.763672 10.236328 C 13.091672 10.565328 13.536 10.75 14 10.75 L 16.25 10.75 L 16.25 17 C 16.25 17.138 16.138 17.25 16 17.25 L 8 17.25 C 7.862 17.25 7.75 17.138 7.75 17 L 7.75 7 C 7.75 6.934 7.7752656 6.8692656 7.8222656 6.8222656 C 7.8692656 6.7752656 7.934 6.75 8 6.75 z M 13.75 7.8085938 L 15.191406 9.25 L 14 9.25 C 13.934 9.25 13.869266 9.2247344 13.822266 9.1777344 C 13.775266 9.1307344 13.75 9.066 13.75 9 L 13.75 7.8085938 z M 2 15.25 C 1.586 15.25 1.25 15.586 1.25 16 L 1.25 20 C 1.25 21.519 2.481 22.75 4 22.75 L 8 22.75 C 8.414 22.75 8.75 22.414 8.75 22 C 8.75 21.586 8.414 21.25 8 21.25 L 4 21.25 C 3.31 21.25 2.75 20.69 2.75 20 L 2.75 16 C 2.75 15.586 2.414 15.25 2 15.25 z M 22 15.25 C 21.586 15.25 21.25 15.586 21.25 16 L 21.25 20 C 21.25 20.69 20.69 21.25 20 21.25 L 16 21.25 C 15.586 21.25 15.25 21.586 15.25 22 C 15.25 22.414 15.586 22.75 16 22.75 L 20 22.75 C 21.519 22.75 22.75 21.519 22.75 20 L 22.75 16 C 22.75 15.586 22.414 15.25 22 15.25 z" style="fill: rgb(255, 255, 255);"/>
</svg>