<svg width="16" height="16" viewBox="0 0 16 16" fill="none" xmlns="http://www.w3.org/2000/svg">
<path d="M5.77828 12.2351L5.55605 6.01292C5.54672 5.76758 5.73872 5.5618 5.98405 5.55292C6.23028 5.54492 6.43605 5.73558 6.44405 5.98136L6.66628 12.2036C6.67561 12.4489 6.48361 12.6547 6.23828 12.6636C6.2325 12.6636 6.22761 12.6636 6.22183 12.6636C5.98405 12.6636 5.78672 12.4747 5.77828 12.2351ZM8.22228 12.6636C8.46805 12.6636 8.66672 12.4645 8.66672 12.2191V5.99692C8.66672 5.75158 8.46805 5.55247 8.22228 5.55247C7.9765 5.55247 7.77783 5.75158 7.77783 5.99692V12.2191C7.77783 12.4645 7.9765 12.6636 8.22228 12.6636V12.6636ZM10.2063 12.6636C10.2121 12.6636 10.2169 12.6636 10.2227 12.6636C10.4605 12.6636 10.6578 12.4747 10.6663 12.2351L10.8885 6.01292C10.8978 5.76758 10.7058 5.5618 10.4605 5.55292C10.2174 5.54403 10.0085 5.73558 10.0005 5.98136L9.77828 12.2036C9.76894 12.4489 9.96094 12.6547 10.2063 12.6636ZM14.6667 3.55247C14.6667 3.7978 14.4681 3.99692 14.2223 3.99692H13.3245L12.9427 13.3516C12.9178 13.9591 12.5498 15.108 11.3334 15.108H5.11117C3.89472 15.108 3.52672 13.9591 3.50183 13.3516L3.12005 3.99692H2.22228C1.9765 3.99692 1.77783 3.7978 1.77783 3.55247C1.77783 3.30714 1.9765 3.10803 2.22228 3.10803H5.55561V2.66669C5.55561 1.68625 6.25339 0.888916 7.11117 0.888916H9.33339C10.1912 0.888916 10.8889 1.68625 10.8889 2.66669V3.10803H14.2223C14.4681 3.10803 14.6667 3.30714 14.6667 3.55247ZM6.4445 3.10803H10.0001V2.66669C10.0001 2.18492 9.69472 1.7778 9.33339 1.7778H7.11117C6.74983 1.7778 6.4445 2.18492 6.4445 2.66669V3.10803ZM12.4352 3.99692H4.00939L4.38983 13.3151C4.39472 13.4058 4.45517 14.2191 5.11117 14.2191H11.3334C11.9894 14.2191 12.0498 13.4058 12.0547 13.3129L12.4352 3.99692V3.99692Z" fill="#001B41"/>
</svg>
