<svg width="18" height="18" viewBox="0 0 18 18" fill="none" xmlns="http://www.w3.org/2000/svg">
<path d="M15.25 12.5H7.25C6.285 12.5 5.5 11.715 5.5 10.75V2.75C5.5 1.785 6.285 1 7.25 1H15.25C16.215 1 17 1.785 17 2.75V10.75C17 11.715 16.215 12.5 15.25 12.5ZM7.25 2.5C7.112 2.5 7 2.612 7 2.75V10.75C7 10.888 7.112 11 7.25 11H15.25C15.388 11 15.5 10.888 15.5 10.75V2.75C15.5 2.612 15.388 2.5 15.25 2.5H7.25ZM12.5 15.25V14H11V15.25C11 15.388 10.888 15.5 10.75 15.5H2.75C2.612 15.5 2.5 15.388 2.5 15.25V7.25C2.5 7.112 2.612 7 2.75 7H4V5.5H2.75C1.785 5.5 1 6.285 1 7.25V15.25C1 16.215 1.785 17 2.75 17H10.75C11.715 17 12.5 16.215 12.5 15.25Z" fill="#1474C4"/>
</svg>
