<svg width="16" height="16" viewBox="0 0 16 16" fill="none" xmlns="http://www.w3.org/2000/svg">
<g clip-path="url(#clip0_7602_2699)">
<path d="M0.888672 5.11089V3.11089C0.888672 1.88556 1.88556 0.888672 3.11089 0.888672H5.11089C5.35623 0.888672 5.55534 1.08778 5.55534 1.33312C5.55534 1.57845 5.35623 1.77756 5.11089 1.77756H3.11089C2.37578 1.77756 1.77756 2.37578 1.77756 3.11089V5.11089C1.77756 5.35623 1.57845 5.55534 1.33312 5.55534C1.08778 5.55534 0.888672 5.35623 0.888672 5.11089ZM12.8887 0.888672H10.8887C10.6433 0.888672 10.4442 1.08778 10.4442 1.33312C10.4442 1.57845 10.6433 1.77756 10.8887 1.77756H12.8887C13.6238 1.77756 14.222 2.37578 14.222 3.11089V5.11089C14.222 5.35623 14.4211 5.55534 14.6664 5.55534C14.9118 5.55534 15.1109 5.35623 15.1109 5.11089V3.11089C15.1109 1.88556 14.114 0.888672 12.8887 0.888672ZM5.11089 14.222H3.11089C2.37578 14.222 1.77756 13.6238 1.77756 12.8887V10.8887C1.77756 10.6433 1.57845 10.4442 1.33312 10.4442C1.08778 10.4442 0.888672 10.6433 0.888672 10.8887V12.8887C0.888672 14.114 1.88556 15.1109 3.11089 15.1109H5.11089C5.35623 15.1109 5.55534 14.9118 5.55534 14.6664C5.55534 14.4211 5.35623 14.222 5.11089 14.222ZM14.6664 10.4442C14.4211 10.4442 14.222 10.6433 14.222 10.8887V12.8887C14.222 13.6238 13.6238 14.222 12.8887 14.222H10.8887C10.6433 14.222 10.4442 14.4211 10.4442 14.6664C10.4442 14.9118 10.6433 15.1109 10.8887 15.1109H12.8887C14.114 15.1109 15.1109 14.114 15.1109 12.8887V10.8887C15.1109 10.6433 14.9118 10.4442 14.6664 10.4442ZM4.08734 4.88867H5.69845L5.986 4.16912C6.13489 3.79623 6.49089 3.55534 6.89267 3.55534H9.10556C9.50734 3.55534 9.86334 3.79623 10.0122 4.16912L10.2998 4.88867H11.9109C12.4491 4.88867 12.8873 5.32689 12.8873 5.86512V11.0229C12.8873 11.5611 12.4491 11.9993 11.9109 11.9993H4.08734C3.54912 11.9993 3.11089 11.5611 3.11089 11.0229V5.86512C3.11089 5.32689 3.54912 4.88867 4.08734 4.88867ZM4.08734 5.77756C4.03889 5.77756 3.99978 5.81667 3.99978 5.86512V11.0229C3.99978 11.0713 4.03889 11.1104 4.08734 11.1104H11.9118C11.9602 11.1104 11.9993 11.0713 11.9993 11.0229V5.86512C11.9993 5.81667 11.9602 5.77756 11.9118 5.77756H10.0749C9.84645 5.77756 9.64378 5.64023 9.55889 5.42823L9.18734 4.49934C9.17401 4.46556 9.142 4.44423 9.106 4.44423H6.89312C6.85712 4.44423 6.82512 4.46556 6.81178 4.49934L6.44067 5.42734C6.35578 5.64023 6.15223 5.77801 5.92245 5.77801H4.08689L4.08734 5.77756ZM5.99978 8.222C5.99978 7.11934 6.89712 6.222 7.99978 6.222C9.10245 6.222 9.99978 7.11934 9.99978 8.222C9.99978 9.32467 9.10245 10.222 7.99978 10.222C6.89712 10.222 5.99978 9.32467 5.99978 8.222ZM6.88867 8.222C6.88867 8.83445 7.38734 9.33312 7.99978 9.33312C8.61223 9.33312 9.11089 8.83445 9.11089 8.222C9.11089 7.60956 8.61223 7.11089 7.99978 7.11089C7.38734 7.11089 6.88867 7.60956 6.88867 8.222Z" fill="#001B41"/>
</g>
<defs>
<clipPath id="clip0_7602_2699">
<rect width="16" height="16" fill="white"/>
</clipPath>
</defs>
</svg>
