<svg width="21" height="21" viewBox="0 0 21 21" fill="none" xmlns="http://www.w3.org/2000/svg">
<path d="M7.58342 4.08333C7.58342 5.37192 6.53867 6.41667 5.25008 6.41667C3.9615 6.41667 2.91675 5.37192 2.91675 4.08333C2.91675 2.79475 3.9615 1.75 5.25008 1.75C6.53867 1.75 7.58342 2.79475 7.58342 4.08333ZM7.84591 11.2636C6.97266 10.514 6.41675 9.40508 6.41675 8.16667C6.41675 7.87442 6.44883 7.58975 6.50775 7.315C6.3835 7.3045 6.261 7.29167 6.12508 7.29167H4.37508C1.16675 7.29167 1.17316 10.3431 1.16733 11.9502C1.16733 11.9531 1.16675 11.956 1.16675 11.9583V12.25C1.16675 12.572 1.42808 12.8333 1.75008 12.8333H5.38075C5.93317 12.1147 6.71833 11.536 7.84591 11.2636ZM15.7501 1.75C14.4615 1.75 13.4167 2.79475 13.4167 4.08333C13.4167 5.37192 14.4615 6.41667 15.7501 6.41667C17.0387 6.41667 18.0834 5.37192 18.0834 4.08333C18.0834 2.79475 17.0387 1.75 15.7501 1.75ZM16.6251 7.29167H14.8751C14.7392 7.29167 14.6172 7.3045 14.493 7.315C14.5513 7.58975 14.584 7.87442 14.584 8.16667C14.584 9.40508 14.0281 10.514 13.1548 11.263C14.2842 11.5354 15.0699 12.1141 15.6229 12.8333H19.2501C19.5721 12.8333 19.8334 12.572 19.8334 12.25V11.9583C19.8334 10.3477 19.8334 7.29167 16.6251 7.29167ZM11.6253 12.25H9.37541C5.25066 12.25 5.25825 16.1041 5.25125 18.1341C5.25125 18.1376 5.25008 18.1417 5.25008 18.1446V18.5132C5.25008 18.9204 5.58608 19.25 6.00025 19.25H15.0005C15.4147 19.25 15.7507 18.9198 15.7507 18.5132V18.1446C15.7507 16.1099 15.7501 12.25 11.6253 12.25ZM10.5001 5.25C8.8895 5.25 7.58342 6.55608 7.58342 8.16667C7.58342 9.77725 8.8895 11.0833 10.5001 11.0833C12.1107 11.0833 13.4167 9.77725 13.4167 8.16667C13.4167 6.55608 12.1107 5.25 10.5001 5.25Z" fill="black"/>
</svg>
