<svg width="84" height="84" viewBox="0 0 84 84" fill="none" xmlns="http://www.w3.org/2000/svg">
<path d="M41.6061 6C42.9705 6 44.062 6.84298 44.6078 7.96695L54.0222 27.777L74.8977 31.0084C76.1257 31.1489 77.0808 31.9919 77.4901 33.2563C77.8994 34.5208 77.6266 35.7853 76.6715 36.7687L61.5265 52.2234L65.074 74.0003C65.3469 75.2648 64.8011 76.6697 63.846 77.3722C62.7545 78.0747 61.3901 78.2152 60.2985 77.6532L41.6061 67.2565L23.0501 77.6532C21.8221 78.2152 20.5942 78.0747 19.5026 77.3722C18.5475 76.5293 18.0018 75.2648 18.2747 74.0003L21.8221 52.2234L6.67716 36.7687C5.72207 35.7853 5.44919 34.5208 5.85851 33.2563C6.26784 32.1324 7.22292 31.1489 8.45089 31.0084L29.3264 27.777L38.7408 7.96695C39.2866 6.84298 40.3781 6 41.6061 6ZM41.6061 17.0992L34.5112 32.4133C33.9654 33.3968 33.1467 34.0993 32.0552 34.2398L15.9552 36.6282L27.5527 48.5704C28.3713 49.4134 28.7806 50.5374 28.5077 51.5209L25.7789 68.3805L40.1052 60.5126C41.0603 59.9507 42.2883 59.9507 43.2434 60.5126L57.5697 68.3805L54.8409 51.6614C54.568 50.5374 54.9773 49.4134 55.796 48.7109L67.3935 36.6282L51.2934 34.2398C50.2019 34.0993 49.3832 33.3968 48.8375 32.4133L41.6061 17.0992Z" fill="#001B41"/>
</svg>
