<svg width="96" height="96" viewBox="0 0 96 96" fill="none" xmlns="http://www.w3.org/2000/svg">
<path d="M11 18.1875C11 14.4297 14.0352 11.25 17.9375 11.25H31.8125C32.9688 11.25 34.125 12.4062 34.125 13.5625C34.125 14.8633 32.9688 15.875 31.8125 15.875H17.9375C16.6367 15.875 15.625 17.0312 15.625 18.1875V32.0625C15.625 33.3633 14.4688 34.375 13.3125 34.375C12.0117 34.375 11 33.3633 11 32.0625V18.1875ZM42.2188 25.125H53.6367C56.0938 25.125 58.2617 26.7148 58.9844 28.8828L59.418 29.75H63.0312C67.3672 29.75 71.125 33.5078 71.125 37.8438V58.6562C71.125 63.1367 67.3672 66.75 63.0312 66.75H32.9688C28.4883 66.75 24.875 63.1367 24.875 58.6562V37.8438C24.875 33.5078 28.4883 29.75 32.9688 29.75H36.4375L36.8711 28.8828C37.7383 26.7148 39.7617 25.125 42.2188 25.125ZM41.207 30.6172L40.3398 32.9297C39.9062 33.7969 39.0391 34.375 38.1719 34.375H32.9688C30.9453 34.375 29.5 35.9648 29.5 37.8438V58.6562C29.5 60.6797 30.9453 62.125 32.9688 62.125H63.0312C64.9102 62.125 66.5 60.6797 66.5 58.6562V37.8438C66.5 35.9648 64.9102 34.375 63.0312 34.375H57.8281C56.8164 34.375 55.9492 33.7969 55.6602 32.9297L54.6484 30.6172C54.5039 30.1836 54.0703 29.75 53.6367 29.75H42.2188C41.7852 29.75 41.3516 30.1836 41.207 30.6172ZM43.375 48.25C43.375 50.8516 45.3984 52.875 48 52.875C50.457 52.875 52.625 50.8516 52.625 48.25C52.625 45.793 50.457 43.625 48 43.625C45.3984 43.625 43.375 45.793 43.375 48.25ZM57.25 48.25C57.25 51.5742 55.3711 54.6094 52.625 56.3438C49.7344 57.9336 46.1211 57.9336 43.375 56.3438C40.4844 54.6094 38.75 51.5742 38.75 48.25C38.75 45.0703 40.4844 42.0352 43.375 40.3008C46.1211 38.7109 49.7344 38.7109 52.625 40.3008C55.3711 42.0352 57.25 45.0703 57.25 48.25ZM78.0625 11.25C81.8203 11.25 85 14.4297 85 18.1875V32.0625C85 33.3633 83.8438 34.375 82.6875 34.375C81.3867 34.375 80.375 33.3633 80.375 32.0625V18.1875C80.375 17.0312 79.2188 15.875 78.0625 15.875H64.1875C62.8867 15.875 61.875 14.8633 61.875 13.5625C61.875 12.4062 62.8867 11.25 64.1875 11.25H78.0625ZM11 78.3125V64.4375C11 63.2812 12.0117 62.125 13.3125 62.125C14.4688 62.125 15.625 63.2812 15.625 64.4375V78.3125C15.625 79.6133 16.6367 80.625 17.9375 80.625H31.8125C32.9688 80.625 34.125 81.7812 34.125 82.9375C34.125 84.2383 32.9688 85.25 31.8125 85.25H17.9375C14.0352 85.25 11 82.2148 11 78.3125ZM78.0625 85.25H64.1875C62.8867 85.25 61.875 84.2383 61.875 82.9375C61.875 81.7812 62.8867 80.625 64.1875 80.625H78.0625C79.2188 80.625 80.375 79.6133 80.375 78.3125V64.4375C80.375 63.2812 81.3867 62.125 82.6875 62.125C83.8438 62.125 85 63.2812 85 64.4375V78.3125C85 82.2148 81.8203 85.25 78.0625 85.25Z" fill="#001B41"/>
</svg>
