<svg width="96" height="96" viewBox="0 0 96 96" fill="none" xmlns="http://www.w3.org/2000/svg">
<path d="M20.25 20.5C17.6484 20.5 15.625 22.668 15.625 25.125V34.375H80.375V25.125C80.375 22.668 78.207 20.5 75.75 20.5H20.25ZM15.625 39V55.1875H45.6875V39H15.625ZM50.3125 39V55.1875H80.375V39H50.3125ZM45.6875 59.8125H15.625V71.375C15.625 73.9766 17.6484 76 20.25 76H45.6875V59.8125ZM50.3125 76H75.75C78.207 76 80.375 73.9766 80.375 71.375V59.8125H50.3125V76ZM11 25.125C11 20.0664 15.0469 15.875 20.25 15.875H75.75C80.8086 15.875 85 20.0664 85 25.125V71.375C85 76.5781 80.8086 80.625 75.75 80.625H20.25C15.0469 80.625 11 76.5781 11 71.375V25.125Z" fill="#001B41"/>
</svg>
