<svg width="16" height="16" viewBox="0 0 16 16" fill="none" xmlns="http://www.w3.org/2000/svg">
<path d="M14.6667 3.54583H5.33336C5.08758 3.54583 4.88892 3.34672 4.88892 3.10139C4.88892 2.85605 5.08758 2.65694 5.33336 2.65694H14.6667C14.9125 2.65694 15.1111 2.85605 15.1111 3.10139C15.1111 3.34672 14.9125 3.54583 14.6667 3.54583ZM15.1111 8.00005C15.1111 7.75472 14.9125 7.55561 14.6667 7.55561H5.33336C5.08758 7.55561 4.88892 7.75472 4.88892 8.00005C4.88892 8.24539 5.08758 8.4445 5.33336 8.4445H14.6667C14.9125 8.4445 15.1111 8.24539 15.1111 8.00005ZM15.1111 12.8889C15.1111 12.6436 14.9125 12.4445 14.6667 12.4445H5.33336C5.08758 12.4445 4.88892 12.6436 4.88892 12.8889C4.88892 13.1343 5.08758 13.3334 5.33336 13.3334H14.6667C14.9125 13.3334 15.1111 13.1343 15.1111 12.8889ZM3.55558 13.5556V12.2223C3.55558 11.8547 3.25647 11.5556 2.88892 11.5556H1.55558C1.18803 11.5556 0.888916 11.8547 0.888916 12.2223V13.5556C0.888916 13.9232 1.18803 14.2223 1.55558 14.2223H2.88892C3.25647 14.2223 3.55558 13.9232 3.55558 13.5556ZM1.7778 12.4445H2.66669V13.3334H1.7778V12.4445ZM3.55558 8.66672V7.33339C3.55558 6.96583 3.25647 6.66672 2.88892 6.66672H1.55558C1.18803 6.66672 0.888916 6.96583 0.888916 7.33339V8.66672C0.888916 9.03428 1.18803 9.33339 1.55558 9.33339H2.88892C3.25647 9.33339 3.55558 9.03428 3.55558 8.66672ZM1.7778 7.55561H2.66669V8.4445H1.7778V7.55561ZM3.55558 3.77783V2.4445C3.55558 2.07694 3.25647 1.77783 2.88892 1.77783H1.55558C1.18803 1.77783 0.888916 2.07694 0.888916 2.4445V3.77783C0.888916 4.14539 1.18803 4.4445 1.55558 4.4445H2.88892C3.25647 4.4445 3.55558 4.14539 3.55558 3.77783ZM1.7778 2.66672H2.66669V3.55561H1.7778V2.66672Z" fill="#001B41"/>
</svg>
