<svg width="20" height="17" viewBox="0 0 20 17" fill="none" xmlns="http://www.w3.org/2000/svg">
<path d="M1.5625 0.375H3.4375C3.94531 0.375 4.375 0.804688 4.375 1.3125V3.1875C4.375 3.73438 3.94531 4.125 3.4375 4.125H1.5625C1.01562 4.125 0.625 3.73438 0.625 3.1875V1.3125C0.625 0.804688 1.01562 0.375 1.5625 0.375ZM7.1875 1.3125H19.0625C19.5703 1.3125 20 1.74219 20 2.25C20 2.79688 19.5703 3.1875 19.0625 3.1875H7.1875C6.64062 3.1875 6.25 2.79688 6.25 2.25C6.25 1.74219 6.64062 1.3125 7.1875 1.3125ZM7.1875 7.5625H19.0625C19.5703 7.5625 20 7.99219 20 8.5C20 9.04688 19.5703 9.4375 19.0625 9.4375H7.1875C6.64062 9.4375 6.25 9.04688 6.25 8.5C6.25 7.99219 6.64062 7.5625 7.1875 7.5625ZM7.1875 13.8125H19.0625C19.5703 13.8125 20 14.2422 20 14.75C20 15.2969 19.5703 15.6875 19.0625 15.6875H7.1875C6.64062 15.6875 6.25 15.2969 6.25 14.75C6.25 14.2422 6.64062 13.8125 7.1875 13.8125ZM0.625 7.5625C0.625 7.05469 1.01562 6.625 1.5625 6.625H3.4375C3.94531 6.625 4.375 7.05469 4.375 7.5625V9.4375C4.375 9.98438 3.94531 10.375 3.4375 10.375H1.5625C1.01562 10.375 0.625 9.98438 0.625 9.4375V7.5625ZM1.5625 12.875H3.4375C3.94531 12.875 4.375 13.3047 4.375 13.8125V15.6875C4.375 16.2344 3.94531 16.625 3.4375 16.625H1.5625C1.01562 16.625 0.625 16.2344 0.625 15.6875V13.8125C0.625 13.3047 1.01562 12.875 1.5625 12.875Z" fill="#001B41"/>
</svg>
