<svg width="21" height="21" viewBox="0 0 21 21" fill="none" xmlns="http://www.w3.org/2000/svg">
<path d="M16.9167 2.33325H4.08342C2.47516 2.33325 1.16675 3.64167 1.16675 5.24992V15.7499C1.16675 17.3582 2.47516 18.6666 4.08342 18.6666H16.9167C18.525 18.6666 19.8334 17.3582 19.8334 15.7499V5.24992C19.8334 3.64167 18.525 2.33325 16.9167 2.33325ZM6.12508 5.83325C6.93067 5.83325 7.58342 6.486 7.58342 7.29158C7.58342 8.09717 6.93067 8.74992 6.12508 8.74992C5.3195 8.74992 4.66675 8.09717 4.66675 7.29158C4.66675 6.486 5.3195 5.83325 6.12508 5.83325ZM18.0834 15.7499C18.0834 16.3945 17.5613 16.9166 16.9167 16.9166H4.08342C3.43883 16.9166 2.91675 16.3945 2.91675 15.7499V14.5127L6.38117 11.0483C6.723 10.7064 7.27658 10.7064 7.61842 11.0483L8.7495 12.1793L11.6306 9.29825C11.9724 8.95642 12.526 8.95642 12.8678 9.29825L18.0822 14.5127V15.7499H18.0834Z" fill="black"/>
</svg>
