<svg width="32" height="32" viewBox="0 0 32 32" fill="none" xmlns="http://www.w3.org/2000/svg">
<path d="M26.2223 28.4444H5.77783C3.5725 28.4444 1.77783 26.6498 1.77783 24.4444V7.55554C1.77783 5.35021 3.5725 3.55554 5.77783 3.55554H11.7094C12.5272 3.55554 13.3281 3.8871 13.9067 4.46576L16.5521 7.1111H26.2223C28.4276 7.1111 30.2223 8.90576 30.2223 11.1111V24.4444C30.2223 26.6498 28.4276 28.4444 26.2223 28.4444Z" fill="#3196D6"/>
<g clip-path="url(#clip0_6540_429)">
<path d="M12.2824 14.7489C11.9233 14.4142 11.9038 13.8516 12.2389 13.4925L15.35 10.1591C15.686 9.79868 16.3136 9.79868 16.6496 10.1591L19.7607 13.4925C20.0958 13.8516 20.0762 14.4138 19.7171 14.7489C19.546 14.9089 19.3282 14.988 19.1109 14.988C18.8736 14.988 18.6362 14.8933 18.4611 14.7058L16.8887 13.0209V20.0991C16.8887 20.5898 16.4904 20.988 15.9998 20.988C15.5091 20.988 15.1109 20.5898 15.1109 20.0991V13.0209L13.5384 14.7058C13.2033 15.0653 12.6402 15.0836 12.2824 14.7489ZM22.222 19.2102C21.7313 19.2102 21.3331 19.6085 21.3331 20.0991V21.4325C21.3331 21.9227 20.9344 22.3213 20.4442 22.3213H11.5553C11.0651 22.3213 10.6664 21.9227 10.6664 21.4325V20.0991C10.6664 19.6085 10.2682 19.2102 9.77756 19.2102C9.28689 19.2102 8.88867 19.6085 8.88867 20.0991V21.4325C8.88867 22.9031 10.0847 24.0991 11.5553 24.0991H20.4442C21.9149 24.0991 23.1109 22.9031 23.1109 21.4325V20.0991C23.1109 19.6085 22.7127 19.2102 22.222 19.2102Z" fill="white"/>
</g>
<defs>
<clipPath id="clip0_6540_429">
<rect width="16" height="16" fill="white" transform="translate(8 9)"/>
</clipPath>
</defs>
</svg>
