<svg width="96" height="96" viewBox="0 0 96 96" fill="none" xmlns="http://www.w3.org/2000/svg">
<path d="M39.3281 17.0312L37.0156 20.5H58.8398L56.5273 17.0312C56.0938 16.3086 55.3711 15.875 54.6484 15.875H41.207C40.4844 15.875 39.7617 16.3086 39.3281 17.0312ZM60.5742 14.5742L64.1875 20.5H71.125H75.75H78.0625C79.2188 20.5 80.375 21.6562 80.375 22.8125C80.375 24.1133 79.2188 25.125 78.0625 25.125H75.75V73.6875C75.75 80.1914 70.5469 85.25 64.1875 85.25H31.8125C25.3086 85.25 20.25 80.1914 20.25 73.6875V25.125H17.9375C16.6367 25.125 15.625 24.1133 15.625 22.8125C15.625 21.6562 16.6367 20.5 17.9375 20.5H20.25H24.875H31.668L35.4258 14.5742C36.582 12.5508 38.8945 11.25 41.207 11.25H54.6484C56.9609 11.25 59.2734 12.5508 60.4297 14.5742H60.5742ZM24.875 25.125V73.6875C24.875 77.5898 27.9102 80.625 31.8125 80.625H64.1875C67.9453 80.625 71.125 77.5898 71.125 73.6875V25.125H24.875ZM36.4375 36.6875V69.0625C36.4375 70.3633 35.2812 71.375 34.125 71.375C32.8242 71.375 31.8125 70.3633 31.8125 69.0625V36.6875C31.8125 35.5312 32.8242 34.375 34.125 34.375C35.2812 34.375 36.4375 35.5312 36.4375 36.6875ZM50.3125 36.6875V69.0625C50.3125 70.3633 49.1562 71.375 48 71.375C46.6992 71.375 45.6875 70.3633 45.6875 69.0625V36.6875C45.6875 35.5312 46.6992 34.375 48 34.375C49.1562 34.375 50.3125 35.5312 50.3125 36.6875ZM64.1875 36.6875V69.0625C64.1875 70.3633 63.0312 71.375 61.875 71.375C60.5742 71.375 59.5625 70.3633 59.5625 69.0625V36.6875C59.5625 35.5312 60.5742 34.375 61.875 34.375C63.0312 34.375 64.1875 35.5312 64.1875 36.6875Z" fill="#001B41"/>
</svg>
