<svg width="16" height="16" viewBox="0 0 16 16" fill="none" xmlns="http://www.w3.org/2000/svg">
<g clip-path="url(#clip0_7603_2768)">
<path d="M14.9807 14.3522L10.6718 10.0433C11.4984 9.07356 11.9998 7.81845 11.9998 6.44423C11.9998 3.37578 9.51267 0.888672 6.44423 0.888672C3.37578 0.888672 0.888672 3.37578 0.888672 6.44423C0.888672 9.51267 3.37578 11.9998 6.44423 11.9998C7.81845 11.9998 9.07356 11.4984 10.0433 10.6718L14.3522 14.9807C14.4389 15.0673 14.5527 15.1109 14.6664 15.1109C14.7802 15.1109 14.894 15.0673 14.9807 14.9807C15.1545 14.8073 15.1545 14.5256 14.9807 14.3522ZM6.44423 11.1109C3.87089 11.1109 1.77756 9.01756 1.77756 6.44423C1.77756 3.87089 3.87089 1.77756 6.44423 1.77756C9.01756 1.77756 11.1109 3.87089 11.1109 6.44423C11.1109 9.01756 9.01756 11.1109 6.44423 11.1109Z" fill="#001B41"/>
</g>
<defs>
<clipPath id="clip0_7603_2768">
<rect width="16" height="16" fill="white"/>
</clipPath>
</defs>
</svg>
