<svg width="96" height="96" viewBox="0 0 96 96" fill="none" xmlns="http://www.w3.org/2000/svg">
<path d="M62 42C62 34.875 58.125 28.375 52 24.75C45.75 21.125 38.125 21.125 32 24.75C25.75 28.375 22 34.875 22 42C22 49.25 25.75 55.75 32 59.375C38.125 63 45.75 63 52 59.375C58.125 55.75 62 49.25 62 42ZM58.125 62.5C53.625 66 48 68 42 68C27.625 68 16 56.375 16 42C16 27.75 27.625 16 42 16C56.25 16 68 27.75 68 42C68 48.125 65.875 53.75 62.375 58.25L79.125 74.875C80.25 76.125 80.25 78 79.125 79.125C77.875 80.375 76 80.375 74.875 79.125L58.125 62.5Z" fill="#001B41"/>
</svg>
