<?xml version="1.0" encoding="UTF-8" standalone="no"?>
<svg
   width="32"
   height="32"
   viewBox="0 0 32 32"
   fill="none"
   version="1.1"
   id="svg2"
   sodipodi:docname="Folder_lock_ icon.svg"
   inkscape:version="1.3.2 (091e20e, 2023-11-25)"
   xmlns:inkscape="http://www.inkscape.org/namespaces/inkscape"
   xmlns:sodipodi="http://sodipodi.sourceforge.net/DTD/sodipodi-0.dtd"
   xmlns="http://www.w3.org/2000/svg"
   xmlns:svg="http://www.w3.org/2000/svg">
  <defs
     id="defs2" />
  <sodipodi:namedview
     id="namedview2"
     pagecolor="#ffffff"
     bordercolor="#000000"
     borderopacity="0.25"
     inkscape:showpageshadow="2"
     inkscape:pageopacity="0.0"
     inkscape:pagecheckerboard="0"
     inkscape:deskcolor="#d1d1d1"
     inkscape:zoom="7.375"
     inkscape:cx="15.932203"
     inkscape:cy="15.932203"
     inkscape:window-width="1312"
     inkscape:window-height="864"
     inkscape:window-x="50"
     inkscape:window-y="38"
     inkscape:window-maximized="0"
     inkscape:current-layer="svg2" />
  <path
     id="path1"
     d="M 7 5.5 C 5.3125017 5.5 4 6.8593816 4 8.5 L 4 23.5 C 4 25.187498 5.3125017 26.5 7 26.5 L 25 26.5 C 26.640598 26.5 28 25.187498 28 23.5 L 28 11.5 C 28 9.8593816 26.640598 8.5 25 8.5 L 17.5 8.5 C 16.984401 8.5 16.56255 8.3124996 16.28125 7.9375 L 15.390625 6.71875 C 14.828126 5.9687507 13.937499 5.5 13 5.5 L 7 5.5 z M 17.9375 11.25 C 19.480498 11.25 20.75 12.519502 20.75 14.0625 C 20.75 15.624998 19.480498 16.875 17.9375 16.875 C 17.312501 16.875 16.765575 16.699187 16.296875 16.367188 L 14.363281 18.28125 L 15.28125 19.199219 C 15.47665 19.394519 15.47665 19.687481 15.28125 19.863281 C 15.10555 20.058581 14.812519 20.058581 14.636719 19.863281 L 13.71875 18.945312 L 13.113281 19.53125 L 14.03125 20.449219 C 14.22665 20.644519 14.22665 20.937481 14.03125 21.113281 C 13.85555 21.308581 13.562519 21.308581 13.386719 21.113281 L 12.136719 19.863281 C 11.941419 19.687481 11.941419 19.394519 12.136719 19.199219 L 15.632812 15.703125 C 15.300813 15.234425 15.125 14.687499 15.125 14.0625 C 15.125 12.519502 16.375002 11.25 17.9375 11.25 z M 17.9375 12.1875 C 17.253901 12.1875 16.648375 12.558601 16.296875 13.125 C 15.964775 13.710899 15.964775 14.433601 16.296875 15 C 16.648375 15.585899 17.253901 15.9375 17.9375 15.9375 C 18.601599 15.9375 19.206994 15.585899 19.558594 15 C 19.890593 14.433601 19.890593 13.710899 19.558594 13.125 C 19.206994 12.558601 18.601599 12.1875 17.9375 12.1875 z "
     style="fill:#1474c4;fill-opacity:1" />
</svg>
