<svg width="32" height="32" viewBox="0 0 32 32" fill="none" xmlns="http://www.w3.org/2000/svg">
<circle cx="16" cy="16" r="16" fill="#2E4360"/>
<path d="M18.6665 11.7999C18.6665 10.8666 18.1332 9.99989 17.3332 9.49989C16.4999 9.03322 15.4665 9.03322 14.6665 9.49989C13.8332 9.99989 13.3332 10.8666 13.3332 11.7999C13.3332 12.7666 13.8332 13.6332 14.6665 14.1332C15.4665 14.5999 16.4999 14.5999 17.3332 14.1332C18.1332 13.6332 18.6665 12.7666 18.6665 11.7999ZM11.7332 11.7999C11.7332 10.2999 12.5332 8.89989 13.8665 8.13322C15.1665 7.36655 16.7999 7.36655 18.1332 8.13322C19.4332 8.89989 20.2665 10.2999 20.2665 11.7999C20.2665 13.3332 19.4332 14.7332 18.1332 15.4999C16.7999 16.2666 15.1665 16.2666 13.8665 15.4999C12.5332 14.7332 11.7332 13.3332 11.7332 11.7999ZM10.1665 22.9999H21.7999C21.4999 20.8999 19.6999 19.2666 17.4999 19.2666H14.4665C12.2665 19.2666 10.4665 20.8999 10.1665 22.9999ZM8.5332 23.6332C8.5332 20.3332 11.1665 17.6666 14.4665 17.6666H17.4999C20.7999 17.6666 23.4665 20.3332 23.4665 23.6332C23.4665 24.1666 22.9999 24.5999 22.4665 24.5999H9.49987C8.96654 24.5999 8.5332 24.1666 8.5332 23.6332Z" fill="#BCC8D4"/>
</svg>
