<svg width="36" height="36" viewBox="0 0 36 36" fill="none" xmlns="http://www.w3.org/2000/svg">
<circle cx="18" cy="18" r="18" fill="#DBE2E8"/>
<path d="M19.6672 20.7778C22.5288 20.7778 24.6672 23.1244 24.6672 25.2222V25.7778H11.3333V25.2611C11.3344 25.2433 11.3349 25.2261 11.3349 25.21C11.3433 22.8905 13.7255 20.7778 16.3338 20.7778H19.6672ZM19.6672 19.6666H16.3338C13.2711 19.6666 10.2344 22.1455 10.2238 25.2061C10.2238 25.2111 10.2222 25.2172 10.2222 25.2222V25.7778C10.2222 26.3916 10.7194 26.8889 11.3333 26.8889H24.6672C25.2811 26.8889 25.7783 26.3916 25.7783 25.7778V25.2222C25.7783 22.1539 22.7355 19.6666 19.6672 19.6666ZM18.0005 10.2222C19.8383 10.2222 21.3338 11.7178 21.3338 13.5555C21.3338 15.3933 19.8383 16.8889 18.0005 16.8889C16.1627 16.8889 14.6672 15.3933 14.6672 13.5555C14.6672 11.7178 16.1627 10.2222 18.0005 10.2222ZM18.0005 9.11108C15.5461 9.11108 13.5561 11.1011 13.5561 13.5555C13.5561 16.01 15.5461 18 18.0005 18C20.4549 18 22.4449 16.01 22.4449 13.5555C22.4449 11.1011 20.4549 9.11108 18.0005 9.11108Z" fill="#001B41"/>
</svg>
