<svg width="20" height="6" viewBox="0 0 20 6" fill="none" xmlns="http://www.w3.org/2000/svg">
<path d="M19.75 3C19.75 3.84375 19.2812 4.54688 18.625 4.96875C17.9219 5.39062 17.0312 5.39062 16.375 4.96875C15.6719 4.54688 15.25 3.84375 15.25 3C15.25 2.20312 15.6719 1.5 16.375 1.07812C17.0312 0.65625 17.9219 0.65625 18.625 1.07812C19.2812 1.5 19.75 2.20312 19.75 3ZM12.25 3C12.25 3.84375 11.7812 4.54688 11.125 4.96875C10.4219 5.39062 9.53125 5.39062 8.875 4.96875C8.17188 4.54688 7.75 3.84375 7.75 3C7.75 2.20312 8.17188 1.5 8.875 1.07812C9.53125 0.65625 10.4219 0.65625 11.125 1.07812C11.7812 1.5 12.25 2.20312 12.25 3ZM2.5 5.25C1.65625 5.25 0.953125 4.82812 0.53125 4.125C0.109375 3.46875 0.109375 2.57812 0.53125 1.875C0.953125 1.21875 1.65625 0.75 2.5 0.75C3.29688 0.75 4 1.21875 4.42188 1.875C4.84375 2.57812 4.84375 3.46875 4.42188 4.125C4 4.82812 3.29688 5.25 2.5 5.25Z" fill="#1474C4"/>
</svg>
