<svg width="24" height="24" viewBox="0 0 24 24" fill="none" xmlns="http://www.w3.org/2000/svg">
<path d="M14 3.33325C14 4.43792 13.1047 5.33325 12 5.33325C10.8953 5.33325 10 4.43792 10 3.33325C10 2.22859 10.8953 1.33325 12 1.33325C13.1047 1.33325 14 2.22859 14 3.33325ZM12 9.99992C10.8953 9.99992 10 10.8953 10 11.9999C10 13.1046 10.8953 13.9999 12 13.9999C13.1047 13.9999 14 13.1046 14 11.9999C14 10.8953 13.1047 9.99992 12 9.99992ZM12 18.6666C10.8953 18.6666 10 19.5619 10 20.6666C10 21.7712 10.8953 22.6666 12 22.6666C13.1047 22.6666 14 21.7712 14 20.6666C14 19.5619 13.1047 18.6666 12 18.6666Z" fill="#3196D6"/>
</svg>
