<svg width="16" height="16" viewBox="0 0 16 16" fill="none" xmlns="http://www.w3.org/2000/svg">
<path d="M13.3334 14.2223H2.66669C1.68625 14.2223 0.888916 13.4249 0.888916 12.4445V3.55561C0.888916 2.57517 1.68625 1.77783 2.66669 1.77783H6.07692C6.42758 1.77783 6.77069 1.92005 7.01825 2.16761L8.40625 3.55561H13.3334C14.3138 3.55561 15.1111 4.35294 15.1111 5.33339V12.4445C15.1111 13.4249 14.3138 14.2223 13.3334 14.2223ZM2.66669 2.66672C2.17647 2.66672 1.7778 3.06539 1.7778 3.55561V12.4445C1.7778 12.9347 2.17647 13.3334 2.66669 13.3334H13.3334C13.8236 13.3334 14.2222 12.9347 14.2222 12.4445V5.33339C14.2222 4.84317 13.8236 4.4445 13.3334 4.4445H8.40625C8.17247 4.4445 7.94358 4.34983 7.77825 4.1845L6.39025 2.7965C6.30758 2.71428 6.1938 2.66672 6.07736 2.66672H2.66669ZM10.888 8.33339H10.4116C10.0165 8.33339 9.81869 7.85561 10.0978 7.5765L10.4347 7.23961C10.5218 7.1525 10.5218 7.01161 10.4347 6.9245L9.96447 6.45428C9.87736 6.36717 9.73647 6.36717 9.64936 6.45428L9.31247 6.79117C9.03292 7.07072 8.55558 6.8725 8.55558 6.47739V6.00094C8.55558 5.87783 8.45558 5.77783 8.33247 5.77783H7.66714C7.54403 5.77783 7.44403 5.87783 7.44403 6.00094V6.47739C7.44403 6.8725 6.96625 7.07028 6.68714 6.79117L6.35025 6.45428C6.26314 6.36717 6.12225 6.36717 6.03514 6.45428L5.56492 6.9245C5.4778 7.01161 5.4778 7.1525 5.56492 7.23961L5.9018 7.5765C6.18136 7.85605 5.98314 8.33339 5.58803 8.33339H5.11158C4.98847 8.33339 4.88847 8.43339 4.88847 8.5565V9.22183C4.88847 9.34494 4.98847 9.44494 5.11158 9.44494H5.58803C5.98314 9.44494 6.18092 9.92272 5.9018 10.2018L5.56492 10.5387C5.4778 10.6258 5.4778 10.7667 5.56492 10.8538L6.03514 11.3241C6.12225 11.4112 6.26314 11.4112 6.35025 11.3241L6.68714 10.9872C6.96669 10.7076 7.44403 10.9058 7.44403 11.3009V11.7774C7.44403 11.9005 7.54403 12.0005 7.66714 12.0005H8.33247C8.45558 12.0005 8.55558 11.9005 8.55558 11.7774V11.3009C8.55558 10.9058 9.03336 10.7081 9.31247 10.9872L9.64936 11.3241C9.73647 11.4112 9.87736 11.4112 9.96447 11.3241L10.4347 10.8538C10.5218 10.7667 10.5218 10.6258 10.4347 10.5387L10.0978 10.2018C9.81825 9.92228 10.0165 9.44494 10.4116 9.44494H10.888C11.0111 9.44494 11.1111 9.34494 11.1111 9.22183V8.5565C11.1111 8.43339 11.0111 8.33339 10.888 8.33339ZM8.00003 10.1112C7.32492 10.1112 6.7778 9.56405 6.7778 8.88894C6.7778 8.21383 7.32492 7.66672 8.00003 7.66672C8.67514 7.66672 9.22225 8.21383 9.22225 8.88894C9.22225 9.56405 8.67514 10.1112 8.00003 10.1112Z" fill="#001B41"/>
</svg>
