<svg width="84" height="84" viewBox="0 0 84 84" fill="none" xmlns="http://www.w3.org/2000/svg">
<g clip-path="url(#clip0_1832_3375)">
<path d="M42 71.1181C25.7316 71.1181 12.5461 58.2017 12.5461 42.2653C12.5461 26.329 25.7316 13.4125 42 13.4125C58.2684 13.4125 71.4539 26.329 71.4539 42.2653C71.4539 58.2017 58.2684 71.1181 42 71.1181ZM6 42.2653C6 61.7409 22.1186 77.5306 42 77.5306C61.8814 77.5306 78 61.7409 78 42.2653C78 22.7897 61.8814 7 42 7C22.1186 7 6 22.7897 6 42.2653Z" fill="#001B41"/>
<path d="M50.6667 56.6916L38.728 45.1217V24.6338H41.9999V43.7824L52.9665 54.4123L50.6667 56.6916Z" fill="#001B41"/>
</g>
<defs>
<clipPath id="clip0_1832_3375">
<rect width="72" height="70.5306" fill="white" transform="translate(6 7)"/>
</clipPath>
</defs>
</svg>
