<svg width="96" height="96" viewBox="0 0 96 96" fill="none" xmlns="http://www.w3.org/2000/svg">
<path d="M5.5 8H90.5C91.75 8 93 9.25 93 10.5C93 11.9062 91.75 13 90.5 13H5.5C4.09375 13 3 11.9062 3 10.5C3 9.25 4.09375 8 5.5 8ZM8 18H13V53C13 55.8125 15.1875 58 18 58H48H78C80.6562 58 83 55.8125 83 53V18H88V53C88 58.625 83.4688 63 78 63H50.5V69.5625L64.7188 83.7812C65.6562 84.7188 65.6562 86.4375 64.7188 87.375C63.7812 88.3125 62.0625 88.3125 61.125 87.375L48 74.0938L34.7188 87.375C33.7812 88.3125 32.0625 88.3125 31.125 87.375C30.1875 86.4375 30.1875 84.7188 31.125 83.7812L45.5 69.5625V63H18C12.375 63 8 58.625 8 53V18Z" fill="#001B41"/>
<g clip-path="url(#clip0_3422_11730)">
<path d="M50 22.25V33.5H61.25C62.5781 33.5 63.75 34.6719 63.75 36C63.75 37.4062 62.5781 38.5 61.25 38.5H50V49.75C50 51.1562 48.8281 52.25 47.5 52.25C46.0938 52.25 45 51.1562 45 49.75V38.5H33.75C32.3438 38.5 31.25 37.4062 31.25 36C31.25 34.6719 32.3438 33.5 33.75 33.5H45V22.25C45 20.9219 46.0938 19.75 47.5 19.75C48.8281 19.75 50 20.9219 50 22.25Z" fill="#001B41"/>
</g>
<defs>
<clipPath id="clip0_3422_11730">
<rect width="38" height="38" fill="white" transform="translate(29 16)"/>
</clipPath>
</defs>
</svg>
