<svg width="22" height="22" viewBox="0 0 22 22" fill="none" xmlns="http://www.w3.org/2000/svg">
<path d="M19.8611 5.18089H7.63883C7.13283 5.18089 6.72217 4.77022 6.72217 4.26422C6.72217 3.75822 7.13283 3.34756 7.63883 3.34756H19.8611C20.3671 3.34756 20.7777 3.75822 20.7777 4.26422C20.7777 4.77022 20.3671 5.18089 19.8611 5.18089ZM20.7777 10.9999C20.7777 10.4939 20.3671 10.0832 19.8611 10.0832H7.63883C7.13283 10.0832 6.72217 10.4939 6.72217 10.9999C6.72217 11.5059 7.13283 11.9166 7.63883 11.9166H19.8611C20.3671 11.9166 20.7777 11.5059 20.7777 10.9999ZM20.7777 17.7221C20.7777 17.2161 20.3671 16.8054 19.8611 16.8054H7.63883C7.13283 16.8054 6.72217 17.2161 6.72217 17.7221C6.72217 18.2281 7.13283 18.6388 7.63883 18.6388H19.8611C20.3671 18.6388 20.7777 18.2281 20.7777 17.7221ZM4.88883 18.6388V16.8054C4.88883 16.2994 4.47817 15.8888 3.97217 15.8888H2.13883C1.63283 15.8888 1.22217 16.2994 1.22217 16.8054V18.6388C1.22217 19.1448 1.63283 19.5554 2.13883 19.5554H3.97217C4.47817 19.5554 4.88883 19.1448 4.88883 18.6388ZM4.88883 11.9166V10.0832C4.88883 9.57722 4.47817 9.16656 3.97217 9.16656H2.13883C1.63283 9.16656 1.22217 9.57722 1.22217 10.0832V11.9166C1.22217 12.4226 1.63283 12.8332 2.13883 12.8332H3.97217C4.47817 12.8332 4.88883 12.4226 4.88883 11.9166ZM4.88883 5.19434V3.361C4.88883 2.855 4.47817 2.44434 3.97217 2.44434H2.13883C1.63283 2.44434 1.22217 2.855 1.22217 3.361V5.19434C1.22217 5.70034 1.63283 6.111 2.13883 6.111H3.97217C4.47817 6.111 4.88883 5.70034 4.88883 5.19434Z" fill="#001B41"/>
</svg>
