<svg width="24" height="24" viewBox="0 0 24 24" fill="none" xmlns="http://www.w3.org/2000/svg">
<path d="M16.5 0H22.5C23.2969 0 24 0.703125 24 1.5V7.5C24 8.34375 23.2969 9 22.5 9C21.6562 9 21 8.34375 21 7.5V5.15625L16.0312 10.0781C15.4688 10.6875 14.4844 10.6875 13.9219 10.0781C13.3125 9.51562 13.3125 8.53125 13.9219 7.96875L18.8438 3H16.5C15.6562 3 15 2.34375 15 1.5C15 0.703125 15.6562 0 16.5 0ZM10.0312 13.9688C10.6406 14.5312 10.6406 15.5156 10.0312 16.0781L5.10938 21H7.5C8.29688 21 9 21.7031 9 22.5C9 23.3438 8.29688 24 7.5 24H1.5C0.65625 24 0 23.3438 0 22.5V16.5C0 15.7031 0.65625 15 1.5 15C2.29688 15 3 15.7031 3 16.5V18.8906L7.92188 13.9688C8.48438 13.3594 9.46875 13.3594 10.0312 13.9688Z" fill="#F4F7FA"/>
</svg>
