<svg width="24" height="24" viewBox="0 0 24 24" fill="none" xmlns="http://www.w3.org/2000/svg">
<path d="M8.00016 16.3335C8.00016 15.5968 8.59683 15.0002 9.3335 15.0002C10.0702 15.0002 10.6668 15.5968 10.6668 16.3335C10.6668 17.0702 10.0702 17.6668 9.3335 17.6668C8.59683 17.6668 8.00016 17.0702 8.00016 16.3335ZM22.6668 6.66683V8.3335C22.6668 8.88616 22.2195 9.3335 21.6668 9.3335C21.1142 9.3335 20.6668 8.88616 20.6668 8.3335V6.66683C20.6668 4.92216 19.0782 3.3335 17.3335 3.3335C15.5888 3.3335 14.0002 4.92216 14.0002 6.66683V10.0002H14.6668C16.1375 10.0002 17.3335 11.1962 17.3335 12.6668V20.0002C17.3335 21.4708 16.1375 22.6668 14.6668 22.6668H4.00016C2.5295 22.6668 1.3335 21.4708 1.3335 20.0002V12.6668C1.3335 11.1962 2.5295 10.0002 4.00016 10.0002H12.0002V6.66683C12.0002 3.8255 14.4922 1.3335 17.3335 1.3335C20.1748 1.3335 22.6668 3.8255 22.6668 6.66683ZM14.6668 12.0002H4.00016C3.63216 12.0002 3.3335 12.2988 3.3335 12.6668V20.0002C3.3335 20.3682 3.63216 20.6668 4.00016 20.6668H14.6668C15.0348 20.6668 15.3335 20.3682 15.3335 20.0002V12.6668C15.3335 12.2988 15.0348 12.0002 14.6668 12.0002Z" fill="black"/>
</svg>
