<svg width="84" height="84" viewBox="0 0 84 84" fill="none" xmlns="http://www.w3.org/2000/svg">
<path d="M37.105 9.7101L35.0013 16.9229C34.5505 18.726 33.1981 20.0784 31.6954 20.8298C30.4933 21.4308 29.4415 22.0319 28.3896 22.633C27.0372 23.6848 25.0838 24.1356 23.2806 23.6848L16.0678 21.8816C15.7673 21.8816 15.617 21.8816 15.4667 21.8816C14.5651 22.9335 13.8138 23.9853 13.2128 25.1875L12.4614 26.2393C11.8604 27.4415 11.2593 28.6436 10.8085 29.8457C10.8085 29.996 10.9588 30.2965 11.109 30.4468L16.3683 35.7061C17.5705 37.0585 18.1715 39.0119 18.0213 40.6648C18.0213 41.2659 18.0213 41.867 18.0213 42.468C18.0213 43.2194 18.0213 43.8204 18.0213 44.4215C18.1715 46.0744 17.5705 47.8776 16.3683 49.23L11.109 54.6396C10.9588 54.7898 10.8085 55.0904 10.8085 55.2406C11.2593 56.4428 11.8604 57.6449 12.4614 58.847L13.0625 59.8989C13.8138 60.9507 14.5651 62.1529 15.3165 63.2047C15.617 63.2047 15.7673 63.2047 16.0678 63.2047L23.2806 61.4015C25.0838 60.9507 27.0372 61.4015 28.3896 62.3031C29.4415 63.0544 30.4933 63.6555 31.6954 64.2566C33.1981 65.0079 34.5505 66.3603 35.0013 68.1635L37.105 75.3762C37.105 75.5265 37.2553 75.6768 37.4055 75.827C38.9082 76.1276 40.4109 76.1276 42.0638 76.1276C43.5664 76.1276 45.0691 76.1276 46.5718 75.827C46.722 75.6768 46.8723 75.5265 46.8723 75.3762L48.976 68.1635C49.4268 66.3603 50.7792 65.0079 52.2819 64.2566C53.484 63.6555 54.5358 63.0544 55.5877 62.3031C57.0904 61.4015 58.8935 60.9507 60.6967 61.4015L67.9095 63.2047C68.21 63.2047 68.3603 63.2047 68.6608 63.2047C69.4122 62.1529 70.1635 60.9507 70.9148 59.8989L71.5159 58.847C72.1169 57.6449 72.718 56.4428 73.1688 55.2406C73.1688 55.0904 73.0185 54.7898 72.8683 54.6396L67.609 49.23C66.4068 47.8776 65.8058 46.0744 65.956 44.4215C65.956 43.8204 66.1063 43.2194 66.1063 42.468C66.1063 41.867 65.956 41.2659 65.956 40.6648C65.8058 39.0119 66.4068 37.0585 67.609 35.7061L72.8683 30.4468C73.0185 30.2965 73.1688 29.996 73.1688 29.8457C72.718 28.6436 72.1169 27.4415 71.5159 26.2393L70.9148 25.1875C70.1635 23.9853 69.4122 22.9335 68.6608 21.8816C68.3603 21.8816 68.21 21.8816 67.9095 21.8816L60.6967 23.6848C58.8935 24.1356 57.0904 23.6848 55.5877 22.7832C54.5358 22.0319 53.484 21.4308 52.2819 20.8298C50.7792 20.0784 49.4268 18.726 48.976 16.9229L46.8723 9.7101C46.8723 9.55983 46.722 9.2593 46.5718 9.10904C45.0691 8.95877 43.5664 8.8085 42.0638 8.8085C40.4109 8.8085 38.9082 8.95877 37.4055 9.10904C37.2553 9.2593 37.105 9.55983 37.105 9.7101ZM42.0638 4C44.0172 4 45.8204 4.15027 47.7739 4.4508C48.0744 4.60106 48.2247 4.60106 48.5252 4.75133C49.8776 5.50266 51.0797 6.85505 51.5305 8.35771L53.6342 15.5705C53.6342 15.871 53.9348 16.3218 54.3856 16.4721C55.738 17.0731 57.0904 17.8245 58.2925 18.726C58.7433 19.0266 59.1941 19.1768 59.4946 19.0266L66.8576 17.2234C68.3603 16.7726 70.1635 17.0731 71.5159 17.9747C71.6661 18.125 71.8164 18.2752 72.1169 18.5758C73.1688 19.7779 74.0704 21.2806 74.972 22.7832L75.7233 23.8351V23.9853C76.4746 25.488 77.226 26.9907 77.827 28.4933C77.9773 28.7939 77.9773 28.9441 77.9773 29.2446C78.1276 30.8976 77.5265 32.5505 76.3244 33.7526L71.0651 39.1622C70.9148 39.3125 70.7645 39.7633 70.7645 40.214C70.7645 40.9654 70.9148 41.7167 70.9148 42.468C70.9148 43.2194 70.7645 43.9707 70.7645 44.722C70.7645 45.3231 70.9148 45.7739 71.0651 45.9241L76.3244 51.3337C77.5265 52.5358 78.1276 54.1888 77.9773 55.8417C77.9773 55.992 77.9773 56.2925 77.827 56.593C77.226 58.0957 76.4746 59.5983 75.7233 61.101L74.972 62.3031C74.0704 63.8058 73.1688 65.1582 71.9667 66.5106C71.8164 66.8111 71.6661 66.9614 71.5159 67.1116C70.1635 68.0132 68.3603 68.3137 66.7074 67.8629L59.4946 66.0598C59.1941 65.9095 58.7433 66.0598 58.2925 66.3603C57.0904 67.1116 55.738 67.8629 54.3856 68.6143C53.9348 68.7645 53.6342 69.2153 53.6342 69.5159L51.5305 76.5784C51.0797 78.2313 49.8776 79.5837 48.5252 80.335C48.2247 80.4853 48.0744 80.4853 47.7739 80.6355C45.8204 80.7858 44.0172 80.9361 42.0638 80.9361C40.1103 80.9361 38.1569 80.7858 36.2034 80.6355C35.9029 80.4853 35.7526 80.4853 35.4521 80.335C34.0997 79.5837 32.8976 78.2313 32.4468 76.5784L30.3431 69.5159C30.3431 69.2153 30.0425 68.7645 29.5917 68.6143C28.2393 68.0132 26.8869 67.2619 25.6848 66.3603C25.234 66.0598 24.7832 66.0598 24.4827 66.0598L17.2699 67.8629C15.617 68.3137 13.9641 68.0132 12.6117 67.1116C12.3112 66.9614 12.1609 66.8111 12.0106 66.6608C10.8085 65.3084 9.90691 63.8058 9.00532 62.3031L8.40425 61.2513L8.25399 61.101C7.50266 59.5983 6.75133 58.0957 6.15027 56.593C6.15027 56.2925 6 56.1422 6 55.8417C6 54.1888 6.4508 52.5358 7.65292 51.3337L12.9122 45.9241C13.0625 45.7739 13.2128 45.3231 13.2128 44.722C13.2128 44.121 13.2128 43.2194 13.2128 42.468C13.2128 41.7167 13.2128 40.9654 13.2128 40.214C13.2128 39.7633 13.0625 39.3125 12.9122 39.1622L7.65292 33.7526C6.4508 32.5505 6 30.8976 6 29.2446C6 28.9441 6.15027 28.7939 6.15027 28.4933C6.75133 26.9907 7.50266 25.488 8.25399 23.9853L8.40425 23.8351L9.00532 22.7832C9.90691 21.2806 10.9588 19.7779 12.0106 18.5758C12.1609 18.2752 12.3112 18.125 12.6117 17.9747C13.9641 17.0731 15.617 16.7726 17.2699 17.2234L24.4827 19.0266C24.7832 19.1768 25.234 19.0266 25.6848 18.726C26.8869 17.9747 28.2393 17.0731 29.5917 16.4721C30.0425 16.3218 30.3431 15.871 30.3431 15.5705L32.4468 8.35771C32.8976 6.85505 34.0997 5.50266 35.4521 4.75133C35.7526 4.60106 35.9029 4.60106 36.2034 4.4508C38.1569 4.15027 40.1103 4 42.0638 4ZM33.6489 42.468C33.6489 45.6236 35.1516 48.3284 37.8563 49.8311C40.4109 51.3337 43.5664 51.3337 46.2712 49.8311C48.8257 48.3284 50.4787 45.6236 50.4787 42.468C50.4787 39.4627 48.8257 36.7579 46.2712 35.2553C43.5664 33.7526 40.4109 33.7526 37.8563 35.2553C35.1516 36.7579 33.6489 39.4627 33.6489 42.468ZM55.2872 42.468C55.2872 47.2765 52.7327 51.6342 48.6755 54.0385C44.468 56.2925 39.5093 56.2925 35.4521 54.0385C31.2446 51.6342 28.8404 47.2765 28.8404 42.468C28.8404 37.8098 31.2446 33.4521 35.4521 31.0478C39.5093 28.7939 44.468 28.7939 48.6755 31.0478C52.7327 33.4521 55.2872 37.8098 55.2872 42.468Z" fill="#001B41"/>
</svg>
