<svg width="20" height="20" viewBox="0 0 20 20" fill="none" xmlns="http://www.w3.org/2000/svg">
<path d="M10.954 18.8889H9.08173C8.38784 18.8889 7.79562 18.37 7.70396 17.6828L7.50229 16.1684C6.9384 15.9389 6.4134 15.6356 5.9334 15.2634L4.52173 15.845C3.8784 16.1095 3.13396 15.8556 2.78784 15.255L1.85173 13.6339C1.50507 13.0328 1.6584 12.2606 2.20784 11.8378L3.41618 10.9078C3.3734 10.6017 3.35173 10.2978 3.35173 10.0006C3.35173 9.70337 3.3734 9.39949 3.41618 9.09337L2.20784 8.16337C1.65784 7.73949 1.50507 6.96782 1.85173 6.36615L2.78784 4.74448C3.13507 4.14337 3.88007 3.88948 4.52173 4.15448L5.9334 4.73615C6.41284 4.36393 6.9384 4.0606 7.50229 3.83115L7.70396 2.31671C7.79562 1.62893 8.38784 1.1106 9.08173 1.1106H10.954C11.6478 1.1106 12.2401 1.62948 12.3317 2.31671L12.5334 3.83115C13.0973 4.0606 13.6223 4.36393 14.1023 4.73615L15.514 4.15448C16.1562 3.88837 16.9012 4.14337 17.2478 4.74448L18.1845 6.3656C18.5312 6.96726 18.3778 7.73893 17.8284 8.16226L16.6201 9.09226C16.6628 9.39837 16.6845 9.70226 16.6845 9.99949C16.6845 10.2967 16.6628 10.6006 16.6201 10.9067L17.8284 11.8367C18.3778 12.26 18.5306 13.0323 18.1845 13.6328L17.2484 15.2545C16.9012 15.8556 16.1567 16.1095 15.5145 15.8445L14.1028 15.2628C13.6234 15.635 13.0978 15.9384 12.534 16.1678L12.3323 17.6823C12.2406 18.37 11.6484 18.8884 10.9545 18.8884L10.954 18.8889ZM6.0284 14.0673C6.15951 14.0673 6.28896 14.1134 6.39173 14.2023C6.92229 14.66 7.52729 15.01 8.19173 15.2412C8.38951 15.31 8.53173 15.4845 8.55951 15.6923L8.80507 17.535C8.8234 17.6734 8.94229 17.7773 9.08173 17.7773H10.954C11.0928 17.7773 11.2117 17.6728 11.2306 17.535L11.4762 15.6923C11.504 15.4845 11.6462 15.31 11.844 15.2412C12.5078 15.0095 13.1134 14.66 13.644 14.2023C13.8028 14.0645 14.0256 14.0289 14.219 14.1095L15.9378 14.8178C16.0673 14.8712 16.2162 14.82 16.2856 14.6995L17.2217 13.0784C17.2912 12.9578 17.2606 12.8028 17.1501 12.7184L15.679 11.5856C15.5134 11.4578 15.4334 11.2473 15.4723 11.0417C15.5395 10.6884 15.5734 10.3378 15.5734 10.0006C15.5734 9.66337 15.5395 9.31282 15.4723 8.95949C15.4334 8.75393 15.5134 8.54337 15.679 8.4156L17.1501 7.28282C17.2606 7.19782 17.2912 7.04282 17.2217 6.92226L16.2856 5.30115C16.2162 5.18115 16.0667 5.1306 15.9378 5.18282L14.219 5.89115C14.0256 5.97171 13.8028 5.93504 13.644 5.79837C13.1134 5.3406 12.5084 4.9906 11.844 4.75948C11.6462 4.6906 11.504 4.51615 11.4762 4.30837L11.2306 2.4656C11.2123 2.32726 11.0934 2.22337 10.954 2.22337H9.08173C8.94284 2.22337 8.82396 2.32782 8.80507 2.4656L8.55951 4.30837C8.53173 4.51615 8.38951 4.6906 8.19173 4.75948C7.52784 4.99115 6.92229 5.3406 6.39173 5.79837C6.23229 5.9356 6.00951 5.97115 5.81673 5.89115L4.09784 5.18282C3.97062 5.1306 3.81951 5.18115 3.75007 5.30115L2.81396 6.92226C2.74451 7.04282 2.77507 7.19782 2.88562 7.28282L4.35673 8.4156C4.52229 8.54337 4.60229 8.75393 4.5634 8.95949C4.49618 9.31282 4.46229 9.66337 4.46229 10.0006C4.46229 10.3378 4.49618 10.6884 4.5634 11.0417C4.60229 11.2473 4.52229 11.4578 4.35673 11.5856L2.88562 12.7184C2.77507 12.8034 2.74451 12.9584 2.81396 13.0789L3.75007 14.7C3.81951 14.8206 3.96951 14.8723 4.09784 14.8184L5.81673 14.11C5.88507 14.0817 5.95729 14.0678 6.0284 14.0678V14.0673ZM10.0178 13.3334C8.17951 13.3334 6.68451 11.8384 6.68451 10C6.68451 8.16171 8.17951 6.66671 10.0178 6.66671C11.8562 6.66671 13.3512 8.16171 13.3512 10C13.3512 11.8384 11.8562 13.3334 10.0178 13.3334ZM10.0178 7.77782C8.79229 7.77782 7.79562 8.77448 7.79562 10C7.79562 11.2256 8.79229 12.2223 10.0178 12.2223C11.2434 12.2223 12.2401 11.2256 12.2401 10C12.2401 8.77448 11.2434 7.77782 10.0178 7.77782Z" fill="#001B41"/>
</svg>
