<svg width="16" height="16" viewBox="0 0 16 16" fill="none" xmlns="http://www.w3.org/2000/svg">
<g clip-path="url(#clip0_7043_2411)">
<path d="M7.99989 1.33335C11.6759 1.33335 14.6666 4.32401 14.6666 8.00001C14.6666 11.676 11.6759 14.6667 7.99989 14.6667C4.32389 14.6667 1.33322 11.676 1.33322 8.00001C1.33322 4.32401 4.32389 1.33335 7.99989 1.33335ZM7.99989 0.444458C3.827 0.444458 0.444336 3.82712 0.444336 8.00001C0.444336 12.1729 3.827 15.5556 7.99989 15.5556C12.1728 15.5556 15.5554 12.1729 15.5554 8.00001C15.5554 3.82712 12.1728 0.444458 7.99989 0.444458ZM7.99989 4.8889C8.36789 4.8889 8.66656 4.59024 8.66656 4.22224C8.66656 3.85424 8.36789 3.55557 7.99989 3.55557C7.63189 3.55557 7.33322 3.85424 7.33322 4.22224C7.33322 4.59024 7.63189 4.8889 7.99989 4.8889ZM9.39189 11.1111H8.44434V6.16357C8.44434 5.95068 8.27145 5.77779 8.05856 5.77779H7.05278C6.83945 5.77779 6.667 5.95068 6.667 6.16357V6.28046C6.667 6.49379 6.83989 6.66624 7.05278 6.66624H7.55589V11.1107H6.60834C6.395 11.1107 6.22256 11.2836 6.22256 11.4965V11.6133C6.22256 11.8267 6.39545 11.9991 6.60834 11.9991H9.39189C9.60522 11.9991 9.77767 11.8262 9.77767 11.6133V11.4965C9.77767 11.2836 9.60478 11.1111 9.39189 11.1111Z" fill="#001B41"/>
</g>
<defs>
<clipPath id="clip0_7043_2411">
<rect width="16" height="16" fill="white"/>
</clipPath>
</defs>
</svg>
