<svg width="84" height="84" viewBox="0 0 84 84" fill="none" xmlns="http://www.w3.org/2000/svg">
<path d="M39.7143 6H57.4286C59.1429 6 61 6.84375 62.2857 8.10938L71.8571 17.5312C73.1429 18.7969 74 20.625 74 22.3125V53.25C74 57.0469 70.8571 60 67.1429 60H39.7143C35.8571 60 32.8571 57.0469 32.8571 53.25V12.75C32.8571 9.09375 35.8571 6 39.7143 6ZM16.8571 24H28.2857V33H19.1429V69H46.5714V64.5H55.7143V71.25C55.7143 75.0469 52.5714 78 48.8571 78H16.8571C13 78 10 75.0469 10 71.25V30.75C10 27.0938 13 24 16.8571 24Z" fill="#001B41"/>
</svg>
