<svg width="16" height="16" viewBox="0 0 16 16" fill="none" xmlns="http://www.w3.org/2000/svg">
<path d="M13.3334 3.55555H8.40625L7.01825 2.16755C6.77025 1.91955 6.42714 1.77777 6.07692 1.77777H2.66669C1.68625 1.77777 0.888916 2.5751 0.888916 3.55555V12.4444C0.888916 13.4249 1.68625 14.2222 2.66669 14.2222H13.3334C14.3138 14.2222 15.1111 13.4249 15.1111 12.4444V5.33333C15.1111 4.35288 14.3138 3.55555 13.3334 3.55555ZM14.2222 12.4444C14.2222 12.9347 13.8236 13.3333 13.3334 13.3333H2.66669C2.17647 13.3333 1.7778 12.9347 1.7778 12.4444V3.55555C1.7778 3.06533 2.17647 2.66666 2.66669 2.66666H6.07692C6.19336 2.66666 6.30758 2.71377 6.3898 2.79644L7.7778 4.18444C7.94314 4.34977 8.17203 4.44444 8.4058 4.44444H13.3329C13.8231 4.44444 14.2218 4.8431 14.2218 5.33333L14.2222 12.4444ZM12.3142 8.57466C12.488 8.74844 12.488 9.02933 12.3142 9.2031L10.092 11.4253C10.0054 11.512 9.89158 11.5555 9.7778 11.5555C9.66403 11.5555 9.55025 11.512 9.46358 11.4253C9.2898 11.2515 9.2898 10.9707 9.46358 10.7969L10.9271 9.33333H6.66669C6.42136 9.33333 6.22225 9.13422 6.22225 8.88888C6.22225 8.64355 6.42136 8.44444 6.66669 8.44444H10.9271L9.46358 6.98088C9.2898 6.8071 9.2898 6.52622 9.46358 6.35244C9.63736 6.17866 9.91825 6.17866 10.092 6.35244L12.3142 8.57466Z" fill="#001B41"/>
</svg>
