<svg width="233" height="235" viewBox="0 0 233 235" fill="none" xmlns="http://www.w3.org/2000/svg">
<path d="M126.506 157.637C113.244 157.637 99.9893 152.589 89.8991 142.499C84.8443 137.444 84.8443 129.25 89.8991 124.196C94.9539 119.141 103.148 119.141 108.203 124.196C118.293 134.286 134.719 134.286 144.816 124.196L185.999 83.0063C190.892 78.1133 193.584 71.6152 193.584 64.6964C193.584 57.7776 190.892 51.2795 185.999 46.3929C175.908 36.2963 159.482 36.2963 149.385 46.3929L139.088 56.6902C134.033 61.745 125.839 61.745 120.785 56.6902C115.73 51.6354 115.73 43.4416 120.785 38.3803L131.082 28.083C151.269 7.89616 184.115 7.89616 204.302 28.083C214.088 37.8625 219.473 50.8652 219.473 64.6964C219.473 78.5275 214.088 91.5302 204.302 101.31L163.119 142.499C153.023 152.589 139.768 157.637 126.506 157.637ZM101.335 204.283L111.633 193.985C116.688 188.931 116.688 180.737 111.633 175.676C106.578 170.627 98.3841 170.621 93.3293 175.676L83.032 185.973C72.9289 196.07 56.5024 196.07 46.4187 185.973C41.5257 181.086 38.8332 174.582 38.8332 167.669C38.8332 160.757 41.5257 154.253 46.4187 149.36L87.6014 108.17C97.7046 98.0736 114.131 98.0801 124.215 108.17C129.27 113.225 137.463 113.225 142.518 108.17C147.573 103.115 147.573 94.9217 142.518 89.8669C122.331 69.68 89.4848 69.6865 69.298 89.8669L28.1152 131.056C18.3292 140.836 12.9443 153.845 12.9443 167.669C12.9443 181.494 18.3292 194.503 28.1152 204.283C38.2119 214.379 51.4605 219.421 64.7221 219.421C77.9837 219.421 91.2453 214.379 101.335 204.283Z" fill="#FA334B"/>
<path d="M28 15L203.888 219.113" stroke="#FA334B" stroke-width="30" stroke-linecap="round"/>
</svg>
