<svg width="24" height="24" viewBox="0 0 24 24" fill="none" xmlns="http://www.w3.org/2000/svg">
<path d="M13.0308 16.2372C11.6648 16.2372 10.2995 15.7172 9.26016 14.6778C8.7395 14.1572 8.7395 13.3132 9.26016 12.7925C9.78083 12.2718 10.6248 12.2718 11.1455 12.7925C12.1848 13.8318 13.8768 13.8318 14.9168 12.7925L19.1588 8.54984C19.6628 8.04584 19.9402 7.37651 19.9402 6.66384C19.9402 5.95117 19.6628 5.28184 19.1588 4.77851C18.1195 3.73851 16.4275 3.73851 15.3875 4.77851L14.3268 5.83917C13.8062 6.35984 12.9622 6.35984 12.4415 5.83917C11.9208 5.31851 11.9208 4.47451 12.4415 3.95317L13.5022 2.89251C15.5815 0.813175 18.9648 0.813175 21.0442 2.89251C22.0522 3.89984 22.6068 5.23917 22.6068 6.66384C22.6068 8.08851 22.0522 9.42784 21.0442 10.4352L16.8022 14.6778C15.7622 15.7172 14.3968 16.2372 13.0308 16.2372ZM10.4382 21.0418L11.4988 19.9812C12.0195 19.4605 12.0195 18.6165 11.4988 18.0952C10.9782 17.5752 10.1342 17.5745 9.6135 18.0952L8.55283 19.1558C7.51216 20.1958 5.82016 20.1958 4.7815 19.1558C4.2775 18.6525 4.00016 17.9825 4.00016 17.2705C4.00016 16.5585 4.2775 15.8885 4.7815 15.3845L9.0235 11.1418C10.0642 10.1018 11.7562 10.1025 12.7948 11.1418C13.3155 11.6625 14.1595 11.6625 14.6802 11.1418C15.2008 10.6212 15.2008 9.77717 14.6802 9.25651C12.6008 7.17717 9.2175 7.17784 7.13816 9.25651L2.89616 13.4992C1.88816 14.5065 1.3335 15.8465 1.3335 17.2705C1.3335 18.6945 1.88816 20.0345 2.89616 21.0418C3.93616 22.0818 5.30083 22.6012 6.66683 22.6012C8.03283 22.6012 9.39883 22.0818 10.4382 21.0418Z" fill="#FF6159"/>
<path d="M20.6704 22.1971L1.83773 3.09424C1.29937 2.54816 1.34146 1.63508 1.93181 1.05308C2.52216 0.471077 3.43575 0.442001 3.9741 0.98808L22.8068 20.091C23.3451 20.637 23.303 21.5501 22.7127 22.1321C22.1223 22.7141 21.2087 22.7432 20.6704 22.1971Z" fill="#FF6159"/>
</svg>
