<svg width="96" height="96" viewBox="0 0 96 96" fill="none" xmlns="http://www.w3.org/2000/svg">
<path d="M5.36328 11.8281L93.3828 81.2031C94.25 81.9258 94.5391 83.5156 93.6719 84.3828C92.9492 85.3945 91.5039 85.6836 90.4922 84.8164L2.61719 15.4414C1.60547 14.7188 1.31641 13.1289 2.18359 12.2617C2.90625 11.25 4.49609 10.9609 5.36328 11.8281ZM87.168 48.25L76.4727 59.0898L72.8594 56.1992L83.8438 45.0703C89.3359 39.5781 89.3359 30.9062 83.8438 25.4141C78.4961 20.0664 69.6797 20.0664 64.332 25.4141L61.0078 28.7383C60.1406 29.6055 58.6953 29.6055 57.6836 28.7383C56.8164 27.7266 56.8164 26.2812 57.6836 25.4141L61.0078 22.0898C68.2344 14.8633 79.9414 14.8633 87.168 22.0898C94.3945 29.3164 94.3945 41.0234 87.168 48.25ZM61.5859 70.9414C55.2266 72.8203 48.1445 71.375 43.0859 66.3164C39.1836 62.4141 37.3047 57.2109 37.7383 52.0078L42.5078 55.7656C42.9414 58.5117 44.2422 60.9688 46.2656 62.9922C49.1562 65.8828 53.0586 67.3281 56.8164 67.0391L61.5859 70.9414ZM49.5898 33.6523V33.5078C46.6992 30.7617 42.7969 29.3164 39.0391 29.4609L34.2695 25.7031C40.6289 23.8242 47.8555 25.2695 52.7695 30.3281C56.6719 34.2305 58.5508 39.4336 58.2617 44.6367L53.3477 40.8789C52.9141 38.1328 51.6133 35.6758 49.5898 33.6523ZM23.1406 40.4453L12.0117 51.5742C6.51953 57.0664 6.51953 65.7383 12.0117 71.2305C17.3594 76.5781 26.1758 76.5781 31.5234 71.2305L34.8477 67.9062C35.7148 67.0391 37.1602 67.0391 38.1719 67.9062C39.0391 68.7734 39.0391 70.3633 38.1719 71.2305L34.8477 74.4102C27.6211 81.6367 15.9141 81.6367 8.6875 74.4102C1.46094 67.1836 1.46094 55.4766 8.6875 48.25L19.3828 37.5547L23.1406 40.4453Z" fill="#001B41"/>
</svg>
