<svg width="84" height="84" viewBox="0 0 84 84" fill="none" xmlns="http://www.w3.org/2000/svg">
<path d="M5.06987 8.74343L18.5745 19.2365C22.5079 14.9081 28.2769 12.1537 34.7014 12.1537C41.2571 12.1537 47.2883 15.1705 51.3528 19.8924C53.3195 18.9742 55.4173 18.4496 57.7774 18.4496C66.4308 18.4496 73.5109 25.5324 73.5109 34.1892C73.5109 35.1074 73.3798 35.8944 73.2487 36.8125C79.5422 39.567 84 45.8628 84 53.0768C84 58.1922 81.7711 62.9141 78.3621 66.0621L82.6889 69.6035C84.1311 70.6528 84.3933 72.6203 83.2133 73.9319C82.1644 75.3747 80.1977 75.637 78.8866 74.4566L1.26759 13.5965C-0.174654 12.5472 -0.43688 10.5797 0.743138 9.26808C1.79204 7.82528 3.75874 7.56295 5.06987 8.74343ZM23.5568 23.1715L73.2487 62.1272C76.0021 60.0285 77.7066 56.7494 77.7066 53.0768C77.7066 48.3549 74.8221 44.2889 70.7576 42.5837C68.1353 41.4033 66.5619 38.6488 67.0864 35.7632C67.0864 35.2385 67.2175 34.7139 67.2175 34.1892C67.2175 29.0738 62.8908 24.7454 57.7774 24.7454C56.3351 24.7454 55.024 25.1389 53.844 25.6636C51.3528 26.7129 48.3372 26.0571 46.5016 23.9584C43.6171 20.6793 39.4215 18.4496 34.7014 18.4496C30.2436 18.4496 26.3102 20.2859 23.5568 23.1715ZM63.9397 70.9151H60.9241H18.9679C8.47882 70.9151 0.0875725 62.5207 0.0875725 52.0275C0.0875725 43.8954 5.3321 36.8125 12.6744 34.3204V34.1892C12.6744 33.0088 12.6744 31.8283 12.9367 30.779L18.8368 35.3697C18.4434 37.5995 16.8701 39.4358 14.7722 40.2228C9.78995 41.9279 6.381 46.6498 6.381 52.0275C6.381 58.9792 12.0189 64.6193 18.9679 64.6193H55.9418L63.9397 70.9151Z" fill="#001B41"/>
</svg>
