<?xml version="1.0" encoding="UTF-8"?>
<!-- Generated by Pixelmator Pro 3.6.8 -->
<svg width="52" height="52" viewBox="0 0 52 52" xmlns="http://www.w3.org/2000/svg">
    <path id="Path" fill="#f4f7fa" stroke="none" d="M 2 26 C 2 17.4688 6.5 9.59375 14 5.28125 C 21.4062 0.96875 30.5 0.96875 38 5.28125 C 45.4062 9.59375 50 17.4688 50 26 C 50 34.625 45.4062 42.5 38 46.8125 C 30.5 51.125 21.4062 51.125 14 46.8125 C 6.5 42.5 2 34.625 2 26 Z M 19.625 15.875 C 18.875 16.25 18.5 17 18.5 17.75 L 18.5 34.25 C 18.5 35.0938 18.875 35.8438 19.625 36.2188 C 20.2812 36.6875 21.2188 36.5938 21.875 36.2188 L 35.375 27.9688 C 36.0312 27.5 36.5 26.8438 36.5 26 C 36.5 25.25 36.0312 24.5 35.375 24.125 L 21.875 15.875 C 21.2188 15.4062 20.2812 15.4062 19.625 15.7812 L 19.625 15.875 Z"/>
</svg>
