<svg width="20" height="20" viewBox="0 0 20 20" fill="none" xmlns="http://www.w3.org/2000/svg">
<path d="M18.8889 12.5C18.8889 15.0683 18.1489 18.8889 16.1111 18.8889H9.7222C8.67831 18.8889 7.53108 18.3883 6.66664 17.9083V8.21886L7.41108 7.75331C7.82386 6.88608 8.33331 5.57997 8.33331 4.99997V1.94442C8.33331 1.48386 8.70608 1.11108 9.16664 1.11108H10.8333C11.0816 1.11108 11.3172 1.2222 11.4755 1.41331C11.7761 1.77664 13.2739 3.65664 13.2739 4.99997C13.2739 5.71831 13.0916 6.9222 12.9444 7.77775H16.9444C17.1655 7.77775 17.3772 7.86553 17.5339 8.02164C17.6728 8.16053 18.8889 9.46442 18.8889 12.5ZM5.55553 17.2155V8.88886C5.55553 8.27497 5.05831 7.77775 4.44442 7.77775H2.2222C1.60831 7.77775 1.11108 8.27497 1.11108 8.88886V17.2222C1.11108 17.8361 1.60831 18.3333 2.2222 18.3333H4.44442C5.05831 18.3333 5.55553 17.8361 5.55553 17.2222V17.2155Z" fill="#001B41"/>
</svg>
