<svg width="25" height="16" viewBox="0 0 25 16" fill="none" xmlns="http://www.w3.org/2000/svg">
<path d="M10.625 0.0390625L8.63281 2.03125C8.00781 2.1875 7.46094 2.5 6.99219 2.92969L5.97656 3.82812C5.54688 4.17969 5.03906 4.375 4.49219 4.375H3.75V9.375C4.53125 9.41406 5.27344 9.72656 5.85938 10.3125L7.22656 11.6797L7.5 11.9531L8.55469 13.0078C8.82812 13.2812 9.21875 13.2812 9.45312 13.0078C9.53125 12.9688 9.57031 12.8906 9.60938 12.8125C9.72656 12.5 9.96094 12.2656 10.2734 12.1875C10.5859 12.1484 10.8984 12.2266 11.1328 12.4609L11.5625 12.8516C12.0312 13.3203 12.7344 13.3203 13.2031 12.8516C13.3984 12.6562 13.5156 12.3828 13.5547 12.1094C13.5547 11.7578 13.75 11.4453 14.0625 11.3281C14.375 11.1719 14.7266 11.2109 15.0391 11.4062C15.3906 11.6406 15.8984 11.6406 16.2109 11.2891C16.6016 10.9375 16.6016 10.3516 16.2109 9.96094L13.2812 6.99219L11.875 8.28125C10.8203 9.29688 9.17969 9.29688 8.08594 8.32031C6.83594 7.22656 6.79688 5.3125 8.00781 4.17969L10.7422 1.60156C11.8359 0.585938 13.2422 0 14.7266 0C16.1328 0 17.5 0.546875 18.5547 1.48438L19.7266 2.5H21.25H22.8125H24.375C24.6875 2.5 25 2.8125 25 3.125V11.25C25 11.9531 24.4141 12.5 23.75 12.5H22.5C22.0312 12.5 21.6016 12.2656 21.4062 11.875H18.0859C17.9688 12.1484 17.7734 12.4219 17.5391 12.6172C16.875 13.2812 15.9766 13.5547 15.0781 13.3984C14.9609 13.7109 14.7656 13.9453 14.5312 14.1797C13.4766 15.2734 11.7969 15.3516 10.5859 14.5312C9.60938 15.3125 8.16406 15.2734 7.22656 14.3359L6.21094 13.2812L5.9375 13.0078L4.53125 11.6406C4.29688 11.4062 4.02344 11.2891 3.75 11.2891C3.75 11.9531 3.16406 12.5 2.5 12.5H1.25C0.546875 12.5 0 11.9531 0 11.25V3.125C0 2.8125 0.273438 2.5 0.625 2.5H2.1875H3.75H4.49219C4.57031 2.5 4.64844 2.5 4.72656 2.42188L5.74219 1.52344C6.83594 0.546875 8.24219 0 9.6875 0H10.1172C10.2734 0 10.4297 0.0390625 10.625 0.0390625ZM21.25 10V4.375H19.375C19.1406 4.375 18.9062 4.29688 18.75 4.14062L17.3047 2.89062C16.6016 2.22656 15.6641 1.875 14.7266 1.875C13.7109 1.875 12.7734 2.26562 12.0312 2.96875L9.29688 5.54688C8.90625 5.9375 8.90625 6.5625 9.33594 6.91406C9.6875 7.26562 10.2344 7.26562 10.5859 6.91406L13.3984 4.33594C13.7891 3.98438 14.375 3.98438 14.7266 4.375C15.0781 4.76562 15.0391 5.35156 14.6875 5.70312L14.6484 5.74219L17.5391 8.63281C17.9297 9.02344 18.2031 9.53125 18.3203 10H21.25ZM2.5 10.625C2.5 10.3125 2.1875 10 1.875 10C1.52344 10 1.25 10.3125 1.25 10.625C1.25 10.9766 1.52344 11.25 1.875 11.25C2.1875 11.25 2.5 10.9766 2.5 10.625ZM23.125 11.25C23.4375 11.25 23.75 10.9766 23.75 10.625C23.75 10.3125 23.4375 10 23.125 10C22.7734 10 22.5 10.3125 22.5 10.625C22.5 10.9766 22.7734 11.25 23.125 11.25Z" fill="#001B41"/>
</svg>
