<svg width="14" height="14" viewBox="0 0 14 14" fill="none" xmlns="http://www.w3.org/2000/svg">
<path d="M2 1.5C1.71875 1.5 1.5 1.75 1.5 2V12C1.5 12.2812 1.71875 12.5 2 12.5H12C12.25 12.5 12.5 12.2812 12.5 12V2C12.5 1.75 12.25 1.5 12 1.5H2ZM0 2C0 0.90625 0.875 0 2 0H12C13.0938 0 14 0.90625 14 2V12C14 13.125 13.0938 14 12 14H2C0.875 14 0 13.125 0 12V2ZM10.5312 5.53125L6.53125 9.53125C6.21875 9.84375 5.75 9.84375 5.46875 9.53125L3.46875 7.53125C3.15625 7.25 3.15625 6.78125 3.46875 6.5C3.75 6.1875 4.21875 6.1875 4.53125 6.5L6 7.96875L9.46875 4.46875C9.75 4.1875 10.2188 4.1875 10.5 4.46875C10.8125 4.78125 10.8125 5.25 10.5 5.53125H10.5312Z" fill="#001B41"/>
</svg>
