<?xml version="1.0" encoding="UTF-8" standalone="no"?>
<svg
   width="32"
   height="32"
   viewBox="0 0 32 32"
   fill="none"
   version="1.1"
   id="svg2"
   sodipodi:docname="Folder_export_ icon.svg"
   inkscape:version="1.3.2 (091e20e, 2023-11-25)"
   xmlns:inkscape="http://www.inkscape.org/namespaces/inkscape"
   xmlns:sodipodi="http://sodipodi.sourceforge.net/DTD/sodipodi-0.dtd"
   xmlns="http://www.w3.org/2000/svg"
   xmlns:svg="http://www.w3.org/2000/svg">
  <defs
     id="defs2" />
  <sodipodi:namedview
     id="namedview2"
     pagecolor="#ffffff"
     bordercolor="#000000"
     borderopacity="0.25"
     inkscape:showpageshadow="2"
     inkscape:pageopacity="0.0"
     inkscape:pagecheckerboard="0"
     inkscape:deskcolor="#d1d1d1"
     inkscape:zoom="7.375"
     inkscape:cx="15.932203"
     inkscape:cy="15.932203"
     inkscape:window-width="1312"
     inkscape:window-height="840"
     inkscape:window-x="50"
     inkscape:window-y="38"
     inkscape:window-maximized="0"
     inkscape:current-layer="svg2" />
  <path
     id="path1"
     d="M 7 5.5 C 5.3125017 5.5 4 6.8593816 4 8.5 L 4 23.5 C 4 25.187498 5.3125017 26.5 7 26.5 L 25 26.5 C 26.640598 26.5 28 25.187498 28 23.5 L 28 11.5 C 28 9.8593816 26.640598 8.5 25 8.5 L 17.5 8.5 C 16.984401 8.5 16.56255 8.3124996 16.28125 7.9375 L 15.390625 6.71875 C 14.828126 5.9687507 13.937499 5.5 13 5.5 L 7 5.5 z M 17.25 12.25 L 20.375 12.25 C 20.707 12.25 21 12.543 21 12.875 L 21 16 C 21 16.3516 20.707 16.625 20.375 16.625 C 20.0234 16.625 19.75 16.3516 19.75 16 L 19.75 14.398438 L 15.804688 18.324219 C 15.570288 18.578118 15.160181 18.578118 14.925781 18.324219 C 14.671882 18.089819 14.671882 17.679712 14.925781 17.445312 L 18.851562 13.5 L 17.25 13.5 C 16.8984 13.5 16.625 13.2266 16.625 12.875 C 16.625 12.543 16.8984 12.25 17.25 12.25 z M 12.5625 12.875 L 14.75 12.875 C 15.082 12.875 15.375 13.168 15.375 13.5 C 15.375 13.8516 15.082 14.125 14.75 14.125 L 12.5625 14.125 C 12.3867 14.125 12.25 14.2812 12.25 14.4375 L 12.25 20.6875 C 12.25 20.8633 12.3867 21 12.5625 21 L 18.8125 21 C 18.9688 21 19.125 20.8633 19.125 20.6875 L 19.125 18.5 C 19.125 18.168 19.3984 17.875 19.75 17.875 C 20.082 17.875 20.375 18.168 20.375 18.5 L 20.375 20.6875 C 20.375 21.566399 19.671899 22.25 18.8125 22.25 L 12.5625 22.25 C 11.683601 22.25 11 21.566399 11 20.6875 L 11 14.4375 C 11 13.578101 11.683601 12.875 12.5625 12.875 z "
     style="fill:#1474c4;fill-opacity:1" />
</svg>
