<svg width="80" height="80" viewBox="0 0 96 96" fill="none" xmlns="http://www.w3.org/2000/svg">
<g clip-path="url(#clip0_1_48)">
<path fill-rule="evenodd" clip-rule="evenodd" d="M16 16H40L48 24H80C84.4 24 88 27.6 88 32V72C88 76.4 84.4 80 80 80H16C11.6 80 8 76.4 8 72L8.04 24C8.04 19.6 11.6 16 16 16ZM35.5833 39.5833V64.6667H60.6667V52.125H64.25V64.6667C64.25 66.6375 62.6375 68.25 60.6667 68.25H35.5833C33.5946 68.25 32 66.6375 32 64.6667V39.5833C32 37.6125 33.5946 36 35.5833 36H48.125V39.5833H35.5833ZM51.7083 39.5833V36H64.25V48.5417H60.6667V42.1096L43.0546 59.7217L40.5283 57.1954L58.1404 39.5833H51.7083Z" fill="#00679E"/>
</g>
<defs>
<clipPath id="clip0_1_48">
<rect width="96" height="96" fill="white"/>
</clipPath>
</defs>
</svg>
