<svg width="13" height="13" viewBox="0 0 13 13" fill="none" xmlns="http://www.w3.org/2000/svg">
<path d="M12.4766 1.85156L7.78906 6.53906L12.4375 11.1875C12.8281 11.5391 12.8281 12.125 12.4375 12.4766C12.0859 12.8672 11.5 12.8672 11.1484 12.4766L6.46094 7.82812L1.8125 12.4766C1.46094 12.8672 0.875 12.8672 0.523438 12.4766C0.132812 12.125 0.132812 11.5391 0.523438 11.1484L5.17188 6.5L0.523438 1.85156C0.132812 1.5 0.132812 0.914062 0.523438 0.523438C0.875 0.171875 1.46094 0.171875 1.85156 0.523438L6.5 5.21094L11.1484 0.5625C11.5 0.171875 12.0859 0.171875 12.4766 0.5625C12.8281 0.914062 12.8281 1.5 12.4766 1.85156Z" fill="#001B41"/>
</svg>
